<?xml version="1.0" encoding="UTF-8" standalone="no"?>
<svg
   xmlns:dc="http://purl.org/dc/elements/1.1/"
   xmlns:cc="http://creativecommons.org/ns#"
   xmlns:rdf="http://www.w3.org/1999/02/22-rdf-syntax-ns#"
   xmlns:svg="http://www.w3.org/2000/svg"
   xmlns="http://www.w3.org/2000/svg"
   xmlns:sodipodi="http://sodipodi.sourceforge.net/DTD/sodipodi-0.dtd"
   xmlns:inkscape="http://www.inkscape.org/namespaces/inkscape"
   viewBox="0 0 140 49"
   version="1.1"
   id="svg25"
   inkscape:version="0.92.4 (5da689c313, 2019-01-14)"
   sodipodi:docname="logo.svg">
  <defs
     id="defs24" />
  <sodipodi:namedview
     pagecolor="#ffffff"
     bordercolor="#666666"
     borderopacity="1"
     objecttolerance="10"
     gridtolerance="10"
     guidetolerance="10"
     inkscape:pageopacity="0"
     inkscape:pageshadow="2"
     inkscape:window-width="1920"
     inkscape:window-height="1137"
     id="namedview22"
     showgrid="false"
     inkscape:zoom="0.73214285"
     inkscape:cx="-149.93697"
     inkscape:cy="-81.766646"
     inkscape:window-x="-8"
     inkscape:window-y="-8"
     inkscape:window-maximized="1"
     inkscape:current-layer="svg25" />
  <metadata
     id="metadata2">
    <rdf:RDF>
      <cc:Work
         rdf:about="">
        <dc:format>image/svg+xml</dc:format>
        <dc:type
           rdf:resource="http://purl.org/dc/dcmitype/StillImage" />
        <dc:title />
      </cc:Work>
    </rdf:RDF>
  </metadata>
  <g
     id="CryptoPro.ru Logo"
     style="fill:none;fill-rule:evenodd;stroke:none;stroke-width:1">
    <g
       id="CryptoPro.ru"
       transform="translate(-110,-54)">
      <g
         id="Head"
         transform="translate(110,24)">
        <g
           id="logo"
           transform="translate(0,30)">
          <g
             id="Group">
            <path
               d="m 32.44641,23.52013 c 0.392771,-0.415867 0.817486,-0.869148 1.274145,-1.358403 l 1.644409,-1.758441 c 0.564835,-0.602215 1.118054,-1.200114 1.660382,-1.795135 0.539424,-0.591423 1.046178,-1.136079 1.509371,-1.624615 0.132134,-0.12807 0.187311,-0.302907 0.149558,-0.479902 -0.0392,-0.193544 -0.213446,-0.388526 -0.51111,-0.388526 h -0.975029 c -0.13286,0 -0.329608,0.04605 -0.481344,0.240311 -0.434879,0.458317 -0.901702,0.961242 -1.40047,1.506618 l -3.011483,3.283766 c -0.48207,0.527388 -0.923483,1.004412 -1.316254,1.421718 -0.07115,0.07123 -0.110353,0.09785 -0.109627,0.10001 -0.01742,0.0036 -0.07768,0.01295 -0.218528,0.01295 h -0.572821 v -6.017119 c 0,-0.318016 -0.222885,-0.548254 -0.531438,-0.548254 h -0.823294 c -0.308554,0 -0.531438,0.222323 -0.531438,0.527388 v 14.010687 c 0,0.330247 0.232323,0.569839 0.553218,0.569839 h 0.801514 c 0.308553,0 0.531438,-0.230958 0.531438,-0.548974 v -6.209944 h 0.52926 c 0.09728,0 0.150284,0.0072 0.1619,0.0014 0.01815,0.01439 0.0559,0.04461 0.119065,0.106485 l 6.222619,6.376867 c 0.109627,0.144618 0.233049,0.228079 0.370264,0.253981 0.06389,0.01367 0.130682,0.02015 0.206187,0.02015 h 1.081752 c 0.244665,0 0.442866,-0.15613 0.490056,-0.387807 0.03775,-0.175556 -0.01597,-0.349674 -0.141572,-0.474146 z"
               id="Fill-1"
               inkscape:connector-curvature="0"
               style="fill:#0055a2" />
            <path
               d="m 47.719588,20.983907 c 0,0.598376 -0.10387,1.105632 -0.310206,1.507419 -0.208441,0.407527 -0.482152,0.729674 -0.836573,0.985814 -0.359334,0.259726 -0.779726,0.450575 -1.249947,0.566089 -0.489873,0.119819 -1.017644,0.180804 -1.568575,0.180804 -0.539702,0 -0.936934,-0.0036 -1.191696,-0.01004 -0.09194,-0.0022 -0.179667,-0.0057 -0.26178,-0.0093 v -6.291556 c 0.135452,-0.0072 0.286344,-0.01363 0.45408,-0.02081 0.736212,-0.0287 1.861937,-0.07605 2.747638,0.187262 0.448464,0.134168 0.842889,0.333627 1.171342,0.591918 0.320032,0.25327 0.576197,0.576135 0.764286,0.95855 0.187387,0.382415 0.281431,0.838013 0.281431,1.353879 m 0.390214,-3.476894 c -0.470924,-0.434791 -1.060455,-0.779897 -1.751751,-1.025992 -0.682874,-0.243224 -1.475232,-0.365913 -2.352511,-0.365913 -0.64638,0 -1.245736,0.0072 -1.799475,0.02152 -0.556546,0.01435 -0.968516,0.0287 -1.214154,0.04233 -0.298977,0 -0.514437,0.23031 -0.514437,0.546718 v 13.972147 c 0,0.304211 0.21546,0.525194 0.514437,0.525194 h 0.795166 c 0.298274,0 0.513734,-0.220983 0.513734,-0.525194 v -4.708084 c 0.07931,0.0029 0.162121,0.0072 0.248446,0.0122 0.263183,0.01507 0.663924,0.02153 1.20503,0.02153 0.761478,0 1.496287,-0.1026 2.184074,-0.304928 0.703226,-0.205916 1.327147,-0.521606 1.854217,-0.937025 0.536193,-0.424029 0.965708,-0.962137 1.277318,-1.599256 0.313013,-0.641425 0.472327,-1.395493 0.472327,-2.242116 0,-0.665819 -0.120012,-1.299351 -0.355825,-1.881225 -0.238619,-0.589766 -0.600058,-1.112089 -1.076596,-1.551903"
               id="Fill-3"
               inkscape:connector-curvature="0"
               style="fill:#0055a2" />
            <path
               d="m 61.5517,16.115108 h -0.853799 c -0.222001,0 -0.41189,0.118722 -0.483796,0.271262 l -5.497681,8.455164 c -0.277851,0.430278 -0.5564,0.864153 -0.832855,1.300906 -0.279247,0.437472 -0.543136,0.856957 -0.793761,1.259172 l -0.340681,0.551158 c 0.0049,-0.279896 0.0077,-0.573463 0.0077,-0.88214 V 16.641802 c 0,-0.30508 -0.21502,-0.526694 -0.511721,-0.526694 h -0.790269 c -0.279946,0 -0.491476,0.226651 -0.491476,0.526694 v 14.03222 c 0,0.318031 0.215021,0.549 0.511023,0.549 h 0.916629 c 0.184303,0 0.351153,-0.08922 0.483796,-0.270543 l 5.416001,-8.287515 1.644069,-2.596054 c 0.120774,-0.189955 0.235266,-0.373435 0.342776,-0.551158 -0.007,0.30436 -0.01326,0.620952 -0.01815,0.947618 -0.007,0.495754 -0.01047,1.027485 -0.01047,1.594472 v 8.636486 c 0,0.305079 0.21502,0.526694 0.511721,0.526694 h 0.790968 c 0.279945,0 0.490777,-0.226652 0.490777,-0.526694 V 16.641802 c 0,-0.300043 -0.210832,-0.526694 -0.490777,-0.526694"
               id="Fill-5"
               inkscape:connector-curvature="0"
               style="fill:#0055a2" />
            <path
               d="M 75.013633,16.115108 H 64.98493 c -0.303921,0 -0.524498,0.221614 -0.524498,0.526694 v 14.03222 c 0,0.318031 0.220577,0.549 0.524498,0.549 h 0.815488 c 0.305359,0 0.526654,-0.230969 0.526654,-0.549 V 17.918963 h 7.345856 v 12.777365 c 0,0.305079 0.220577,0.526694 0.526654,0.526694 h 0.814051 c 0.305358,0 0.525935,-0.221615 0.525935,-0.526694 v -14.03366 c 0,-0.317311 -0.220577,-0.54756 -0.525935,-0.54756"
               id="Fill-7"
               inkscape:connector-curvature="0"
               style="fill:#0055a2" />
            <path
               d="m 88.380511,17.89306 0.129044,-0.147503 c 0.07194,-0.08203 0.149809,-0.225212 0.114952,-0.435314 L 88.508813,16.557617 C 88.452449,16.288514 88.233669,16.115108 87.95185,16.115108 H 77.292429 c -0.237321,0 -0.442753,0.143905 -0.553255,0.430277 l -0.183182,0.759101 c -0.03634,0.215859 0.04153,0.359045 0.113469,0.441071 l 0.201723,0.173406 h 4.766444 v 12.755059 c 0,0.318031 0.237321,0.549 0.565121,0.549 h 0.795767 c 0.327799,0 0.56512,-0.230969 0.56512,-0.549 V 17.918963 h 4.543956 z"
               id="Fill-9"
               inkscape:connector-curvature="0"
               style="fill:#0055a2" />
            <path
               d="m 98.87657,23.605412 c 0,0.891243 -0.10729,1.715223 -0.318363,2.446015 -0.207566,0.719581 -0.514709,1.340368 -0.91161,1.846247 -0.391291,0.498172 -0.876548,0.887741 -1.444551,1.158196 -0.568704,0.271858 -1.226466,0.409188 -1.956455,0.409188 -0.779778,0 -1.472601,-0.156248 -2.057434,-0.46454 -0.592547,-0.312496 -1.091828,-0.733594 -1.484522,-1.253486 -0.400407,-0.529001 -0.709653,-1.156094 -0.91722,-1.864465 -0.211073,-0.71818 -0.318362,-1.484705 -0.318362,-2.277155 0,-0.964113 0.129729,-1.818221 0.385681,-2.538503 0.252446,-0.711873 0.593949,-1.313042 1.016796,-1.78599 0.418639,-0.468744 0.912311,-0.828184 1.466991,-1.067811 0.559588,-0.241028 1.166159,-0.362943 1.804286,-0.362943 0.699135,0 1.345677,0.143636 1.920693,0.427404 0.576418,0.285871 1.075699,0.684548 1.483119,1.186924 0.413029,0.508681 0.741209,1.122462 0.975423,1.825928 0.235616,0.706268 0.355528,1.485406 0.355528,2.314991 m 1.39406,-2.949091 c -0.301531,-0.910162 -0.74261,-1.708217 -1.312015,-2.373146 -0.57151,-0.667032 -1.267138,-1.200937 -2.067953,-1.585601 -1.536413,-0.741301 -3.638726,-0.790348 -5.308375,-0.05886 -0.796607,0.350332 -1.497846,0.859013 -2.084081,1.512031 -0.584132,0.648815 -1.04765,1.44687 -1.377934,2.371745 -0.328179,0.918569 -0.494373,1.962558 -0.494373,3.103938 0,1.06711 0.14726,2.071861 0.437573,2.986226 0.293118,0.923474 0.731392,1.736243 1.298694,2.415887 0.57221,0.683146 1.276254,1.225459 2.0953,1.612225 0.818346,0.386066 1.757304,0.582252 2.788125,0.582252 0.90039,0 1.759407,-0.16886 2.55391,-0.502376 0.800815,-0.336318 1.499949,-0.839394 2.080575,-1.495215 0.57782,-0.650215 1.033625,-1.459481 1.357594,-2.406077 0.31907,-0.936787 0.48175,-2.025617 0.48175,-3.234962 0,-1.040485 -0.15076,-2.025617 -0.44879,-2.928071"
               id="Fill-11"
               inkscape:connector-curvature="0"
               style="fill:#0055a2" />
            <path
               d="m 113.28701,16.115108 h -10.02726 c -0.30536,0 -0.52594,0.221614 -0.52594,0.526694 v 14.03222 c 0,0.318031 0.22058,0.549 0.52594,0.549 h 0.81405 c 0.30536,0 0.52665,-0.230969 0.52665,-0.549 V 17.918963 h 7.34658 v 12.777365 c 0,0.305079 0.22129,0.526694 0.52665,0.526694 h 0.81333 c 0.30536,0 0.52594,-0.221615 0.52594,-0.526694 v -14.03366 c 0,-0.317311 -0.22058,-0.54756 -0.52594,-0.54756"
               id="Fill-13"
               inkscape:connector-curvature="0"
               style="fill:#ff1635" />
            <path
               d="m 124.07665,20.983907 c 0,0.596941 -0.10387,1.104197 -0.30951,1.507419 -0.20423,0.40107 -0.48566,0.732544 -0.83657,0.986531 -0.35933,0.259009 -0.77973,0.449858 -1.24995,0.565372 -0.48987,0.119819 -1.01764,0.180804 -1.56857,0.180804 -0.54041,0 -0.93764,-0.0036 -1.1938,-0.01004 -0.0912,-0.0022 -0.17827,-0.0057 -0.26108,-0.0093 v -6.291556 c 0.13545,-0.0065 0.28634,-0.01363 0.45478,-0.02081 0.73551,-0.02798 1.86404,-0.07605 2.74694,0.187262 0.44986,0.134168 0.84429,0.333627 1.17274,0.593353 0.32003,0.251117 0.5762,0.573265 0.76288,0.957115 0.18669,0.382415 0.28214,0.838013 0.28214,1.353879 m 0.39021,-3.476894 c -0.46952,-0.434791 -1.05975,-0.779897 -1.75175,-1.025992 -0.68287,-0.243224 -1.47453,-0.365913 -2.35181,-0.365913 -0.64568,0 -1.24574,0.0072 -1.80018,0.02152 -0.55584,0.01435 -0.96851,0.0287 -1.21415,0.04233 -0.29828,0 -0.51444,0.23031 -0.51444,0.546718 v 13.972147 c 0,0.304211 0.21616,0.525194 0.51444,0.525194 h 0.79516 c 0.29758,0 0.51304,-0.220983 0.51304,-0.525194 v -4.708084 c 0.0793,0.0029 0.16212,0.0072 0.24914,0.0122 0.26319,0.01507 0.66393,0.02153 1.20574,0.02153 0.76007,0 1.49418,-0.1026 2.18407,-0.304928 0.70252,-0.205916 1.32574,-0.520889 1.85422,-0.937025 0.53409,-0.421877 0.9643,-0.959984 1.27661,-1.599256 0.31372,-0.641425 0.47233,-1.395493 0.47233,-2.242116 0,-0.663666 -0.11931,-1.297199 -0.35442,-1.881942 -0.23792,-0.588332 -0.60076,-1.109937 -1.078,-1.551186"
               id="Fill-15"
               inkscape:connector-curvature="0"
               style="fill:#ff1635" />
            <path
               d="m 138.15634,23.606363 c 0,0.889031 -0.10659,1.712207 -0.31767,2.44571 -0.20828,0.720892 -0.51544,1.341602 -0.91236,1.846017 -0.38991,0.497408 -0.8752,0.886928 -1.44253,1.158051 -0.57014,0.271823 -1.22863,0.409136 -1.95796,0.409136 -0.77982,0 -1.47268,-0.156228 -2.05684,-0.464481 -0.59188,-0.311757 -1.09189,-0.733503 -1.48601,-1.25263 -0.40183,-0.531737 -0.70969,-1.158752 -0.91586,-1.864932 -0.21179,-0.717389 -0.31908,-1.483819 -0.31908,-2.276871 0,-0.966094 0.12973,-1.819395 0.385,-2.538185 0.25175,-0.710384 0.59398,-1.311478 1.01685,-1.785768 0.41936,-0.468685 0.91306,-0.82808 1.46847,-1.067677 0.55892,-0.240998 1.16622,-0.362898 1.80298,-0.362898 0.69987,0 1.34575,0.143618 1.92009,0.427351 0.57856,0.285835 1.07716,0.685163 1.48531,1.186775 0.41375,0.510019 0.74124,1.124424 0.97407,1.8257 0.23563,0.704079 0.35554,1.483119 0.35554,2.314702 m 1.39344,-2.948022 c -0.30015,-0.909347 -0.74125,-1.708704 -1.31068,-2.37355 -0.57225,-0.666948 -1.26791,-1.200787 -2.06877,-1.585403 -0.80436,-0.388119 -1.72233,-0.58428 -2.72796,-0.58428 -0.91657,0 -1.78545,0.177246 -2.5807,0.525432 -0.79665,0.350288 -1.49792,0.858905 -2.08419,1.511842 -0.58487,0.651535 -1.04911,1.44879 -1.37661,2.370748 -0.32889,0.916353 -0.49439,1.960911 -0.49439,3.10425 0,1.068378 0.14656,2.073004 0.43689,2.985854 0.29383,0.92546 0.73213,1.738128 1.29946,2.414884 0.57014,0.683061 1.27562,1.225307 2.09401,1.612725 0.81909,0.386017 1.7574,0.582179 2.78898,0.582179 0.90044,0 1.7588,-0.168839 2.55405,-0.502313 0.79875,-0.335576 1.49932,-0.838589 2.08138,-1.495029 0.57715,-0.650834 1.03298,-1.459999 1.35627,-2.405776 C 139.838,25.881833 140,24.793138 140,23.585346 c 0,-1.039654 -0.15148,-2.024664 -0.45022,-2.927005"
               id="Fill-17"
               inkscape:connector-curvature="0"
               style="fill:#ff1635" />
            <path
               d="m 46.542016,34.690536 -0.210789,0.471942 c -3.735101,6.351865 -10.566525,10.291657 -17.862255,10.291657 -8.067675,0 -15.4688,-4.796174 -18.8535346,-12.216725 l -2.5650777,1.341953 c 3.8753893,8.362285 12.2827483,13.765961 21.4186123,13.765961 8.073371,0 15.463814,-4.076784 19.85051,-10.92713 L 140,37.416042 v -2.727658 z"
               id="Fill-19"
               inkscape:connector-curvature="0"
               style="fill:#0055a2" />
            <polygon
               id="Fill-21"
               points="0,12.086331 0,37.266187 21.151079,24.676259 "
               style="fill:#ff1635" />
            <path
               d="m 45.84715,13.154982 h 3.324244 C 45.052574,5.3296324 37.210459,0.47385742 28.647797,0.47385742 c -9.044906,0 -17.368561,5.51869198 -21.2046618,14.05969958 l 2.5388346,1.370516 C 13.333006,8.324845 20.660445,3.4265847 28.647797,3.4265847 c 6.921338,0 13.41613,3.7057423 17.199353,9.7283973"
               id="Fill-23"
               inkscape:connector-curvature="0"
               style="fill:#0055a2" />
          </g>
        </g>
      </g>
    </g>
  </g>
</svg>
