<svg xmlns="http://www.w3.org/2000/svg" xmlns:xlink="http://www.w3.org/1999/xlink" viewBox="0 0 815.72 115.71" xmlns:v="https://vecta.io/nano"><style><![CDATA[.B{stroke-miterlimit:10}.C{stroke-width:.75}.D{stroke:#000}.E{stroke-width:1.231}]]></style><g fill="none" class="D"><g class="B"><path stroke-width=".978" d="M3.29 22.34h809.02v89.81H3.29z"/><path d="M579.59 39.17a.59.59 0 0 1-.07.29c-.04.07-.13.13-.23.19a2.97 2.97 0 0 1-.46.1l-.72.03c-.3 0-.55-.01-.72-.03-.17-.01-.3-.04-.4-.09-.1-.04-.16-.1-.19-.16a.68.68 0 0 1-.07-.25l-.52-3.05c-.07-.45-.17-.82-.29-1.11-.12-.3-.26-.55-.45-.74s-.39-.32-.64-.39a3.15 3.15 0 0 0-.87-.12h-.59l-1.1 5.49c-.01.07-.04.14-.1.2a.53.53 0 0 1-.26.13c-.12.04-.27.06-.45.09-.17.03-.4.03-.66.03-.27 0-.49-.01-.66-.03s-.3-.04-.4-.09a.57.57 0 0 1-.2-.13c-.04-.04-.04-.12-.03-.2l2.59-12.97c.01-.07.04-.14.1-.2s.14-.1.27-.13a2.37 2.37 0 0 1 .45-.07l.68-.03.66.03a1.71 1.71 0 0 1 .4.07c.1.03.16.07.2.13.03.06.04.12.03.2l-1.04 5.16h.62a2.51 2.51 0 0 0 .84-.13c.25-.09.49-.22.72-.4.23-.19.45-.42.66-.72.22-.3.45-.65.66-1.08l1.47-2.73c.06-.1.12-.19.19-.25a.79.79 0 0 1 .29-.16c.13-.04.29-.06.48-.09s.45-.03.74-.03l.66.03c.17.01.3.04.39.07.1.03.14.07.19.12a.25.25 0 0 1 .04.14c0 .1-.03.23-.09.36s-.16.32-.3.56l-1.4 2.44-.74 1.17c-.23.32-.46.59-.69.82a3.99 3.99 0 0 1-.71.55c-.23.14-.49.26-.75.36v.01c.25.12.48.25.66.4.19.14.36.33.51.56a3.99 3.99 0 0 1 .38.85c.1.33.2.75.3 1.24l.55 2.83.07.39c.01.14 0 .25 0 .34zm12.01-6.1a8.74 8.74 0 0 1-.14 1.58 8.87 8.87 0 0 1-.45 1.58 6.06 6.06 0 0 1-.8 1.45c-.32.45-.71.84-1.16 1.19s-.97.62-1.55.81a6.27 6.27 0 0 1-1.97.3c-.72 0-1.33-.09-1.85-.25s-.95-.4-1.3-.74c-.35-.32-.61-.72-.77-1.19-.17-.48-.25-1.01-.25-1.62a8.74 8.74 0 0 1 .14-1.58c.1-.53.25-1.06.45-1.58s.46-1 .8-1.45c.32-.46.71-.85 1.16-1.19a5.84 5.84 0 0 1 1.55-.81c.58-.2 1.23-.3 1.97-.3.72 0 1.33.09 1.85.25s.95.4 1.3.74c.35.32.61.72.77 1.19.16.48.25 1.01.25 1.62zm-2.76.17a3.26 3.26 0 0 0-.09-.8c-.06-.23-.16-.42-.3-.58a1.17 1.17 0 0 0-.53-.36 2.57 2.57 0 0 0-.8-.13 2.24 2.24 0 0 0-.95.2 2.27 2.27 0 0 0-.75.56c-.22.25-.42.51-.58.81s-.3.64-.4.97-.19.68-.23 1.03l-.07 1a3.26 3.26 0 0 0 .09.8 1.5 1.5 0 0 0 .3.59 1.17 1.17 0 0 0 .53.36 2.57 2.57 0 0 0 .8.13 2.24 2.24 0 0 0 .95-.2 2.27 2.27 0 0 0 .75-.56 3.55 3.55 0 0 0 .58-.82 5.3 5.3 0 0 0 .4-.98c.1-.35.19-.68.23-1.03a6.41 6.41 0 0 0 .07-.99zm12.85 6.11c-.01.07-.04.13-.1.19s-.14.1-.25.13c-.12.04-.25.06-.42.07l-.65.03a5.85 5.85 0 0 1-.64-.03c-.17-.01-.3-.04-.39-.07s-.16-.07-.19-.13a.21.21 0 0 1-.01-.19l.74-3.71h-3.73l-.74 3.71c-.01.07-.04.13-.1.19s-.13.1-.25.13-.25.06-.42.07l-.65.03a5.48 5.48 0 0 1-.64-.03c-.16-.01-.3-.04-.39-.07s-.16-.07-.19-.13-.03-.12-.03-.19l1.88-9.47c.01-.07.04-.13.1-.19s.13-.1.25-.13.25-.06.42-.07c.18-.02.4-.03.66-.03l.64.03c.16.01.3.04.39.07.1.03.16.07.19.13s.03.12.03.19l-.71 3.54h3.74l.69-3.53c.01-.07.04-.13.1-.19.04-.06.13-.1.23-.13s.25-.06.42-.07l.65-.03.64.03c.16.02.3.04.39.07.1.03.16.07.19.13s.04.12.03.19l-1.88 9.46zm17.5 0c-.01.07-.04.13-.1.19s-.13.1-.25.13-.26.06-.42.07l-.65.03a5.85 5.85 0 0 1-.64-.03c-.17-.01-.3-.04-.39-.07a.34.34 0 0 1-.19-.13.21.21 0 0 1-.01-.19l1.14-5.68.07-.48c.03-.16.03-.32.03-.48 0-.33-.06-.59-.19-.81-.13-.2-.35-.3-.66-.3-.29 0-.58.1-.88.27-.3.19-.59.43-.88.75-.27.32-.53.68-.74 1.1a4.53 4.53 0 0 0-.46 1.34l-.85 4.28c-.01.07-.04.13-.1.19s-.13.1-.25.13c-.12.04-.26.06-.42.07l-.65.03a5.85 5.85 0 0 1-.64-.03c-.16-.01-.3-.04-.39-.07s-.16-.07-.19-.13-.04-.12-.03-.19l1.13-5.68a3.86 3.86 0 0 0 .09-.51l.03-.51c0-.3-.06-.56-.19-.77s-.35-.3-.65-.3c-.29 0-.58.1-.88.27s-.59.43-.88.75c-.27.32-.53.68-.74 1.1a4.53 4.53 0 0 0-.46 1.34l-.85 4.3c-.01.07-.04.13-.1.19s-.13.1-.25.13-.25.06-.42.07l-.65.03a5.48 5.48 0 0 1-.64-.03c-.16-.02-.3-.04-.39-.07s-.16-.07-.19-.13-.03-.12-.03-.19l1.89-9.47c.01-.07.04-.13.09-.19.04-.06.12-.1.22-.13s.22-.06.38-.07l.55-.03c.22 0 .39.02.54.03.13.01.25.04.32.07s.13.07.16.13.03.12.01.19l-.3 1.56c.14-.25.35-.49.59-.75a4.68 4.68 0 0 1 .84-.69c.32-.2.65-.38 1.03-.51s.75-.2 1.16-.2c.4 0 .77.06 1.07.16s.55.26.74.46c.2.2.35.42.45.68s.16.55.2.85c.16-.25.38-.51.62-.77.25-.25.53-.48.85-.68s.65-.38 1.03-.51.75-.2 1.14-.2c.49 0 .91.07 1.24.2a1.94 1.94 0 0 1 .81.58c.2.25.36.53.45.85.1.33.14.68.14 1.07 0 .25-.01.49-.04.75l-.13.77-1.24 5.87zm11.39.01c-.01.07-.04.13-.09.19-.04.06-.12.1-.22.13a1.64 1.64 0 0 1-.36.07l-.55.03c-.22 0-.39-.01-.53-.03a1.02 1.02 0 0 1-.32-.07c-.07-.03-.13-.07-.16-.13s-.03-.12-.01-.19l.29-1.53c-.14.25-.33.49-.58.75s-.53.48-.85.68-.66.38-1.06.51c-.38.13-.75.19-1.16.19-.49 0-.91-.07-1.26-.2-.33-.13-.62-.32-.82-.56-.22-.23-.36-.52-.46-.85s-.14-.69-.14-1.08a6.34 6.34 0 0 1 .04-.74l.12-.77 1.17-5.87c.01-.07.04-.13.1-.19s.13-.1.25-.13.25-.06.42-.07c.17-.03.39-.04.65-.04l.64.03c.16.01.29.04.39.07a.34.34 0 0 1 .19.13c.03.06.04.12.03.19l-1.13 5.68-.07.49-.03.49c0 .16.01.32.04.46a1.07 1.07 0 0 0 .16.36c.07.12.16.17.27.22.12.04.25.07.39.07.29 0 .59-.1.91-.29s.62-.45.9-.77c.27-.32.53-.72.75-1.17s.39-.94.51-1.46l.81-4.09c.01-.07.04-.13.1-.19s.14-.1.25-.13c.12-.03.25-.06.42-.07l.65-.03.64.03c.16.01.3.04.39.07.1.03.16.07.19.13s.03.12.03.19l-1.9 9.49zm11.76-.01c-.01.07-.04.13-.1.19s-.14.1-.25.13c-.1.03-.25.06-.42.07l-.65.03a5.85 5.85 0 0 1-.64-.03c-.17-.01-.3-.04-.39-.07-.1-.03-.16-.07-.19-.13a.21.21 0 0 1-.01-.19l.74-3.71h-3.77l-.74 3.71c-.01.07-.04.13-.1.19s-.13.1-.25.13-.25.06-.42.07l-.65.03a5.48 5.48 0 0 1-.64-.03c-.16-.01-.3-.04-.39-.07-.1-.03-.16-.07-.19-.13s-.03-.12-.03-.19l1.88-9.47c.01-.07.04-.13.1-.19s.13-.1.25-.13.25-.06.42-.07a5.92 5.92 0 0 1 .65-.03l.64.03c.16.01.3.04.39.07.1.03.16.07.19.13s.04.13.04.2l-.71 3.54h3.74l.71-3.54c.01-.07.04-.13.1-.19.04-.06.13-.1.23-.13s.25-.06.42-.07l.65-.03.64.03c.16.01.3.04.39.07.1.03.16.07.19.13s.04.12.03.19l-1.86 9.46zm12.52-7.38a2.71 2.71 0 0 1-.35 1.37c-.23.4-.58.75-1.07 1.06-.49.3-1.1.52-1.85.66-.75.16-1.63.23-2.66.23h-.98c-.03.16-.04.32-.06.48l-.03.45c0 .58.14 1 .45 1.29.3.29.77.43 1.43.43.46 0 .88-.03 1.26-.1.38-.06.69-.14.98-.22.27-.07.51-.16.69-.22.19-.06.32-.1.4-.1.09 0 .14.03.19.07.03.04.06.13.06.23 0 .12-.01.26-.03.4l-.09.46-.14.42a.87.87 0 0 1-.2.3c-.09.09-.23.17-.46.25l-.82.23c-.32.07-.68.13-1.07.17l-1.2.07c-.68 0-1.27-.07-1.78-.22-.51-.14-.93-.36-1.27-.65-.33-.29-.59-.66-.77-1.11-.16-.45-.25-.98-.25-1.59a9.18 9.18 0 0 1 .13-1.52 8.98 8.98 0 0 1 .42-1.6c.2-.53.45-1.03.77-1.52.32-.48.68-.91 1.13-1.27a5.88 5.88 0 0 1 1.53-.88c.58-.22 1.24-.33 1.98-.33.65 0 1.2.07 1.66.23.46.14.84.36 1.14.61a2.31 2.31 0 0 1 .66.85c.12.39.2.73.2 1.07zm-2.62.19c0-.29-.12-.52-.33-.71s-.55-.29-.97-.29c-.36 0-.66.06-.94.19-.27.13-.53.3-.74.51a3.35 3.35 0 0 0-.55.77c-.14.29-.27.61-.36.94h.9c.56 0 1.04-.04 1.42-.12s.68-.17.93-.3c.23-.13.4-.27.51-.45.07-.15.13-.34.13-.54zm12.5 7.19c-.01.07-.04.13-.1.19s-.14.1-.25.13c-.12.04-.25.06-.42.07l-.65.03a5.85 5.85 0 0 1-.64-.03c-.17-.01-.3-.04-.39-.07-.1-.03-.16-.07-.19-.13a.21.21 0 0 1-.01-.19l.72-3.71h-3.74l-.74 3.71c-.01.07-.04.13-.1.19s-.13.1-.25.13-.25.06-.42.07l-.65.03a5.48 5.48 0 0 1-.64-.03c-.16-.01-.3-.04-.39-.07-.1-.03-.16-.07-.19-.13s-.03-.12-.03-.19l1.88-9.47c.01-.07.04-.13.1-.19s.13-.1.25-.13.25-.06.42-.07l.65-.03.64.03c.16.01.3.04.39.07.1.03.16.07.19.13s.03.12.03.19l-.71 3.54h3.74l.71-3.53c.01-.07.04-.13.1-.19.04-.06.13-.1.23-.13s.25-.06.42-.07l.65-.03.64.03c.16.01.3.04.39.07.1.03.16.07.19.13s.04.12.03.19l-1.86 9.46zm17.51 0c-.01.07-.04.13-.1.19s-.13.1-.25.13c-.12.04-.26.06-.42.07l-.65.03a5.85 5.85 0 0 1-.64-.03c-.17-.01-.3-.04-.39-.07a.34.34 0 0 1-.19-.13.21.21 0 0 1-.01-.19l1.14-5.68.07-.48c.03-.16.03-.32.03-.48 0-.33-.06-.59-.19-.81-.13-.2-.35-.3-.66-.3-.29 0-.58.1-.88.27s-.59.43-.88.75c-.27.32-.53.68-.74 1.1a4.53 4.53 0 0 0-.46 1.34l-.85 4.28c-.01.07-.04.13-.1.19s-.13.1-.25.13c-.12.04-.26.06-.42.07l-.65.03a5.85 5.85 0 0 1-.64-.03c-.16-.01-.3-.04-.39-.07s-.16-.07-.19-.13-.04-.12-.03-.19l1.13-5.68a3.86 3.86 0 0 0 .09-.51l.03-.51c0-.3-.06-.56-.19-.77-.13-.2-.35-.3-.65-.3-.29 0-.58.1-.88.27-.3.19-.59.43-.88.75-.27.32-.53.68-.74 1.1a4.53 4.53 0 0 0-.46 1.34l-.85 4.28c-.01.07-.04.13-.1.19s-.13.1-.25.13-.25.06-.42.07l-.65.03a5.48 5.48 0 0 1-.64-.03c-.16-.01-.3-.04-.39-.07-.1-.03-.16-.07-.19-.13s-.03-.12-.03-.19l1.89-9.47c.01-.07.04-.13.09-.19.04-.06.12-.1.22-.13s.22-.06.38-.07l.55-.03c.22 0 .39.01.53.03.13.01.25.04.32.07s.13.07.16.13.03.12.01.19l-.3 1.56c.14-.25.35-.49.59-.75a4.68 4.68 0 0 1 .84-.69c.32-.2.65-.38 1.03-.51s.75-.2 1.16-.2c.4 0 .77.06 1.07.16.3.12.55.26.74.46.2.2.35.42.45.68s.16.55.2.85c.16-.25.38-.51.62-.77.25-.25.53-.48.85-.68s.65-.38 1.03-.51.75-.2 1.14-.2c.49 0 .91.07 1.24.2a1.94 1.94 0 0 1 .81.58c.2.25.36.53.45.85.1.33.14.68.14 1.07 0 .25-.01.49-.04.75l-.13.77-1.23 5.89z" stroke-width=".591"/><g stroke-width=".529"><path d="M611.45 62.16v1.72h.17l1.52-1.72h.69l-1.69 1.78c.74.09 1.01.48 1.24 1 .16.39.29.75.49 1.1h-.62c-.16-.27-.29-.61-.4-.91-.2-.52-.49-.87-1.24-.87h-.17v1.78h-.56v-3.87l.57-.01h0zm6.68 1.9c0 1.33-.93 2.04-2.07 2.04-1.17 0-1.99-.8-1.99-1.97 0-1.23.88-2.04 2.07-2.04 1.19.02 1.99.83 1.99 1.97zm-3.46.05c0 .82.52 1.56 1.42 1.56.91 0 1.43-.74 1.43-1.6 0-.77-.46-1.58-1.42-1.58-.95.02-1.43.79-1.43 1.62zm7.1-1.95v3.47l.39.01-.04 1.33h-.45l-.04-.93h-2.8l-.04.93h-.45l-.04-1.33.33-.01c.16-.26.33-.55.43-.85.14-.45.22-.97.22-1.63v-.98c-.01-.01 2.49-.01 2.49-.01zm-1.95 1.15c0 .62-.06 1.14-.23 1.58-.09.27-.23.53-.36.74h1.97v-3.06h-1.37v.74zm6.95-1.15v.42h-1.92v1.04l.55-.03c.42 0 .84.07 1.16.26.33.19.56.49.56.94 0 .36-.14.64-.36.84-.36.3-.97.43-1.58.43-.4 0-.71-.01-.9-.04v-3.86h2.49 0zm-1.92 3.49l.48.03c.36 0 .72-.1.94-.29.14-.14.25-.32.25-.58 0-.29-.14-.51-.36-.64-.23-.14-.53-.2-.85-.2l-.46.01v1.66h0v.01zm5.31-1.43h-1.73v1.4h1.92v.42h-2.5v-3.87h2.4v.42h-1.82v1.23h1.73c0-.02 0 .4 0 .4zm.83-1.83c.3-.17.69-.29 1.17-.29.77 0 1.3.35 1.3.94 0 .48-.39.84-.91.94v.01c.62.06 1.08.42 1.08.97 0 .81-.8 1.13-1.6 1.13-.4 0-.82-.07-1.17-.26l.14-.39c.25.12.64.23 1 .23.65 0 1.03-.3 1.03-.74 0-.58-.64-.75-1.2-.75h-.26v-.38h.26c.58 0 1.04-.32 1.04-.71s-.32-.61-.8-.61c-.33 0-.68.12-.93.26l-.15-.35zm7.16 1.67c0 1.33-.93 2.04-2.07 2.04-1.17 0-1.99-.8-1.99-1.97 0-1.23.88-2.04 2.07-2.04 1.21.02 1.99.83 1.99 1.97zm-3.46.05c0 .82.52 1.56 1.42 1.56.91 0 1.43-.74 1.43-1.6 0-.77-.46-1.58-1.42-1.58-.95.02-1.43.79-1.43 1.62zm7.42-1.95v3.87h-.58v-3.45h-2.07v3.45h-.57v-3.87h3.22zm1.72 2.66l-.46 1.21h-.59l1.5-3.87h.69l1.52 3.87h-.61l-.48-1.21h-1.57zm1.45-.39l-.43-1.11c-.1-.26-.16-.48-.23-.71h-.01a6.2 6.2 0 0 1-.23.69l-.43 1.13c-.02 0 1.33 0 1.33 0z"/><use xlink:href="#B"/><path d="M651.43 62.16v1.62h2.15v-1.62h.58v3.87h-.57v-1.81h-2.15v1.81h-.58v-3.87h.57zm7.53 1.9c0 1.33-.93 2.04-2.07 2.04-1.17 0-1.99-.8-1.99-1.97 0-1.23.88-2.04 2.07-2.04 1.2.02 1.99.83 1.99 1.97zm-3.45.05c0 .82.52 1.56 1.42 1.56.91 0 1.43-.74 1.43-1.6 0-.77-.46-1.58-1.42-1.58-.95.02-1.43.79-1.43 1.62z"/><use xlink:href="#B" x="12.66"/><path d="M664.6 62.58h-1.36v-.42h3.3v.42h-1.36v3.45h-.58c0 .01 0-3.45 0-3.45zm2.97-.42v1.63l-.04 1.63h.01l.82-1.29 1.45-1.99h.58v3.87h-.55v-1.65l.06-1.58h-.01c-.22.42-.52.87-.82 1.3L667.68 66h-.61v-3.86h.5v.02zm-77.17-5.68c1.08-1.95 3.32-3.24 5.57-3.09.68.14.91 1.11.39 1.56-.87.3-1.82.27-2.63.71-1.84.93-2.83 3.25-2.12 5.2.27.97 1.01 1.72 1.78 2.33.77.49.55 1.5.68 2.27-1.45-.48-2.78-1.39-3.56-2.7-1.16-1.85-1.2-4.37-.11-6.28zm7.1-2.93c.9.45 1.81.91 2.54 1.65.77.8 1.23 1.65 1.66 2.57l-1.89.07c-.58-1.08-1.47-1.95-2.6-2.46.16-.6.25-1.22.29-1.83zm.67 5.75c2.24-1.17 5.17-.78 7 .95 1.29 1.21 2.1 3.02 1.91 4.8-.12.74-1.37.88-1.6.13-.25-.93-.26-1.97-.84-2.78-1.08-1.72-3.43-2.47-5.29-1.68-.91.33-1.53 1.08-2.14 1.79-.51.66-1.46.42-2.18.51.61-1.52 1.62-2.97 3.14-3.72zm-13.61 3.69c.71-1.95 2.26-3.51 4.24-4.18l.06 1.88c-1.08.59-1.98 1.49-2.49 2.63l-1.81-.33zm7.67-4.19c1.13.43 2.15 1.08 3.01 1.94l-.9 1.84c-.55-.69-1.2-1.29-1.91-1.79a13.42 13.42 0 0 1-.2-1.99zm7.57 2.7c.58-.29 1.27-.19 1.89-.25-.42 1.13-1.08 2.14-1.92 2.99l-1.86-.87c.69-.56 1.25-1.25 1.89-1.87zm-15.41 3.25c-.06-1.2 1.39-1.21 1.6-.51.29.98.27 2.11.91 2.96 1.14 1.75 3.6 2.43 5.48 1.49.94-.4 1.47-1.3 2.18-1.98.59-.27 1.27-.17 1.91-.22-.82 2.46-3.12 4.39-5.77 4.41-3.36.21-6.43-2.72-6.31-6.15zm10.83-.69c.52-.48 1.49.01 1.4.72.1.71-.93 1.23-1.43.71-.45-.32-.44-1.16.03-1.43zm2.35 1.36c-.07-.64.61-1.08 1.17-.77.98.58 1.85 1.34 2.39 2.37a6.16 6.16 0 0 1-.09 6.13c-1.1 1.86-3.22 3.11-5.44 2.98-.19-.01-.46-.19-.49-.22-.25-.17-.23-.78-.12-1.03.14-.3.38-.46.66-.48 2.04-.07 3.99-1.5 4.35-3.56.45-1.84-.59-3.64-2.08-4.65a.8.8 0 0 1-.32-.53 1.05 1.05 0 0 0-.03-.24zm-7.79 2.87c.45-1.13 1.1-2.15 1.97-2.99l1.82.88c-.58.48-1.1 1.01-1.58 1.58-.49.71-1.47.45-2.21.53zm15.37-2.05l1.81.3c-.45.94-.88 1.91-1.65 2.63-.71.71-1.65 1.14-2.54 1.56l-.09-1.88c1.08-.57 1.96-1.47 2.47-2.61zm-7.98.72c.55.71 1.26 1.24 1.86 1.88.25.58.16 1.26.2 1.88-1.13-.42-2.14-1.08-2.96-1.95l.9-1.81zm-7.39 4.83l1.86-.09c.59 1.08 1.49 1.95 2.62 2.47a17.92 17.92 0 0 0-.26 1.81c-1.96-.68-3.51-2.24-4.22-4.19z"/></g><g class="C"><use xlink:href="#C"/><use xlink:href="#D"/><use xlink:href="#E"/><use xlink:href="#F"/><use xlink:href="#F" x="28.42"/><use xlink:href="#G"/><use xlink:href="#H"/><use xlink:href="#I"/><use xlink:href="#I" x="2.34"/><use xlink:href="#I" x="4.68"/><use xlink:href="#I" x="7.03"/><use xlink:href="#I" x="9.37"/><use xlink:href="#I" x="11.71"/><use xlink:href="#I" x="14.06"/><use xlink:href="#I" x="16.4"/><path d="M357.71 89.18h-40.46a.2.2 0 0 1-.2-.2V57.4a.2.2 0 0 1 .2-.2h40.46a.2.2 0 0 1 .2.2v31.58a.2.2 0 0 1-.2.2z"/><path d="M356.83 88.29h-38.68a.2.2 0 0 1-.2-.2v-29.8a.2.2 0 0 1 .2-.2h38.68a.2.2 0 0 1 .2.2v29.8c-.01.11-.1.2-.2.2z"/><path d="M337.48 83.85h14.9a.2.2 0 0 0 .2-.2v-4.49a.2.2 0 0 1 .2-.2h.5a.2.2 0 0 0 .2-.2v-5.58-.69a.2.2 0 0 0-.2-.2h-.5a.2.2 0 0 1-.2-.2v-4.94a.2.2 0 0 0-.2-.2H347a.2.2 0 0 1-.2-.2V62.7a.2.2 0 0 0-.2-.2h-3.16a.2.2 0 0 1-.2-.2v-1.38a.2.2 0 0 0-.2-.2h-5.58-5.58a.2.2 0 0 0-.2.2v1.38a.2.2 0 0 1-.2.2h-3.16a.2.2 0 0 0-.2.2v4.05a.2.2 0 0 1-.2.2h-5.38a.2.2 0 0 0-.2.2v4.94a.2.2 0 0 1-.2.2h-.5a.2.2 0 0 0-.2.2v.69 5.58a.2.2 0 0 0 .2.2h.5a.2.2 0 0 1 .2.2v4.49a.2.2 0 0 0 .2.2h14.94 0zm-11.29-19.09h-5.82a.2.2 0 0 1-.2-.2v-2.27a.2.2 0 0 1 .2-.2h5.82a.2.2 0 0 1 .2.2v2.27c-.01.11-.09.2-.2.2z"/><use xlink:href="#F" x="73.92"/><path d="M322.28 78.13h-1.22v-4.88h1.22c.3 0 .55.25.55.55v3.78a.55.55 0 0 1-.55.55zm30.41 0h1.22v-4.88h-1.22c-.3 0-.55.25-.55.55v3.78a.54.54 0 0 0 .55.55z"/><use xlink:href="#I" x="45.5"/><use xlink:href="#I" x="47.85"/><use xlink:href="#I" x="50.19"/><use xlink:href="#I" x="52.53"/><use xlink:href="#I" x="54.88"/><use xlink:href="#I" x="57.22"/><use xlink:href="#I" x="59.56"/><use xlink:href="#I" x="61.91"/><use xlink:href="#C" x="91.01"/><use xlink:href="#D" x="91.01"/><use xlink:href="#E" x="91.01"/><use xlink:href="#F" x="91.01"/><use xlink:href="#F" x="119.43"/><use xlink:href="#G" x="91.01"/><use xlink:href="#H" x="91.01"/><use xlink:href="#J"/><use xlink:href="#J" x="2.34"/><use xlink:href="#J" x="4.68"/><path d="M382.29 83.11H381l.36-3.61c0-.05.05-.09.1-.09h.42c.05 0 .09.04.1.09l.31 3.61z"/><use xlink:href="#J" x="9.37"/><use xlink:href="#J" x="11.71"/><use xlink:href="#J" x="14.06"/><use xlink:href="#J" x="16.4"/></g></g><circle cx="66.09" cy="42.42" r="3.95" class="C"/><circle cx="66.09" cy="42.42" r="3.33" class="C"/><circle cx="53.73" cy="42.42" r="3.95" class="C"/><circle cx="53.73" cy="42.42" r="3.33" class="C"/><g class="E"><circle cx="87.04" cy="42.42" r="6.48"/><circle cx="87.04" cy="42.42" r="5.46"/><circle cx="107.32" cy="42.42" r="6.48"/><circle cx="107.32" cy="42.42" r="5.46"/></g><g class="B"><path d="M291.28 71.79l11.8-54.37h25.09m8.19 54.37l11.8-54.37h25.09m8.61 54.37l11.8-54.37h25.09"/><g class="C"><use xlink:href="#C" x="136.42"/><use xlink:href="#D" x="136.42"/><use xlink:href="#E" x="136.42"/><use xlink:href="#F" x="136.42"/><use xlink:href="#F" x="164.84"/><use xlink:href="#G" x="136.42"/><use xlink:href="#H" x="136.42"/><use xlink:href="#J" x="45.41"/><use xlink:href="#J" x="47.75"/><use xlink:href="#J" x="50.09"/><use xlink:href="#J" x="52.44"/><use xlink:href="#J" x="54.78"/><use xlink:href="#J" x="57.12"/><use xlink:href="#J" x="59.47"/><use xlink:href="#J" x="61.81"/></g><path d="M427.27 71.79l11.8-54.37h25.09"/><g class="C"><use xlink:href="#C" x="182.73"/><use xlink:href="#D" x="182.73"/><use xlink:href="#E" x="182.73"/><use xlink:href="#F" x="182.73"/><use xlink:href="#F" x="211.15"/><use xlink:href="#G" x="182.73"/><use xlink:href="#H" x="182.73"/><use xlink:href="#J" x="91.72"/><use xlink:href="#J" x="94.06"/><use xlink:href="#J" x="96.4"/><use xlink:href="#J" x="98.75"/><use xlink:href="#J" x="101.09"/><use xlink:href="#J" x="103.43"/><use xlink:href="#J" x="105.78"/><use xlink:href="#J" x="108.12"/></g><path d="M473.58 71.79l11.8-54.37h25.09"/><g class="C"><use xlink:href="#C" x="228.14"/><use xlink:href="#D" x="228.14"/><use xlink:href="#E" x="228.14"/><path d="M508.82 64.76H503a.2.2 0 0 1-.2-.2v-2.27a.2.2 0 0 1 .2-.2h5.82a.2.2 0 0 1 .2.2v2.27a.2.2 0 0 1-.2.2z"/><use xlink:href="#F" x="256.56"/><use xlink:href="#G" x="228.14"/><use xlink:href="#H" x="228.14"/><use xlink:href="#J" x="137.13"/><use xlink:href="#J" x="139.47"/><use xlink:href="#J" x="141.81"/><use xlink:href="#J" x="144.16"/><use xlink:href="#J" x="146.5"/><use xlink:href="#J" x="148.84"/><use xlink:href="#J" x="151.19"/><use xlink:href="#J" x="153.53"/></g><path d="M518.99 71.79l11.8-54.37h25.09"/><g stroke-width=".811"><path d="M233.65 67.8V54.38c0-.09.07-.15.15-.15h28c.09 0 .15.07.15.15v13.41c0 .09-.07.15-.15.15h-28c-.08.01-.15-.06-.15-.14z"/><path d="M234.03 67.02V55.16a.4.4 0 0 1 .4-.4h26.75a.4.4 0 0 1 .4.4v11.86a.4.4 0 0 1-.4.4h-26.75a.4.4 0 0 1-.4-.4z"/><path d="M236.1 57.05h23.41v4.39H236.1z"/><use xlink:href="#K"/><use xlink:href="#K" x="-5.34"/><use xlink:href="#K" x="-10.69"/><use xlink:href="#K" x="-16.04"/><path d="M249.68 66.79h7.03v.61h-7.03zm-10.94 0h7.03v.61h-7.03zm-5.09 23.45V76.83c0-.09.07-.15.15-.15h28c.09 0 .15.07.15.15v13.41c0 .09-.07.15-.15.15h-28c-.08.01-.15-.06-.15-.15z"/><path d="M234.03 89.46V77.61a.4.4 0 0 1 .4-.4h26.75a.4.4 0 0 1 .4.4v11.86a.4.4 0 0 1-.4.4h-26.75c-.22-.01-.4-.19-.4-.41z"/><path d="M236.1 79.5h23.41v4.39H236.1z"/><use xlink:href="#K" y="22.44"/><use xlink:href="#K" x="-5.34" y="22.44"/><use xlink:href="#K" x="-10.69" y="22.44"/><use xlink:href="#K" x="-16.04" y="22.44"/><path d="M249.67 89.23h7.03v.61h-7.03zm-10.94 0h7.03v.61h-7.03z"/></g></g></g><text transform="matrix(1.0317 0 0 1 103.292 100.0716)" fill="none" stroke-width=".5" font-family="ArialMT" font-size="6.817" class="B D">VGA</text><g fill="none" class="D"><g class="B"><path d="M119.12 87.71h-18.84c-2.72 0-5.02-1.76-5.42-4.14l-.95-5.66c-.41-2.46 1.74-4.66 4.54-4.66h22.43c2.79 0 4.93 2.18 4.55 4.63l-.89 5.65c-.37 2.4-2.69 4.18-5.42 4.18z"/><path d="M118.47 86.21h-17.55c-2.43 0-4.5-1.57-4.87-3.69l-.82-4.62c-.29-1.66 1.15-3.15 3.05-3.15h22.79c1.88 0 3.32 1.48 3.05 3.13l-.77 4.6c-.36 2.14-2.43 3.73-4.88 3.73z"/><path d="M120.92 90.81H98.49c-3.24 0-5.98-2.52-6.46-5.92l-1.13-8.08c-.49-3.51 2.07-6.66 5.41-6.66h26.72c3.32 0 5.87 3.11 5.42 6.61l-1.06 8.07c-.45 3.43-3.21 5.98-6.47 5.98z"/></g><circle cx="98.87" cy="78.17" r=".95"/><circle cx="101.27" cy="80.48" r=".95"/><circle cx="103.69" cy="78.17" r=".95"/><circle cx="103.69" cy="82.81" r=".95"/><circle cx="106.1" cy="80.48" r=".95"/><circle cx="108.48" cy="78.16" r=".95"/><circle cx="108.48" cy="82.81" r=".95"/><circle cx="110.9" cy="80.48" r=".95"/><circle cx="113.25" cy="78.16" r=".95"/><circle cx="113.25" cy="82.8" r=".95"/><circle cx="115.67" cy="80.48" r=".95"/><circle cx="118.06" cy="78.16" r=".95"/><circle cx="118.06" cy="82.81" r=".95"/><circle cx="120.47" cy="80.48" r=".95"/><circle cx="98.87" cy="82.81" r=".95"/><path d="M88.03 81l-3.85-3.85-5.27 1.41-1.41 5.26 3.86 3.86 5.26-1.41zm46.8-3.85L130.97 81l1.41 5.27 5.27 1.41 3.85-3.86-1.41-5.26z" class="B"/><circle cx="82.87" cy="82.41" r="3.04"/><circle cx="136.24" cy="82.41" r="3.04"/><g class="B"><g stroke-width=".848"><use xlink:href="#L"/><use xlink:href="#L" x="1.82"/><use xlink:href="#L" x="3.65"/><use xlink:href="#L" x="5.48"/><use xlink:href="#L" x="7.3"/><use xlink:href="#L" x="9.13"/><use xlink:href="#L" x="10.96"/><use xlink:href="#L" x="12.78"/><use xlink:href="#L" x="14.61"/><use xlink:href="#L" x="16.44"/><path d="M752.75 80.86h16.3v1.74h-16.3z"/><path d="M753.12 80.88h15.55l-.18.56c-.14.44-.65.74-1.23.74h-12.74c-.58 0-1.09-.31-1.23-.74l-.17-.56z"/><path d="M740.5 52.93h42.83v29.16H740.5z"/><path d="M783.56 83.72h-43.39a1.25 1.25 0 0 1-1.25-1.25V52.19a1.25 1.25 0 0 1 1.25-1.25h43.39a1.25 1.25 0 0 1 1.25 1.25v30.27c0 .7-.56 1.26-1.25 1.26z"/><use xlink:href="#L" x="-51.92" y="-0.18"/><use xlink:href="#L" x="-50.1" y="-0.18"/><use xlink:href="#L" x="-48.27" y="-0.18"/><use xlink:href="#L" x="-46.44" y="-0.18"/><use xlink:href="#L" x="-44.62" y="-0.18"/><use xlink:href="#L" x="-42.79" y="-0.18"/><use xlink:href="#L" x="-40.96" y="-0.18"/><use xlink:href="#L" x="-39.13" y="-0.18"/><use xlink:href="#L" x="-37.3" y="-0.18"/><use xlink:href="#L" x="-35.47" y="-0.18"/><path d="M700.83 80.68h16.3v1.74h-16.3z"/><path d="M701.21 80.7h15.55l-.18.56c-.14.44-.65.74-1.23.74h-12.74c-.58 0-1.09-.31-1.23-.74l-.17-.56z"/><path d="M688.58 52.76h42.83v29.16h-42.83z"/><path d="M731.65 83.54h-43.39a1.25 1.25 0 0 1-1.25-1.25V52.02a1.25 1.25 0 0 1 1.25-1.25h43.39a1.25 1.25 0 0 1 1.25 1.25v30.27c-.01.69-.57 1.25-1.25 1.25z"/></g><path d="M709.9 64.76l11.8-49.55h25.09m15.02 49.55l11.8-49.55h25.09"/></g><circle cx="33.5" cy="74.87" r="23.56" class="E"/><circle stroke-width="3" cx="33.5" cy="75.69" r="14.18"/></g><path d="M310.59 11.5c0 .15-.04.26-.11.33s-.16.1-.26.1h-3.47c0 .29.03.56.09.79a1.6 1.6 0 0 0 .29.6c.14.17.32.3.54.39s.49.13.81.13c.25 0 .48-.02.67-.06s.37-.09.51-.14l.35-.14c.09-.04.16-.06.21-.06.03 0 .05.01.07.02s.04.03.05.06a1.64 1.64 0 0 1 .03.11c.01.04.01.11.01.18 0 .05 0 .09-.01.13s-.01.07-.01.1-.02.06-.03.08-.03.05-.05.07a.76.76 0 0 1-.19.11c-.11.05-.24.1-.41.14l-.58.13c-.22.04-.46.06-.71.06-.43 0-.81-.06-1.14-.18a2.03 2.03 0 0 1-.82-.54c-.22-.24-.39-.54-.5-.9s-.17-.78-.17-1.25c0-.45.06-.86.18-1.22s.29-.67.51-.92a2.2 2.2 0 0 1 .8-.58c.31-.13.66-.2 1.05-.2.41 0 .77.07 1.06.2s.53.31.72.54.33.49.41.79.13.63.13.97v.16h-.03zm-.98-.29c.01-.51-.1-.91-.34-1.2s-.59-.43-1.06-.43c-.24 0-.45.04-.63.13a1.33 1.33 0 0 0-.45.36c-.12.15-.22.32-.28.52s-.1.4-.11.62h2.87z"/><use xlink:href="#M"/><path d="M326.41 10.7a8.63 8.63 0 0 1-.14 1.59c-.09.48-.24.89-.46 1.24s-.49.61-.83.8-.77.28-1.27.28c-.48 0-.88-.08-1.2-.25s-.59-.42-.79-.75-.34-.74-.42-1.22a10.17 10.17 0 0 1-.13-1.66 8.63 8.63 0 0 1 .14-1.59c.09-.48.25-.9.46-1.24.21-.35.49-.61.83-.8s.77-.28 1.27-.28c.48 0 .88.08 1.21.25s.59.42.79.75.34.74.42 1.22.12 1.04.12 1.66zm-1.03.07l-.04-1.02a7.21 7.21 0 0 0-.12-.8 2.14 2.14 0 0 0-.21-.59c-.09-.16-.18-.3-.3-.41s-.25-.19-.4-.23-.32-.07-.51-.07c-.33 0-.6.08-.81.23a1.59 1.59 0 0 0-.49.64c-.12.27-.2.59-.24.96a10.95 10.95 0 0 0-.06 1.18 9.69 9.69 0 0 0 .09 1.44c.06.39.15.72.28.97s.29.43.49.54.44.17.72.17a1.5 1.5 0 0 0 .58-.11 1.19 1.19 0 0 0 .43-.3 1.72 1.72 0 0 0 .3-.47 3.36 3.36 0 0 0 .19-.61 5 5 0 0 0 .1-.72c.02-.26 0-.52 0-.8zm29.92.73c0 .15-.04.26-.11.33s-.16.1-.26.1h-3.47c0 .29.03.56.09.79a1.6 1.6 0 0 0 .29.6c.14.17.32.3.54.39s.49.13.81.13c.25 0 .48-.02.67-.06s.37-.09.51-.14l.35-.14c.09-.04.16-.06.21-.06.03 0 .05.01.07.02s.04.03.05.06a1.64 1.64 0 0 1 .03.11c.01.04.01.11.01.18 0 .05 0 .09-.01.13s-.01.07-.01.1-.02.06-.03.08-.03.05-.05.07a.76.76 0 0 1-.19.11c-.11.05-.24.1-.41.14l-.58.13c-.22.04-.46.06-.71.06-.43 0-.81-.06-1.14-.18a2.03 2.03 0 0 1-.82-.54c-.22-.24-.39-.54-.5-.9s-.17-.78-.17-1.25c0-.45.06-.86.18-1.22s.29-.67.51-.92a2.2 2.2 0 0 1 .8-.58c.31-.13.66-.2 1.05-.2.41 0 .77.07 1.06.2s.53.31.72.54.33.49.41.79.13.63.13.97v.16h-.03zm-.97-.29c.01-.51-.1-.91-.34-1.2s-.59-.43-1.06-.43c-.24 0-.45.04-.63.13a1.33 1.33 0 0 0-.45.36c-.12.15-.22.32-.28.52s-.1.4-.11.62h2.87z"/><use xlink:href="#N"/><path d="M370.89 14.11c0 .07-.01.14-.02.19s-.03.09-.05.12-.04.05-.07.07-.05.02-.08.02h-3.96c-.03 0-.05-.01-.08-.02s-.05-.04-.07-.07-.04-.07-.05-.12a.92.92 0 0 1-.02-.19c0-.07.01-.13.02-.18s.03-.09.04-.13.04-.06.06-.08.05-.03.08-.03h1.58V7.94l-1.46.87c-.07.04-.13.06-.18.07s-.08 0-.11-.03-.05-.07-.06-.13-.01-.13-.01-.22c0-.07 0-.12.01-.17s.01-.09.03-.12.03-.06.05-.08.05-.05.08-.07l1.75-1.12.06-.03a.2.2 0 0 1 .09-.02c.04 0 .08-.01.12-.01h.18l.23.01.15.03c.04.01.06.03.07.05s.02.04.02.07v6.66h1.37c.03 0 .06.01.09.03s.05.04.07.08.03.08.04.13.03.1.03.17z"/><use xlink:href="#O"/><use xlink:href="#M" x="90.69"/><path d="M416.86 14.08c0 .07 0 .13-.01.19s-.02.1-.04.14-.04.06-.07.08-.06.03-.1.03h-4.19a.59.59 0 0 1-.14-.02c-.04-.01-.08-.04-.11-.07s-.05-.08-.06-.13a1.18 1.18 0 0 1-.02-.22l.01-.21a.75.75 0 0 1 .04-.16c.02-.04.05-.09.08-.13a1.3 1.3 0 0 1 .12-.14l1.52-1.56c.35-.36.63-.68.84-.97s.38-.54.49-.78c.12-.23.19-.45.23-.64s.05-.37.05-.54a1.51 1.51 0 0 0-.08-.48c-.05-.15-.14-.28-.25-.4a1.28 1.28 0 0 0-.4-.27 1.4 1.4 0 0 0-.56-.1c-.25 0-.47.03-.66.1s-.37.14-.51.22l-.37.22c-.1.07-.17.1-.22.1-.03 0-.05-.01-.08-.02s-.04-.04-.05-.08-.03-.08-.03-.14l-.01-.21c0-.06 0-.11.01-.15s.01-.08.02-.11.02-.06.04-.09a.73.73 0 0 1 .09-.1c.04-.04.13-.1.24-.17s.26-.14.43-.21.37-.13.57-.17.43-.07.66-.07c.37 0 .69.05.96.16s.5.25.69.42.32.39.41.63a2.13 2.13 0 0 1 .13.76c0 .24-.02.48-.06.72s-.13.5-.27.78-.34.59-.6.93-.61.74-1.04 1.18l-1.2 1.25h3.3c.03 0 .06.01.09.03s.05.04.08.08.04.08.05.13-.02.12-.02.19z"/><use xlink:href="#O" x="45.73"/><use xlink:href="#N" x="91.7"/><path d="M462.52 12.34c0 .35-.06.66-.18.94a1.96 1.96 0 0 1-.52.72c-.23.2-.51.35-.84.46s-.71.16-1.13.16c-.25 0-.49-.02-.71-.06a3.89 3.89 0 0 1-.59-.15c-.17-.06-.31-.12-.43-.18s-.18-.1-.21-.13-.05-.05-.07-.08a.3.3 0 0 1-.04-.1l-.03-.14c-.01-.05-.01-.13-.01-.21 0-.14.01-.24.04-.29s.07-.08.12-.08c.04 0 .11.03.21.09l.41.2c.17.07.36.14.58.2a2.83 2.83 0 0 0 .74.09c.26 0 .5-.03.7-.1s.37-.16.5-.28c.14-.12.24-.26.31-.43a1.4 1.4 0 0 0 .1-.54c0-.21-.04-.41-.13-.58s-.21-.32-.38-.45-.37-.22-.62-.29-.52-.1-.83-.1h-.74c-.03 0-.06-.01-.09-.02s-.06-.04-.08-.07-.04-.07-.05-.12a1.03 1.03 0 0 1-.02-.2c0-.07.01-.14.02-.18s.03-.09.05-.12.05-.05.07-.06a.24.24 0 0 1 .09-.02h.66a2.09 2.09 0 0 0 .69-.1c.2-.07.38-.16.52-.29s.25-.27.33-.45.11-.37.11-.58a1.33 1.33 0 0 0-.08-.45c-.05-.14-.13-.27-.23-.37-.1-.11-.23-.19-.39-.25s-.34-.09-.55-.09c-.23 0-.43.03-.62.1s-.36.14-.51.22l-.37.22c-.1.07-.17.1-.21.1-.03 0-.05 0-.07-.01s-.04-.03-.05-.06.01-.06 0-.11-.01-.12-.01-.21c0-.06 0-.11.01-.16l.02-.12c.01-.04.03-.06.04-.09s.04-.06.08-.1.11-.09.23-.16.25-.14.42-.21a2.94 2.94 0 0 1 .57-.17 3.77 3.77 0 0 1 .7-.07c.35 0 .66.04.93.13s.49.22.67.38a1.51 1.51 0 0 1 .4.59c.09.23.13.48.13.76a2.41 2.41 0 0 1-.09.67 1.39 1.39 0 0 1-.28.54c-.13.15-.27.29-.45.4a1.72 1.72 0 0 1-.61.23v.01c.26.03.5.09.72.2s.4.23.56.39a1.72 1.72 0 0 1 .37.55c.09.21.12.44.12.68zm30.34-.84c0 .15-.04.26-.12.33-.08.06-.16.1-.26.1h-3.47c0 .29.03.56.09.79a1.6 1.6 0 0 0 .29.6c.14.17.32.3.54.39s.49.13.81.13c.25 0 .48-.02.67-.06s.37-.09.51-.14l.35-.14c.09-.04.16-.06.21-.06.03 0 .05.01.07.02s.04.03.05.06.02.07.03.11.01.11.01.18c0 .05 0 .09-.01.13s-.01.07-.01.1-.02.06-.03.08-.03.05-.05.07a.76.76 0 0 1-.19.11c-.11.05-.24.1-.41.14l-.58.13c-.22.04-.46.06-.71.06-.43 0-.81-.06-1.14-.18a2.03 2.03 0 0 1-.82-.54c-.22-.24-.39-.54-.5-.9s-.17-.78-.17-1.25c0-.45.06-.86.18-1.22s.29-.67.51-.92a2.2 2.2 0 0 1 .8-.58c.31-.13.66-.2 1.05-.2.41 0 .77.07 1.06.2s.53.31.72.54.33.49.41.79.13.63.13.97v.16h-.02zm-.97-.29c.01-.51-.1-.91-.34-1.2s-.59-.43-1.06-.43c-.24 0-.45.04-.63.13a1.33 1.33 0 0 0-.45.36c-.12.15-.22.32-.28.52-.07.2-.1.4-.11.62h2.87z"/><use xlink:href="#N" x="137.55"/><path d="M508.76 12.35c0 .13-.02.23-.06.3s-.09.11-.16.11h-.86v1.59c0 .03-.01.06-.02.08-.02.02-.04.04-.08.06a.53.53 0 0 1-.16.04c-.07.01-.15.01-.25.01s-.18 0-.24-.01-.12-.02-.15-.04c-.04-.02-.06-.03-.08-.06-.01-.02-.02-.05-.02-.08v-1.59h-3.1c-.05 0-.08-.01-.12-.02-.03-.01-.06-.03-.08-.06s-.04-.08-.05-.13-.01-.13-.01-.23c0-.07 0-.14.01-.2l.02-.16a.58.58 0 0 1 .05-.14l.07-.14 2.7-4.61c.02-.03.05-.06.09-.08s.09-.04.15-.06.13-.03.22-.03c.09-.01.19-.01.31-.01l.34.01c.1.01.18.02.24.04s.11.04.14.06c.03.03.05.06.05.09v4.84h.86c.07 0 .12.03.16.1s.03.18.03.32zm-2.09-4.57h-.01l-2.44 4.16h2.45V7.78zm31.41 3.72c0 .15-.04.26-.11.33-.08.06-.16.1-.26.1h-3.47c0 .29.03.56.09.79a1.6 1.6 0 0 0 .29.6 1.37 1.37 0 0 0 .54.39c.22.09.49.13.81.13.25 0 .47-.02.67-.06s.37-.09.51-.14l.35-.14c.09-.04.16-.06.21-.06.03 0 .05.01.07.02s.04.03.05.06a1.64 1.64 0 0 1 .03.11c.01.04.01.11.01.18 0 .05 0 .09-.01.13s-.01.07-.01.1-.02.06-.03.08-.03.05-.05.07a.76.76 0 0 1-.19.11c-.11.05-.24.1-.41.14l-.58.13c-.22.04-.46.06-.71.06-.43 0-.81-.06-1.14-.18a2.03 2.03 0 0 1-.82-.54c-.22-.24-.39-.54-.5-.9s-.17-.78-.17-1.25c0-.45.06-.86.18-1.22s.29-.67.51-.92a2.2 2.2 0 0 1 .8-.58c.31-.13.66-.2 1.05-.2.41 0 .77.07 1.06.2s.53.31.72.54.33.49.41.79.13.63.13.97v.16h-.03zm-.97-.29c.01-.51-.1-.91-.34-1.2s-.59-.43-1.06-.43c-.24 0-.45.04-.63.13a1.33 1.33 0 0 0-.45.36c-.12.15-.22.32-.28.52-.07.2-.1.4-.11.62h2.87zm10.26 3.15c0 .03-.01.06-.02.08s-.04.04-.08.06-.08.03-.15.04-.14.01-.23.01c-.1 0-.18 0-.24-.01a.54.54 0 0 1-.15-.04c-.04-.02-.06-.03-.08-.06s-.02-.05-.02-.08v-3.21c0-.22-.02-.43-.06-.61s-.1-.34-.19-.47-.2-.23-.33-.3a.99.99 0 0 0-.47-.11c-.22 0-.45.09-.67.26s-.47.42-.74.76v3.69c0 .03-.01.06-.02.08s-.04.04-.08.06a.54.54 0 0 1-.15.04c-.06.01-.14.01-.23.01s-.17 0-.23-.01-.12-.02-.15-.04-.06-.03-.08-.06-.02-.05-.02-.08v-3.21c0-.22-.02-.43-.06-.61a1.54 1.54 0 0 0-.19-.47.8.8 0 0 0-.33-.3 1.02 1.02 0 0 0-.47-.11c-.22 0-.45.09-.67.26s-.47.42-.74.76v3.69c0 .03-.01.06-.02.08s-.04.04-.08.06-.08.03-.15.04-.14.01-.24.01c-.09 0-.17 0-.23-.01a.54.54 0 0 1-.15-.04c-.04-.02-.06-.03-.08-.06s-.02-.05-.02-.08V9.09c0-.03.01-.06.02-.08s.04-.04.07-.06a.4.4 0 0 1 .13-.04c.05-.01.13-.01.22-.01l.21.01a.4.4 0 0 1 .13.04c.03.02.05.04.07.06s.02.05.02.08v.7c.3-.33.58-.58.86-.73a1.78 1.78 0 0 1 .85-.23c.22 0 .42.03.59.08s.33.12.46.21.25.2.34.33.17.27.23.42l.5-.49c.16-.14.31-.24.46-.32s.29-.14.43-.18.28-.06.42-.06c.34 0 .63.06.86.18s.42.28.56.48a1.93 1.93 0 0 1 .3.7c.06.27.09.55.09.85v3.33h0zm6.25-2.29c0 .41-.07.77-.21 1.08a2.32 2.32 0 0 1-.58.8 2.67 2.67 0 0 1-.89.5c-.34.12-.73.17-1.15.17-.23 0-.46-.02-.67-.05s-.4-.07-.56-.12l-.4-.14c-.1-.04-.17-.08-.2-.11s-.05-.05-.06-.08l-.03-.08c-.01-.03-.02-.08-.02-.13s-.01-.11-.01-.18 0-.13.01-.18l.03-.13c.01-.03.03-.06.06-.07s.05-.02.07-.02c.04 0 .1.02.18.07s.19.1.33.16.31.11.52.16.45.08.73.08a2.73 2.73 0 0 0 .72-.09c.22-.06.41-.16.57-.29s.28-.3.37-.5.13-.45.13-.74c0-.24-.04-.46-.11-.64a1.05 1.05 0 0 0-.35-.46c-.16-.12-.36-.21-.6-.28s-.53-.09-.87-.09c-.24 0-.44.01-.62.04a2.82 2.82 0 0 1-.48.04c-.11 0-.19-.03-.23-.08s-.07-.15-.07-.29V7.31c0-.13.03-.22.09-.29s.15-.09.26-.09h3.36c.03 0 .06.01.09.03s.05.04.07.08.03.08.04.13.01.12.01.19c0 .14-.02.25-.06.33s-.09.12-.16.12h-2.71v2.13c.13-.02.27-.03.4-.04l.48-.01c.42 0 .78.05 1.09.16s.57.25.78.44.37.42.47.69c.13.27.18.57.18.89z"/><g fill="none" class="D"><path d="M193.57 92.06h-22.16c-3.2 0-5.91-2.49-6.38-5.85l-1.11-7.98c-.48-3.46 2.05-6.57 5.34-6.57h26.39c3.28 0 5.8 3.08 5.35 6.52l-1.04 7.97c-.45 3.39-3.17 5.91-6.39 5.91z" class="B"/><circle cx="171.19" cy="78.62" r=".94"/><circle cx="174.53" cy="83.92" r=".94"/><circle cx="177" cy="78.62" r=".94"/><circle cx="180.31" cy="83.92" r=".94"/><circle cx="182.81" cy="78.62" r=".94"/><circle cx="186.09" cy="83.92" r=".94"/><circle cx="188.63" cy="78.61" r=".94"/><circle cx="194.44" cy="78.62" r=".94"/><circle cx="191.87" cy="83.91" r=".94"/><path d="M161.08 80.46l-3.81-3.8-5.2 1.39-1.39 5.2 3.8 3.81 5.21-1.39z" class="B"/><circle cx="155.88" cy="81.86" r="3"/><path d="M207.3 76.66l-3.81 3.8 1.4 5.21 5.2 1.39 3.8-3.81-1.39-5.2z" class="B"/><circle cx="208.69" cy="81.86" r="3"/><path d="M176.65 99.46a1.66 1.66 0 0 1-.14.67c-.09.19-.23.37-.39.5a1.86 1.86 0 0 1-.59.32 2.86 2.86 0 0 1-.73.1c-.17 0-.36-.01-.5-.06-.16-.03-.29-.06-.42-.11-.13-.06-.23-.09-.3-.14-.07-.06-.14-.09-.17-.13s-.06-.07-.07-.13-.03-.11-.03-.2c0-.06 0-.11.01-.16 0-.04.01-.07.03-.1.01-.03.03-.04.04-.06.01-.01.04-.01.06-.01.04 0 .09.03.17.07.09.04.17.1.29.16.11.06.24.1.4.16a1.57 1.57 0 0 0 .54.07c.16 0 .3-.03.43-.06.13-.04.24-.1.33-.17s.17-.17.21-.29.07-.24.07-.39a.75.75 0 0 0-.1-.39c-.06-.11-.17-.2-.29-.29-.11-.07-.24-.16-.39-.23-.16-.06-.29-.14-.44-.21s-.3-.16-.44-.24c-.14-.09-.29-.19-.39-.3-.11-.11-.2-.26-.29-.4s-.1-.34-.1-.57.04-.43.13-.62a1.05 1.05 0 0 1 .34-.44c.16-.11.32-.21.52-.29a2.25 2.25 0 0 1 .64-.09c.11 0 .24.01.37.03.13.01.24.06.34.09a2.49 2.49 0 0 1 .29.11c.09.04.14.07.17.1s.04.06.06.06c.01.01.01.04.03.06 0 .03.01.06.01.09v.13.14c0 .05-.01.07-.01.1-.01.03-.03.06-.04.06-.01.01-.04.01-.06.01-.03 0-.07-.03-.14-.06-.06-.04-.16-.09-.24-.13-.1-.06-.2-.09-.34-.14a1.54 1.54 0 0 0-.43-.06 1.33 1.33 0 0 0-.39.06.79.79 0 0 0-.29.17c-.07.06-.13.16-.17.24-.04.09-.06.19-.06.29a.75.75 0 0 0 .1.39c.06.11.17.2.29.29a1.49 1.49 0 0 0 .39.23c.16.06.3.14.46.21s.3.16.46.23c.16.09.29.19.39.3a1.95 1.95 0 0 1 .29.4c.08.15.09.43.09.63zm4.14-.61c0 .11-.03.19-.07.23s-.11.06-.19.06h-2.48c0 .2.03.39.06.56s.11.3.21.43c.1.11.23.21.39.29.16.07.34.1.57.1a2.56 2.56 0 0 0 .49-.04 2.43 2.43 0 0 0 .37-.1c.1-.04.19-.06.26-.1.06-.04.11-.04.16-.04.01 0 .04 0 .06.01s.03.03.04.04c.01.03.01.06.01.07v.13.09c0 .03 0 .06-.01.07 0 .03-.01.04-.03.06a.31.31 0 0 0-.04.06.54.54 0 0 1-.14.07c-.07.04-.17.06-.29.1-.11.04-.26.06-.42.09s-.33.04-.5.04c-.3 0-.59-.04-.82-.13s-.43-.21-.59-.39c-.16-.17-.29-.39-.36-.63a3.44 3.44 0 0 1-.11-.89c0-.32.04-.62.13-.87.09-.26.2-.49.36-.66s.34-.32.57-.42c.21-.1.47-.14.74-.14a1.99 1.99 0 0 1 .74.14c.2.09.39.23.5.39.14.17.23.34.29.56.06.21.09.44.09.69l.01.13h0zm-.67-.2c.01-.37-.07-.64-.24-.85-.17-.2-.42-.3-.74-.3-.17 0-.32.04-.44.1-.13.06-.24.16-.33.26s-.16.23-.2.37c-.06.14-.07.29-.07.44l2.02-.02zm3.92-1.28v.16c0 .04-.01.07-.01.1-.01.03-.01.04-.03.06-.01.01-.03.01-.06.01s-.06 0-.07-.01c-.03-.01-.06-.03-.1-.04l-.14-.04c-.06-.01-.1-.01-.17-.01s-.14.01-.2.04-.14.07-.21.14a2.02 2.02 0 0 0-.23.26l-.27.39v2.48c0 .03 0 .04-.01.06s-.03.03-.06.04-.06.03-.1.03c-.06 0-.1.01-.17.01-.06 0-.13 0-.17-.01s-.07-.01-.1-.03c-.03-.01-.06-.03-.06-.04-.01-.01-.01-.04-.01-.06v-3.75c0-.03 0-.04.01-.06s.03-.03.06-.04.06-.03.1-.03h.16.16c.05 0 .07.01.09.03a.31.31 0 0 0 .06.04c.02.01.01.04.01.06v.54c.1-.16.2-.29.29-.37s.17-.17.26-.23c.07-.06.17-.09.24-.11.07-.03.17-.03.24-.03h.13a.32.32 0 0 1 .14.03c.06.01.1.03.14.04s.06.03.09.04l.04.04c0 .01.01.03.01.06s0 .06.01.09c-.07 0-.07.06-.07.11zm1.56-1.52c0 .17-.03.27-.09.33s-.17.09-.34.09-.27-.03-.33-.09-.09-.17-.09-.33c0-.17.03-.27.09-.33s.17-.09.34-.09.27.03.33.09.09.18.09.33zm-.08 5.05c0 .03 0 .04-.01.06s-.03.03-.06.04-.06.03-.1.03c-.06 0-.1.01-.17.01-.06 0-.13 0-.17-.01s-.07-.01-.1-.03c-.03-.01-.06-.03-.06-.04-.01-.01-.01-.04-.01-.06v-3.75c0-.03 0-.04.01-.06s.03-.03.06-.04.06-.03.1-.03.1-.01.17-.01c.06 0 .13 0 .17.01.04 0 .07.01.1.03.03.01.04.03.06.04s.01.04.01.06v3.75zm4.12 0c0 .04-.01.06-.04.07s-.06.03-.09.04c-.04.01-.1.01-.17.01s-.13 0-.17-.01-.07-.03-.09-.04c-.03-.01-.03-.04-.03-.07v-.39c-.17.17-.34.32-.54.4-.2.09-.42.16-.64.16-.2 0-.39-.03-.53-.07-.17-.06-.29-.13-.4-.23a1.1 1.1 0 0 1-.27-.36c-.06-.14-.09-.3-.09-.49 0-.21.04-.39.13-.56.09-.16.21-.29.37-.39a2.21 2.21 0 0 1 .6-.23c.23-.06.5-.07.79-.07h.52v-.29c0-.14-.01-.27-.06-.39a.6.6 0 0 0-.16-.29.66.66 0 0 0-.27-.17c-.11-.04-.24-.06-.4-.06s-.32.03-.46.06c-.14.04-.26.09-.36.13-.1.06-.19.09-.26.14-.06.06-.11.06-.16.06-.03 0-.04 0-.06-.01-.01-.01-.04-.03-.06-.06-.01-.03-.03-.06-.03-.09 0-.04-.01-.07-.01-.11 0-.06 0-.13.01-.17s.04-.07.07-.11c.04-.04.1-.07.19-.13s.2-.09.32-.14c.11-.04.26-.07.39-.1.14-.03.29-.04.43-.04a2.31 2.31 0 0 1 .69.09 1.22 1.22 0 0 1 .46.27c.11.11.2.27.26.44s.07.39.07.62v2.54l.05.04h0zm-.68-1.72h-.59c-.19 0-.36.01-.5.06-.14.04-.26.07-.34.14-.09.07-.17.14-.2.23a.73.73 0 0 0-.06.3c0 .19.06.36.19.47s.29.17.52.17c.17 0 .34-.06.5-.14.16-.09.32-.23.49-.42l-.01-.81h0zm2.63 1.72c0 .03 0 .04-.01.06-.01.01-.03.03-.06.04s-.06.03-.1.03c-.06 0-.1.01-.17.01-.06 0-.13 0-.17-.01s-.07-.01-.1-.03c-.03-.01-.06-.03-.06-.04-.01-.01-.01-.04-.01-.06v-5.59c0-.03 0-.04.01-.06.01-.01.03-.03.06-.04s.06-.03.1-.03.1-.01.17-.01c.06 0 .13 0 .17.01.04 0 .07.01.1.03.03.01.04.03.06.04.01.01.01.04.01.06v5.59z" stroke-width=".5" class="B"/></g><use xlink:href="#P"/><path d="M731.99 6.26c0 .14-.02.24-.06.3s-.08.09-.14.09h-.76c.14.14.23.3.29.47s.08.35.08.53c0 .3-.05.57-.15.81s-.24.43-.42.59a1.81 1.81 0 0 1-.65.37c-.25.08-.53.13-.83.13-.21 0-.42-.03-.61-.08a1.35 1.35 0 0 1-.45-.21c-.07.07-.13.15-.17.24s-.07.19-.07.31c0 .14.06.25.19.34s.3.14.51.15l1.38.06c.26.01.5.04.72.11s.41.16.57.28a1.33 1.33 0 0 1 .38.44c.09.17.13.38.13.61a1.65 1.65 0 0 1-.15.69c-.1.22-.26.41-.47.58s-.48.3-.8.39-.71.14-1.15.14a4.82 4.82 0 0 1-1.09-.11c-.3-.07-.54-.17-.74-.3s-.33-.27-.42-.45-.11-.38-.11-.58a1.65 1.65 0 0 1 .05-.38 1.35 1.35 0 0 1 .14-.35c.06-.11.14-.21.24-.31l.33-.3c-.19-.1-.33-.22-.42-.37s-.14-.31-.14-.48c0-.24.05-.45.15-.64s.22-.36.36-.5c-.12-.14-.22-.31-.29-.49a1.82 1.82 0 0 1-.11-.66c0-.3.05-.57.15-.81s.24-.44.42-.6a1.99 1.99 0 0 1 .65-.38c.25-.09.53-.13.82-.13.16 0 .31.01.45.03l.39.07h1.59c.07 0 .12.03.15.1s.06.16.06.3zm-1.02 5.56a.57.57 0 0 0-.28-.52c-.19-.12-.44-.19-.75-.2l-1.37-.05a2.22 2.22 0 0 0-.31.28 1.84 1.84 0 0 0-.19.25.82.82 0 0 0-.1.24c-.02.08-.03.16-.03.24 0 .25.13.45.39.58s.62.2 1.08.2a3.1 3.1 0 0 0 .74-.08c.2-.05.36-.13.48-.23s.21-.2.26-.32.08-.25.08-.39zm-.49-4.17c0-.36-.1-.64-.3-.84s-.48-.3-.84-.3c-.19 0-.35.03-.49.09s-.25.15-.35.26a1.09 1.09 0 0 0-.21.38c-.05.14-.07.29-.07.45 0 .35.1.62.3.82s.47.3.83.3c.19 0 .36-.03.5-.09s.26-.14.35-.25.16-.23.21-.37a1.41 1.41 0 0 0 .07-.45zm7.61.93c0 .46-.05.87-.15 1.23s-.25.68-.44.93-.43.46-.71.59a2.27 2.27 0 0 1-.97.21c-.17 0-.32-.02-.47-.05s-.28-.09-.42-.16a2.49 2.49 0 0 1-.41-.28c-.14-.11-.28-.25-.43-.41v.64c0 .03-.01.06-.02.08s-.04.04-.08.06-.08.02-.13.03-.12.01-.2.01-.14 0-.2-.01-.1-.02-.13-.03-.06-.03-.07-.06-.02-.05-.02-.08V3.46c0-.03.01-.06.02-.08s.04-.04.08-.06a.54.54 0 0 1 .15-.04c.06-.01.14-.01.23-.01l.24.01a.54.54 0 0 1 .15.04c.04.02.06.04.08.06s.02.05.02.08v3.16c.16-.16.31-.29.45-.4a2.54 2.54 0 0 1 .43-.27c.14-.07.28-.12.42-.15a2.14 2.14 0 0 1 .45-.05c.38 0 .71.08.98.23a1.93 1.93 0 0 1 .66.61c.17.25.29.56.37.9a4.79 4.79 0 0 1 .12 1.09zm-1.01.12c0-.27-.02-.53-.06-.79-.04-.25-.11-.48-.22-.67a1.25 1.25 0 0 0-.41-.47c-.17-.12-.38-.18-.63-.18a1.5 1.5 0 0 0-.37.05c-.12.04-.25.09-.37.18s-.26.19-.39.32c-.14.13-.28.29-.43.49v2.1c.27.32.52.57.77.74.24.17.5.25.76.25.24 0 .45-.06.62-.18a1.37 1.37 0 0 0 .42-.47c.11-.2.19-.41.24-.65s.07-.48.07-.72zm7.23-1.07a8.63 8.63 0 0 1-.14 1.59c-.09.48-.24.89-.46 1.24s-.49.61-.83.8-.77.28-1.27.28c-.48 0-.88-.08-1.2-.25s-.59-.42-.79-.75-.34-.74-.42-1.22a10.17 10.17 0 0 1-.13-1.66 8.63 8.63 0 0 1 .14-1.59c.09-.48.25-.9.46-1.24a2.27 2.27 0 0 1 .83-.8c.34-.19.77-.28 1.27-.28.48 0 .88.08 1.21.25s.59.42.79.75.34.74.42 1.22.12 1.03.12 1.66zm-1.03.07l-.04-1.02a7.21 7.21 0 0 0-.12-.8 2.14 2.14 0 0 0-.21-.59c-.09-.16-.18-.3-.3-.41s-.25-.19-.4-.23-.32-.07-.51-.07c-.33 0-.6.08-.81.23s-.37.37-.49.64-.2.59-.24.96a10.95 10.95 0 0 0-.06 1.18 9.69 9.69 0 0 0 .09 1.44c.06.39.15.72.28.97s.29.43.49.54.44.17.72.17a1.5 1.5 0 0 0 .58-.11 1.19 1.19 0 0 0 .43-.3 1.72 1.72 0 0 0 .3-.47 3.36 3.36 0 0 0 .19-.61 5 5 0 0 0 .1-.72c.02-.26 0-.52 0-.8z"/><use xlink:href="#P" x="52.67"/><path d="M784.67 6.26c0 .14-.02.24-.06.3s-.08.09-.14.09h-.76c.14.14.23.3.29.47s.08.35.08.53c0 .3-.05.57-.15.81s-.24.43-.42.59a1.81 1.81 0 0 1-.65.37c-.25.08-.53.13-.83.13-.21 0-.42-.03-.61-.08a1.35 1.35 0 0 1-.45-.21c-.07.07-.13.15-.17.24s-.07.19-.07.31c0 .14.06.25.19.34s.3.14.51.15l1.38.06c.26.01.5.04.72.11s.41.16.57.28a1.33 1.33 0 0 1 .38.44c.09.17.13.38.13.61a1.65 1.65 0 0 1-.15.69c-.1.22-.26.41-.47.58s-.48.3-.8.39-.71.14-1.15.14a4.82 4.82 0 0 1-1.09-.11c-.3-.07-.54-.17-.74-.3s-.33-.27-.42-.45-.13-.36-.13-.57a1.65 1.65 0 0 1 .05-.38 1.35 1.35 0 0 1 .14-.35c.06-.11.14-.21.24-.31l.33-.3c-.19-.1-.33-.22-.42-.37s-.14-.31-.14-.48c0-.24.05-.45.15-.64s.22-.36.36-.5c-.12-.14-.22-.31-.29-.49a1.82 1.82 0 0 1-.11-.66c0-.3.05-.57.15-.81s.24-.44.42-.6a1.99 1.99 0 0 1 .65-.38c.25-.09.53-.13.82-.13.16 0 .31.01.45.03l.39.07h1.59c.07 0 .12.03.15.1s.08.15.08.29zm-1.03 5.56a.57.57 0 0 0-.28-.52c-.19-.12-.44-.19-.75-.2l-1.37-.05a2.22 2.22 0 0 0-.31.28 1.84 1.84 0 0 0-.19.25.82.82 0 0 0-.1.24c-.02.08-.03.16-.03.24 0 .25.13.45.39.58s.62.2 1.08.2a3.1 3.1 0 0 0 .74-.08c.2-.05.36-.13.48-.23s.21-.2.26-.32.08-.25.08-.39zm-.48-4.17c0-.36-.1-.64-.3-.84s-.48-.3-.84-.3c-.19 0-.35.03-.49.09s-.25.15-.35.26a1.09 1.09 0 0 0-.21.38c-.05.14-.07.29-.07.45 0 .35.1.62.3.82s.47.3.83.3c.19 0 .36-.03.5-.09s.26-.14.35-.25.16-.23.21-.37c.04-.15.07-.3.07-.45zm7.6.93c0 .46-.05.87-.15 1.23s-.25.68-.44.93-.43.46-.71.59a2.27 2.27 0 0 1-.97.21c-.17 0-.32-.02-.47-.05s-.28-.09-.42-.16a2.49 2.49 0 0 1-.41-.28c-.14-.11-.28-.25-.43-.41v.64c0 .03-.01.06-.02.08s-.04.04-.08.06-.08.02-.13.03-.12.01-.2.01-.14 0-.2-.01-.1-.02-.13-.03-.06-.03-.07-.06-.02-.05-.02-.08V3.46c0-.03.01-.06.02-.08s.04-.04.08-.06a.54.54 0 0 1 .15-.04c.06-.01.14-.01.23-.01l.24.01a.54.54 0 0 1 .15.04c.04.02.06.04.08.06s.02.05.02.08v3.16c.16-.16.31-.29.45-.4a2.54 2.54 0 0 1 .43-.27c.14-.07.28-.12.42-.15a2.14 2.14 0 0 1 .45-.05c.38 0 .71.08.98.23a1.93 1.93 0 0 1 .66.61c.17.25.29.56.37.9a4.79 4.79 0 0 1 .12 1.09zm-1 .12c0-.27-.02-.53-.06-.79-.04-.25-.11-.48-.22-.67a1.25 1.25 0 0 0-.41-.47c-.17-.12-.38-.18-.63-.18a1.5 1.5 0 0 0-.37.05c-.12.04-.25.09-.37.18s-.26.19-.39.32c-.14.13-.28.29-.43.49v2.1c.27.32.52.57.77.74.24.17.5.25.76.25.24 0 .45-.06.62-.18a1.37 1.37 0 0 0 .42-.47c.11-.2.19-.41.24-.65a4.39 4.39 0 0 0 .07-.72zm6.99 2.34c0 .07-.01.14-.02.19s-.03.09-.05.12-.04.05-.07.07-.05.02-.08.02h-3.96c-.03 0-.05-.01-.08-.02s-.05-.04-.07-.07-.04-.07-.05-.12a.92.92 0 0 1-.02-.19c0-.07.01-.13.02-.18s.03-.09.04-.13.04-.06.06-.08.05-.03.08-.03h1.58V4.86l-1.46.87c-.07.04-.13.06-.18.07s-.08 0-.11-.03-.05-.07-.06-.13-.01-.13-.01-.22c0-.07 0-.12.01-.17s.01-.09.03-.12.03-.06.05-.08.05-.05.08-.07l1.75-1.12.06-.03a.2.2 0 0 1 .09-.02c.04 0 .08-.01.12-.01h.18l.23.01.15.03c.04.01.06.03.07.05s.02.04.02.07v6.66h1.37c.03 0 .06.01.09.03s.05.04.07.08.03.08.04.13.03.11.03.18z"/><defs ><path id="B" d="M650.15 65.91c-.22.09-.64.19-1.17.19-1.26 0-2.2-.69-2.2-1.97 0-1.21.94-2.04 2.33-2.04.56 0 .9.1 1.06.17l-.14.4c-.22-.09-.53-.16-.9-.16-1.04 0-1.73.58-1.73 1.6 0 .94.62 1.56 1.71 1.56.35 0 .71-.06.94-.16l.1.41z"/><path id="C" d="M312.21 89.18h-40.46a.2.2 0 0 1-.2-.2V57.4a.2.2 0 0 1 .2-.2h40.46a.2.2 0 0 1 .2.2v31.58c-.01.11-.09.2-.2.2z"/><path id="D" d="M311.32 88.29h-38.68a.2.2 0 0 1-.2-.2v-29.8a.2.2 0 0 1 .2-.2h38.68a.2.2 0 0 1 .2.2v29.8a.2.2 0 0 1-.2.2z"/><path id="E" d="M291.98 83.85h14.9a.2.2 0 0 0 .2-.2v-4.49a.2.2 0 0 1 .2-.2h.5a.2.2 0 0 0 .2-.2v-5.58-.69a.2.2 0 0 0-.2-.2h-.5a.2.2 0 0 1-.2-.2v-4.94a.2.2 0 0 0-.2-.2h-5.38a.2.2 0 0 1-.2-.2V62.7a.2.2 0 0 0-.2-.2h-3.16a.2.2 0 0 1-.2-.2v-1.38a.2.2 0 0 0-.2-.2h-5.58-5.58a.2.2 0 0 0-.2.2v1.38a.2.2 0 0 1-.2.2h-3.16a.2.2 0 0 0-.2.2v4.05a.2.2 0 0 1-.2.2h-5.38a.2.2 0 0 0-.2.2v4.94a.2.2 0 0 1-.2.2h-.5a.2.2 0 0 0-.2.2v.69 5.58a.2.2 0 0 0 .2.2h.5a.2.2 0 0 1 .2.2v4.49a.2.2 0 0 0 .2.2h14.94 0z"/><path id="F" d="M280.68 64.76h-5.82a.2.2 0 0 1-.2-.2v-2.27a.2.2 0 0 1 .2-.2h5.82a.2.2 0 0 1 .2.2v2.27a.2.2 0 0 1-.2.2z"/><path id="G" d="M276.77 78.13h-1.22v-4.88h1.22c.3 0 .55.25.55.55v3.78c.01.31-.24.55-.55.55z"/><path id="H" d="M307.18 78.13h1.22v-4.88h-1.22c-.3 0-.55.25-.55.55v3.78a.55.55 0 0 0 .55.55z"/><path id="I" d="M284.25 83.11h-1.29l.36-3.61c.01-.05.05-.09.1-.09h.42c.05 0 .09.04.1.09l.31 3.61z"/><path id="J" d="M375.26 83.11h-1.29l.36-3.61c0-.05.05-.09.1-.09h.42c.05 0 .09.04.1.09l.31 3.61z"/><path id="K" d="M254.01 61.44v.05a1.12 1.12 0 0 0 1.12 1.12h1.38a1.12 1.12 0 0 0 1.12-1.12v-.05h-3.62z"/><path id="L" d="M753.49 75.34h-1.61l.46-3.45c.01-.05.06-.08.12-.08h.53c.07 0 .11.04.12.08l.38 3.45z"/><path id="M" d="M319.88 14.36c0 .03-.01.06-.02.08s-.04.04-.08.06-.08.03-.15.04-.14.01-.23.01c-.1 0-.18 0-.24-.01a.54.54 0 0 1-.15-.04c-.04-.02-.06-.03-.08-.06s-.02-.05-.02-.08v-3.21c0-.22-.02-.43-.06-.61s-.1-.34-.19-.47-.2-.23-.33-.3a.99.99 0 0 0-.47-.11c-.22 0-.45.09-.67.26s-.47.42-.74.76v3.69c0 .03-.01.06-.02.08s-.04.04-.08.06a.54.54 0 0 1-.15.04c-.06.01-.14.01-.23.01s-.17 0-.23-.01-.12-.02-.15-.04-.06-.03-.08-.06-.02-.05-.02-.08v-3.21c0-.22-.02-.43-.06-.61a1.54 1.54 0 0 0-.19-.47.8.8 0 0 0-.33-.3 1.02 1.02 0 0 0-.47-.11c-.22 0-.45.09-.67.26s-.47.42-.74.76v3.69c0 .03-.01.06-.02.08s-.04.04-.08.06-.08.03-.15.04-.14.01-.24.01c-.09 0-.17 0-.23-.01a.54.54 0 0 1-.15-.04c-.04-.02-.06-.03-.08-.06s-.02-.05-.02-.08V9.09c0-.03.01-.06.02-.08s.04-.04.07-.06a.4.4 0 0 1 .13-.04c.05-.01.13-.01.22-.01l.21.01c.05.01.1.02.13.04s.05.04.07.06.02.05.02.08v.7c.3-.33.58-.58.86-.73a1.78 1.78 0 0 1 .85-.23c.22 0 .42.03.59.08s.33.12.46.21.25.2.34.33.17.27.23.42l.5-.49c.16-.14.31-.24.46-.32s.29-.14.43-.18.28-.06.42-.06c.34 0 .63.06.86.18s.42.28.56.48a1.93 1.93 0 0 1 .3.7c.06.27.09.55.09.85v3.33h0z"/><path id="N" d="M364.6 14.36c0 .03-.01.06-.02.08s-.04.04-.08.06-.08.03-.15.04-.14.01-.23.01c-.1 0-.18 0-.24-.01a.54.54 0 0 1-.15-.04c-.04-.02-.06-.03-.08-.06s-.02-.05-.02-.08v-3.21c0-.22-.02-.43-.06-.61s-.1-.34-.19-.47-.2-.23-.33-.3a.99.99 0 0 0-.47-.11c-.22 0-.45.09-.67.26s-.47.42-.74.76v3.69c0 .03-.01.06-.02.08s-.04.04-.08.06a.54.54 0 0 1-.15.04c-.06.01-.14.01-.23.01s-.17 0-.23-.01-.12-.02-.15-.04-.06-.03-.08-.06-.02-.05-.02-.08v-3.21c0-.22-.02-.43-.06-.61a1.54 1.54 0 0 0-.19-.47.8.8 0 0 0-.33-.3 1.02 1.02 0 0 0-.47-.11c-.22 0-.45.09-.67.26s-.47.42-.74.76v3.69c0 .03-.01.06-.02.08s-.04.04-.08.06-.08.03-.15.04-.14.01-.24.01c-.09 0-.17 0-.23-.01a.54.54 0 0 1-.15-.04c-.04-.02-.06-.03-.08-.06s-.02-.05-.02-.08V9.09c0-.03.01-.06.02-.08s.04-.04.07-.06.08-.03.13-.04.13-.01.22-.01l.21.01c.05.01.1.02.13.04s.05.04.07.06.02.05.02.08v.7c.3-.33.58-.58.86-.73a1.78 1.78 0 0 1 .85-.23c.22 0 .42.03.59.08s.33.12.46.21.25.2.34.33.17.27.23.42l.5-.49c.16-.14.31-.24.46-.32s.29-.14.43-.18.28-.06.42-.06c.34 0 .63.06.86.18s.42.28.56.48a1.93 1.93 0 0 1 .3.7c.06.27.09.55.09.85v3.33h0z"/><path id="O" d="M401.28 11.5c0 .15-.04.26-.12.33-.08.06-.16.1-.26.1h-3.47c0 .29.03.56.09.79a1.6 1.6 0 0 0 .29.6c.14.17.32.3.54.39s.49.13.81.13c.25 0 .48-.02.67-.06s.37-.09.51-.14l.35-.14c.09-.04.16-.06.21-.06.03 0 .05.01.07.02s.04.03.05.06a1.64 1.64 0 0 1 .03.11c.01.04.01.11.01.18 0 .05 0 .09-.01.13s-.01.07-.01.1-.02.06-.03.08-.03.05-.05.07a.76.76 0 0 1-.19.11c-.11.05-.24.1-.41.14l-.58.13c-.22.04-.46.06-.71.06-.43 0-.81-.06-1.14-.18a2.03 2.03 0 0 1-.82-.54c-.22-.24-.39-.54-.5-.9s-.17-.78-.17-1.25c0-.45.06-.86.18-1.22s.29-.67.51-.92a2.2 2.2 0 0 1 .8-.58c.31-.13.66-.2 1.05-.2.41 0 .77.07 1.06.2s.53.31.72.54.33.49.41.79.13.63.13.97v.16h-.02zm-.97-.29c.01-.51-.1-.91-.34-1.2s-.59-.43-1.06-.43c-.24 0-.45.04-.63.13a1.33 1.33 0 0 0-.45.36c-.12.15-.22.32-.28.52-.07.2-.1.4-.11.62h2.87z"/><path id="P" d="M725.91 4.24c0 .23-.04.38-.13.46s-.24.12-.47.12-.38-.04-.47-.12-.13-.23-.13-.45c0-.23.04-.38.13-.46s.24-.12.47-.12.38.04.47.12.13.22.13.45zm-.11 7.05c0 .03-.01.06-.02.08s-.04.04-.08.06-.08.03-.15.04-.14.01-.24.01c-.09 0-.17 0-.23-.01a.54.54 0 0 1-.15-.04c-.04-.02-.06-.03-.08-.06s-.02-.05-.02-.08V6.02c0-.03.01-.05.02-.08s.04-.04.08-.06a.54.54 0 0 1 .15-.04c.06-.01.14-.01.23-.01l.24.01a.54.54 0 0 1 .15.04c.04.02.06.04.08.06s.02.05.02.08v5.27z"/></defs></svg>