<svg xmlns="http://www.w3.org/2000/svg" xmlns:xlink="http://www.w3.org/1999/xlink" viewBox="0 0 1134.3 135.2" xmlns:v="https://vecta.io/nano"><style><![CDATA[.L{stroke-width:.831}.M{stroke-miterlimit:10}.N{stroke-width:1.271}]]></style><g fill="none" stroke="#000"><g class="M"><path d="M3.3,22.3h1123v89.8H3.3V22.3z" stroke-width="1.015"/><path d="M20.9 46.2c0 .1 0 .2-.1.3 0 .1-.1.1-.2.2-.2 0-.3.1-.5.1h-.7-.7c-.2 0-.3 0-.4-.1-.1 0-.2-.1-.2-.2s-.1-.2-.1-.3l-.5-3c-.1-.5-.2-.8-.3-1.1s-.3-.5-.5-.7-.4-.3-.6-.4c-.3-.1-.6-.1-.9-.1h-.6l-1.1 5.5c0 .1 0 .1-.1.2s-.2.1-.3.1-.3.1-.4.1H12h-.7c-.2 0-.3 0-.4-.1-.1 0-.1-.1-.2-.1v-.2l2.6-13c0-.1 0-.1.1-.2s.1-.1.3-.1c.1 0 .3-.1.4-.1h.7.7c.1 0 .3 0 .4.1.1 0 .2.1.2.1v.2l-1 5.2h.6c.3 0 .6 0 .8-.1.3-.1.5-.2.7-.4s.5-.4.7-.7.5-.7.7-1.1l1.5-2.7c.1-.1.1-.2.2-.3s.2-.1.3-.2c.1 0 .3-.1.5-.1h.7.7c.2 0 .3 0 .4.1.1 0 .1.1.2.1v.1c0 .1 0 .2-.1.4s-.2.3-.3.6l-1.4 2.4-.7 1.2c-.2.3-.5.6-.7.8a3.04 3.04 0 0 1-.7.5c-.2.1-.5.3-.8.4h0c.3.1.5.3.7.4s.4.3.5.6c.2.3.3.6.4.8.1.3.2.8.3 1.2l.5 2.8.1.4v.4zm12-6.1c0 .5 0 1.1-.1 1.6a9.83 9.83 0 0 1-.5 1.6c-.2.5-.5 1-.8 1.5s-.7.8-1.2 1.2-1 .6-1.5.8c-.6.2-1.3.3-2 .3s-1.3-.1-1.9-.3-1-.4-1.3-.7c-.4-.3-.6-.7-.8-1.2s-.3-1-.3-1.6c0-.5 0-1.1.1-1.6a9.83 9.83 0 0 1 .5-1.6c.2-.5.5-1 .8-1.5s.7-.8 1.2-1.2c.5-.3 1-.6 1.5-.8.6-.2 1.2-.3 2-.3.7 0 1.3.1 1.9.3s1 .4 1.3.7.6.7.8 1.2.3 1 .3 1.6zm-2.8.2c0-.3 0-.5-.1-.8l-.3-.6c-.1-.2-.3-.3-.5-.4-.3-.1-.5-.1-.8-.1s-.7.1-1 .2-.5.3-.8.6c-.2.3-.4.5-.6.8s-.3.6-.4 1-.2.7-.2 1l-.1 1c0 .3 0 .5.1.8l.3.6c.1.2.3.3.5.4.3.1.5.1.8.1s.7-.1 1-.2.5-.3.8-.6c.2-.2.4-.5.6-.8s.3-.6.4-1c.1-.3.2-.7.2-1 .1-.3.1-.7.1-1zM43 46.4c0 .1 0 .1-.1.2s-.1.1-.3.1c-.1 0-.3.1-.4.1h-.7-.6c-.2 0-.3 0-.4-.1s-.2-.1-.2-.1v-.2l.7-3.7h-3.7l-.7 3.7c0 .1 0 .1-.1.2s-.1.1-.3.1-.3.1-.4.1h-.7-.6c-.2 0-.3 0-.4-.1s-.1 0-.1-.1v-.2l1.9-9.5c0-.1 0-.1.1-.2s.1-.1.3-.1.3-.1.4-.1h.7.6c.2 0 .3 0 .4.1.1 0 .2.1.2.1v.2l-.7 3.5h3.7l.7-3.5c0-.1 0-.1.1-.2 0-.1.1-.1.2-.1s.3-.1.4-.1h.7.6c.2 0 .3 0 .4.1.1 0 .2.1.2.1v.2L43 46.4zm17.5 0c0 .1 0 .1-.1.2s-.1.1-.3.1-.3.1-.4.1H59h-.6c-.2 0-.3 0-.4-.1-.1 0-.1-.1-.2-.1v-.2l1.1-5.7.1-.5v-.5c0-.3-.1-.6-.2-.8s-.3-.3-.7-.3c-.3 0-.6.1-.9.3s-.6.4-.9.8c-.3.3-.5.7-.7 1.1s-.4.9-.5 1.3l-.8 4.3c0 .1 0 .1-.1.2s-.1.1-.3.1c-.1 0-.3.1-.4.1h-.7-.6c-.2 0-.3 0-.4-.1s-.2-.1-.2-.1v-.2l1.1-5.7c0-.2.1-.3.1-.5v-.5c0-.3-.1-.6-.2-.8s-.3-.3-.7-.3c-.3 0-.6.1-.9.3s-.6.4-.9.8c-.3.3-.5.7-.7 1.1s-.4.9-.5 1.3l-.8 4.3c0 .1 0 .1-.1.2s-.1.1-.3.1-.3.1-.4.1h-.7-.6c-.2 0-.3 0-.4-.1s-.2-.1-.2-.1v-.2l1.9-9.5c0-.1 0-.1.1-.2 0-.1.1-.1.2-.1s.2-.1.4-.1h.5.5c.1 0 .3 0 .3.1s.1.1.2.1 0 .1 0 .2l-.3 1.6c.1-.3.3-.5.6-.8s.5-.5.8-.7a4.67 4.67 0 0 1 1-.5 4.3 4.3 0 0 1 1.2-.2c.4 0 .8.1 1.1.2s.5.3.7.5.3.4.5.7.2.5.2.8c.2-.3.4-.5.6-.8.3-.3.5-.5.8-.7a4.67 4.67 0 0 1 1-.5c.3-.1.8-.2 1.1-.2a3.73 3.73 0 0 1 1.2.2c.3.1.6.3.8.6s.4.5.5.8.1.7.1 1.1v.8l-.1.8-.8 5.8h0zm11.4 0c0 .1 0 .1-.1.2 0 .1-.1.1-.2.1s-.2.1-.4.1h-.6-.5c-.1 0-.2 0-.3-.1-.1 0-.1-.1-.2-.1s0-.1 0-.2l.3-1.5c-.1.3-.3.5-.6.8s-.5.5-.8.7-.7.4-1.1.5c-.3.1-.7.1-1.1.1-.5 0-.9-.1-1.3-.2-.3-.1-.6-.3-.8-.6-.2-.2-.4-.5-.5-.8s-.1-.7-.1-1.1v-.7l.1-.8 1.2-5.9c0-.1 0-.1.1-.2s.1-.1.3-.1.3-.1.4-.1h.7.6c.2 0 .3 0 .4.1.1 0 .1.1.2.1v.2l-1.1 5.7-.1.5v.5.5a.76.76 0 0 0 .2.4c.1.1.2.2.3.2s.3.1.4.1c.3 0 .6-.1.9-.3s.6-.5.9-.8.5-.7.8-1.2.4-.9.5-1.5l.8-4.1c0-.1 0-.1.1-.2s.1-.1.3-.1c.1 0 .3-.1.4-.1h.7.6c.2 0 .3 0 .4.1.1 0 .2.1.2.1v.2l-2 9.5zm11.7 0c0 .1 0 .1-.1.2s-.1.1-.3.1c-.1 0-.3.1-.4.1h-.7-.6c-.2 0-.3 0-.4-.1-.1 0-.2-.1-.2-.1v-.2l.7-3.7H78l-.7 3.7c0 .1 0 .1-.1.2s-.1.1-.3.1-.3.1-.4.1h-.7-.6c-.2 0-.3 0-.4-.1-.1 0-.2-.1-.2-.1v-.2l1.9-9.5c0-.1 0-.1.1-.2s.1-.1.3-.1.3-.1.4-.1h.7.6c.2 0 .3 0 .4.1.1 0 .2.1.2.1v.2l-.7 3.5h3.7l.7-3.5c0-.1 0-.1.1-.2 0-.1.1-.1.2-.1s.3-.1.4-.1h.7.6c.2 0 .3 0 .4.1.1 0 .2.1.2.1v.2l-1.9 9.5zM96.2 39c0 .5-.1 1-.3 1.4s-.6.8-1.1 1.1-1.1.5-1.8.7c-.8.2-1.6.2-2.7.2h-1c0 .2 0 .3-.1.5v.5c0 .6.1 1 .4 1.3s.8.4 1.4.4c.5 0 .9 0 1.3-.1s.7-.1 1-.2.5-.2.7-.2c.2-.1.3-.1.4-.1s.1 0 .2.1c0 0 .1.1.1.2v.4l-.1.5-.1.4c0 .1-.1.2-.2.3s-.2.2-.5.3l-.8.2c-.3.1-.7.1-1.1.2l-1.3-.1c-.7 0-1.3-.1-1.8-.2s-.9-.4-1.3-.7a4.44 4.44 0 0 1-.8-1.1c-.2-.5-.3-1-.3-1.6 0-.5 0-1 .1-1.5s.2-1.1.4-1.6.4-1 .8-1.5c.3-.5.7-.9 1.1-1.3.5-.4 1-.7 1.5-.9.6-.2 1.2-.3 2-.3.7 0 1.2.1 1.7.2s.8.4 1.1.6.5.5.7.8c.3.4.4.8.4 1.1h0zm-2.7.2c0-.3-.1-.5-.3-.7s-.6-.3-1-.3-.7.1-.9.2c-.3.1-.5.3-.7.5s-.4.5-.6.8c-.1.3-.3.6-.4.9h.9c.6 0 1 0 1.4-.1s.7-.2.9-.3.4-.3.5-.5c.2-.1.2-.3.2-.5zm12.5 7.2c0 .1 0 .1-.1.2s-.1.1-.3.1c-.1 0-.3.1-.4.1h-.7-.6c-.2 0-.3 0-.4-.1-.1 0-.2-.1-.2-.1v-.2l.7-3.7h-3.7l-.7 3.7c0 .1 0 .1-.1.2s-.1.1-.3.1-.3.1-.4.1h-.7-.6c-.2 0-.3 0-.4-.1-.1 0-.2-.1-.2-.1v-.2l1.9-9.5c0-.1 0-.1.1-.2s.1-.1.3-.1.3-.1.4-.1h.7.6c.2 0 .3 0 .4.1.1 0 .2.1.2.1v.2l-.7 3.5h3.7l.7-3.5c0-.1 0-.1.1-.2 0-.1.1-.1.2-.1s.3-.1.4-.1h.7.6c.2 0 .3 0 .4.1.1 0 .2.1.2.1v.2l-1.8 9.5zm17.6 0c0 .1 0 .1-.1.2s-.1.1-.3.1c-.1 0-.3.1-.4.1h-.7-.6c-.2 0-.3 0-.4-.1-.1 0-.1-.1-.2-.1v-.2l1.1-5.7.1-.5v-.5c0-.3-.1-.6-.2-.8s-.3-.3-.7-.3c-.3 0-.6.1-.9.3s-.6.4-.9.8c-.3.3-.5.7-.7 1.1s-.4.9-.5 1.3l-.8 4.3c0 .1 0 .1-.1.2s-.1.1-.3.1c-.1 0-.3.1-.4.1h-.7-.6c-.2 0-.3 0-.4-.1s-.2-.1-.2-.1v-.2l1.1-5.7c0-.2.1-.3.1-.5v-.5c0-.3-.1-.6-.2-.8s-.3-.3-.7-.3c-.3 0-.6.1-.9.3s-.6.4-.9.8c-.3.3-.5.7-.7 1.1s-.4.9-.5 1.3l-.8 4.3c0 .1 0 .1-.1.2s-.1.1-.3.1-.3.1-.4.1h-.7-.6c-.2 0-.3 0-.4-.1-.1 0-.2-.1-.2-.1v-.2l1.9-9.5c0-.1 0-.1.1-.2 0-.1.1-.1.2-.1s.2-.1.4-.1h.6.5c.1 0 .3 0 .3.1s.1.1.2.1 0 .1 0 .2l-.3 1.6c.1-.3.3-.5.6-.8s.5-.5.8-.7a4.67 4.67 0 0 1 1-.5 4.3 4.3 0 0 1 1.2-.2c.4 0 .8.1 1.1.2s.6.3.7.5c.2.2.3.4.4.7s.2.5.2.8c.2-.3.4-.5.6-.8.3-.3.5-.5.8-.7a4.67 4.67 0 0 1 1-.5c.3-.1.8-.2 1.1-.2a3.73 3.73 0 0 1 1.2.2c.3.1.6.3.8.6s.4.5.4.8c.1.3.1.7.1 1.1v.8l-.1.8-.7 5.8h0z" stroke-width=".591"/><path d="M67.7 74.1v2.7h.3l2.4-2.7h1.1l-2.6 2.8c1.2.1 1.6.8 1.9 1.6l.8 1.7h-1c-.3-.4-.4-.9-.6-1.4-.3-.8-.8-1.3-1.9-1.3h-.3v2.8h-.9v-6l.8-.2h0zM78.1 77c0 2.1-1.4 3.2-3.2 3.2s-3.1-1.2-3.1-3.1 1.4-3.2 3.2-3.2c1.9.1 3.1 1.3 3.1 3.1zm-5.4.1c0 1.3.8 2.4 2.2 2.4s2.2-1.2 2.2-2.5c0-1.2-.7-2.4-2.2-2.4-1.4 0-2.2 1.2-2.2 2.5zm11.1-3v5.4h.6l-.1 2.1h-.7l-.1-1.4h-4.3l-.1 1.4h-.7l-.1-2.1h.5c.3-.4.5-.8.7-1.3.2-.7.3-1.5.3-2.5v-1.5c.1-.1 4-.1 4-.1h0zm-3.1 1.8c0 1-.1 1.8-.4 2.4-.1.4-.4.8-.6 1.2h3.1v-4.8h-2.1v1.2h0zm10.8-1.8v.7h-3v1.6l.8-.1c.7 0 1.3.1 1.8.4s.9.8.9 1.5c0 .6-.2 1-.6 1.3-.6.5-1.5.7-2.4.7-.6 0-1.1 0-1.4-.1v-6h3.9zm-3 5.4l.8.1c.6 0 1.1-.2 1.5-.4.3-.2.4-.6.4-.9a1.1 1.1 0 0 0-.6-1c-.4-.2-.8-.3-1.3-.3h-.7l-.1 2.5h0 0 0zm8.3-2.2h-2.7v2.2h3v.7h-3.9v-6h3.7v.7h-2.8v1.9h2.7c0-.2 0 .5 0 .5zm1.3-2.9c.6-.3 1.2-.5 1.8-.4 1.2 0 2 .5 2 1.5 0 .8-.6 1.3-1.4 1.5h0c1 .1 1.7.7 1.7 1.5 0 1.3-1.2 1.8-2.5 1.8-.6 0-1.3-.1-1.8-.4l.2-.6c.4.2 1 .4 1.6.4 1 0 1.6-.5 1.6-1.2 0-.9-1-1.2-1.9-1.2H99v-.6h.4c.9 0 1.6-.5 1.6-1.1s-.5-.9-1.2-.9c-.5 0-1.1.2-1.4.4-.1-.1-.3-.7-.3-.7zm11.1 2.6c0 2.1-1.4 3.2-3.2 3.2s-3.1-1.2-3.1-3.1 1.4-3.2 3.2-3.2c1.9.1 3.1 1.3 3.1 3.1zm-5.4.1c0 1.3.8 2.4 2.2 2.4s2.2-1.2 2.2-2.5c0-1.2-.7-2.4-2.2-2.4-1.4 0-2.2 1.2-2.2 2.5zm11.6-3v6h-.9v-5.4h-3.2v5.4h-.9v-6h5zm2.6 4.1l-.7 1.9h-.9l2.3-6h1.1l2.4 6h-.9l-.8-1.9H118zm2.3-.6l-.7-1.7c-.2-.4-.3-.8-.4-1.1h0c-.1.4-.2.7-.4 1.1l-.7 1.8c.1-.1 2.2-.1 2.2-.1zm7.5 2.3a5.94 5.94 0 0 1-1.8.3c-2 0-3.4-1.1-3.4-3.1 0-1.9 1.5-3.2 3.6-3.2.9 0 1.4.2 1.7.3l-.2.6c-.3-.1-.8-.3-1.4-.3-1.6 0-2.7.9-2.7 2.5 0 1.5 1 2.4 2.7 2.4.5 0 1.1-.1 1.5-.3-.1.2 0 .8 0 .8zm2-5.8v2.5h3.3v-2.5h.9v6h-.9v-2.8h-3.3v2.8h-.9v-6h.9zm11.7 2.9c0 2.1-1.4 3.2-3.2 3.2s-3.1-1.2-3.1-3.1 1.4-3.2 3.2-3.2c1.9.1 3.1 1.3 3.1 3.1zm-5.3.1c0 1.3.8 2.4 2.2 2.4s2.2-1.2 2.2-2.5c0-1.2-.7-2.4-2.2-2.4s-2.2 1.2-2.2 2.5zm11.3 2.8a5.94 5.94 0 0 1-1.8.3c-2 0-3.4-1.1-3.4-3.1 0-1.9 1.5-3.2 3.6-3.2.9 0 1.4.2 1.6.3l-.2.6c-.3-.1-.8-.3-1.4-.3-1.6 0-2.7.9-2.7 2.5 0 1.5 1 2.4 2.7 2.4.5 0 1.1-.1 1.5-.3-.1.2.1.8.1.8zm2.8-5.2h-2.1V74h5.1v.7h-2.1v5.4h-.9v-5.4h0zm4.6-.6v2.5l-.1 2.5h0l1.3-2 2.3-3.1h.9v6h-.9v-2.6l.1-2.4h0c-.3.7-.8 1.3-1.3 2l-2.2 3h-.9v-6l.8.1h0 0 0zM35 65.2c1.7-3 5.2-5 8.7-4.8 1.1.2 1.4 1.7.6 2.4-1.3.5-2.8.4-4.1 1.1-2.9 1.4-4.4 5.1-3.3 8.1.4 1.5 1.6 2.7 2.8 3.6 1.2.8.8 2.3 1.1 3.5-2.3-.8-4.3-2.2-5.5-4.2-1.9-2.8-2-6.7-.3-9.7zm11-4.5c1.4.7 2.8 1.4 4 2.6s1.9 2.6 2.6 4l-2.9.1c-.9-1.7-2.3-3-4-3.8a15.04 15.04 0 0 0 .3-2.9zm1.1 8.9c3.5-1.8 8-1.2 10.9 1.5 2 1.9 3.3 4.7 3 7.5-.2 1.2-2.1 1.4-2.5.2-.4-1.4-.4-3.1-1.3-4.3-1.7-2.7-5.3-3.8-8.2-2.6-1.4.5-2.4 1.7-3.3 2.8-.8 1-2.3.7-3.4.8.9-2.5 2.4-4.7 4.8-5.9zM26 75.4c1.1-3 3.5-5.4 6.6-6.5l.1 2.9c-1.7.9-3.1 2.3-3.9 4.1l-2.8-.5zm11.9-6.6c1.8.7 3.3 1.7 4.7 3l-1.4 2.9c-.9-1.1-1.9-2-3-2.8-.2-1-.3-2-.3-3.1zM49.6 73c.9-.4 2-.3 2.9-.4-.7 1.8-1.7 3.3-3 4.6l-2.9-1.3c1.2-.8 2-1.9 3-2.9zm-23.9 5.1c-.1-1.9 2.2-1.9 2.5-.8.5 1.5.4 3.3 1.4 4.6 1.8 2.7 5.6 3.8 8.5 2.3 1.5-.6 2.3-2 3.4-3.1.9-.4 2-.3 3-.3-1.3 3.8-4.8 6.8-9 6.8-5.2.4-10-4.2-9.8-9.5zM42.5 77c.8-.8 2.3 0 2.2 1.1.2 1.1-1.4 1.9-2.2 1.1-.7-.5-.7-1.8 0-2.2zm3.7 2.1c-.1-.7.4-1.3 1.1-1.3.2 0 .5 0 .7.1 1.5.9 2.9 2.1 3.7 3.7 1.7 2.9 1.6 6.7-.1 9.5-1.7 2.9-5 4.8-8.5 4.6-.3 0-.7-.3-.8-.3-.4-.3-.4-1.2-.2-1.6.2-.5.6-.7 1-.8 3.2-.1 6.2-2.3 6.8-5.5.7-2.9-.9-5.7-3.2-7.2-.3-.2-.4-.5-.5-.8v-.4zm-12.1 4.5c.7-1.8 1.7-3.3 3.1-4.6l2.8 1.4c-.9.8-1.7 1.6-2.5 2.4-.8 1.1-2.3.7-3.4.8zm23.8-3.2l2.8.5c-.7 1.5-1.4 3-2.6 4.1-1.1 1.1-2.6 1.8-4 2.4l-.1-2.9c1.8-.9 3.2-2.3 3.9-4.1zm-12.4 1.1c.8 1.1 2 1.9 2.9 2.9.4.9.3 2 .3 2.9-1.8-.7-3.3-1.7-4.6-3l1.4-2.8zM34.1 89l2.9-.1c.9 1.7 2.3 3 4.1 3.8-.2.9-.3 1.9-.4 2.8-3.1-1-5.5-3.4-6.6-6.5z" stroke-width=".822"/></g><g stroke-width=".75"><circle cx="13" cy="71.1" r="3.9"/><circle cx="13" cy="71.1" r="3.3"/><circle cx="13" cy="83.5" r="3.9"/><circle cx="13" cy="83.5" r="3.3"/><circle cx="13" cy="96.5" r="3.9"/><circle cx="13" cy="96.5" r="3.3"/><circle cx="251.9" cy="99.6" r="3.9"/><circle cx="251.9" cy="99.6" r="3.3"/></g><g class="M"><g stroke-width=".811"><path d="M258.6 55.3h-13.4c-.1 0-.2-.1-.2-.1v-28c0-.1.1-.1.2-.1h13.4c.1 0 .1.1.1.1v28c0 0 0 .1-.1.1z"/><path d="M257.8 54.9h-11.9c-.2 0-.4-.2-.4-.4V27.7c0-.2.2-.4.4-.4h11.9c.2 0 .4.2.4.4v26.8c0 .2-.2.4-.4.4z"/><path d="M247.8 52.8V29.4h4.4v23.4h-4.4z"/><use xlink:href="#B"/><use xlink:href="#B" y="5.4"/><use xlink:href="#B" y="10.7"/><path d="M252.2 51h0c.7 0 1.2-.5 1.2-1.1v-1.4a1.11 1.11 0 0 0-1.1-1.1h-.1V51zm5.4-18.8h.6v7h-.6zm0 11h.6v7h-.6zm1 45.4h-13.4c-.1 0-.2-.1-.2-.1v-28c0-.1.1-.1.2-.1h13.4c.1 0 .1.1.1.1v28s0 .1-.1.1z"/><path d="M257.8 88.2h-11.9c-.2 0-.4-.2-.4-.4V61c0-.2.2-.4.4-.4h11.9c.2 0 .4.2.4.4v26.7c0 .3-.2.5-.4.5z"/><path d="M247.8 86.1V62.7h4.4v23.4h-4.4z"/><use xlink:href="#B" y="33.3"/><use xlink:href="#B" y="38.7"/><use xlink:href="#B" y="44"/><use xlink:href="#B" y="49.4"/><path d="M257.6 65.5h.6v7h-.6zm0 11h.6v7h-.6z"/></g><g class="L"><use xlink:href="#C"/><path d="M293.6 62.9H292l.5-3.4.1-.1h.5c.1 0 .1 0 .1.1l.4 3.4z"/><use xlink:href="#C" x="3.6"/><use xlink:href="#C" x="5.4"/><use xlink:href="#C" x="7.2"/><use xlink:href="#C" x="8.9"/><path d="M302.5 62.9H301l.5-3.4.1-.1h.5c.1 0 .1 0 .1.1l.3 3.4z"/><use xlink:href="#C" x="12.5"/><use xlink:href="#C" x="14.3"/><use xlink:href="#C" x="16.1"/><path d="M291.1,68.3h16V70h-16V68.3z"/><use xlink:href="#D"/><path d="M278.1,41H320v28.5h-41.9V41z"/><use xlink:href="#E"/><use xlink:href="#C" x="47.9"/><use xlink:href="#C" x="49.7"/><use xlink:href="#C" x="51.5"/><use xlink:href="#C" x="53.3"/><use xlink:href="#C" x="55.1"/><use xlink:href="#C" x="56.9"/><use xlink:href="#C" x="58.7"/><use xlink:href="#C" x="60.5"/><use xlink:href="#C" x="62.3"/><use xlink:href="#C" x="64.1"/><path d="M339,68.3h16V70h-16V68.3z"/><use xlink:href="#D" x="47.9"/><path d="M326 41h42v28.5h-42V41z"/><path d="M368.2 71.1h-42.5c-.7 0-1.2-.5-1.2-1.2V40.2c0-.7.5-1.2 1.2-1.2h42.5c.7 0 1.2.5 1.2 1.2v29.6c0 .7-.5 1.3-1.2 1.3z"/><use xlink:href="#C" x="95.9" y="0.2"/><use xlink:href="#C" x="97.7" y="0.2"/><use xlink:href="#C" x="99.5" y="0.2"/><use xlink:href="#C" x="101.3" y="0.2"/><use xlink:href="#C" x="103" y="0.2"/><path d="M396.6 63.1H395l.5-3.4.1-.1h.5c.1 0 .1 0 .1.1l.4 3.4z"/><use xlink:href="#C" x="106.6" y="0.2"/><use xlink:href="#C" x="108.4" y="0.2"/><use xlink:href="#C" x="110.2" y="0.2"/><use xlink:href="#C" x="112" y="0.2"/><path d="M387,68.5h16v1.7h-16V68.5z"/><use xlink:href="#D" x="95.9" y="0.2"/><path d="M374 41.1h41.9v28.5H374V41.1z"/><path d="M416.2 71.3h-42.5c-.7 0-1.2-.5-1.2-1.2V40.4c0-.7.5-1.2 1.2-1.2h42.5c.7 0 1.2.5 1.2 1.2V70c0 .7-.6 1.3-1.2 1.3z"/><use xlink:href="#C" x="143.3"/><use xlink:href="#C" x="145.1"/><use xlink:href="#C" x="146.9"/><use xlink:href="#C" x="148.6"/><use xlink:href="#C" x="150.4"/><use xlink:href="#C" x="152.2"/><use xlink:href="#C" x="154"/><path d="M447.6 62.9H446l.5-3.4.1-.1h.5c.1 0 .1 0 .1.1l.4 3.4z"/><use xlink:href="#C" x="157.6"/><use xlink:href="#C" x="159.4"/><path d="M434.4,68.3h16V70h-16V68.3z"/><path d="M434.7 68.3H450l-.2.6c-.1.4-.6.7-1.2.7h-12.5c-.6 0-1.1-.3-1.2-.7l-.2-.6z"/><path d="M421.4,41h41.9v28.5h-41.9V41z"/><use xlink:href="#E" x="143.3"/><use xlink:href="#F"/><path d="M447.8 82.6h1.6L449 86c0 .1-.1.1-.1.1h-.5c-.1 0-.1 0-.1-.1l-.5-3.4z"/><use xlink:href="#G"/><use xlink:href="#G" x="-1.8"/><use xlink:href="#G" x="-3.6"/><use xlink:href="#G" x="-5.4"/><path d="M438.8 82.6h1.6L440 86c0 .1-.1.1-.1.1h-.5c-.1 0-.1 0-.1-.1l-.5-3.4z"/><use xlink:href="#G" x="-9"/><use xlink:href="#G" x="-10.8"/><use xlink:href="#G" x="-12.6"/><path d="M434.3,75.5h16v1.7h-16V75.5z"/><use xlink:href="#H"/><path d="M421.3,76h41.9v28.6h-41.9V76z"/><path d="M421.1 74.4h42.5c.7 0 1.2.5 1.2 1.2v29.6c0 .7-.5 1.2-1.2 1.2h-42.5c-.7 0-1.2-.5-1.2-1.2V75.6c0-.7.5-1.2 1.2-1.2z"/><use xlink:href="#G" x="-44.4"/><path d="M399.8 82.6h1.6L401 86c0 .1-.1.1-.1.1h-.5c-.1 0-.1 0-.1-.1l-.5-3.4z"/><use xlink:href="#G" x="-48"/><use xlink:href="#G" x="-49.8"/><use xlink:href="#F" x="-55"/><use xlink:href="#G" x="-53.3"/><path d="M390.9 82.6h1.6L392 86c0 .1-.1.1-.1.1h-.5c-.1 0-.1 0-.1-.1l-.4-3.4z"/><use xlink:href="#G" x="-56.9"/><use xlink:href="#G" x="-58.7"/><use xlink:href="#F" x="-64"/><path d="M386.4,75.5h16v1.7h-16V75.5z"/><use xlink:href="#H" x="-48"/><path d="M373.4 76h41.9v28.6h-41.9V76z"/><path d="M373.1 74.4h42.5c.7 0 1.2.5 1.2 1.2v29.6c0 .7-.5 1.2-1.2 1.2h-42.5c-.7 0-1.2-.5-1.2-1.2V75.6c0-.7.6-1.2 1.2-1.2h0z"/><use xlink:href="#G" x="-92.3" y="-0.2"/><use xlink:href="#G" x="-94.1" y="-0.2"/><use xlink:href="#G" x="-95.9" y="-0.2"/><use xlink:href="#G" x="-97.7" y="-0.2"/><use xlink:href="#F" x="-103" y="-0.2"/><use xlink:href="#G" x="-101.3" y="-0.2"/><use xlink:href="#G" x="-103.1" y="-0.2"/><use xlink:href="#G" x="-104.9" y="-0.2"/><use xlink:href="#G" x="-106.7" y="-0.2"/><use xlink:href="#F" x="-112" y="-0.2"/><path d="M338.4,75.3h16V77h-16V75.3z"/><path d="M354 77h-15.2l.2-.6c.1-.4.6-.7 1.2-.7h12.5c.6 0 1.1.3 1.2.7l.1.6h0z"/><path d="M325.4,75.8h41.9v28.5h-41.9V75.8z"/><path d="M325.2 74.2h42.5c.7 0 1.2.5 1.2 1.2V105c0 .7-.5 1.2-1.2 1.2h-42.5c-.7 0-1.2-.5-1.2-1.2V75.4c0-.6.5-1.2 1.2-1.2z"/><use xlink:href="#G" x="-139.7"/><use xlink:href="#F" x="-145"/><use xlink:href="#G" x="-143.3"/><path d="M300.9 82.6h1.6L302 86c0 .1-.1.1-.1.1h-.5c-.1 0-.1 0-.1-.1l-.4-3.4z"/><use xlink:href="#G" x="-146.9"/><use xlink:href="#G" x="-148.7"/><use xlink:href="#F" x="-154"/><use xlink:href="#G" x="-152.3"/><use xlink:href="#G" x="-154"/><use xlink:href="#G" x="-155.8"/><path d="M291,75.5h16v1.7h-16V75.5z"/><use xlink:href="#H" x="-143.3"/><path d="M278 76h42v28.6h-42V76z"/><path d="M277.8 74.4h42.5c.7 0 1.2.5 1.2 1.2v29.6c0 .7-.5 1.2-1.2 1.2h-42.5c-.7 0-1.2-.5-1.2-1.2V75.6c0-.7.5-1.2 1.2-1.2h0z"/></g><path d="M207.9 101.5c0 .2 0 .3-.1.5-.1.1-.2.3-.3.3a.76.76 0 0 1-.4.2c-.2 0-.3.1-.5.1h-.4c-.1 0-.2 0-.3-.1-.1 0-.2-.1-.2-.1-.1 0-.1-.1-.1-.1s0-.1-.1-.1 0-.1 0-.1v-.1-.1h.1l.2.1c.1 0 .2.1.3.1s.2.1.4.1h.3c.1 0 .2-.1.2-.1.1 0 .1-.1.1-.2s.1-.2.1-.3 0-.2-.1-.3c0-.1-.1-.1-.2-.2l-.3-.2c-.1 0-.2-.1-.3-.2s-.2-.1-.3-.2-.2-.1-.3-.2-.1-.2-.2-.3-.1-.2-.1-.4 0-.3.1-.4.1-.2.2-.3.2-.2.4-.2c.1 0 .3-.1.4-.1h.3c.1 0 .2 0 .2.1.1 0 .1 0 .2.1.1 0 .1.1.1.1v.1.1.1.1h-.1s-.1-.1-.2-.1-.1-.1-.2-.1h-.3-.3c-.1 0-.1.1-.2.1s-.1.1-.1.2v.2c0 .1 0 .2.1.3 0 .1.1.1.2.2s.2.1.3.2c.1 0 .2.1.3.2l.3.2c.1.1.2.1.3.2s.1.2.2.3c.3-.1.3.1.3.3h0zm2.9-.5c0 .1 0 .1-.1.2s-.1 0-.1 0h-1.7v.4c0 .1.1.2.1.3.1.1.2.2.3.2s.2.1.4.1h.3c.1 0 .2 0 .3-.1.1 0 .1 0 .2-.1h.1 0v.1.1.1s-.1 0-.1.1c-.1 0-.1 0-.2.1s-.2 0-.3.1h-.4c-.2 0-.4 0-.6-.1s-.3-.1-.4-.3c-.1-.1-.2-.3-.3-.4-.1-.2-.1-.4-.1-.6s0-.4.1-.6.1-.3.3-.5c.1-.1.2-.2.4-.3.1-.1.3-.1.5-.1s.4 0 .5.1.3.2.4.3.2.2.2.4c.2.1.2.3.2.5h0 0 0zm-.5-.1c0-.3-.1-.4-.2-.6s-.3-.2-.5-.2c-.1 0-.2 0-.3.1s-.2.1-.2.2c-.1.1-.1.2-.1.3s-.1.2-.1.3l1.4-.1zm2.8-.9v.1.1h-.1-.1-.1-.1-.1s-.1 0-.1.1l-.2.2-.2.3v1.7h-.1-.1-.1-.1v-2.6h.1.1.1.1v.4c.1-.1.1-.2.2-.3l.2-.2c.1 0 .1-.1.2-.1h.2.1.1.1.1 0c-.2.2-.2.2-.2.3 0-.1 0 0 0 0h0zm1.1-1c0 .1 0 .2-.1.2s-.1.1-.2.1-.2 0-.2-.1-.1-.1-.1-.2 0-.2.1-.2.1-.1.2-.1.2 0 .2.1.1 0 .1.2zm-.1 3.5l-.1.1h-.1-.1-.1V100h.1.1.1.1v2.5zm2.9 0h0c-.1.1-.2.1-.2.1h-.1-.1v-.1-.3a1.38 1.38 0 0 1-.4.3c-.2.1-.3.1-.4.1s-.3 0-.4-.1c-.1 0-.2-.1-.3-.2s-.1-.2-.2-.3c0-.1-.1-.2-.1-.3s0-.3.1-.4.1-.2.3-.3c.1-.1.3-.1.4-.2h.6.4v-.2-.3c0-.1-.1-.1-.1-.2 0 0-.1-.1-.2-.1h-.3-.3c-.1 0-.2.1-.3.1s-.1.1-.2.1h-.1v-.1-.1-.1s0-.1.1-.1l.1-.1s.1-.1.2-.1.2 0 .3-.1h.3c.2 0 .4 0 .5.1.1 0 .2.1.3.2s.1.2.2.3.1.3.1.4l-.2 2h0 0 0zm-.5-1.2h-.4-.4c-.1 0-.2 0-.2.1-.1 0-.1.1-.1.2v.2c0 .1 0 .2.1.3s.2.1.4.1c.1 0 .2 0 .4-.1s.2-.2.3-.3v-.5h-.1zm1.9 1.2c-.1 0-.1 0 0 0l-.1.1h-.1-.1-.1v-3.9h.1.1.1.1v3.8z" stroke-width=".443"/><g stroke-width=".665"><path d="M230 95h-35.9c-.1 0-.2-.1-.2-.2V68c0-.1.1-.2.2-.2H230c.1 0 .2.1.2.2v26.8c0 .1-.1.2-.2.2z"/><path d="M229.2 94.2h-34.3c-.1 0-.2-.1-.2-.2V68.8c0-.1.1-.2.2-.2h34.3c.1 0 .2.1.2.2V94c0 .1-.1.2-.2.2z"/><path d="M198.7 78.7v-4.4c0-.1.1-.2.2-.2h4.8c.1 0 .2-.1.2-.2v-3.6c0-.1.1-.2.2-.2h2.8c.1 0 .2-.1.2-.2v-1.2c0-.1.1-.2.2-.2h4.9 4.9c.1 0 .2.1.2.2V70c0 .1.1.2.2.2h2.8c.1 0 .2.1.2.2V74c0 .1.1.2.2.2h4.8c.1 0 .2.1.2.2v4.4V85v4c0 .1-.1.2-.2.2h-13.2-13.2c-.1 0-.2-.1-.2-.2v-4l-.2-6.3h0 0z"/><use xlink:href="#I"/><use xlink:href="#I" x="2.1"/><use xlink:href="#I" x="4.2"/><use xlink:href="#I" x="6.3"/><use xlink:href="#I" x="8.3"/><use xlink:href="#I" x="10.4"/><use xlink:href="#I" x="12.5"/><use xlink:href="#I" x="14.6"/><path d="M225 83.6l1.3.1V80l-1.3.1c-.2 0-.3.1-.3.3v2.8c0 .2.1.4.3.4zm-25.8 0l-1.3.1V80l1.3.1c.2 0 .3.1.3.3v2.8c0 .2-.1.4-.3.4z"/></g><path d="M299 54.5l4.9-39.9h24.6m-1 117.9h-24.6L298 92.6m77 39.9h-24.6l-4.9-39.9m78.6 39.9h-24.6l-4.9-39.9m76.6 39.9h-24.6l-4.9-39.9m-96.2-38.1l4.9-39.9H375m19.5 39.9l4.9-39.9H424m17.7 39.9l4.9-39.9h24.6"/><g class="L"><use xlink:href="#C" x="228.9" y="26.9"/><use xlink:href="#J"/><use xlink:href="#C" x="232.5" y="26.9"/><use xlink:href="#C" x="234.3" y="26.9"/><use xlink:href="#C" x="236.1" y="26.9"/><path d="M529.6 89.8H528l.5-3.4.1-.1h.5c.1 0 .1 0 .1.1l.4 3.4z"/><use xlink:href="#C" x="239.6" y="26.9"/><use xlink:href="#C" x="241.4" y="26.9"/><use xlink:href="#C" x="243.2" y="26.9"/><use xlink:href="#C" x="245" y="26.9"/><path d="M520,95.2h16v1.7h-16V95.2z"/><use xlink:href="#D" x="228.8" y="26.9"/><path d="M507,67.9h41.9v28.5H507V67.9z"/><path d="M549.2 98h-42.5c-.7 0-1.2-.5-1.2-1.2V67.1c0-.7.5-1.2 1.2-1.2h42.5c.7 0 1.2.5 1.2 1.2v29.6c0 .8-.6 1.3-1.2 1.3zm19.4-8.2H567l.5-3.4.1-.1h.5c.1 0 .1 0 .1.1l.4 3.4z"/><use xlink:href="#C" x="278.6" y="26.9"/><use xlink:href="#C" x="280.4" y="26.9"/><use xlink:href="#C" x="282.2" y="26.9"/><use xlink:href="#C" x="284" y="26.9"/><path d="M577.6 89.8H576l.5-3.4c0-.1.1-.1.1-.1h.5c.1 0 .1 0 .1.1l.4 3.4z"/><use xlink:href="#C" x="287.6" y="26.9"/><use xlink:href="#C" x="289.4" y="26.9"/><use xlink:href="#C" x="291.2" y="26.9"/><use xlink:href="#J" x="62.2"/><path d="M567.9,95.2h16v1.7h-16V95.2z"/><use xlink:href="#D" x="276.8" y="26.9"/><path d="M554.9,67.9h41.9v28.5h-41.9V67.9z"/><path d="M597.1 98h-42.5c-.7 0-1.2-.5-1.2-1.2V67.1c0-.7.5-1.2 1.2-1.2h42.5c.7 0 1.2.5 1.2 1.2v29.6c0 .8-.5 1.3-1.2 1.3zm19.5-8H615l.5-3.4.1-.1h.5c.1 0 .1 0 .1.1l.4 3.4z"/><use xlink:href="#C" x="326.6" y="27.1"/><use xlink:href="#C" x="328.4" y="27.1"/><use xlink:href="#C" x="330.2" y="27.1"/><use xlink:href="#J" x="101.2" y="0.2"/><path d="M625.5 90H624l.5-3.4.1-.1h.5c.1 0 .1 0 .1.1l.3 3.4z"/><use xlink:href="#C" x="335.5" y="27.1"/><use xlink:href="#J" x="106.6" y="0.2"/><use xlink:href="#C" x="339.1" y="27.1"/><use xlink:href="#C" x="340.9" y="27.1"/><path d="M615.9,95.4h16v1.7h-16V95.4z"/><use xlink:href="#D" x="324.7" y="27.1"/><path d="M602.9,68h41.9v28.5h-41.9V68z"/><path d="M645.1 98.2h-42.5c-.7 0-1.2-.5-1.2-1.2V67.3c0-.7.5-1.2 1.2-1.2h42.5c.7 0 1.2.5 1.2 1.2V97c0 .6-.6 1.2-1.2 1.2z"/><use xlink:href="#C" x="372.2" y="26.9"/><use xlink:href="#C" x="374" y="26.9"/><path d="M667.6 89.8H666l.5-3.4.1-.1h.5c.1 0 .1 0 .1.1l.4 3.4z"/><use xlink:href="#C" x="377.5" y="26.9"/><use xlink:href="#C" x="379.3" y="26.9"/><use xlink:href="#C" x="381.1" y="26.9"/><use xlink:href="#C" x="382.9" y="26.9"/><use xlink:href="#C" x="384.7" y="26.9"/><use xlink:href="#C" x="386.5" y="26.9"/><use xlink:href="#C" x="388.3" y="26.9"/><path d="M663.3,95.2h16v1.7h-16V95.2z"/><path d="M663.6 95.2h15.2l-.2.6c-.1.4-.6.7-1.2.7H665c-.6 0-1.1-.3-1.2-.7l-.2-.6z"/><path d="M650.3,67.9h41.9v28.5h-41.9V67.9z"/><path d="M692.4 98H650c-.7 0-1.2-.5-1.2-1.2V67.1c0-.7.5-1.2 1.2-1.2h42.5c.7 0 1.2.5 1.2 1.2v29.6c0 .8-.6 1.3-1.3 1.3z"/></g><path d="M527.8 81.4l4.9-64.5h24.6m17.1 64.5l4.9-64.5h24.6m19.5 64.5l4.9-64.5H653m17.6 64.5l4.9-64.5h24.6" class="N"/><g stroke-width=".679"><path d="M230.4 58.3h-36.6c-.1 0-.2-.1-.2-.2h0V29.5c0-.1.1-.2.2-.2h0 36.6c.1 0 .2.1.2.2v28.6c0 .1-.1.2-.2.2z"/><path d="M229.6 57.5h-35c-.1 0-.2-.1-.2-.2v-27c0-.1.1-.2.2-.2h35c.1 0 .2.1.2.2v27c0 .1-.1.2-.2.2h0z"/><path d="M212.1 53.4h13.5c.1 0 .2-.1.2-.2v-4.1c0-.1.1-.2.2-.2h.5c.1 0 .2-.1.2-.2v-5.1-.6c0-.1-.1-.2-.2-.2h-.5c-.1 0-.2-.1-.2-.2v-4.5c0-.1-.1-.2-.2-.2h-4.9c-.1 0-.2-.1-.2-.2V34c0-.1-.1-.2-.2-.2h-2.9c-.1 0-.2-.1-.2-.2v-1.2c0-.1-.1-.2-.2-.2h-5.1-4.9c-.1 0-.2.1-.2.2v1.2c0 .1-.1.2-.2.2h-2.9c-.1 0-.2.1-.2.2v4c0 .1-.1.2-.2.2h-4.9c-.1 0-.2.1-.2.2v4.5c0 .1-.1.2-.2.2h-.5c-.1 0-.2.1-.2.2v.6V49c0 .1.1.2.2.2h.5c.1 0 .2.1.2.2v4.1c0 .1.1.2.2.2h13.7v-.3zm-10.2-17.2h-5.3c-.1 0-.2-.1-.2-.2v-2.1c0-.1.1-.2.2-.2h5.3c.1 0 .2.1.2.2V36c-.1.1-.1.2-.2.2zm25.7 0h-5.3c-.1 0-.2-.1-.2-.2v-2.1c0-.1.1-.2.2-.2h5.3c.1 0 .2.1.2.2V36c0 .1-.1.2-.2.2z"/><path d="M198.3 48.3h-1.1v-4.4h1.1a.47.47 0 0 1 .5.5v3.4c0 .2-.2.5-.5.5zm27.6 0h1.1v-4.4h-1.1a.47.47 0 0 0-.5.5v3.4c0 .2.2.5.5.5z"/><use xlink:href="#K"/><path d="M207.2 52.8H206l.3-3.3s0-.1.1-.1h.4s.1 0 .1.1l.3 3.3z"/><use xlink:href="#K" x="4.2"/><use xlink:href="#K" x="6.4"/><use xlink:href="#K" x="8.5"/><use xlink:href="#K" x="10.6"/><use xlink:href="#K" x="12.7"/><use xlink:href="#K" x="14.8"/></g></g></g><path d="M307.3 3.4c0 .2 0 .4-.1.5s-.3.1-.5.1-.4 0-.5-.1-.1-.2-.1-.5c0-.2 0-.4.1-.5s.2-.1.5-.1c.2 0 .4 0 .5.1s.1.3.1.5zm-.1 7.1c0 .1-.1.1-.1.1h-.1-.2-.2-.1s-.1 0-.1-.1v-.1-5.2-.1l.1-.1c.1-.1.1 0 .1 0h.2.2.1s.1 0 .1.1v.1 5.3zm6.2-5.1c0 .1 0 .2-.1.3l-.1.1h-.8c.1.1.2.3.3.5a.9.9 0 0 1 .1.5c0 .3 0 .6-.1.8s-.2.4-.4.6-.4.3-.6.4-.5.1-.8.1c-.2 0-.4 0-.6-.1s-.3-.1-.4-.2c-.1.1-.1.2-.2.2s-.1.2-.1.3.1.3.2.3.3.1.5.1l1.4.1c.3 0 .5 0 .7.1l.6.3c.2.1.3.3.4.4s.1.4.1.6-.1.5-.2.7-.3.4-.5.6-.5.3-.8.4-.7.1-1.1.1-.8 0-1.1-.1-.5-.2-.7-.3-.3-.3-.4-.4-.1-.4-.1-.6v-.4c0-.1.1-.2.1-.3s.1-.2.2-.3l.3-.3a.78.78 0 0 1-.4-.4c-.1-.2-.1-.3-.1-.5s0-.5.1-.6.2-.4.4-.5c-.1-.1-.2-.3-.3-.5s-.1-.4-.1-.7.1-.6.2-.8.2-.4.4-.6.4-.3.6-.4.5-.1.8-.1h.4c.1 0 .3 0 .4.1h1.6c.1 0 .1 0 .1.1s.1.3.1.4zm-1 5.6a.55.55 0 0 0-.3-.5c-.2-.1-.4-.2-.8-.2h-1.4l-.3.3c-.1.1-.1.2-.2.3s-.1.2-.1.2v.2c0 .3.1.4.4.6s.6.2 1.1.2c.3 0 .5 0 .7-.1s.4-.1.5-.2l.3-.3c.1-.1.1-.4.1-.5zm-.5-4.2c0-.4-.1-.6-.3-.8s-.5-.3-.8-.3c-.2 0-.4 0-.5.1s-.3.1-.4.2-.2.2-.2.4-.1.3-.1.4c0 .3.1.6.3.8s.5.3.8.3c.2 0 .4 0 .5-.1s.3-.1.3-.3.2-.2.2-.4.2-.1.2-.3z"/><use xlink:href="#L"/><path d="M325.7 6.8c0 .6 0 1.1-.1 1.6s-.2.9-.5 1.2-.5.6-.8.8-.8.3-1.3.3-.9-.1-1.2-.3-.6-.4-.8-.8-.3-.7-.4-1.2-.1-1-.1-1.7c0-.6 0-1.1.1-1.6s.2-.9.5-1.2.5-.6.8-.8.8-.3 1.3-.3.9.1 1.2.3.6.4.8.8.3.7.4 1.2.1 1.1.1 1.7zm-1 .1v-1c0-.3-.1-.6-.1-.8s-.1-.4-.2-.6a1.38 1.38 0 0 0-.3-.4.76.76 0 0 0-.4-.2c-.1 0-.3-.1-.5-.1-.3 0-.6.1-.8.2-.2.2-.4.4-.5.6s-.2.6-.2 1-.1.8-.1 1.2c0 .6 0 1 .1 1.4l.3 1c.1.3.3.4.5.5s.4.2.7.2c.2 0 .4 0 .6-.1s.3-.2.4-.3.2-.3.3-.5.1-.4.2-.6.1-.5.1-.7-.1-.5-.1-.8z"/><use xlink:href="#M"/><use xlink:href="#N"/><use xlink:href="#O"/><path d="M326.3 129.2v.2.1s0 .1-.1.1h-.1-4-.1l-.1-.1c-.1-.1 0-.1 0-.1v-.2-.2-.1s0-.1.1-.1h.1 1.6V123l-1.5.9c-.1 0-.1.1-.2.1h-.1s0-.1-.1-.1 0-.1 0-.2v-.2-.1-.1l.1-.1 1.7-1.1h.1.1.1.2.2.1s.1 0 .1.1v.1 6.7h1.4.1l.1.1c.1.1 0 .1 0 .1s.2-.1.2 0z"/><use xlink:href="#P"/><path d="M360.7 5.4c0 .1 0 .2-.1.3l-.1.1h-.8c.1.1.2.3.3.5a.9.9 0 0 1 .1.5c0 .3 0 .6-.1.8s-.2.4-.4.6-.4.3-.6.4-.5.1-.8.1c-.2 0-.4 0-.6-.1s-.3-.1-.4-.2c-.1.1-.1.2-.2.2s-.1.2-.1.3.1.3.2.3.3.1.5.1l1.4.1c.3 0 .5 0 .7.1l.6.3c.2.1.3.3.4.4s.1.4.1.6-.1.5-.2.7-.3.4-.5.6-.5.3-.8.4-.7.1-1.1.1-.8 0-1.1-.1-.5-.2-.7-.3-.3-.3-.4-.4-.1-.4-.1-.6v-.4c0-.1.1-.2.1-.3s.1-.2.2-.3l.3-.3a.78.78 0 0 1-.4-.4c-.1-.2-.1-.3-.1-.5s0-.5.1-.6.2-.4.4-.5c-.1-.1-.2-.3-.3-.5s-.2-.3-.2-.5c0-.3.1-.6.2-.8s.2-.4.4-.6.4-.3.6-.4.5-.1.8-.1h.4c.1 0 .3 0 .4.1h1.6c.1 0 .1 0 .1.1s.2.1.2.2zm-1 5.6a.55.55 0 0 0-.3-.5c-.2-.1-.4-.2-.8-.2h-1.4l-.3.3c-.1.1-.1.2-.2.3s-.1.2-.1.2v.2c0 .3.1.4.4.6s.6.2 1.1.2c.3 0 .5 0 .7-.1s.4-.1.5-.2l.3-.3c.1-.1.1-.4.1-.5zm-.5-4.2c0-.4-.1-.6-.3-.8s-.5-.3-.8-.3c-.2 0-.4 0-.5.1s-.3.1-.3.3-.2.2-.2.4-.1.2-.1.4c0 .3.1.6.3.8s.5.3.8.3c.2 0 .4 0 .5-.1s.3-.1.3-.3.2-.2.2-.4.1-.2.1-.4z"/><use xlink:href="#O" x="46.5" y="-119"/><path d="M372.8 10.2v.2.1s0 .1-.1.1h-.1-4.2-.1s-.1 0-.1-.1-.1-.1-.1-.1v-.2-.2-.2c0-.1 0-.1.1-.1l.1-.1 1.5-1.6a5.77 5.77 0 0 0 .8-1c.2-.3.4-.5.5-.8s.2-.4.2-.6.1-.4.1-.5 0-.3-.1-.5-.1-.3-.2-.4a1.38 1.38 0 0 0-.4-.3c-.2-.1-.3-.1-.6-.1-.2 0-.5 0-.7.1s-.4.1-.5.2a.76.76 0 0 1-.4.2c-.1 0-.2.1-.2.1h-.1l-.1-.1c-.1-.1 0-.1 0-.1V4v-.2-.1-.1s0-.1.1-.1.1-.1.2-.2.3-.1.4-.2.4-.1.6-.2.4-.1.7-.1c.4 0 .7.1 1 .2s.5.2.7.4.3.4.4.6.1.5.1.8c0 .2 0 .5-.1.7s-.1.5-.3.8-.3.6-.6.9-.6.7-1 1.2l-1.2 1.3h3.3.1s.1 0 .1.1v.1s.2.2.2.3z"/><use xlink:href="#M" x="47.3"/><path d="M361.5 124.4c0 .1 0 .2-.1.3l-.1.1h-.8c.1.1.2.3.3.5a.9.9 0 0 1 .1.5c0 .3 0 .6-.1.8s-.2.4-.4.6-.4.3-.6.4-.5.1-.8.1c-.2 0-.4 0-.6-.1s-.3-.1-.4-.2c-.1.1-.1.2-.2.2s-.1.2-.1.3.1.3.2.3.3.1.5.1l1.4.1c.3 0 .5 0 .7.1l.6.3c.2.1.3.3.4.4s.1.4.1.6-.1.5-.2.7-.3.4-.5.6-.5.3-.8.4-.7.1-1.1.1-.8 0-1.1-.1-.5-.2-.7-.3-.3-.3-.4-.4-.1-.4-.1-.6v-.4c0-.1.1-.2.1-.3s.1-.2.2-.3l.3-.3a.78.78 0 0 1-.4-.4c-.1-.2-.1-.3-.1-.5s0-.5.1-.6.2-.4.4-.5c-.1-.1-.2-.3-.3-.5s-.1-.4-.1-.7.1-.6.2-.8.2-.4.4-.6.4-.3.6-.4.5-.1.8-.1h.4c.1 0 .3 0 .4.1h1.6c.1 0 .1 0 .1.1s.1.3.1.4zm-1 5.6a.55.55 0 0 0-.3-.5c-.2-.1-.4-.2-.8-.2H358l-.3.3c-.1.1-.1.2-.2.3s-.1.2-.1.2v.2c0 .3.1.4.4.6s.6.2 1.1.2c.3 0 .5 0 .7-.1s.4-.1.5-.2l.3-.3c.1-.1.1-.4.1-.5zm-.5-4.2c0-.4-.1-.6-.3-.8s-.5-.3-.8-.3c-.2 0-.4 0-.5.1s-.3.1-.3.3-.2.2-.2.4-.1.3-.1.4c0 .3.1.6.3.8s.5.3.8.3c.2 0 .4 0 .5-.1s.3-.1.3-.3.2-.2.2-.4.1-.2.1-.4z"/><use xlink:href="#O" x="47.3"/><path d="M373.5 127.4a2.39 2.39 0 0 1-.2.9 3.04 3.04 0 0 1-.5.7c-.2.2-.5.4-.8.5s-.7.2-1.1.2c-.3 0-.5 0-.7-.1s-.4-.1-.6-.1-.3-.1-.4-.2-.2-.1-.2-.1l-.1-.1v-.1-.1-.2-.3c0-.1.1-.1.1-.1s.1 0 .2.1.2.1.4.2.4.1.6.2.5.1.7.1c.3 0 .5 0 .7-.1s.4-.2.5-.3.2-.3.3-.4c.1-.2.1-.3.1-.5s0-.4-.1-.6a.78.78 0 0 0-.4-.4l-.6-.3c-.2-.1-.5-.1-.8-.1h-.7-.1s-.1 0-.1-.1 0-.1-.1-.1 0-.1 0-.2v-.2-.1s0-.1.1-.1h.1.7c.3 0 .5 0 .7-.1s.4-.2.5-.3.3-.3.3-.4.1-.4.1-.6 0-.3-.1-.4-.1-.3-.2-.4-.2-.2-.4-.2-.3-.1-.5-.1-.4 0-.6.1-.4.1-.5.2a.76.76 0 0 1-.4.2c-.1 0-.2.1-.2.1h-.1l-.1-.1c-.1-.1 0-.1 0-.1v-.2-.2-.1-.1s0-.1.1-.1.1-.1.2-.2.3-.1.4-.2.4-.1.6-.2.5-.1.7-.1c.4 0 .7 0 .9.1s.5.2.7.4.3.4.4.6.1.5.1.8c0 .2 0 .5-.1.7s-.2.4-.3.5l-.4.4c-.1.1-.4.2-.6.2h0c.3 0 .5.1.7.2s.4.2.6.4.3.3.4.5.1.5.1.7zm30.7-124c0 .2 0 .4-.1.5s-.3.1-.5.1-.4 0-.5-.1-.1-.3-.1-.5 0-.4.1-.5.2-.1.5-.1c.2 0 .4 0 .5.1s.1.3.1.5zm-.1 7.1c0 .1-.1.1-.1.1h-.1-.2-.2-.1s-.1 0-.1-.1v-.1-5.2-.1l.1-.1c.1-.1.1 0 .1 0h.2.2.1s.1 0 .1.1v.1 5.3z"/><use xlink:href="#N" x="96.1" y="-119"/><use xlink:href="#L" x="96.9"/><path d="M422.7 8.5c0 .1 0 .2-.1.3s-.1.1-.2.1h-.9v1.6.1l-.1.1h-.2-.2-.2-.2s-.1 0-.1-.1v-.1-1.6h-3.1-.1s-.1 0-.1-.1c0 0 0-.1-.1-.1s0-.1 0-.2v-.2-.2V8s0-.1.1-.1l2.7-4.6s0-.1.1-.1c0 0 .1 0 .1-.1s.1 0 .2 0h.3.3.2c.1 0 .1 0 .1.1v.1V8h.9c.1 0 .1 0 .2.1s.4.2.4.4zm-2.1-4.6h0L418.1 8h2.4V3.9z"/><use xlink:href="#M" x="96.9"/><use xlink:href="#N" x="96.9"/><use xlink:href="#L" x="97.7" y="119"/><path d="M423.1 127.2c0 .4-.1.8-.2 1.1s-.3.6-.6.8-.5.4-.9.5-.7.2-1.2.2h-.7c-.2 0-.4-.1-.6-.1s-.3-.1-.4-.1-.2-.1-.2-.1 0-.1-.1-.1 0-.1 0-.1v-.1-.2-.2-.1s0-.1.1-.1h.1s.1 0 .2.1.2.1.3.2.3.1.5.2.4.1.7.1.5 0 .7-.1l.6-.3c.2-.1.3-.3.4-.5s.1-.4.1-.7c0-.2 0-.5-.1-.6s-.2-.3-.4-.5-.4-.2-.6-.3-.5-.1-.9-.1h-.6-.5c-.1 0-.2 0-.2-.1s-.1-.1-.1-.3v-3.1c0-.1 0-.2.1-.3s.1-.1.3-.1h3.4.1s.1 0 .1.1v.1.2c0 .1 0 .3-.1.3s-.1.1-.2.1h-2.7v2.1h.4.5c.4 0 .8.1 1.1.2s.6.3.8.4c.2.2.4.4.5.7.3.1.3.4.3.8z"/><use xlink:href="#P" x="95.9"/><path d="M456.6 5.4c0 .1 0 .2-.1.3l-.1.1h-.8c.1.1.2.3.3.5a.9.9 0 0 1 .1.5c0 .3 0 .6-.1.8s-.2.4-.4.6-.4.3-.6.4-.5.1-.8.1c-.2 0-.4 0-.6-.1s-.3-.1-.4-.2c-.1.1-.1.2-.2.2s-.1.2-.1.3.1.3.2.3.3.1.5.1l1.4.1c.3 0 .5 0 .7.1l.6.3c.2.1.3.3.4.4s.1.4.1.6-.1.5-.2.7-.3.4-.5.6-.5.3-.8.4-.7.1-1.1.1-.8 0-1.1-.1-.5-.2-.7-.3-.3-.3-.4-.4-.1-.4-.1-.6v-.4c0-.1.1-.2.1-.3s.1-.2.2-.3l.3-.3a.78.78 0 0 1-.4-.4c-.1-.2-.1-.3-.1-.5s0-.5.1-.6.2-.4.4-.5c-.1-.1-.2-.3-.3-.5s-.1-.4-.1-.7.1-.6.2-.8.2-.4.4-.6.4-.3.6-.4.5-.1.8-.1h.4c.1 0 .3 0 .4.1h1.6c.1 0 .1 0 .1.1s.1.3.1.4zm-1 5.6a.55.55 0 0 0-.3-.5c-.2-.1-.4-.2-.8-.2h-1.4l-.3.3c-.1.1-.1.2-.2.3s-.1.2-.1.2v.2c0 .3.1.4.4.6s.6.2 1.1.2c.3 0 .5 0 .7-.1s.4-.1.5-.2l.3-.3c.1-.1.1-.4.1-.5zm-.5-4.2c0-.4-.1-.6-.3-.8s-.5-.3-.8-.3c-.2 0-.4 0-.5.1s-.3.1-.3.3-.2.2-.2.4-.1.3-.1.4c0 .3.1.6.3.8s.4.3.8.3c.2 0 .4 0 .5-.1s.3-.1.3-.3.2-.2.2-.4.1-.2.1-.4z"/><use xlink:href="#L" x="143.2"/><path d="M468.9 8.2c0 .3-.1.7-.2 1s-.3.6-.5.8-.5.4-.8.6-.7.2-1.1.2c-.3 0-.6 0-.8-.1s-.5-.2-.6-.3-.3-.3-.4-.5-.2-.5-.3-.7-.1-.6-.2-.9v-1c0-.3 0-.7.1-1s.1-.7.2-1 .2-.6.4-.9.3-.5.6-.7.5-.4.8-.5.7-.2 1.1-.2h.4c.1 0 .3 0 .4.1s.2.1.3.1.1.1.2.1 0 0 .1.1 0 .1 0 .1v.1.1.2.1s0 .1-.1.1h-.1-.2c-.1 0-.2-.1-.3-.1s-.2-.1-.4-.1h-.5c-.4 0-.7.1-.9.2a.9.9 0 0 0-.6.6c-.1.3-.3.5-.4.9s-.1.7-.1 1c.1-.1.2-.1.3-.2s.3-.1.4-.2a.76.76 0 0 1 .4-.2h.5c.4 0 .8.1 1 .2a3.04 3.04 0 0 1 .7.5c.2.2.3.4.4.7s.2.4.2.8zm-1.1.1c0-.2 0-.4-.1-.6s-.1-.3-.2-.5-.2-.2-.4-.3-.4-.1-.7-.1h-.4c-.1 0-.3.1-.4.1a.76.76 0 0 0-.4.2c-.1.1-.2.1-.3.2 0 .5 0 .9.1 1.3s.2.6.3.8.3.4.5.4.4.1.6.1c.3 0 .5 0 .7-.1s.3-.2.5-.4.2-.3.3-.5-.1-.4-.1-.6z"/><use xlink:href="#M" x="143.4"/><use xlink:href="#N" x="143.4"/><use xlink:href="#L" x="144.2" y="119"/><path d="M469.8 122.5v.2.2.2c0 .1 0 .1-.1.2l-2.7 6.3s0 .1-.1.1-.1.1-.1.1h-.2-.3-.3c-.1 0-.1 0-.2-.1s0-.1 0-.1v-.1l2.9-6.4H465c-.1 0-.1 0-.2-.1s-.1-.2-.1-.3v-.2-.1s0-.1.1-.1h.1 4.4.1s.1 0 .1.1v.1s.3-.1.3 0z"/><use xlink:href="#Q"/><path d="M544.5 12.9v.1s0 .1-.1.1h-.2-.3-.3-.2c-.1 0-.1 0-.1-.1s0 0-.1-.1l-1.3-2.1-1.3 2.1s0 .1-.1.1-.1 0-.1.1-.1 0-.2 0h-.3-.3-.2c-.1 0 0-.1 0-.1s0-.1.1-.1l1.6-2.6-1.1-2.5v-.1s0-.1.1-.1h.2.3.3.2.1l.1.1 1.2 2 1.2-2 .1-.1c.1-.1 0 0 .1 0h.1.2.3.2c.1 0 .1.1 0 .1s0 .1-.1.1l-1.5 2.4 1.4 2.7z"/><use xlink:href="#R"/><path d="M552.9 11a2.39 2.39 0 0 1-.2.9 3.04 3.04 0 0 1-.5.7c-.2.2-.5.4-.8.5s-.7.2-1.1.2c-.3 0-.5 0-.7-.1s-.4-.1-.6-.1-.3-.1-.4-.2-.2-.1-.2-.1l-.1-.1v-.1-.1-.2-.3c0-.1.1-.1.1-.1s.1 0 .2.1.2.1.4.2.4.1.6.2.5.1.7.1c.3 0 .5 0 .7-.1s.4-.2.5-.3.2-.3.3-.4c.1-.2.1-.3.1-.5s0-.4-.1-.6a.78.78 0 0 0-.4-.4l-.6-.3c-.2-.1-.5-.1-.8-.1h-.7-.1s-.1 0-.1-.1c0 0 0-.1-.1-.1v-.2-.2-.1s0-.1.1-.1h.1.7c.3 0 .5 0 .7-.1s.4-.2.5-.3.3-.3.3-.4c.1-.2.1-.4.1-.6s0-.3-.1-.4-.1-.3-.2-.4-.2-.2-.4-.2-.3-.1-.5-.1-.4 0-.6.1-.4.1-.5.2a.76.76 0 0 1-.4.2c-.1 0-.2.1-.2.1h-.1l-.1-.1c-.1-.1 0-.1 0-.1v-.2-.2-.1-.1s0-.1.1-.1.1-.1.2-.2.3-.1.4-.2.4-.1.6-.2.5-.1.7-.1c.4 0 .7 0 .9.1s.5.2.7.4.3.4.4.6.1.5.1.8c0 .2 0 .5-.1.7s-.2.4-.3.5l-.4.4c-.1.1-.4.2-.6.2h0c.3 0 .5.1.7.2s.4.2.6.4.3.3.4.5.1.4.1.7z"/><use xlink:href="#Q" x="47.1"/><path d="M591.6 12.9v.1s0 .1-.1.1h-.2-.3-.3-.2c-.1 0-.1 0-.1-.1s0 0-.1-.1l-1.3-2.1-1 2.2s0 .1-.1.1-.1 0-.1.1-.1 0-.2 0h-.3-.3-.2c-.1 0 0-.1 0-.1s0-.1.1-.1l1.6-2.6-1.6-2.5v-.1s0-.1.1-.1h.2.3.3.2.1l.1.1 1.2 2 1.2-2 .1-.1c.1-.1 0 0 .1 0h.1.2.3.2c.1 0 .1.1 0 .1s0 .1-.1.1l-1.5 2.4 1.6 2.6z"/><use xlink:href="#R" x="47.2"/><use xlink:href="#S"/><use xlink:href="#Q" x="95.9"/><use xlink:href="#T"/><use xlink:href="#R" x="95.9"/><path d="M648.8 12.7v.2.1s0 .1-.1.1h-.1-4-.1l-.1-.1c-.1-.1 0-.1 0-.1v-.2-.2-.1s0-.1.1-.1h.1 1.6V6.6l-1.5.9c-.1 0-.1.1-.2.1h-.1s0-.1-.1-.1 0-.1 0-.2v-.2V7v-.1l.1-.1 1.7-1.1h.1.1.1.2.2.1s.1 0 .1.1v.1 6.7h1.4.1l.1.1c.1.1 0 .1 0 .1l.2-.1zm33.3-6.8c0 .2 0 .4-.1.5s-.2.1-.5.1c-.2 0-.4 0-.5-.1s-.1-.2-.1-.5c0-.2 0-.4.1-.5s.2-.1.5-.1c.2 0 .4 0 .5.1s.1.3.1.5zm-.2 7.1s0 .1 0 0c0 .1-.1.1-.1.1h-.1-.2-.2-.1s-.1 0-.1-.1v-.1-5.2-.1l.1-.1c.1-.1.1 0 .1 0h.2.2.1s.1 0 .1.1v.1V13z"/><use xlink:href="#T" x="47.4"/><use xlink:href="#R" x="143.3"/><path d="M696.5 9.3c0 .6 0 1.1-.1 1.6s-.2.9-.5 1.2-.5.6-.8.8-.8.3-1.3.3-.9-.1-1.2-.3-.6-.4-.8-.8-.3-.7-.4-1.2-.1-1-.1-1.7c0-.6 0-1.1.1-1.6s.2-.9.5-1.2.5-.6.8-.8.8-.3 1.3-.3.9.1 1.2.3.6.4.8.8.3.7.4 1.2.1 1.1.1 1.7zm-1.1.1v-1c0-.3-.1-.6-.1-.8s-.1-.4-.2-.6-.2-.3-.3-.4a.76.76 0 0 0-.4-.2c-.1 0-.3-.1-.5-.1-.3 0-.6.1-.8.2s-.4.4-.5.6-.2.6-.2 1-.1.8-.1 1.2c0 .6 0 1 .1 1.4l.3 1c.1.3.3.4.5.5s.4.2.7.2c.2 0 .4 0 .6-.1a1.38 1.38 0 0 0 .4-.3c.1-.1.2-.3.3-.5s.1-.4.2-.6.1-.5.1-.7-.1-.5-.1-.8z"/><g fill="none" stroke="#000" class="M"><g class="L"><use xlink:href="#C" x="455.6" y="26.4"/><use xlink:href="#C" x="457.4" y="26.4"/><use xlink:href="#C" x="459.2" y="26.4"/><use xlink:href="#C" x="461" y="26.4"/><path d="M754.6 89.3H753l.5-3.4.1-.1h.5c.1 0 .1 0 .1.1l.4 3.4z"/><use xlink:href="#C" x="464.6" y="26.4"/><use xlink:href="#C" x="466.4" y="26.4"/><use xlink:href="#C" x="468.2" y="26.4"/><use xlink:href="#C" x="470" y="26.4"/><path d="M763.6 89.3H762l.5-3.4.1-.1h.5c.1 0 .1 0 .1.1l.4 3.4zm-16.9 5.4h16v1.7h-16v-1.7z"/><use xlink:href="#D" x="455.6" y="26.4"/><path d="M733.7,67.4h41.9v28.5h-41.9V67.4z"/><use xlink:href="#U"/><use xlink:href="#C" x="503.6" y="26.4"/><use xlink:href="#C" x="505.4" y="26.4"/><use xlink:href="#C" x="507.2" y="26.4"/><use xlink:href="#C" x="508.9" y="26.4"/><use xlink:href="#C" x="510.7" y="26.4"/><path d="M804.3 89.3h-1.6l.5-3.4c0-.1.1-.1.1-.1h.5c.1 0 .1 0 .1.1l.4 3.4z"/><use xlink:href="#C" x="514.3" y="26.4"/><use xlink:href="#C" x="516.1" y="26.4"/><use xlink:href="#C" x="517.9" y="26.4"/><use xlink:href="#C" x="519.7" y="26.4"/><path d="M794.7,94.7h16v1.7h-16V94.7z"/><use xlink:href="#D" x="503.5" y="26.4"/><path d="M781.7,67.4h41.9v28.5h-41.9V67.4z"/><use xlink:href="#V"/><use xlink:href="#C" x="551.5" y="26.6"/><use xlink:href="#C" x="553.3" y="26.6"/><use xlink:href="#C" x="555.1" y="26.6"/><use xlink:href="#C" x="556.9" y="26.6"/><use xlink:href="#C" x="558.7" y="26.6"/><use xlink:href="#C" x="560.5" y="26.6"/><use xlink:href="#C" x="562.3" y="26.6"/><use xlink:href="#C" x="564.1" y="26.6"/><path d="M857.6 89.5H856l.5-3.4.1-.1h.5c.1 0 .1 0 .1.1l.4 3.4z"/><use xlink:href="#C" x="567.6" y="26.6"/><path d="M842.6,94.9h16v1.7h-16V94.9z"/><use xlink:href="#D" x="551.5" y="26.6"/><path d="M829.6,67.6h41.9v28.5h-41.9V67.6z"/><use xlink:href="#W"/><use xlink:href="#C" x="598.9" y="26.4"/><use xlink:href="#C" x="600.7" y="26.4"/><use xlink:href="#C" x="602.5" y="26.4"/><use xlink:href="#C" x="604.3" y="26.4"/><use xlink:href="#C" x="606.1" y="26.4"/><use xlink:href="#C" x="607.9" y="26.4"/><use xlink:href="#C" x="609.6" y="26.4"/><use xlink:href="#C" x="611.4" y="26.4"/><use xlink:href="#C" x="613.2" y="26.4"/><use xlink:href="#C" x="615" y="26.4"/><path d="M890,94.7h16v1.7h-16V94.7z"/><use xlink:href="#D" x="598.9" y="26.4"/><path d="M877,67.4h41.9v28.5H877V67.4z"/><use xlink:href="#U" x="143.3"/></g><path d="M754.6 80.9l4.9-64.5h24.6m17 64.5l4.9-64.5h24.6m19.6 64.5l4.9-64.5h24.6m17.6 64.5l4.9-64.5h24.6" class="N"/><g class="L"><use xlink:href="#C" x="655.6" y="26.4"/><use xlink:href="#C" x="657.4" y="26.4"/><use xlink:href="#C" x="659.2" y="26.4"/><use xlink:href="#C" x="661" y="26.4"/><path d="M954.6 89.3H953l.5-3.4.1-.1h.5c.1 0 .1 0 .1.1l.4 3.4z"/><use xlink:href="#C" x="664.6" y="26.4"/><use xlink:href="#C" x="666.4" y="26.4"/><use xlink:href="#C" x="668.2" y="26.4"/><use xlink:href="#C" x="670" y="26.4"/><path d="M963.6 89.3H962l.5-3.4.1-.1h.5c.1 0 .1 0 .1.1l.4 3.4zm-16.9 5.4h16v1.7h-16v-1.7z"/><use xlink:href="#D" x="655.6" y="26.4"/><path d="M933.7,67.4h41.9v28.5h-41.9V67.4z"/><use xlink:href="#U" x="200"/><use xlink:href="#C" x="703.6" y="26.4"/><use xlink:href="#C" x="705.4" y="26.4"/><use xlink:href="#C" x="707.2" y="26.4"/><use xlink:href="#C" x="708.9" y="26.4"/><use xlink:href="#C" x="710.7" y="26.4"/><path d="M1004.3 89.3h-1.6l.5-3.4c0-.1.1-.1.1-.1h.5c.1 0 .1 0 .1.1l.4 3.4z"/><use xlink:href="#C" x="714.3" y="26.4"/><use xlink:href="#C" x="716.1" y="26.4"/><use xlink:href="#C" x="717.9" y="26.4"/><use xlink:href="#C" x="719.7" y="26.4"/><path d="M994.7,94.7h16v1.7h-16V94.7z"/><use xlink:href="#D" x="703.5" y="26.4"/><path d="M981.7,67.4h41.9v28.5h-41.9V67.4z"/><use xlink:href="#V" x="200"/><use xlink:href="#C" x="751.5" y="26.6"/><use xlink:href="#J" x="522.6" y="-0.3"/><use xlink:href="#J" x="524.4" y="-0.3"/><use xlink:href="#C" x="756.9" y="26.6"/><use xlink:href="#C" x="758.7" y="26.6"/><use xlink:href="#J" x="529.8" y="-0.3"/><use xlink:href="#C" x="762.3" y="26.6"/><use xlink:href="#C" x="764.1" y="26.6"/><use xlink:href="#J" x="535.1" y="-0.3"/><use xlink:href="#C" x="767.6" y="26.6"/><path d="M1042.6,94.9h16v1.7h-16V94.9z"/><use xlink:href="#D" x="751.5" y="26.6"/><path d="M1029.6,67.6h41.9v28.5h-41.9V67.6z"/><use xlink:href="#W" x="200"/><use xlink:href="#C" x="798.9" y="26.4"/><use xlink:href="#J" x="570" y="-0.5"/><use xlink:href="#J" x="571.8" y="-0.5"/><use xlink:href="#C" x="804.3" y="26.4"/><use xlink:href="#C" x="806.1" y="26.4"/><use xlink:href="#J" x="577.2" y="-0.5"/><use xlink:href="#C" x="809.6" y="26.4"/><use xlink:href="#J" x="580.7" y="-0.5"/><use xlink:href="#J" x="582.5" y="-0.5"/><use xlink:href="#C" x="815" y="26.4"/><path d="M1090,94.7h16v1.7h-16V94.7z"/><use xlink:href="#D" x="798.9" y="26.4"/><path d="M1077,67.4h41.9v28.5H1077V67.4z"/><use xlink:href="#U" x="343.3"/></g></g><path d="M768.2 12.2v.2.1.1s0 .1-.1.1-.1.1-.2.2-.2.1-.4.2-.3.1-.5.1-.3.1-.5.1c-.4 0-.7-.1-1-.2s-.5-.3-.7-.5-.3-.5-.5-.9-.2-.8-.2-1.2a4.44 4.44 0 0 1 .2-1.3c.1-.3.3-.7.5-.9s.5-.4.8-.5.6-.2 1-.2h.5c.2 0 .3.1.4.1a.76.76 0 0 1 .4.2c.1.1.1 0 .1.1l.1.1v.1.1.2c0 .2 0 .3-.1.3s-.1.1-.1.1c-.1 0-.1 0-.2-.1s-.2-.1-.3-.2-.3-.1-.4-.2-.4-.1-.6-.1c-.5 0-.8.2-1.1.5s-.4.9-.4 1.6c0 .3 0 .6.1.9s.2.5.3.6.3.3.5.4.4.1.6.1.4 0 .6-.1.3-.1.4-.2.2-.2.3-.2.1-.1.2-.1h.1v.1.1s.2.1.2.2z"/><use xlink:href="#X"/><path d="M779.9 9.3c0 .6 0 1.1-.1 1.6s-.2.9-.5 1.2-.5.6-.8.8-.8.3-1.3.3-.9-.1-1.2-.3-.6-.4-.8-.8-.3-.7-.4-1.2-.1-1-.1-1.7c0-.6 0-1.1.1-1.6s.2-.9.5-1.2.5-.6.8-.8.8-.3 1.3-.3.9.1 1.2.3.6.4.8.8.3.7.4 1.2.1 1.1.1 1.7zm-1 .1v-1c0-.3-.1-.6-.1-.8s-.1-.4-.2-.6-.2-.3-.3-.4a.76.76 0 0 0-.4-.2c-.1 0-.3-.1-.5-.1-.3 0-.6.1-.8.2s-.4.4-.5.6-.2.6-.2 1-.1.8-.1 1.2c0 .6 0 1 .1 1.4l.3 1c.1.3.3.4.5.5s.4.2.7.2c.2 0 .4 0 .6-.1a1.38 1.38 0 0 0 .4-.3c.1-.1.2-.3.3-.5s.1-.4.2-.6.1-.5.1-.7-.1-.5-.1-.8zm36.5 2.9v.2.1.1s0 .1-.1.1-.1.1-.2.2-.2.1-.4.2-.3.1-.5.1-.3.1-.5.1c-.4 0-.7-.1-1-.2s-.5-.3-.7-.5-.3-.5-.5-.9-.2-.8-.2-1.2a4.44 4.44 0 0 1 .2-1.3c.1-.3.3-.7.5-.9s.5-.4.8-.5.6-.2 1-.2h.5c.2 0 .3.1.4.1a.76.76 0 0 1 .4.2c.1.1.2.1.2.2s.1.1.1.1v.1.1.2c0 .2 0 .3-.1.3h-.1c-.1 0-.1 0-.2-.1s-.2-.1-.3-.2-.3-.1-.4-.2-.4-.1-.6-.1c-.5 0-.8.2-1.1.5s-.4.9-.4 1.6c0 .3 0 .6.1.9s.2.5.3.6.3.3.5.4.4.1.6.1.4 0 .6-.1.3-.1.4-.2.2-.2.3-.2.1-.1.2-.1h.1v.1.1s.1.1.1.2zm5.1.8v.1s-.1 0-.1.1-.1 0-.2 0h-.2s-.1 0-.1-.1v-.1-.5c-.2.2-.5.4-.8.6s-.6.2-.9.2-.5 0-.8-.1-.4-.2-.6-.3-.3-.3-.4-.5-.1-.4-.1-.7.1-.6.2-.8.3-.4.5-.5.5-.3.8-.3.7-.1 1.1-.1h.7v-.5c0-.2 0-.4-.1-.5s-.1-.3-.2-.4-.2-.2-.4-.2-.3-.1-.6-.1c-.2 0-.5 0-.6.1s-.4.1-.5.2-.3.1-.4.2-.2.1-.2.1h-.1l-.1-.1c-.1-.1 0-.1 0-.1v-.2-.2s0-.1.1-.2.1-.1.3-.2c.1-.1.3-.1.4-.2s.4-.1.6-.1.4-.1.6-.1c.4 0 .7 0 1 .1s.5.2.6.4c.2.2.3.4.4.6s.1.5.1.9v3.5zm-.9-2.4h-.8c-.3 0-.5 0-.7.1s-.4.1-.5.2l-.3.3c-.1.1-.1.3-.1.4 0 .3.1.5.3.7s.4.2.7.2.5-.1.7-.2.4-.3.7-.6v-1.1zm7.3 2.2v.2.1s0 .1-.1.1h-.1-4-.1l-.1-.1c-.1-.1 0-.1 0-.1v-.2-.2-.1s0-.1.1-.1h.1 1.6V6.7l-1.5.9c-.1 0-.1.1-.2.1h-.1s0-.1-.1-.1 0-.1 0-.2v-.2-.1V7l.1-.1 1.7-1.1h.1.1.1.2.2.1s.1 0 .1.1V6v6.7h1.4.1l.1.1c.1.1 0 .1 0 .1s.2-.1.2 0zm37.2-.7v.2.1.1s0 .1-.1.1-.1.1-.2.2-.2.1-.4.2-.3.1-.5.1-.3.1-.5.1c-.4 0-.7-.1-1-.2s-.5-.3-.7-.5-.3-.5-.5-.9-.2-.8-.2-1.2a4.44 4.44 0 0 1 .2-1.3c.1-.3.3-.7.5-.9s.5-.4.8-.5.6-.2 1-.2h.5c.2 0 .3.1.4.1a.76.76 0 0 1 .4.2c.1.1.2.1.2.2l.1.1v.1.1.2c0 .2 0 .3-.1.3s-.1.1-.1.1c-.1 0-.1 0-.2-.1s-.2-.1-.3-.2-.3-.1-.4-.2-.4-.1-.6-.1c-.5 0-.8.2-1.1.5s-.4.9-.4 1.6c0 .3 0 .6.1.9s.2.5.3.6.3.3.5.4.4.1.6.1.4 0 .6-.1.3-.1.4-.2.2-.2.3-.2.1-.1.2-.1h.1v.1.1s.1 0 .1.1z"/><use xlink:href="#X" x="95.9"/><use xlink:href="#S" x="275.5"/><path d="M911.5 12.3v.2.1.1s0 .1-.1.1-.1.1-.2.2-.2.1-.4.2-.3.1-.5.1-.3.1-.5.1c-.4 0-.7-.1-1-.2s-.5-.3-.7-.5-.3-.5-.5-.9-.2-.8-.2-1.2a4.44 4.44 0 0 1 .2-1.3c.1-.3.3-.7.5-.9s.5-.4.8-.5.6-.2 1-.2h.5c.2 0 .3.1.4.1a.76.76 0 0 1 .4.2c.1.1.2.1.2.2s.1.1.1.1v.1.1.2c0 .2 0 .3-.1.3h-.1c-.1 0-.1 0-.2-.1s-.2-.1-.3-.2-.3-.1-.4-.2-.4-.1-.6-.1c-.5 0-.8.2-1.1.5s-.4.9-.4 1.6c0 .3 0 .6.1.9s.2.5.3.6.3.3.5.4.4.1.6.1.4 0 .6-.1.3-.1.4-.2.2-.2.3-.2.1-.1.2-.1h.1v.1.1s.1.1.1.2zm5.2.8v.1s-.1 0-.1.1-.1 0-.2 0h-.2s-.1 0-.1-.1v-.1-.5c-.2.2-.5.4-.8.6s-.6.2-.9.2-.5 0-.8-.1-.4-.2-.6-.3-.3-.3-.4-.5-.1-.4-.1-.7.1-.6.2-.8.3-.4.5-.5.5-.3.8-.3.7-.1 1.1-.1h.7v-.5c0-.2 0-.4-.1-.5s-.1-.3-.2-.4-.2-.2-.4-.2-.3-.1-.6-.1c-.2 0-.5 0-.6.1s-.4.1-.5.2-.3.1-.4.2-.2.1-.2.1h-.1l-.1-.1c-.1-.1 0-.1 0-.1v-.2-.2s0-.1.1-.2.2-.2.3-.2c.1-.1.3-.1.4-.2s.4-.1.6-.1.4-.1.6-.1c.4 0 .7 0 1 .1s.5.2.6.4c.2.2.3.4.4.6s.1.5.1.9v3.5zm-1-2.4h-.8c-.3 0-.5 0-.7.1s-.4.1-.5.2l-.3.3c-.1.1-.1.3-.1.4 0 .3.1.5.3.7s.4.2.7.2.5-.1.7-.2.4-.3.7-.6v-1.1zm7.2.4a2.39 2.39 0 0 1-.2.9 3.04 3.04 0 0 1-.5.7c-.2.2-.5.4-.8.5s-.7.2-1.1.2c-.3 0-.5 0-.7-.1s-.4-.1-.6-.1-.3-.1-.4-.2-.2-.1-.2-.1l-.1-.1v-.1-.1-.2-.3c0-.1.1-.1.1-.1s.1 0 .2.1.2.1.4.2.4.1.6.2.5.1.7.1c.3 0 .5 0 .7-.1s.4-.2.5-.3.2-.3.3-.4c.1-.2.1-.3.1-.5s0-.4-.1-.6a.78.78 0 0 0-.4-.4l-.6-.3c-.2-.1-.5-.1-.8-.1h-.7-.1s-.1 0-.1-.1c0 0 0-.1-.1-.1v-.2-.2-.1s0-.1.1-.1h.1.7c.3 0 .5 0 .7-.1s.4-.2.5-.3.3-.3.3-.4c.1-.2.1-.4.1-.6s0-.3-.1-.4-.1-.3-.2-.4-.2-.2-.4-.2-.3-.1-.5-.1-.4 0-.6.1-.4.1-.5.2a.76.76 0 0 1-.4.2c-.1 0-.2-.1-.3-.1h-.1l-.1-.1c-.1-.1 0-.1 0-.1v-.2-.2-.1-.1s0-.1.1-.1.1-.1.2-.2.3-.1.4-.2.4-.1.6-.2.5-.1.7-.1c.4 0 .7 0 .9.1s.5.2.7.4.3.4.4.6.1.5.1.8c0 .2 0 .5-.1.7s-.2.4-.3.5l-.4.4c-.1.1-.4.2-.6.2h0c.3 0 .5.1.7.2s.4.2.6.4.3.3.4.5a2.39 2.39 0 0 1 .2.9z"/><defs ><path id="B" d="M252.2 34.9h0c.7 0 1.2-.5 1.2-1.1v-1.4a1.11 1.11 0 0 0-1.1-1.1h-.1v3.6z"/><path id="C" d="M291.8 62.9h-1.6l.5-3.4.1-.1h.5c.1 0 .1 0 .1.1l.4 3.4z"/><path id="D" d="M291.5 68.3h15.2l-.2.6c-.1.4-.6.7-1.2.7h-12.5c-.6 0-1.1-.3-1.2-.7l-.1-.6z"/><path id="E" d="M320.3 71.1h-42.5c-.7 0-1.2-.5-1.2-1.2V40.2c0-.7.5-1.2 1.2-1.2h42.5c.7 0 1.2.5 1.2 1.2v29.6c0 .7-.6 1.3-1.2 1.3z"/><path id="F" d="M449.5 82.6h1.6l-.4 3.4c0 .1-.1.1-.1.1h-.6c-.1 0-.1 0-.1-.1l-.4-3.4z"/><path id="G" d="M446 82.6h1.6l-.4 3.4c0 .1-.1.1-.1.1h-.5c-.1 0-.1 0-.1-.1l-.5-3.4z"/><path id="H" d="M449.9 77.2h-15.2l.2-.6c.1-.4.6-.7 1.2-.7h12.5c.6 0 1.1.3 1.2.7l.1.6z"/><path id="I" d="M205.2 88.5h-1.1l.3-3.2s0-.1.1-.1h.4s.1 0 .1.1l.2 3.2z"/><path id="J" d="M522.5 89.8h-1.6l.4-3.4.1-.1h.5c.1 0 .1 0 .1.1l.5 3.4z"/><path id="K" d="M205.1 52.8h-1.2l.3-3.3s0-.1.1-.1h.4s.1 0 .1.1l.3 3.3z"/><path id="L" d="M319.5 7.8c0 .5 0 .9-.1 1.2s-.2.7-.4.9-.4.5-.7.6-.6.2-1 .2h-.5c-.2 0-.3-.1-.4-.2s-.3-.2-.4-.3l-.4-.4v.6.1l-.1.1c-.1.1-.1 0-.1 0h-.2-.2-.1s-.1 0-.1-.1v-.1-7.8-.1l.1-.1c.1-.1.1 0 .1 0h.2.2.1s.1 0 .1.1v.1 3.2c.2-.2.3-.3.5-.4a1.38 1.38 0 0 0 .4-.3c.1-.1.3-.1.4-.1h.4c.4 0 .7.1 1 .2s.5.4.7.6.3.6.4.9.1.7.1 1.1zm-1 .1c0-.3 0-.5-.1-.8 0-.3-.1-.5-.2-.7s-.2-.4-.4-.5-.4-.2-.6-.2c-.1 0-.3 0-.4.1-.1 0-.2.1-.4.2-.1.1-.3.2-.4.3s-.3.3-.4.5v2.1c.3.3.5.6.8.7.2.2.5.3.8.3.2 0 .5-.1.6-.2s.3-.3.4-.5.2-.4.2-.7.1-.4.1-.6z"/><path id="M" d="M308.1 122.4c0 .2 0 .4-.1.5s-.2.1-.5.1c-.2 0-.4 0-.5-.1s-.1-.2-.1-.5c0-.2 0-.4.1-.5s.2-.1.5-.1c.2 0 .4 0 .5.1s.1.3.1.5zm-.1 7.1c0 .1-.1.1-.1.1h-.1-.2-.2-.1s-.1 0-.1-.1v-.1-5.3-.1l.1-.1c.1-.1.1 0 .1 0h.2.2.1s.1 0 .1.1v.1 5.4z"/><path id="N" d="M314.2 124.4c0 .1 0 .2-.1.3l-.1.1h-.8c.1.1.2.3.3.5a.9.9 0 0 1 .1.5c0 .3 0 .6-.1.8s-.2.4-.4.6-.4.3-.6.4-.5.1-.8.1c-.2 0-.4 0-.6-.1s-.3-.1-.4-.2c-.1.1-.1.2-.2.2s-.1.2-.1.3.1.3.2.3.3.1.5.1l1.4.1c.3 0 .5 0 .7.1l.6.3c.2.1.3.3.4.4s.1.4.1.6-.1.5-.2.7-.3.4-.5.6-.5.3-.8.4-.7.1-1.1.1-.8 0-1.1-.1-.5-.2-.7-.3-.3-.3-.4-.4-.1-.4-.1-.6v-.4c0-.1.1-.2.1-.3s.1-.2.2-.3l.3-.3a.78.78 0 0 1-.4-.4c-.1-.2-.1-.3-.1-.5s0-.5.1-.6.2-.4.4-.5c-.1-.1-.2-.3-.3-.5s-.1-.4-.1-.7.1-.6.2-.8.2-.4.4-.6.4-.3.6-.4.5-.1.8-.1h.4c.1 0 .3 0 .4.1h1.6c.1 0 .1 0 .1.1s.1.3.1.4zm-1 5.6a.55.55 0 0 0-.3-.5c-.2-.1-.4-.2-.8-.2h-1.4l-.3.3c-.1.1-.1.2-.2.3s-.1.2-.1.2v.2c0 .3.1.4.4.6s.6.2 1.1.2c.3 0 .5 0 .7-.1s.4-.1.5-.2l.3-.3c.1-.1.1-.4.1-.5zm-.5-4.2c0-.4-.1-.6-.3-.8s-.5-.3-.8-.3c-.2 0-.4 0-.5.1s-.3.1-.3.3-.2.2-.2.4-.1.3-.1.4c0 .3.1.6.3.8s.5.3.8.3c.2 0 .4 0 .5-.1s.3-.1.3-.3.2-.2.2-.4.1-.2.1-.4z"/><path id="O" d="M320.3 126.8c0 .5 0 .9-.1 1.2s-.2.7-.4.9-.4.5-.7.6-.6.2-1 .2h-.5c-.2 0-.3-.1-.4-.2s-.3-.2-.4-.3l-.4-.4v.6.1l-.1.1c-.1.1-.1 0-.1 0h-.2-.2-.1s-.1 0-.1-.1v-.1-7.8-.1l.1-.1c.1-.1.1 0 .1 0h.2.2.1s.1 0 .1.1v.1 3.2c.2-.2.3-.3.5-.4s.3-.2.4-.3.3-.1.4-.1h.4c.4 0 .7.1 1 .2s.5.4.7.6.3.6.4.9.1.7.1 1.1zm-1 .1c0-.3 0-.5-.1-.8 0-.3-.1-.5-.2-.7s-.2-.4-.4-.5-.4-.2-.6-.2c-.1 0-.3 0-.4.1-.1 0-.2.1-.4.2-.1.1-.3.2-.4.3s-.3.3-.4.5v2.1c.3.3.5.6.8.7.2.2.5.3.8.3.2 0 .5-.1.6-.2s.3-.3.4-.5.2-.4.2-.7.1-.4.1-.6z"/><path id="P" d="M354.6 3.4c0 .2 0 .4-.1.5s-.2.1-.5.1c-.2 0-.4 0-.5-.1s-.1-.2-.1-.5c0-.2 0-.4.1-.5s.2-.1.5-.1c.2 0 .4 0 .5.1s.1.3.1.5zm-.1 7.1c0 .1-.1.1-.1.1h-.1-.2-.2-.1s-.1 0-.1-.1v-.1-5.2-.1l.1-.1c.1-.1.1 0 .1 0h.2.2.1s.1 0 .1.1v.1 5.3z"/><path id="Q" d="M538.8 5.9c0 .2 0 .4-.1.5s-.2.1-.5.1c-.2 0-.4 0-.5-.1s-.1-.2-.1-.5c0-.2 0-.4.1-.5s.2-.1.5-.1c.2 0 .4 0 .5.1s.1.3.1.5zm-.1 7.1s0 .1 0 0c0 .1-.1.1-.1.1h-.1-.2-.2-.1s-.1 0-.1-.1v-.1-5.2-.1l.1-.1c.1-.1.1 0 .1 0h.2.2.1s.1 0 .1.1v.1V13z"/><path id="R" d="M546.6 13s0 .1 0 0c0 .1-.1.1-.1.1h-.1-.2-.2-.1s-.1 0-.1-.1v-.1-7.7-.1l.1-.1c.1-.1.1 0 .1 0h.2.2.1s.1 0 .1.1v.1V13z"/><path id="S" d="M600.1 12.7v.2.1s0 .1-.1.1h-.1-4.2-.1s-.1 0-.1-.1-.1-.1-.1-.1v-.2-.2-.2s0-.1.1-.1.1-.1.1-.1l1.5-1.6a5.77 5.77 0 0 0 .8-1c.2-.3.4-.5.5-.8.1-.2.2-.4.2-.6s.1-.4.1-.5 0-.3-.1-.5-.1-.3-.2-.4-.2-.2-.4-.3-.3-.1-.6-.1c-.2 0-.5 0-.7.1s-.4.1-.5.2a.76.76 0 0 1-.4.2c-.1.1-.2.1-.2.1h-.1l-.1-.1v-.1-.2-.2-.1-.1s0-.1.1-.1.1-.1.2-.2.3-.1.4-.2.4-.1.6-.2.4-.1.7-.1c.4 0 .7.1 1 .2s.5.2.7.4.3.4.4.6.1.5.1.8c0 .2 0 .5-.1.7 0 .2-.1.5-.3.8s-.3.6-.6.9-.6.7-1 1.2l-1.2 1.3h3.3.1s.1 0 .1.1v.1s.2.2.2.3z"/><path id="T" d="M640.3 12.9v.1s0 .1-.1.1h-.2-.3-.3-.2c-.1 0-.1 0-.1-.1s0 0-.1-.1l-1.3-2.1-1.3 2.1s0 .1-.1.1-.1 0-.1.1-.1 0-.2 0h-.3-.3-.2c-.1 0 0-.1 0-.1s0-.1.1-.1l1.6-2.6-1.6-2.5v-.1s0-.1.1-.1h.2.3.3.2.1l.1.1 1.2 2 1.2-2 .1-.1c.1-.1 0 0 .1 0h.1.2.3.2c.1 0 .1.1 0 .1s0 .1-.1.1l-1.5 2.4 1.9 2.7z"/><path id="U" d="M775.9 97.5h-42.5c-.7 0-1.2-.5-1.2-1.2V66.7c0-.7.5-1.2 1.2-1.2h42.5c.7 0 1.2.5 1.2 1.2v29.6c0 .7-.5 1.2-1.2 1.2z"/><path id="V" d="M823.8 97.5h-42.5c-.7 0-1.2-.5-1.2-1.2V66.7c0-.7.5-1.2 1.2-1.2h42.5c.7 0 1.2.5 1.2 1.2v29.6c.1.7-.5 1.2-1.2 1.2z"/><path id="W" d="M871.8 97.7h-42.5c-.7 0-1.2-.5-1.2-1.2V66.8c0-.7.5-1.2 1.2-1.2h42.5c.7 0 1.2.5 1.2 1.2v29.6c0 .8-.5 1.3-1.2 1.3z"/><path id="X" d="M773.4 13v.1s-.1 0-.1.1-.1 0-.2 0h-.2s-.1 0-.1-.1V13v-.5c-.2.2-.5.4-.8.6s-.6.2-.9.2-.5 0-.8-.1-.4-.2-.6-.3-.3-.3-.4-.5-.1-.4-.1-.7.1-.6.2-.8.3-.4.5-.5.5-.3.8-.3.7-.1 1.1-.1h.7v-.5c0-.2 0-.4-.1-.5s-.1-.3-.2-.4-.2-.2-.4-.2-.3-.1-.6-.1c-.2 0-.5 0-.6.1s-.4.1-.5.2-.3.1-.4.2-.2.1-.2.1h-.1l-.1-.1c-.1-.1 0-.1 0-.1v-.2-.2s0-.1.1-.2.1-.1.3-.2.3-.1.4-.2.4-.1.6-.1.4-.1.6-.1c.4 0 .7 0 1 .1s.5.2.6.4c.2.2.3.4.4.6s.1.5.1.9V13zm-1-2.4h-.8c-.3 0-.5 0-.7.1s-.4.1-.5.2l-.3.3c-.1.1-.1.3-.1.4 0 .3.1.5.3.7s.4.2.7.2.5-.1.7-.2.4-.3.7-.6v-1.1z"/></defs></svg>