<svg xmlns="http://www.w3.org/2000/svg" xmlns:xlink="http://www.w3.org/1999/xlink" viewBox="0 0 571.96 128.2" xmlns:v="https://vecta.io/nano"><style><![CDATA[.B{font-family:MyriadPro-Regular}.C{font-size:12px}.D{stroke-miterlimit:10}]]></style><g fill="none" stroke="#000"><g class="D"><path stroke-width=".817" d="M3.29 22.34h564.35v89.81H3.29z"/><path d="M15.12 37.84c0 .1-.03.19-.06.25s-.11.11-.2.16c-.1.03-.23.06-.4.09l-.62.03c-.26 0-.47-.01-.62-.03-.15-.01-.26-.03-.34-.08-.09-.03-.14-.09-.16-.14-.03-.05-.05-.12-.06-.21l-.45-2.62c-.06-.39-.15-.7-.25-.95-.1-.26-.22-.47-.39-.64-.16-.16-.33-.27-.55-.33a2.78 2.78 0 0 0-.75-.1h-.5l-.94 4.72a.26.26 0 0 1-.09.17c-.05.05-.12.09-.22.11-.1.03-.23.05-.39.08-.15.03-.34.03-.57.03a4.45 4.45 0 0 1-.57-.03c-.15-.02-.26-.03-.34-.08-.09-.03-.14-.08-.17-.11s-.03-.1-.03-.17l2.22-11.14a.26.26 0 0 1 .09-.17c.05-.05.12-.09.23-.11a1.78 1.78 0 0 1 .39-.06l.58-.03a4.45 4.45 0 0 1 .57.03c.15.01.26.03.34.06.09.03.14.06.17.11s.03.1.03.17l-.89 4.43h.53c.26 0 .51-.03.72-.11a2.53 2.53 0 0 0 .62-.34c.2-.16.39-.36.57-.62a6 6 0 0 0 .57-.93l1.26-2.34c.05-.09.1-.16.16-.21s.14-.1.25-.14c.11-.03.25-.05.41-.08s.39-.03.64-.03a4.45 4.45 0 0 1 .57.03c.15.01.26.03.33.06.09.03.12.06.16.1.03.03.03.09.03.12a.79.79 0 0 1-.08.31 6.94 6.94 0 0 1-.26.48l-1.2 2.1c-.22.4-.44.73-.64 1a6.35 6.35 0 0 1-.59.7c-.2.19-.4.34-.61.47-.2.12-.42.22-.64.31v.01c.21.1.41.21.57.34.16.12.31.28.44.48a3.86 3.86 0 0 1 .33.73c.09.28.17.64.26 1.07l.47 2.43c.03.12.05.23.06.33.02.12.01.22.01.29zm10.31-5.24c0 .44-.03.88-.12 1.36-.09.46-.21.92-.39 1.36-.17.44-.4.86-.69 1.25-.27.39-.61.72-1 1.02s-.83.53-1.33.7a5.5 5.5 0 0 1-1.69.26c-.62 0-1.14-.08-1.59-.21-.45-.14-.82-.34-1.12-.64-.3-.27-.52-.62-.66-1.02-.15-.41-.21-.87-.21-1.39 0-.44.03-.88.12-1.36a7.49 7.49 0 0 1 .39-1.36c.18-.45.4-.86.69-1.25.27-.4.61-.73 1-1.02a5.41 5.41 0 0 1 1.33-.7c.5-.17 1.06-.26 1.69-.26.62 0 1.14.08 1.59.21.45.14.82.34 1.12.64.3.27.52.62.66 1.02.14.41.21.87.21 1.39zm-2.37.15c0-.26-.03-.48-.08-.69-.05-.2-.14-.36-.26-.5-.11-.14-.27-.25-.46-.31s-.41-.11-.69-.11a1.97 1.97 0 0 0-.82.17 1.77 1.77 0 0 0-.64.48 3.55 3.55 0 0 0-.5.7 4.26 4.26 0 0 0-.34.83c-.09.28-.16.58-.2.88l-.06.86c0 .26.03.48.08.69a1.3 1.3 0 0 0 .26.51c.11.14.27.25.46.31s.41.11.69.11a1.97 1.97 0 0 0 .82-.17 1.77 1.77 0 0 0 .64-.48c.19-.2.36-.44.5-.7s.26-.55.34-.84c.09-.3.16-.58.2-.88.05-.29.06-.57.06-.86zM34.1 38a.24.24 0 0 1-.09.16.42.42 0 0 1-.21.11 1.58 1.58 0 0 1-.36.06l-.56.03a4.33 4.33 0 0 1-.55-.03c-.15-.01-.26-.03-.33-.06-.08-.03-.14-.06-.16-.11-.03-.05-.03-.1-.01-.16l.64-3.19h-3.2L28.62 38a.24.24 0 0 1-.09.16c-.05.05-.11.09-.21.11a1.58 1.58 0 0 1-.36.06l-.56.03a4.01 4.01 0 0 1-.55-.03c-.14-.01-.26-.03-.33-.06-.08-.03-.14-.06-.16-.11-.03-.05-.03-.1-.03-.16l1.61-8.13a.24.24 0 0 1 .09-.16c.05-.05.11-.09.21-.11a1.58 1.58 0 0 1 .36-.06 4.45 4.45 0 0 1 .57-.03c.22 0 .41.01.55.03.14.01.26.03.33.06.09.03.14.06.16.11.03.05.03.1.03.16l-.61 3.04h3.21l.59-3.03a.24.24 0 0 1 .09-.16c.03-.05.11-.09.2-.11.09-.03.21-.05.36-.06l.56-.03a4.01 4.01 0 0 1 .55.03c.14.02.26.03.33.06.09.03.14.06.16.11s.03.1.03.16L34.1 38zm15.03 0a.24.24 0 0 1-.09.16c-.05.05-.11.09-.21.11-.1.03-.22.05-.36.06l-.56.03a4.33 4.33 0 0 1-.55-.03c-.15-.01-.26-.03-.33-.06-.09-.03-.12-.06-.16-.11-.03-.05-.03-.1-.01-.16l.98-4.88c.03-.14.05-.27.06-.41.03-.14.03-.27.03-.41 0-.28-.05-.51-.16-.7-.11-.17-.3-.26-.57-.26-.25 0-.5.09-.76.23-.26.16-.51.37-.76.64a4.7 4.7 0 0 0-.64.94 3.93 3.93 0 0 0-.4 1.15l-.73 3.68a.24.24 0 0 1-.09.16c-.05.05-.11.09-.21.11-.1.03-.22.05-.36.06l-.56.03a4.33 4.33 0 0 1-.55-.03c-.14-.01-.26-.03-.33-.06-.08-.03-.14-.06-.16-.11-.03-.05-.03-.1-.03-.16l.97-4.88.08-.44.03-.44c0-.26-.05-.48-.16-.66s-.3-.26-.56-.26c-.25 0-.5.09-.76.23-.26.15-.51.37-.76.64a4.7 4.7 0 0 0-.64.94 3.93 3.93 0 0 0-.4 1.15l-.73 3.69a.24.24 0 0 1-.09.16c-.05.05-.11.09-.21.11a1.58 1.58 0 0 1-.36.06l-.56.03a4.01 4.01 0 0 1-.55-.03c-.14-.02-.26-.03-.33-.06-.08-.03-.14-.06-.16-.11s-.03-.1-.03-.16l1.62-8.13c.01-.06.03-.11.08-.16.03-.05.1-.09.19-.11a1.3 1.3 0 0 1 .33-.06l.47-.03c.19 0 .33.02.46.03.11.01.21.03.27.06s.11.06.14.11.03.1.01.16l-.26 1.34c.12-.21.3-.42.51-.64s.46-.42.72-.59c.27-.17.56-.33.88-.44.33-.11.64-.17 1-.17a2.87 2.87 0 0 1 .92.14c.26.09.47.22.64.4.17.17.3.36.39.58s.14.47.17.73c.14-.21.33-.44.53-.66.21-.21.46-.41.73-.58s.56-.33.88-.44c.33-.11.64-.17.98-.17.42 0 .78.06 1.07.17.28.11.52.28.7.5s.31.46.39.73c.09.28.12.58.12.92l-.03.64-.11.66L49.13 38zm9.79.01c-.01.06-.03.11-.08.16-.03.05-.1.09-.19.11a1.31 1.31 0 0 1-.31.06l-.47.03c-.19 0-.33-.01-.46-.03-.12-.01-.21-.03-.27-.06s-.11-.06-.14-.11-.03-.1-.01-.16l.25-1.31c-.12.21-.28.42-.5.64-.21.22-.46.41-.73.58s-.57.33-.91.44c-.33.11-.64.16-1 .16-.42 0-.78-.06-1.08-.17-.28-.11-.53-.27-.7-.48-.19-.2-.31-.45-.4-.73s-.12-.59-.12-.93l.03-.64c.02-.22.06-.44.1-.66l1-5.04a.24.24 0 0 1 .09-.16c.05-.05.11-.09.21-.11s.21-.05.36-.06c.15-.03.34-.03.56-.03s.41.01.55.03a1.22 1.22 0 0 1 .33.06c.09.03.12.06.16.11.03.05.03.1.03.16l-.97 4.88a2.83 2.83 0 0 0-.06.42l-.03.42c0 .14.01.27.03.4a1.09 1.09 0 0 0 .14.31c.06.1.14.15.23.19.1.03.21.06.33.06.25 0 .51-.09.78-.25s.53-.39.77-.66c.23-.27.46-.62.64-1 .19-.39.33-.81.44-1.25l.7-3.51a.24.24 0 0 1 .09-.16.42.42 0 0 1 .21-.11 1.58 1.58 0 0 1 .36-.06l.56-.03c.22 0 .41.01.55.03.14.01.26.03.33.06.09.03.14.06.16.11s.03.1.03.16l-1.59 8.13zm10.1-.01a.24.24 0 0 1-.09.16.42.42 0 0 1-.21.11c-.09.03-.21.05-.36.06l-.56.03a4.33 4.33 0 0 1-.55-.03c-.15-.01-.26-.03-.33-.06-.09-.03-.14-.06-.16-.11-.03-.05-.03-.1-.01-.16l.64-3.19h-3.24L63.5 38a.24.24 0 0 1-.09.16c-.05.05-.11.09-.21.11a1.58 1.58 0 0 1-.36.06l-.56.03a4.01 4.01 0 0 1-.55-.03c-.14-.01-.26-.03-.33-.06-.09-.03-.14-.06-.16-.11-.03-.05-.03-.1-.03-.16l1.61-8.13a.24.24 0 0 1 .09-.16c.05-.05.11-.09.21-.11a1.58 1.58 0 0 1 .36-.06 4.28 4.28 0 0 1 .56-.03c.22 0 .41.01.55.03.14.01.26.03.33.06.09.03.14.06.16.11.03.05.03.11.03.17l-.61 3.04h3.21l.61-3.04a.24.24 0 0 1 .09-.16c.03-.05.11-.09.2-.11s.21-.05.36-.06l.56-.03c.22 0 .41.01.55.03.14.01.26.03.33.06.09.03.14.06.16.11.03.05.03.1.03.16L69.02 38zm10.75-6.34c0 .44-.1.83-.3 1.18-.2.34-.5.64-.92.91-.42.26-.94.45-1.59.57-.64.14-1.4.2-2.28.2h-.84c-.03.14-.03.27-.05.41l-.03.39c0 .5.12.86.39 1.11.26.25.66.37 1.23.37a5.89 5.89 0 0 0 1.08-.09c.33-.05.59-.12.84-.19.23-.06.44-.14.59-.19.16-.05.27-.09.34-.09.08 0 .12.03.16.06.03.03.05.11.05.2 0 .1-.01.22-.03.34l-.08.4c-.03.12-.08.25-.12.36s-.11.2-.17.26c-.08.08-.2.15-.4.21l-.7.2a9.32 9.32 0 0 1-.92.15l-1.03.06c-.58 0-1.09-.06-1.53-.19-.44-.12-.8-.31-1.09-.56a2.5 2.5 0 0 1-.66-.95c-.14-.39-.21-.84-.21-1.37 0-.41.03-.84.11-1.31s.2-.92.36-1.37c.17-.46.39-.88.66-1.31.27-.41.58-.78.97-1.09s.82-.56 1.31-.76c.5-.19 1.07-.28 1.7-.28.56 0 1.03.06 1.43.2.4.12.72.31.98.52s.45.46.57.73c.11.33.18.63.18.92zm-2.25.16c0-.25-.1-.45-.28-.61s-.47-.25-.83-.25a1.89 1.89 0 0 0-.81.16c-.23.11-.46.26-.64.44-.19.19-.33.41-.47.66a4.86 4.86 0 0 0-.31.81h.77c.48 0 .89-.03 1.22-.1s.58-.15.8-.26c.2-.11.34-.23.44-.39.06-.12.11-.29.11-.46zM88.26 38a.24.24 0 0 1-.09.16.42.42 0 0 1-.21.11 1.58 1.58 0 0 1-.36.06l-.56.03a4.33 4.33 0 0 1-.55-.03c-.15-.01-.26-.03-.33-.06-.09-.03-.14-.06-.16-.11-.03-.05-.03-.1-.01-.16l.62-3.19H83.4L82.75 38a.24.24 0 0 1-.09.16c-.05.05-.11.09-.21.11a1.58 1.58 0 0 1-.36.06l-.56.03a4.01 4.01 0 0 1-.55-.03c-.14-.01-.26-.03-.33-.06-.09-.03-.14-.06-.16-.11-.03-.05-.03-.1-.03-.16l1.61-8.13a.24.24 0 0 1 .09-.16c.05-.05.11-.09.21-.11a1.58 1.58 0 0 1 .36-.06l.56-.03a4.01 4.01 0 0 1 .55.03c.14.01.26.03.33.06.09.03.14.06.16.11.03.05.03.1.03.16l-.61 3.04h3.21l.61-3.03a.24.24 0 0 1 .09-.16c.03-.05.11-.09.2-.11.09-.03.21-.05.36-.06l.56-.03a4.01 4.01 0 0 1 .55.03c.14.01.26.03.33.06.09.03.14.06.16.11.03.05.03.1.03.16L88.26 38zm15.04 0a.24.24 0 0 1-.09.16c-.05.05-.11.09-.21.11-.1.03-.22.05-.36.06l-.56.03a4.33 4.33 0 0 1-.55-.03c-.15-.01-.26-.03-.33-.06-.09-.03-.12-.06-.16-.11-.03-.05-.03-.1-.01-.16l.98-4.88c.03-.14.05-.27.06-.41.03-.14.03-.27.03-.41 0-.28-.05-.51-.16-.7-.11-.17-.3-.26-.57-.26-.25 0-.5.09-.76.23-.26.15-.51.37-.76.64a4.7 4.7 0 0 0-.64.94 3.93 3.93 0 0 0-.4 1.15l-.73 3.68a.24.24 0 0 1-.09.16c-.05.05-.11.09-.21.11-.1.03-.22.05-.36.06l-.56.03a4.33 4.33 0 0 1-.55-.03c-.14-.01-.26-.03-.33-.06-.08-.03-.14-.06-.16-.11-.03-.05-.03-.1-.03-.16l.97-4.88.08-.44.03-.44c0-.26-.05-.48-.16-.66-.11-.17-.3-.26-.56-.26-.25 0-.5.09-.76.23-.26.16-.51.37-.76.64a4.7 4.7 0 0 0-.64.94 3.93 3.93 0 0 0-.4 1.15l-.73 3.68a.24.24 0 0 1-.09.16c-.06.05-.11.09-.21.11a1.58 1.58 0 0 1-.36.06l-.56.03c-.22 0-.41-.01-.55-.03-.14-.01-.26-.03-.33-.06-.09-.03-.14-.06-.16-.11-.03-.05-.03-.1-.03-.16l1.62-8.13c.01-.06.03-.11.08-.16.03-.05.1-.09.19-.11a1.3 1.3 0 0 1 .33-.06l.47-.03c.19 0 .33.01.46.03.11.01.21.03.27.06s.11.06.14.11.03.1.01.16l-.26 1.34c.12-.21.3-.42.51-.64s.46-.42.72-.59c.27-.17.56-.33.88-.44.33-.11.64-.17 1-.17a2.87 2.87 0 0 1 .92.14c.26.1.47.22.64.4.17.17.3.36.39.58s.14.47.17.73c.14-.21.33-.44.53-.66.21-.21.46-.41.73-.58s.56-.33.88-.44a2.97 2.97 0 0 1 .98-.17c.42 0 .78.06 1.07.17.28.11.52.28.7.5a2.14 2.14 0 0 1 .39.73c.09.28.12.58.12.92l-.03.64-.11.66L103.3 38z" stroke-width=".508"/><g stroke-width=".454"><path d="M33.6 50.11v1.48h.15l1.31-1.48h.59l-1.45 1.53c.64.08.87.41 1.07.86l.42.94h-.53c-.14-.23-.25-.52-.34-.78-.17-.45-.42-.75-1.07-.75h-.15v1.53h-.48v-3.32l.48-.01h0zm5.74 1.63c0 1.14-.8 1.75-1.78 1.75-1 0-1.71-.69-1.71-1.69 0-1.06.76-1.75 1.78-1.75 1.02.02 1.71.71 1.71 1.69zm-2.97.04c0 .7.45 1.34 1.22 1.34.78 0 1.23-.64 1.23-1.37 0-.66-.4-1.36-1.22-1.36-.82.02-1.23.68-1.23 1.39zm6.1-1.67v2.98l.33.01-.03 1.14h-.39l-.03-.8h-2.41l-.03.8h-.39l-.03-1.14.28-.01c.14-.22.28-.47.37-.73.12-.39.19-.83.19-1.4v-.84c-.01-.01 2.14-.01 2.14-.01zm-1.68.99c0 .53-.05.98-.2 1.36a3.46 3.46 0 0 1-.31.64h1.69v-2.63H40.8l-.01.63h0zm5.97-.99v.36h-1.65v.89l.47-.03c.36 0 .72.06 1 .22a.89.89 0 0 1 .48.81c0 .31-.12.55-.31.72-.31.26-.83.37-1.36.37-.34 0-.61-.01-.77-.03V50.1h2.14v.01zm-1.65 3l.41.03c.31 0 .62-.09.81-.25.12-.12.21-.27.21-.5a.61.61 0 0 0-.31-.55c-.2-.12-.46-.17-.73-.17l-.4.01v1.43h.01 0zm4.56-1.23h-1.49v1.2h1.65v.36h-2.15v-3.32h2.06v.36h-1.56v1.06h1.49c0-.02 0 .34 0 .34zm.72-1.57c.26-.15.59-.25 1-.25.66 0 1.12.3 1.12.81 0 .41-.33.72-.78.81v.01c.53.05.93.36.93.83 0 .7-.69.97-1.37.97-.34 0-.7-.06-1-.22l.12-.33a2.18 2.18 0 0 0 .86.2c.56 0 .88-.26.88-.64 0-.5-.55-.64-1.03-.64h-.22v-.33h.22c.5 0 .89-.27.89-.61s-.27-.52-.69-.52c-.28 0-.58.1-.8.22l-.13-.31zm6.15 1.43c0 1.14-.8 1.75-1.78 1.75-1 0-1.71-.69-1.71-1.69 0-1.06.76-1.75 1.78-1.75 1.04.02 1.71.71 1.71 1.69zm-2.98.04c0 .7.45 1.34 1.22 1.34.78 0 1.23-.64 1.23-1.37 0-.66-.4-1.36-1.22-1.36-.81.02-1.23.68-1.23 1.39zm6.38-1.67v3.32h-.5v-2.96h-1.78v2.96h-.49v-3.32h2.77zm1.47 2.28l-.4 1.04h-.51l1.29-3.32h.59l1.31 3.32h-.52l-.41-1.04h-1.35zm1.25-.33l-.37-.95c-.09-.22-.14-.41-.2-.61h-.01c-.05.2-.12.4-.2.59l-.37.97c-.01 0 1.15 0 1.15 0z"/><use xlink:href="#B"/><path d="M67.94 50.11v1.39h1.85v-1.39h.5v3.32h-.49v-1.55h-1.85v1.55h-.5v-3.32h.49zm6.47 1.63c0 1.14-.8 1.75-1.78 1.75-1 0-1.71-.69-1.71-1.69 0-1.06.76-1.75 1.78-1.75 1.03.02 1.71.71 1.71 1.69zm-2.96.04c0 .7.45 1.34 1.22 1.34.78 0 1.23-.64 1.23-1.37 0-.66-.4-1.36-1.22-1.36-.82.02-1.23.68-1.23 1.39z"/><use xlink:href="#B" x="10.88"/><path d="M79.26 50.47h-1.17v-.36h2.83v.36h-1.17v2.96h-.5c.01.01.01-2.96.01-2.96zm2.55-.36v1.4l-.03 1.4h.01l.7-1.11 1.25-1.71h.5v3.32h-.47V52l.05-1.36h-.02c-.19.36-.45.75-.7 1.12l-1.19 1.65h-.52v-3.32h.43v.02zm-66.29-4.88c.93-1.67 2.85-2.78 4.78-2.65.58.12.78.95.33 1.34-.75.26-1.56.23-2.26.61-1.58.8-2.43 2.79-1.82 4.47.23.83.87 1.48 1.53 2 .66.42.47 1.29.58 1.95-1.25-.41-2.39-1.19-3.06-2.32-.98-1.6-1.02-3.76-.08-5.4zm6.1-2.52c.77.39 1.55.78 2.18 1.42.66.69 1.06 1.42 1.43 2.21l-1.62.06c-.5-.93-1.26-1.67-2.23-2.11a8.5 8.5 0 0 0 .24-1.58zm.58 4.94c1.92-1 4.44-.67 6.01.82 1.11 1.04 1.8 2.59 1.64 4.12-.1.64-1.18.76-1.37.11-.21-.8-.22-1.69-.72-2.39-.93-1.48-2.95-2.12-4.54-1.44-.78.28-1.31.93-1.84 1.54-.44.57-1.25.36-1.87.44.51-1.31 1.38-2.55 2.69-3.2zm-11.7 3.17c.61-1.67 1.94-3.01 3.64-3.59l.05 1.61c-.93.51-1.7 1.28-2.14 2.26-.51-.12-1.02-.21-1.55-.28zm6.59-3.6a7.35 7.35 0 0 1 2.59 1.67l-.77 1.58a7.98 7.98 0 0 0-1.64-1.54c-.11-.57-.16-1.14-.18-1.71zm6.51 2.32c.5-.25 1.09-.16 1.62-.21-.36.97-.93 1.84-1.65 2.57l-1.6-.75c.59-.48 1.08-1.08 1.63-1.61zm-13.24 2.79c-.05-1.03 1.19-1.04 1.37-.44.25.84.23 1.81.78 2.54.98 1.5 3.09 2.09 4.71 1.28.81-.34 1.26-1.12 1.87-1.7.51-.23 1.09-.15 1.64-.19-.7 2.11-2.68 3.77-4.96 3.79-2.88.19-5.51-2.33-5.41-5.28zm9.3-.59c.45-.41 1.28.01 1.2.62.09.61-.8 1.06-1.23.61-.38-.28-.37-1 .03-1.23zm2.02 1.17a.67.67 0 0 1 1-.66c.84.5 1.59 1.15 2.05 2.04.91 1.6.88 3.68-.08 5.27-.94 1.6-2.77 2.67-4.67 2.56-.16-.01-.4-.16-.42-.19-.21-.15-.2-.67-.1-.88.12-.26.33-.4.57-.41 1.75-.06 3.43-1.29 3.74-3.06.39-1.58-.51-3.13-1.79-3.99a.63.63 0 0 1-.27-.46.78.78 0 0 0-.03-.22zm-6.69 2.46c.39-.97.94-1.85 1.69-2.57l1.56.76a10.92 10.92 0 0 0-1.36 1.36c-.41.61-1.26.39-1.89.45zm13.2-1.76l1.55.26c-.39.81-.76 1.64-1.42 2.26-.61.61-1.42.98-2.18 1.34l-.08-1.61c.94-.49 1.69-1.27 2.13-2.25zm-6.85.62c.47.61 1.08 1.07 1.6 1.61.21.5.14 1.08.17 1.61a6.7 6.7 0 0 1-2.54-1.67l.77-1.55zm-6.35 4.15l1.6-.08c.51.93 1.28 1.67 2.25 2.12-.1.51-.17 1.03-.22 1.55-1.69-.58-3.02-1.91-3.63-3.59z"/></g></g><g stroke-width=".75"><circle cx="20.85" cy="93.48" r="3.95"/><circle cx="20.85" cy="93.48" r="3.33"/></g><g class="D"><path d="M58.85 103.37c0 .18-.04.34-.1.47a1.03 1.03 0 0 1-.27.35c-.12.1-.25.17-.41.22-.16.04-.33.07-.51.07-.12 0-.25-.01-.35-.04a1.23 1.23 0 0 1-.29-.08c-.09-.04-.16-.06-.21-.1s-.1-.06-.12-.09-.04-.05-.05-.09-.02-.08-.02-.14c0-.04 0-.08.01-.11 0-.03.01-.05.02-.07s.02-.03.03-.04.03-.01.04-.01c.03 0 .06.02.12.05l.2.11c.08.04.17.07.28.11.12.04.24.05.38.05a1.36 1.36 0 0 0 .3-.04c.09-.03.17-.07.23-.12s.12-.12.15-.2.05-.17.05-.27a.54.54 0 0 0-.07-.27c-.04-.08-.12-.14-.2-.2l-.27-.16c-.11-.04-.2-.1-.31-.15a3.07 3.07 0 0 1-.31-.17c-.1-.06-.2-.13-.27-.21-.08-.08-.14-.18-.2-.28s-.07-.24-.07-.4.03-.3.09-.43c.05-.12.13-.23.24-.31s.22-.15.36-.2a1.63 1.63 0 0 1 .45-.06c.08 0 .17.01.26.02s.17.04.24.06a1.19 1.19 0 0 1 .2.08c.06.03.1.05.12.07s.03.04.04.04c.01.01.01.03.02.04 0 .02.01.04.01.06v.09.1c0 .04-.01.05-.01.07-.01.02-.02.04-.03.04-.01.01-.03.01-.04.01-.02 0-.05-.02-.1-.04-.04-.03-.11-.06-.17-.09-.07-.04-.14-.06-.24-.1a.99.99 0 0 0-.3-.04c-.11 0-.2.02-.27.04s-.14.06-.2.12c-.05.04-.09.11-.12.17s-.04.13-.04.2a.54.54 0 0 0 .07.27c.04.08.12.14.2.2s.17.12.27.16c.11.04.21.1.32.15l.32.16c.11.06.2.13.27.21a1.1 1.1 0 0 1 .2.28c.05.1.06.3.06.44zm2.89-.43c0 .08-.02.13-.05.16s-.08.04-.13.04h-1.73c0 .14.02.27.04.39s.08.21.15.3c.07.08.16.15.27.2s.24.07.4.07c.12 0 .24-.01.34-.03a1.38 1.38 0 0 0 .26-.07c.07-.03.13-.04.18-.07.04-.03.08-.03.11-.03.01 0 .03 0 .04.01l.03.03c.01.02.01.04.01.05v.09.06c0 .02 0 .04-.01.05 0 .02-.01.03-.02.04s-.02.03-.03.04a.28.28 0 0 1-.1.05c-.05.03-.12.04-.2.07s-.18.04-.29.06-.23.03-.35.03c-.21 0-.41-.03-.57-.09a1.05 1.05 0 0 1-.41-.27c-.11-.12-.2-.27-.25-.44a2.33 2.33 0 0 1-.08-.62c0-.22.03-.43.09-.61a1.27 1.27 0 0 1 .25-.46 1.18 1.18 0 0 1 .4-.29c.15-.07.33-.1.52-.1.2 0 .38.04.52.1a.87.87 0 0 1 .35.27c.1.12.16.24.2.39s.06.31.06.48v.1h0zm-.47-.14c.01-.26-.05-.45-.17-.59s-.29-.21-.52-.21c-.12 0-.22.03-.31.07s-.17.11-.23.18a.72.72 0 0 0-.14.26c-.04.1-.05.2-.05.31l1.42-.02zm2.74-.89v.11c0 .03-.01.05-.01.07-.01.02-.01.03-.02.04s-.02.01-.04.01-.04 0-.05-.01c-.02-.01-.04-.02-.07-.03l-.1-.03c-.04-.01-.07-.01-.12-.01a.32.32 0 0 0-.14.03c-.04.02-.1.05-.15.1s-.11.11-.16.18l-.19.27v1.73c0 .02 0 .03-.01.04s-.02.02-.04.03-.04.02-.07.02c-.04 0-.07.01-.12.01-.04 0-.09 0-.12-.01s-.05-.01-.07-.02-.04-.02-.04-.03c-.01-.01-.01-.03-.01-.04v-2.62c0-.02 0-.03.01-.04s.02-.02.04-.03.04-.02.07-.02h.11.11c.03 0 .05.01.06.02s.03.02.04.03.01.03.01.04v.38c.07-.11.14-.2.2-.26s.12-.12.18-.16c.05-.04.12-.06.17-.08s.12-.02.17-.02h.09c.04 0 .06.01.1.02l.1.03c.03.01.04.02.06.03l.03.03c0 .01.01.02.01.04s0 .04.01.06c-.04.01-.04.05-.04.09zm1.09-1.06c0 .12-.02.19-.06.23s-.12.06-.24.06-.19-.02-.23-.06-.06-.12-.06-.23c0-.12.02-.19.06-.23s.12-.06.24-.06.19.02.23.06.06.12.06.23zm-.06 3.52c0 .02 0 .03-.01.04s-.02.02-.04.03-.04.02-.07.02c-.04 0-.07.01-.12.01-.04 0-.09 0-.12-.01s-.05-.01-.07-.02-.04-.02-.04-.03c-.01-.01-.01-.03-.01-.04v-2.62c0-.02 0-.03.01-.04s.02-.02.04-.03.04-.02.07-.02.07-.01.12-.01c.04 0 .09 0 .12.01.03 0 .05.01.07.02s.03.02.04.03.01.03.01.04v2.62zm2.88 0c0 .03-.01.04-.03.05l-.06.03c-.03.01-.07.01-.12.01s-.09 0-.12-.01-.05-.02-.06-.03c-.02-.01-.02-.03-.02-.05v-.27c-.12.12-.24.22-.38.28s-.29.11-.45.11c-.14 0-.27-.02-.37-.05a.76.76 0 0 1-.28-.16.79.79 0 0 1-.19-.25c-.04-.1-.06-.21-.06-.34a.83.83 0 0 1 .09-.39c.06-.11.15-.2.26-.27.12-.07.25-.12.42-.16.16-.04.35-.05.55-.05h.36v-.2c0-.1-.01-.19-.04-.27-.02-.08-.05-.14-.11-.2-.04-.05-.11-.09-.19-.12s-.17-.04-.28-.04-.22.02-.32.04c-.1.03-.18.06-.25.09-.07.04-.13.06-.18.1-.04.04-.08.04-.11.04-.02 0-.03 0-.04-.01s-.03-.02-.04-.04-.02-.04-.02-.06c0-.03-.01-.05-.01-.08 0-.04 0-.09.01-.12s.03-.05.05-.08c.03-.03.07-.05.13-.09s.14-.06.22-.1c.08-.03.18-.05.27-.07.1-.02.2-.03.3-.03.19 0 .35.02.48.06a.78.78 0 0 1 .32.19c.08.08.14.19.18.31s.05.27.05.43v1.77l.04.03h0zm-.48-1.2h-.41c-.13 0-.25.01-.35.04s-.18.05-.24.1-.12.1-.14.16c-.03.06-.04.13-.04.21a.43.43 0 0 0 .13.33c.09.08.2.12.36.12.12 0 .24-.04.35-.1s.22-.16.34-.29v-.57h0zm1.84 1.2c0 .02 0 .03-.01.04s-.02.02-.04.03-.04.02-.07.02c-.04 0-.07.01-.12.01-.04 0-.09 0-.12-.01s-.05-.01-.07-.02-.04-.02-.04-.03c-.01-.01-.01-.03-.01-.04v-3.9c0-.02 0-.03.01-.04s.02-.02.04-.03.04-.02.07-.02.07-.01.12-.01c.04 0 .09 0 .12.01.03 0 .05.01.07.02s.03.02.04.03.01.03.01.04v3.9z" stroke-width=".443"/><g stroke-width=".665"><path d="M45.07 65.73h35.87a.18.18 0 0 1 .18.18v26.77a.18.18 0 0 1-.18.18H45.07a.18.18 0 0 1-.18-.18V65.9c.01-.1.08-.17.18-.17z"/><path d="M45.86 66.48h34.29a.18.18 0 0 1 .18.18v25.26a.18.18 0 0 1-.18.18H45.86a.18.18 0 0 1-.18-.18V66.65c0-.1.08-.17.18-.17z"/><path d="M76.39 81.99v4.38a.18.18 0 0 1-.18.18h-4.77a.18.18 0 0 0-.18.18v3.59a.18.18 0 0 1-.18.18h-2.8a.18.18 0 0 0-.18.18v1.22a.18.18 0 0 1-.18.18h-4.95-4.95a.18.18 0 0 1-.18-.18v-1.22a.18.18 0 0 0-.18-.18h-2.8a.18.18 0 0 1-.18-.18v-3.59a.18.18 0 0 0-.18-.18h-4.77a.18.18 0 0 1-.18-.18v-4.38-6.25-3.98a.18.18 0 0 1 .18-.18h13.21 13.21a.18.18 0 0 1 .18.18v3.98 6.25h.06z"/><path d="M69.86 72.23H71l-.32 3.2c-.01.04-.04.08-.09.08h-.37c-.04 0-.08-.04-.09-.08l-.27-3.2z"/><use xlink:href="#C"/><use xlink:href="#C" x="-2.08"/><use xlink:href="#C" x="-4.16"/><use xlink:href="#C" x="-6.23"/><use xlink:href="#C" x="-8.31"/><use xlink:href="#C" x="-10.39"/><use xlink:href="#C" x="-12.46"/><path d="M50.12 77.12l-1.33-.09v3.64l1.33-.09c.16-.01.28-.14.28-.31v-2.84c0-.17-.12-.3-.28-.31zm25.73 0l1.32-.09v3.64l-1.32-.09c-.16-.01-.28-.14-.28-.31v-2.84c0-.17.12-.3.28-.31z"/></g><path d="M167.57 44.51l5.29-27.18h22.22m255.43 28.53l5.28-27.18h26.07m47.75 27.18l5.29-27.18h26.07"/><path d="M195.08 126.17h-22.22l-5.29-33.38m315.29 33.74h-27.07l-5.28-33.39m112.26 33.39h-27.28l-5.29-33.39" stroke-width="1.108"/><g stroke-width=".75"><use xlink:href="#D"/><use xlink:href="#E"/><use xlink:href="#F"/><use xlink:href="#G"/><use xlink:href="#G" x="28.42"/><use xlink:href="#H"/><use xlink:href="#I"/><use xlink:href="#J"/><use xlink:href="#J" x="2.34"/><use xlink:href="#J" x="4.68"/><use xlink:href="#J" x="7.03"/><use xlink:href="#J" x="9.37"/><use xlink:href="#J" x="11.71"/><use xlink:href="#J" x="14.06"/><use xlink:href="#J" x="16.4"/><use xlink:href="#K"/><use xlink:href="#L"/><use xlink:href="#M"/><use xlink:href="#N"/><use xlink:href="#N" x="-28.42"/><use xlink:href="#O"/><use xlink:href="#P"/><use xlink:href="#Q"/><use xlink:href="#Q" x="-2.34"/><use xlink:href="#Q" x="-4.68"/><use xlink:href="#Q" x="-7.03"/><path d="M368.71 80.47H370l-.36 3.61c0 .05-.05.09-.1.09h-.42c-.05 0-.09-.04-.1-.09l-.31-3.61z"/><use xlink:href="#Q" x="-11.71"/><use xlink:href="#Q" x="-14.06"/><use xlink:href="#Q" x="-16.4"/><use xlink:href="#D" x="79.7"/><use xlink:href="#E" x="79.7"/><use xlink:href="#F" x="79.7"/><use xlink:href="#G" x="79.7"/><use xlink:href="#G" x="108.12"/><use xlink:href="#H" x="79.7"/><use xlink:href="#I" x="79.7"/><use xlink:href="#J" x="79.7"/><use xlink:href="#J" x="82.04"/><use xlink:href="#J" x="84.38"/><use xlink:href="#J" x="86.73"/><use xlink:href="#J" x="89.07"/><use xlink:href="#J" x="91.41"/><use xlink:href="#J" x="93.76"/><use xlink:href="#J" x="96.1"/><use xlink:href="#K" x="79.7"/><use xlink:href="#L" x="79.7"/><use xlink:href="#M" x="79.7"/><use xlink:href="#N" x="79.7"/><use xlink:href="#N" x="51.28"/><use xlink:href="#O" x="79.7"/><use xlink:href="#P" x="79.7"/><use xlink:href="#Q" x="79.7"/><use xlink:href="#Q" x="77.36"/><use xlink:href="#Q" x="75.02"/><use xlink:href="#Q" x="72.67"/><use xlink:href="#Q" x="70.33"/><use xlink:href="#Q" x="67.99"/><use xlink:href="#Q" x="65.64"/><use xlink:href="#Q" x="63.3"/><path d="M550 63.36h-40.46a.2.2 0 0 1-.2-.2V31.58a.2.2 0 0 1 .2-.2H550a.2.2 0 0 1 .2.2v31.58c-.01.11-.09.2-.2.2z"/><use xlink:href="#E" x="159.4"/><use xlink:href="#F" x="159.4"/><use xlink:href="#G" x="159.4"/><use xlink:href="#G" x="187.82"/><use xlink:href="#H" x="159.4"/><use xlink:href="#I" x="159.4"/><use xlink:href="#J" x="159.4"/><use xlink:href="#J" x="161.74"/><use xlink:href="#J" x="164.08"/><use xlink:href="#J" x="166.43"/><use xlink:href="#J" x="168.77"/><use xlink:href="#J" x="171.11"/><use xlink:href="#J" x="173.46"/><use xlink:href="#J" x="175.8"/><use xlink:href="#K" x="159.4"/><use xlink:href="#L" x="159.4"/><use xlink:href="#M" x="159.4"/><use xlink:href="#N" x="159.4"/><use xlink:href="#N" x="130.98"/><use xlink:href="#O" x="159.4"/><use xlink:href="#P" x="159.4"/><use xlink:href="#Q" x="159.4"/><use xlink:href="#Q" x="157.06"/><use xlink:href="#Q" x="154.72"/><use xlink:href="#Q" x="152.37"/><use xlink:href="#Q" x="150.03"/><use xlink:href="#Q" x="147.69"/><use xlink:href="#Q" x="145.34"/><use xlink:href="#Q" x="143"/></g><g stroke-width=".811"><path d="M100.38 67.8V54.38c0-.09.07-.15.15-.15h28c.09 0 .15.07.15.15v13.41c0 .09-.07.15-.15.15h-28c-.08.01-.15-.06-.15-.14z"/><path d="M100.76 67.02V55.16a.4.4 0 0 1 .4-.4h26.75a.4.4 0 0 1 .4.4v11.86a.4.4 0 0 1-.4.4h-26.75a.4.4 0 0 1-.4-.4z"/><path d="M102.83 57.05h23.41v4.39h-23.41z"/><use xlink:href="#R"/><use xlink:href="#R" x="-5.35"/><use xlink:href="#R" x="-10.7"/><use xlink:href="#R" x="-16.05"/><path d="M116.41 66.78h7.03v.61h-7.03zm-10.94.01h7.03v.61h-7.03zm-5.09 23.45V76.83c0-.09.07-.15.15-.15h28c.09 0 .15.07.15.15v13.41c0 .09-.07.15-.15.15h-28c-.08.01-.15-.06-.15-.15z"/><path d="M100.76 89.46V77.61a.4.4 0 0 1 .4-.4h26.75a.4.4 0 0 1 .4.4v11.86a.4.4 0 0 1-.4.4h-26.75c-.22-.01-.4-.19-.4-.41z"/><path d="M102.83 79.5h23.41v4.39h-23.41z"/><use xlink:href="#R" y="22.44"/><use xlink:href="#R" x="-5.35" y="22.44"/><use xlink:href="#R" x="-10.7" y="22.44"/><use xlink:href="#R" x="-16.05" y="22.44"/><path d="M116.4 89.23h7.03v.61h-7.03zm-10.94 0h7.03v.61h-7.03z"/></g><g stroke-width=".84"><use xlink:href="#S"/><use xlink:href="#S" x="1.8"/><use xlink:href="#S" x="3.61"/><use xlink:href="#S" x="5.43"/><use xlink:href="#S" x="7.23"/><use xlink:href="#S" x="9.05"/><use xlink:href="#S" x="10.86"/><use xlink:href="#S" x="12.66"/><use xlink:href="#S" x="14.48"/><use xlink:href="#S" x="16.29"/><path d="M159.61 59.83h16.15v1.72h-16.15z"/><path d="M159.98 59.85h15.41l-.18.56c-.14.44-.64.73-1.22.73h-12.62c-.58 0-1.08-.31-1.22-.73l-.17-.56z"/><path d="M146.46 32.16h42.44v28.89h-42.44z"/><path d="M189.14 62.67h-42.99a1.24 1.24 0 0 1-1.24-1.24v-30a1.24 1.24 0 0 1 1.24-1.24h42.99a1.24 1.24 0 0 1 1.24 1.24v30c-.01.68-.56 1.24-1.24 1.24z"/><use xlink:href="#T"/><use xlink:href="#T" x="-1.81"/><use xlink:href="#T" x="-3.62"/><use xlink:href="#T" x="-5.43"/><use xlink:href="#T" x="-7.24"/><use xlink:href="#T" x="-9.05"/><use xlink:href="#T" x="-10.87"/><use xlink:href="#T" x="-12.67"/><use xlink:href="#T" x="-14.48"/><use xlink:href="#T" x="-16.3"/><path d="M159.46 74.41h16.15v1.72h-16.15z"/><path d="M175.24 76.11h-15.41l.18-.56c.14-.44.64-.73 1.22-.73h12.62c.58 0 1.08.31 1.22.73l.17.56z"/><path d="M146.31 74.91h42.44v28.89h-42.44z"/><path d="M146.08 73.3h42.99a1.24 1.24 0 0 1 1.24 1.24v30.01a1.24 1.24 0 0 1-1.24 1.24h-42.99a1.24 1.24 0 0 1-1.24-1.24v-30c0-.7.56-1.25 1.24-1.25zm89.52-18.98H234l.46-3.42c.01-.05.06-.08.12-.08h.52c.07 0 .11.04.12.08l.38 3.42z"/><use xlink:href="#S" x="77.06" y="-0.04"/><use xlink:href="#S" x="78.88" y="-0.04"/><use xlink:href="#S" x="80.69" y="-0.04"/><use xlink:href="#S" x="82.5" y="-0.04"/><use xlink:href="#S" x="84.31" y="-0.04"/><use xlink:href="#S" x="86.12" y="-0.04"/><use xlink:href="#S" x="87.93" y="-0.04"/><use xlink:href="#S" x="89.74" y="-0.04"/><use xlink:href="#S" x="91.55" y="-0.04"/><path d="M234.87 59.79h16.15v1.72h-16.15z"/><path d="M235.24 59.81h15.41l-.18.56c-.14.44-.64.73-1.22.73h-12.62c-.58 0-1.08-.31-1.22-.73l-.17-.56z"/><path d="M221.73 32.12h42.44v28.89h-42.44z"/><path d="M264.4 62.63h-42.99a1.24 1.24 0 0 1-1.24-1.24v-30a1.24 1.24 0 0 1 1.24-1.24h42.99a1.24 1.24 0 0 1 1.24 1.24v30c0 .68-.56 1.24-1.24 1.24z"/><use xlink:href="#T" x="75.26" y="-0.04"/><use xlink:href="#T" x="73.46" y="-0.04"/><use xlink:href="#T" x="71.64" y="-0.04"/><use xlink:href="#T" x="69.83" y="-0.04"/><use xlink:href="#T" x="68.02" y="-0.04"/><use xlink:href="#T" x="66.21" y="-0.04"/><use xlink:href="#T" x="64.4" y="-0.04"/><use xlink:href="#T" x="62.59" y="-0.04"/><use xlink:href="#T" x="60.78" y="-0.04"/><use xlink:href="#T" x="58.97" y="-0.04"/><path d="M234.72 74.37h16.15v1.72h-16.15z"/><path d="M250.5 76.07h-15.41l.18-.56c.14-.44.64-.73 1.22-.73h12.62c.58 0 1.08.31 1.22.73l.17.56z"/><path d="M221.57 74.87h42.44v28.89h-42.44z"/><path d="M221.34 73.25h42.99a1.24 1.24 0 0 1 1.24 1.24v30.01a1.24 1.24 0 0 1-1.24 1.24h-42.99a1.24 1.24 0 0 1-1.24-1.24v-30a1.25 1.25 0 0 1 1.24-1.25z"/></g></g></g><path d="M539.35 6.77c.01.36-.25.65-.67.65-.37 0-.64-.29-.64-.65 0-.37.28-.66.66-.66a.62.62 0 0 1 .65.66zm-1.18 7.43V8.4h1.06v5.8h-1.06zm7.81-5.8l-.05 1.6v3.37c0 1.33-.26 2.15-.83 2.65-.56.53-1.38.7-2.11.7-.7 0-1.46-.17-1.93-.48l.26-.8c.38.24.98.46 1.7.46 1.08 0 1.87-.56 1.87-2.03v-.65h-.02c-.32.54-.95.97-1.85.97-1.44 0-2.47-1.22-2.47-2.83 0-1.97 1.28-3.08 2.61-3.08 1.01 0 1.56.53 1.81 1.01h.02l.05-.88h.94V8.4zm-1.09 2.29c0-.18-.01-.34-.06-.48-.19-.61-.71-1.12-1.48-1.12-1.01 0-1.73.85-1.73 2.19 0 1.14.58 2.09 1.72 2.09.65 0 1.24-.41 1.46-1.08.06-.18.08-.38.08-.56l.01-1.04h0zm2.75 3.51l.05-1.5V5.69h1.04v3.65h.02c.37-.65 1.04-1.07 1.98-1.07 1.44 0 2.46 1.2 2.45 2.96 0 2.08-1.31 3.11-2.6 3.11-.84 0-1.51-.32-1.94-1.09h-.04l-.05.96h-.91v-.01zm1.09-2.32c0 .13.02.26.05.38.2.73.82 1.24 1.58 1.24 1.1 0 1.76-.9 1.76-2.23 0-1.16-.6-2.16-1.73-2.16-.72 0-1.39.49-1.61 1.3-.02.12-.06.26-.06.43v1.04h.01zm7.74-4.49h-.02l-1.36.73-.2-.8 1.7-.91h.9v7.8h-1.02V7.39h0z"/><use xlink:href="#U"/><path d="M466.97 116.74l-.05 1.6v3.37c0 1.33-.26 2.15-.83 2.65-.56.53-1.38.7-2.11.7-.7 0-1.46-.17-1.93-.48l.26-.8c.38.24.98.46 1.7.46 1.08 0 1.87-.56 1.87-2.03v-.65h-.02c-.32.54-.95.97-1.85.97-1.44 0-2.47-1.22-2.47-2.83 0-1.97 1.28-3.08 2.61-3.08 1.01 0 1.56.53 1.81 1.01h.02l.05-.88.94-.01h0zm-1.09 2.29c0-.18-.01-.34-.06-.48-.19-.61-.71-1.12-1.48-1.12-1.01 0-1.73.85-1.73 2.19 0 1.14.58 2.09 1.72 2.09.65 0 1.24-.41 1.46-1.08.06-.18.08-.38.08-.56v-1.04h.01z"/><use xlink:href="#V"/><path d="M475.17 122.54v-.64l.83-.8c1.99-1.9 2.89-2.9 2.9-4.08 0-.79-.38-1.52-1.55-1.52-.71 0-1.3.36-1.66.66l-.34-.74c.54-.46 1.31-.79 2.21-.79 1.68 0 2.39 1.15 2.39 2.27 0 1.44-1.04 2.6-2.69 4.19l-.62.58v.02h3.5v.88h-4.97v-.03z"/><use xlink:href="#U" x="79.77" y="0.02"/><path d="M546.74 116.76l-.05 1.6v3.37c0 1.33-.26 2.15-.83 2.65-.56.53-1.38.7-2.11.7-.7 0-1.46-.17-1.93-.48l.26-.8c.38.24.98.46 1.7.46 1.08 0 1.87-.56 1.87-2.03v-.65h-.02c-.32.54-.95.97-1.85.97-1.44 0-2.47-1.22-2.47-2.83 0-1.97 1.28-3.08 2.61-3.08 1.01 0 1.56.53 1.81 1.01h.02l.05-.88h.94v-.01zm-1.09 2.29c0-.18-.01-.34-.06-.48-.19-.61-.71-1.12-1.48-1.12-1.01 0-1.73.85-1.73 2.19 0 1.14.58 2.09 1.71 2.09.65 0 1.24-.41 1.46-1.08.06-.18.08-.38.08-.56v-1.04h.02z"/><use xlink:href="#V" x="79.77" y="0.02"/><path d="M555.19 121.35a3.57 3.57 0 0 0 1.73.49c1.36 0 1.77-.86 1.76-1.51-.01-1.09-1-1.56-2.01-1.56h-.59v-.79h.59c.77 0 1.74-.4 1.74-1.32 0-.62-.4-1.18-1.37-1.18-.62 0-1.22.28-1.56.52l-.28-.77c.41-.3 1.2-.6 2.04-.6 1.54 0 2.23.91 2.23 1.86 0 .8-.48 1.49-1.44 1.83v.02c.96.19 1.74.91 1.74 2 0 1.25-.97 2.34-2.84 2.34-.88 0-1.64-.28-2.03-.53l.29-.8z"/><use xlink:href="#U" x="-1.48" y="-108.61"/><path d="M465.49 8.13l-.05 1.6v3.37c0 1.33-.26 2.15-.83 2.65-.56.53-1.38.7-2.11.7-.7 0-1.46-.17-1.93-.48l.26-.8c.38.24.98.46 1.7.46 1.08 0 1.87-.56 1.87-2.03v-.65h-.02c-.32.54-.95.97-1.85.97-1.44 0-2.47-1.22-2.47-2.83 0-1.97 1.28-3.08 2.62-3.08 1.01 0 1.56.53 1.81 1.01h.02l.05-.88h.93v-.01zm-1.09 2.29c0-.18-.01-.34-.06-.48-.19-.61-.71-1.12-1.48-1.12-1.01 0-1.73.85-1.73 2.19 0 1.14.58 2.09 1.72 2.09.65 0 1.24-.41 1.46-1.08.06-.18.08-.38.08-.56v-1.04h.01zm2.75 3.51l.05-1.5V5.42h1.04v3.65h.02c.37-.65 1.04-1.07 1.98-1.07 1.44 0 2.46 1.2 2.45 2.96 0 2.08-1.31 3.11-2.6 3.11-.84 0-1.51-.32-1.94-1.09h-.04l-.05.96h-.91v-.01zm1.09-2.32c0 .13.02.26.05.38.2.73.82 1.24 1.58 1.24 1.1 0 1.76-.9 1.76-2.23 0-1.16-.6-2.16-1.73-2.16-.72 0-1.39.49-1.61 1.3-.02.12-.06.26-.06.43v1.04h.01zm10.63-1.66c0 2.65-.98 4.11-2.71 4.11-1.52 0-2.55-1.43-2.58-4.01 0-2.61 1.13-4.05 2.71-4.05 1.64 0 2.58 1.47 2.58 3.95zm-4.23.12c0 2.03.62 3.18 1.58 3.18 1.08 0 1.6-1.26 1.6-3.25 0-1.92-.49-3.18-1.58-3.18-.93 0-1.6 1.13-1.6 3.25z"/><text transform="translate(176.632 14.069)" class="B C">ix0</text><text transform="translate(177.632 123.451)" class="B C">ix1</text><text transform="translate(296.66 14.082)" class="B C">ix2</text><text transform="translate(296.66 124.103)" class="B C">ix3</text><path d="M243.7 44.51l6.95-27.18h110.7l9 28.89m2.71 48.85l-9.6 31.52H252.77l-9.82-31.52" fill="none" stroke="#000" class="D"/><defs ><path id="B" d="M66.84 53.33c-.19.08-.55.16-1 .16-1.08 0-1.89-.59-1.89-1.69 0-1.04.81-1.75 2-1.75.48 0 .77.09.91.15l-.12.34c-.19-.08-.46-.14-.77-.14-.89 0-1.49.5-1.49 1.37 0 .81.53 1.34 1.47 1.34.3 0 .61-.05.81-.14l.08.36z"/><path id="C" d="M67.78 72.23h1.14l-.32 3.2c-.01.04-.04.08-.09.08h-.37c-.04 0-.08-.04-.09-.08l-.27-3.2z"/><path id="D" d="M390.6 63.36h-40.46a.2.2 0 0 1-.2-.2V31.58a.2.2 0 0 1 .2-.2h40.46a.2.2 0 0 1 .2.2v31.58c-.01.11-.09.2-.2.2z"/><path id="E" d="M389.71 62.47h-38.68a.2.2 0 0 1-.2-.2v-29.8a.2.2 0 0 1 .2-.2h38.68a.2.2 0 0 1 .2.2v29.8a.2.2 0 0 1-.2.2z"/><path id="F" d="M370.37 58.03h14.9a.2.2 0 0 0 .2-.2v-4.49a.2.2 0 0 1 .2-.2h.5a.2.2 0 0 0 .2-.2v-5.58-.69a.2.2 0 0 0-.2-.2h-.5a.2.2 0 0 1-.2-.2v-4.94a.2.2 0 0 0-.2-.2h-5.38a.2.2 0 0 1-.2-.2v-4.05a.2.2 0 0 0-.2-.2h-3.16a.2.2 0 0 1-.2-.2V35.1a.2.2 0 0 0-.2-.2h-5.58-5.58a.2.2 0 0 0-.2.2v1.38a.2.2 0 0 1-.2.2h-3.16a.2.2 0 0 0-.2.2v4.05a.2.2 0 0 1-.2.2h-5.38a.2.2 0 0 0-.2.2v4.94a.2.2 0 0 1-.2.2h-.5a.2.2 0 0 0-.2.2v.69 5.58a.2.2 0 0 0 .2.2h.5a.2.2 0 0 1 .2.2v4.49a.2.2 0 0 0 .2.2h14.94 0z"/><path id="G" d="M359.07 38.94h-5.82a.2.2 0 0 1-.2-.2v-2.27a.2.2 0 0 1 .2-.2h5.82a.2.2 0 0 1 .2.2v2.27a.2.2 0 0 1-.2.2z"/><path id="H" d="M355.16 52.31h-1.22v-4.88h1.22c.3 0 .55.25.55.55v3.78c.01.31-.24.55-.55.55z"/><path id="I" d="M385.57 52.31h1.22v-4.88h-1.22c-.3 0-.55.25-.55.55v3.78a.55.55 0 0 0 .55.55z"/><path id="J" d="M362.64 57.29h-1.29l.36-3.61c0-.05.05-.09.1-.09h.42c.05 0 .09.04.1.09l.31 3.61z"/><path id="K" d="M350.12 74.4h40.46a.2.2 0 0 1 .2.2v31.58a.2.2 0 0 1-.2.2h-40.46a.2.2 0 0 1-.2-.2V74.6c.01-.11.09-.2.2-.2z"/><path id="L" d="M351.01 75.29h38.68a.2.2 0 0 1 .2.2v29.8a.2.2 0 0 1-.2.2h-38.68a.2.2 0 0 1-.2-.2v-29.8a.2.2 0 0 1 .2-.2z"/><path id="M" d="M370.35 79.73h-14.9a.2.2 0 0 0-.2.2v4.49a.2.2 0 0 1-.2.2h-.5a.2.2 0 0 0-.2.2v5.58.69a.2.2 0 0 0 .2.2h.5a.2.2 0 0 1 .2.2v4.94a.2.2 0 0 0 .2.2h5.38a.2.2 0 0 1 .2.2v4.05a.2.2 0 0 0 .2.2h3.16a.2.2 0 0 1 .2.2v1.38a.2.2 0 0 0 .2.2h5.58 5.58a.2.2 0 0 0 .2-.2v-1.38a.2.2 0 0 1 .2-.2h3.16a.2.2 0 0 0 .2-.2v-4.05a.2.2 0 0 1 .2-.2h5.38a.2.2 0 0 0 .2-.2v-4.94a.2.2 0 0 1 .2-.2h.5a.2.2 0 0 0 .2-.2v-.69-5.58a.2.2 0 0 0-.2-.2h-.5a.2.2 0 0 1-.2-.2v-4.49a.2.2 0 0 0-.2-.2h-14.94 0z"/><path id="N" d="M381.65 98.82h5.82a.2.2 0 0 1 .2.2v2.27a.2.2 0 0 1-.2.2h-5.82a.2.2 0 0 1-.2-.2v-2.27a.2.2 0 0 1 .2-.2z"/><path id="O" d="M385.56 85.45h1.22v4.88h-1.22c-.3 0-.55-.25-.55-.55V86c-.01-.31.24-.55.55-.55z"/><path id="P" d="M355.15 85.45h-1.22v4.88h1.22c.3 0 .55-.25.55-.55V86a.55.55 0 0 0-.55-.55z"/><path id="Q" d="M378.08 80.47h1.29l-.36 3.61c0 .05-.05.09-.1.09h-.42c-.05 0-.09-.04-.1-.09l-.31-3.61z"/><path id="R" d="M120.75 61.44v.05a1.12 1.12 0 0 0 1.12 1.12h1.38a1.12 1.12 0 0 0 1.12-1.12v-.05h-3.62z"/><path id="S" d="M160.34 54.36h-1.6l.46-3.42c.01-.05.06-.08.12-.08h.52c.07 0 .11.04.12.08l.38 3.42z"/><path id="T" d="M174.88 81.6h1.6l-.46 3.42c-.01.05-.06.08-.12.08h-.52c-.07 0-.11-.04-.12-.08l-.38-3.42z"/><path id="U" d="M460.34 115.11c.01.36-.25.65-.67.65-.37 0-.64-.29-.64-.65 0-.37.28-.66.66-.66.39 0 .65.28.65.66zm-1.18 7.43v-5.8h1.06v5.8h-1.06z"/><path id="V" d="M468.63 122.54l.05-1.5v-7.01h1.04v3.65h.02c.37-.65 1.04-1.07 1.98-1.07 1.44 0 2.46 1.2 2.45 2.96 0 2.08-1.31 3.11-2.6 3.11-.84 0-1.51-.32-1.94-1.09h-.04l-.05.96h-.91v-.01zm1.09-2.32c0 .13.02.26.05.38.2.73.82 1.24 1.58 1.24 1.1 0 1.76-.9 1.76-2.23 0-1.16-.6-2.16-1.73-2.16-.72 0-1.39.49-1.61 1.3-.02.12-.06.26-.06.43v1.04h.01z"/></defs></svg>