<?xml version="1.0" encoding="utf-8"?>
<!-- Generator: Adobe Illustrator 24.0.0, SVG Export Plug-In . SVG Version: 6.00 Build 0)  -->
<svg version="1.1" id="Слой_1" xmlns:v="https://vecta.io/nano"
	 xmlns="http://www.w3.org/2000/svg" xmlns:xlink="http://www.w3.org/1999/xlink" x="0px" y="0px" viewBox="0 0 1102.3 135.2"
	 style="enable-background:new 0 0 1102.3 135.2;" xml:space="preserve">
<style type="text/css">
	.st0{fill:none;stroke:#000000;stroke-miterlimit:10;}
	.st1{fill:none;stroke:#000000;stroke-width:0.591;stroke-miterlimit:10;}
	.st2{fill:none;stroke:#000000;stroke-width:0.822;stroke-miterlimit:10;}
	.st3{fill:none;stroke:#000000;stroke-width:0.75;}
	.st4{fill:none;stroke:#000000;stroke-width:0.811;stroke-miterlimit:10;}
	.st5{fill:none;stroke:#000000;stroke-width:0.831;stroke-miterlimit:10;}
	.st6{fill:none;stroke:#000000;stroke-width:0.443;stroke-miterlimit:10;}
	.st7{fill:none;stroke:#000000;stroke-width:0.665;stroke-miterlimit:10;}
	.st8{fill:none;stroke:#000000;stroke-width:1.271;stroke-miterlimit:10;}
	.st9{fill:none;stroke:#000000;stroke-width:0.679;stroke-miterlimit:10;}
</style>
<path class="st0" d="M3.3,22.3H1094v89.8H3.3V22.3z"/>
<path class="st1" d="M20.9,46.2c0,0.1,0,0.2-0.1,0.3c0,0.1-0.1,0.1-0.2,0.2c-0.2,0-0.3,0.1-0.5,0.1l-0.7,0c-0.3,0-0.5,0-0.7,0
	c-0.2,0-0.3,0-0.4-0.1c-0.1,0-0.2-0.1-0.2-0.2c0-0.1-0.1-0.2-0.1-0.3l-0.5-3c-0.1-0.5-0.2-0.8-0.3-1.1c-0.1-0.3-0.3-0.5-0.5-0.7
	s-0.4-0.3-0.6-0.4c-0.3-0.1-0.6-0.1-0.9-0.1h-0.6l-1.1,5.5c0,0.1,0,0.1-0.1,0.2c-0.1,0.1-0.2,0.1-0.3,0.1c-0.1,0-0.3,0.1-0.4,0.1
	c-0.2,0-0.4,0-0.7,0c-0.3,0-0.5,0-0.7,0s-0.3,0-0.4-0.1c-0.1,0-0.1-0.1-0.2-0.1c0,0,0-0.1,0-0.2l2.6-13c0-0.1,0-0.1,0.1-0.2
	s0.1-0.1,0.3-0.1c0.1,0,0.3-0.1,0.4-0.1l0.7,0l0.7,0c0.1,0,0.3,0,0.4,0.1c0.1,0,0.2,0.1,0.2,0.1c0,0.1,0,0.1,0,0.2l-1,5.2h0.6
	c0.3,0,0.6,0,0.8-0.1c0.3-0.1,0.5-0.2,0.7-0.4c0.2-0.2,0.5-0.4,0.7-0.7c0.2-0.3,0.5-0.7,0.7-1.1l1.5-2.7c0.1-0.1,0.1-0.2,0.2-0.3
	c0.1-0.1,0.2-0.1,0.3-0.2c0.1,0,0.3-0.1,0.5-0.1s0.5,0,0.7,0l0.7,0c0.2,0,0.3,0,0.4,0.1c0.1,0,0.1,0.1,0.2,0.1c0,0,0,0.1,0,0.1
	c0,0.1,0,0.2-0.1,0.4s-0.2,0.3-0.3,0.6l-1.4,2.4l-0.7,1.2c-0.2,0.3-0.5,0.6-0.7,0.8c-0.2,0.2-0.5,0.4-0.7,0.5
	c-0.2,0.1-0.5,0.3-0.8,0.4v0c0.3,0.1,0.5,0.3,0.7,0.4c0.2,0.1,0.4,0.3,0.5,0.6c0.2,0.3,0.3,0.6,0.4,0.8c0.1,0.3,0.2,0.8,0.3,1.2
	l0.5,2.8l0.1,0.4C20.9,46,20.9,46.1,20.9,46.2z M32.9,40.1c0,0.5,0,1.1-0.1,1.6c-0.1,0.5-0.3,1.1-0.5,1.6c-0.2,0.5-0.5,1-0.8,1.5
	c-0.3,0.5-0.7,0.8-1.2,1.2s-1,0.6-1.5,0.8c-0.6,0.2-1.3,0.3-2,0.3c-0.7,0-1.3-0.1-1.9-0.3s-1-0.4-1.3-0.7c-0.4-0.3-0.6-0.7-0.8-1.2
	c-0.2-0.5-0.3-1-0.3-1.6c0-0.5,0-1.1,0.1-1.6c0.1-0.5,0.3-1.1,0.5-1.6s0.5-1,0.8-1.5c0.3-0.5,0.7-0.8,1.2-1.2c0.5-0.3,1-0.6,1.5-0.8
	c0.6-0.2,1.2-0.3,2-0.3c0.7,0,1.3,0.1,1.9,0.3s1,0.4,1.3,0.7c0.3,0.3,0.6,0.7,0.8,1.2C32.8,39,32.9,39.5,32.9,40.1z M30.1,40.3
	c0-0.3,0-0.5-0.1-0.8c-0.1-0.2-0.2-0.4-0.3-0.6c-0.1-0.2-0.3-0.3-0.5-0.4c-0.3-0.1-0.5-0.1-0.8-0.1c-0.3,0-0.7,0.1-1,0.2
	c-0.3,0.1-0.5,0.3-0.8,0.6c-0.2,0.3-0.4,0.5-0.6,0.8s-0.3,0.6-0.4,1s-0.2,0.7-0.2,1l-0.1,1c0,0.3,0,0.5,0.1,0.8
	c0.1,0.2,0.2,0.4,0.3,0.6c0.1,0.2,0.3,0.3,0.5,0.4c0.3,0.1,0.5,0.1,0.8,0.1c0.3,0,0.7-0.1,1-0.2c0.3-0.1,0.5-0.3,0.8-0.6
	c0.2-0.2,0.4-0.5,0.6-0.8c0.2-0.3,0.3-0.6,0.4-1c0.1-0.3,0.2-0.7,0.2-1C30.1,41,30.1,40.6,30.1,40.3z M43,46.4c0,0.1,0,0.1-0.1,0.2
	s-0.1,0.1-0.3,0.1c-0.1,0-0.3,0.1-0.4,0.1l-0.7,0c-0.2,0-0.4,0-0.6,0c-0.2,0-0.3,0-0.4-0.1s-0.2-0.1-0.2-0.1c0-0.1,0-0.1,0-0.2
	l0.7-3.7h-3.7l-0.7,3.7c0,0.1,0,0.1-0.1,0.2s-0.1,0.1-0.3,0.1s-0.3,0.1-0.4,0.1l-0.7,0c-0.2,0-0.4,0-0.6,0c-0.2,0-0.3,0-0.4-0.1
	S34,46.7,34,46.6s0-0.1,0-0.2l1.9-9.5c0-0.1,0-0.1,0.1-0.2s0.1-0.1,0.3-0.1s0.3-0.1,0.4-0.1c0.2,0,0.4,0,0.7,0l0.6,0
	c0.2,0,0.3,0,0.4,0.1c0.1,0,0.2,0.1,0.2,0.1s0,0.1,0,0.2l-0.7,3.5h3.7l0.7-3.5c0-0.1,0-0.1,0.1-0.2c0-0.1,0.1-0.1,0.2-0.1
	s0.3-0.1,0.4-0.1l0.7,0l0.6,0c0.2,0,0.3,0,0.4,0.1c0.1,0,0.2,0.1,0.2,0.1s0,0.1,0,0.2L43,46.4z M60.5,46.4c0,0.1,0,0.1-0.1,0.2
	s-0.1,0.1-0.3,0.1s-0.3,0.1-0.4,0.1l-0.7,0c-0.2,0-0.4,0-0.6,0c-0.2,0-0.3,0-0.4-0.1c-0.1,0-0.1-0.1-0.2-0.1c0-0.1,0-0.1,0-0.2
	l1.1-5.7l0.1-0.5c0-0.2,0-0.3,0-0.5c0-0.3-0.1-0.6-0.2-0.8c-0.1-0.2-0.3-0.3-0.7-0.3c-0.3,0-0.6,0.1-0.9,0.3
	c-0.3,0.2-0.6,0.4-0.9,0.8c-0.3,0.3-0.5,0.7-0.7,1.1c-0.2,0.4-0.4,0.9-0.5,1.3l-0.8,4.3c0,0.1,0,0.1-0.1,0.2s-0.1,0.1-0.3,0.1
	c-0.1,0-0.3,0.1-0.4,0.1l-0.7,0c-0.2,0-0.4,0-0.6,0c-0.2,0-0.3,0-0.4-0.1s-0.2-0.1-0.2-0.1s0-0.1,0-0.2l1.1-5.7
	c0-0.2,0.1-0.3,0.1-0.5l0-0.5c0-0.3-0.1-0.6-0.2-0.8s-0.3-0.3-0.7-0.3c-0.3,0-0.6,0.1-0.9,0.3s-0.6,0.4-0.9,0.8
	c-0.3,0.3-0.5,0.7-0.7,1.1c-0.2,0.4-0.4,0.9-0.5,1.3l-0.8,4.3c0,0.1,0,0.1-0.1,0.2s-0.1,0.1-0.3,0.1s-0.3,0.1-0.4,0.1l-0.7,0
	c-0.2,0-0.4,0-0.6,0c-0.2,0-0.3,0-0.4-0.1s-0.2-0.1-0.2-0.1s0-0.1,0-0.2l1.9-9.5c0-0.1,0-0.1,0.1-0.2c0-0.1,0.1-0.1,0.2-0.1
	s0.2-0.1,0.4-0.1l0.5,0c0.2,0,0.4,0,0.5,0c0.1,0,0.3,0,0.3,0.1s0.1,0.1,0.2,0.1s0,0.1,0,0.2l-0.3,1.6c0.1-0.3,0.3-0.5,0.6-0.8
	c0.3-0.3,0.5-0.5,0.8-0.7c0.3-0.2,0.7-0.4,1-0.5s0.8-0.2,1.2-0.2c0.4,0,0.8,0.1,1.1,0.2s0.5,0.3,0.7,0.5c0.2,0.2,0.3,0.4,0.5,0.7
	s0.2,0.5,0.2,0.8c0.2-0.3,0.4-0.5,0.6-0.8c0.3-0.3,0.5-0.5,0.8-0.7s0.7-0.4,1-0.5s0.8-0.2,1.1-0.2c0.5,0,0.9,0.1,1.2,0.2
	c0.3,0.1,0.6,0.3,0.8,0.6c0.2,0.3,0.4,0.5,0.5,0.8c0.1,0.3,0.1,0.7,0.1,1.1c0,0.3,0,0.5,0,0.8l-0.1,0.8L60.5,46.4L60.5,46.4z
	 M71.9,46.4c0,0.1,0,0.1-0.1,0.2c0,0.1-0.1,0.1-0.2,0.1c-0.1,0-0.2,0.1-0.4,0.1l-0.6,0c-0.2,0-0.4,0-0.5,0c-0.1,0-0.2,0-0.3-0.1
	c-0.1,0-0.1-0.1-0.2-0.1s0-0.1,0-0.2l0.3-1.5c-0.1,0.3-0.3,0.5-0.6,0.8s-0.5,0.5-0.8,0.7s-0.7,0.4-1.1,0.5C67.1,47,66.7,47,66.3,47
	c-0.5,0-0.9-0.1-1.3-0.2c-0.3-0.1-0.6-0.3-0.8-0.6c-0.2-0.2-0.4-0.5-0.5-0.8s-0.1-0.7-0.1-1.1c0-0.2,0-0.5,0-0.7l0.1-0.8l1.2-5.9
	c0-0.1,0-0.1,0.1-0.2s0.1-0.1,0.3-0.1s0.3-0.1,0.4-0.1c0.2,0,0.4,0,0.7,0l0.6,0c0.2,0,0.3,0,0.4,0.1c0.1,0,0.1,0.1,0.2,0.1
	c0,0.1,0,0.1,0,0.2l-1.1,5.7l-0.1,0.5l0,0.5c0,0.2,0,0.3,0,0.5c0,0.1,0.1,0.3,0.2,0.4c0.1,0.1,0.2,0.2,0.3,0.2
	c0.1,0,0.3,0.1,0.4,0.1c0.3,0,0.6-0.1,0.9-0.3s0.6-0.5,0.9-0.8c0.3-0.3,0.5-0.7,0.8-1.2s0.4-0.9,0.5-1.5l0.8-4.1
	c0-0.1,0-0.1,0.1-0.2s0.1-0.1,0.3-0.1c0.1,0,0.3-0.1,0.4-0.1l0.7,0l0.6,0c0.2,0,0.3,0,0.4,0.1c0.1,0,0.2,0.1,0.2,0.1s0,0.1,0,0.2
	L71.9,46.4z M83.6,46.4c0,0.1,0,0.1-0.1,0.2s-0.1,0.1-0.3,0.1c-0.1,0-0.3,0.1-0.4,0.1l-0.7,0c-0.2,0-0.4,0-0.6,0
	c-0.2,0-0.3,0-0.4-0.1c-0.1,0-0.2-0.1-0.2-0.1c0-0.1,0-0.1,0-0.2l0.7-3.7H78l-0.7,3.7c0,0.1,0,0.1-0.1,0.2s-0.1,0.1-0.3,0.1
	s-0.3,0.1-0.4,0.1l-0.7,0c-0.2,0-0.4,0-0.6,0c-0.2,0-0.3,0-0.4-0.1c-0.1,0-0.2-0.1-0.2-0.1s0-0.1,0-0.2l1.9-9.5c0-0.1,0-0.1,0.1-0.2
	s0.1-0.1,0.3-0.1s0.3-0.1,0.4-0.1c0.2,0,0.4,0,0.7,0l0.6,0c0.2,0,0.3,0,0.4,0.1c0.1,0,0.2,0.1,0.2,0.1s0,0.1,0,0.2l-0.7,3.5h3.7
	l0.7-3.5c0-0.1,0-0.1,0.1-0.2c0-0.1,0.1-0.1,0.2-0.1s0.3-0.1,0.4-0.1l0.7,0l0.6,0c0.2,0,0.3,0,0.4,0.1c0.1,0,0.2,0.1,0.2,0.1
	s0,0.1,0,0.2L83.6,46.4z M96.2,39c0,0.5-0.1,1-0.3,1.4c-0.2,0.4-0.6,0.8-1.1,1.1c-0.5,0.3-1.1,0.5-1.8,0.7c-0.8,0.2-1.6,0.2-2.7,0.2
	h-1c0,0.2,0,0.3-0.1,0.5l0,0.5c0,0.6,0.1,1,0.4,1.3c0.3,0.3,0.8,0.4,1.4,0.4c0.5,0,0.9,0,1.3-0.1c0.4-0.1,0.7-0.1,1-0.2
	c0.3-0.1,0.5-0.2,0.7-0.2c0.2-0.1,0.3-0.1,0.4-0.1c0.1,0,0.1,0,0.2,0.1c0,0,0.1,0.1,0.1,0.2c0,0.1,0,0.3,0,0.4l-0.1,0.5l-0.1,0.4
	c0,0.1-0.1,0.2-0.2,0.3c-0.1,0.1-0.2,0.2-0.5,0.3l-0.8,0.2c-0.3,0.1-0.7,0.1-1.1,0.2L90.6,47c-0.7,0-1.3-0.1-1.8-0.2
	c-0.5-0.1-0.9-0.4-1.3-0.7c-0.3-0.3-0.6-0.7-0.8-1.1c-0.2-0.5-0.3-1-0.3-1.6c0-0.5,0-1,0.1-1.5c0.1-0.5,0.2-1.1,0.4-1.6
	c0.2-0.5,0.4-1,0.8-1.5c0.3-0.5,0.7-0.9,1.1-1.3c0.5-0.4,1-0.7,1.5-0.9c0.6-0.2,1.2-0.3,2-0.3c0.7,0,1.2,0.1,1.7,0.2
	c0.5,0.1,0.8,0.4,1.1,0.6c0.3,0.2,0.5,0.5,0.7,0.8C96.1,38.3,96.2,38.7,96.2,39L96.2,39z M93.5,39.2c0-0.3-0.1-0.5-0.3-0.7
	s-0.6-0.3-1-0.3c-0.4,0-0.7,0.1-0.9,0.2c-0.3,0.1-0.5,0.3-0.7,0.5c-0.2,0.2-0.4,0.5-0.6,0.8c-0.1,0.3-0.3,0.6-0.4,0.9h0.9
	c0.6,0,1,0,1.4-0.1s0.7-0.2,0.9-0.3c0.2-0.1,0.4-0.3,0.5-0.5C93.5,39.6,93.5,39.4,93.5,39.2z M106,46.4c0,0.1,0,0.1-0.1,0.2
	s-0.1,0.1-0.3,0.1c-0.1,0-0.3,0.1-0.4,0.1l-0.7,0c-0.2,0-0.4,0-0.6,0c-0.2,0-0.3,0-0.4-0.1c-0.1,0-0.2-0.1-0.2-0.1
	c0-0.1,0-0.1,0-0.2l0.7-3.7h-3.7l-0.7,3.7c0,0.1,0,0.1-0.1,0.2s-0.1,0.1-0.3,0.1s-0.3,0.1-0.4,0.1l-0.7,0c-0.2,0-0.4,0-0.6,0
	c-0.2,0-0.3,0-0.4-0.1c-0.1,0-0.2-0.1-0.2-0.1s0-0.1,0-0.2l1.9-9.5c0-0.1,0-0.1,0.1-0.2s0.1-0.1,0.3-0.1s0.3-0.1,0.4-0.1l0.7,0
	l0.6,0c0.2,0,0.3,0,0.4,0.1c0.1,0,0.2,0.1,0.2,0.1s0,0.1,0,0.2l-0.7,3.5h3.7l0.7-3.5c0-0.1,0-0.1,0.1-0.2c0-0.1,0.1-0.1,0.2-0.1
	s0.3-0.1,0.4-0.1l0.7,0l0.6,0c0.2,0,0.3,0,0.4,0.1c0.1,0,0.2,0.1,0.2,0.1s0,0.1,0,0.2L106,46.4z M123.6,46.4c0,0.1,0,0.1-0.1,0.2
	s-0.1,0.1-0.3,0.1c-0.1,0-0.3,0.1-0.4,0.1l-0.7,0c-0.2,0-0.4,0-0.6,0c-0.2,0-0.3,0-0.4-0.1c-0.1,0-0.1-0.1-0.2-0.1
	c0-0.1,0-0.1,0-0.2l1.1-5.7l0.1-0.5c0-0.2,0-0.3,0-0.5c0-0.3-0.1-0.6-0.2-0.8c-0.1-0.2-0.3-0.3-0.7-0.3c-0.3,0-0.6,0.1-0.9,0.3
	s-0.6,0.4-0.9,0.8c-0.3,0.3-0.5,0.7-0.7,1.1c-0.2,0.4-0.4,0.9-0.5,1.3l-0.8,4.3c0,0.1,0,0.1-0.1,0.2s-0.1,0.1-0.3,0.1
	c-0.1,0-0.3,0.1-0.4,0.1l-0.7,0c-0.2,0-0.4,0-0.6,0c-0.2,0-0.3,0-0.4-0.1s-0.2-0.1-0.2-0.1s0-0.1,0-0.2l1.1-5.7
	c0-0.2,0.1-0.3,0.1-0.5l0-0.5c0-0.3-0.1-0.6-0.2-0.8c-0.1-0.2-0.3-0.3-0.7-0.3c-0.3,0-0.6,0.1-0.9,0.3c-0.3,0.2-0.6,0.4-0.9,0.8
	c-0.3,0.3-0.5,0.7-0.7,1.1c-0.2,0.4-0.4,0.9-0.5,1.3l-0.8,4.3c0,0.1,0,0.1-0.1,0.2s-0.1,0.1-0.3,0.1s-0.3,0.1-0.4,0.1l-0.7,0
	c-0.2,0-0.4,0-0.6,0c-0.2,0-0.3,0-0.4-0.1c-0.1,0-0.2-0.1-0.2-0.1s0-0.1,0-0.2l1.9-9.5c0-0.1,0-0.1,0.1-0.2c0-0.1,0.1-0.1,0.2-0.1
	s0.2-0.1,0.4-0.1l0.6,0c0.2,0,0.4,0,0.5,0c0.1,0,0.3,0,0.3,0.1s0.1,0.1,0.2,0.1s0,0.1,0,0.2l-0.3,1.6c0.1-0.3,0.3-0.5,0.6-0.8
	c0.3-0.3,0.5-0.5,0.8-0.7c0.3-0.2,0.7-0.4,1-0.5s0.8-0.2,1.2-0.2c0.4,0,0.8,0.1,1.1,0.2c0.3,0.1,0.6,0.3,0.7,0.5
	c0.2,0.2,0.3,0.4,0.4,0.7s0.2,0.5,0.2,0.8c0.2-0.3,0.4-0.5,0.6-0.8c0.3-0.3,0.5-0.5,0.8-0.7s0.7-0.4,1-0.5s0.8-0.2,1.1-0.2
	c0.5,0,0.9,0.1,1.2,0.2c0.3,0.1,0.6,0.3,0.8,0.6c0.2,0.3,0.4,0.5,0.4,0.8c0.1,0.3,0.1,0.7,0.1,1.1c0,0.3,0,0.5,0,0.8l-0.1,0.8
	L123.6,46.4L123.6,46.4z"/>
<g>
	<path class="st2" d="M67.7,74.1v2.7H68l2.4-2.7h1.1l-2.6,2.8c1.2,0.1,1.6,0.8,1.9,1.6l0.8,1.7h-1c-0.3-0.4-0.4-0.9-0.6-1.4
		c-0.3-0.8-0.8-1.3-1.9-1.3h-0.3v2.8h-0.9v-6L67.7,74.1L67.7,74.1z M78.1,77c0,2.1-1.4,3.2-3.2,3.2c-1.8,0-3.1-1.2-3.1-3.1
		c0-1.9,1.4-3.2,3.2-3.2C76.9,74,78.1,75.2,78.1,77z M72.7,77.1c0,1.3,0.8,2.4,2.2,2.4c1.4,0,2.2-1.2,2.2-2.5c0-1.2-0.7-2.4-2.2-2.4
		C73.5,74.6,72.7,75.8,72.7,77.1z M83.8,74.1v5.4l0.6,0l-0.1,2.1h-0.7l-0.1-1.4h-4.3l-0.1,1.4h-0.7l-0.1-2.1l0.5,0
		c0.3-0.4,0.5-0.8,0.7-1.3c0.2-0.7,0.3-1.5,0.3-2.5v-1.5C79.9,74.1,83.8,74.1,83.8,74.1L83.8,74.1z M80.7,75.9c0,1-0.1,1.8-0.4,2.4
		c-0.1,0.4-0.4,0.8-0.6,1.2h3.1v-4.8h-2.1L80.7,75.9L80.7,75.9z M91.5,74.1v0.7h-3v1.6l0.8-0.1c0.7,0,1.3,0.1,1.8,0.4
		c0.5,0.3,0.9,0.8,0.9,1.5c0,0.6-0.2,1-0.6,1.3c-0.6,0.5-1.5,0.7-2.4,0.7c-0.6,0-1.1,0-1.4-0.1v-6L91.5,74.1
		C91.5,74.1,91.5,74.1,91.5,74.1z M88.5,79.5l0.8,0.1c0.6,0,1.1-0.2,1.5-0.4c0.3-0.2,0.4-0.6,0.4-0.9c0-0.4-0.2-0.8-0.6-1
		c-0.4-0.2-0.8-0.3-1.3-0.3l-0.7,0L88.5,79.5L88.5,79.5L88.5,79.5C88.6,79.5,88.5,79.5,88.5,79.5z M96.8,77.3h-2.7v2.2h3v0.7h-3.9
		v-6h3.7v0.7h-2.8v1.9h2.7C96.8,76.6,96.8,77.3,96.8,77.3z M98.1,74.4c0.6-0.3,1.2-0.5,1.8-0.4c1.2,0,2,0.5,2,1.5
		c0,0.8-0.6,1.3-1.4,1.5v0c1,0.1,1.7,0.7,1.7,1.5c0,1.3-1.2,1.8-2.5,1.8c-0.6,0-1.3-0.1-1.8-0.4l0.2-0.6c0.4,0.2,1,0.4,1.6,0.4
		c1,0,1.6-0.5,1.6-1.2c0-0.9-1-1.2-1.9-1.2H99v-0.6h0.4c0.9,0,1.6-0.5,1.6-1.1c0-0.6-0.5-0.9-1.2-0.9c-0.5,0-1.1,0.2-1.4,0.4
		C98.3,75,98.1,74.4,98.1,74.4z M109.2,77c0,2.1-1.4,3.2-3.2,3.2c-1.8,0-3.1-1.2-3.1-3.1c0-1.9,1.4-3.2,3.2-3.2
		C108,74,109.2,75.2,109.2,77z M103.8,77.1c0,1.3,0.8,2.4,2.2,2.4c1.4,0,2.2-1.2,2.2-2.5c0-1.2-0.7-2.4-2.2-2.4
		C104.6,74.6,103.8,75.8,103.8,77.1z M115.4,74.1v6h-0.9v-5.4h-3.2v5.4h-0.9v-6H115.4z M118,78.2l-0.7,1.9h-0.9l2.3-6h1.1l2.4,6
		h-0.9l-0.8-1.9C120.5,78.2,118,78.2,118,78.2z M120.3,77.6l-0.7-1.7c-0.2-0.4-0.3-0.8-0.4-1.1h0c-0.1,0.4-0.2,0.7-0.4,1.1l-0.7,1.8
		C118.2,77.6,120.3,77.6,120.3,77.6z"/>
	<g>
		<path id="B" class="st2" d="M127.8,79.9c-0.3,0.1-1,0.3-1.8,0.3c-2,0-3.4-1.1-3.4-3.1c0-1.9,1.5-3.2,3.6-3.2
			c0.9,0,1.4,0.2,1.7,0.3l-0.2,0.6c-0.3-0.1-0.8-0.3-1.4-0.3c-1.6,0-2.7,0.9-2.7,2.5c0,1.5,1,2.4,2.7,2.4c0.5,0,1.1-0.1,1.5-0.3
			C127.7,79.3,127.8,79.9,127.8,79.9z"/>
	</g>
	<path class="st2" d="M129.8,74.1v2.5h3.3v-2.5h0.9v6h-0.9v-2.8h-3.3v2.8h-0.9v-6H129.8z M141.5,77c0,2.1-1.4,3.2-3.2,3.2
		c-1.8,0-3.1-1.2-3.1-3.1c0-1.9,1.4-3.2,3.2-3.2C140.3,74,141.5,75.2,141.5,77z M136.2,77.1c0,1.3,0.8,2.4,2.2,2.4
		c1.4,0,2.2-1.2,2.2-2.5c0-1.2-0.7-2.4-2.2-2.4C136.9,74.6,136.2,75.8,136.2,77.1z"/>
	<g>
		<path id="B_1_" class="st2" d="M147.5,79.9c-0.3,0.1-1,0.3-1.8,0.3c-2,0-3.4-1.1-3.4-3.1c0-1.9,1.5-3.2,3.6-3.2
			c0.9,0,1.4,0.2,1.6,0.3l-0.2,0.6c-0.3-0.1-0.8-0.3-1.4-0.3c-1.6,0-2.7,0.9-2.7,2.5c0,1.5,1,2.4,2.7,2.4c0.5,0,1.1-0.1,1.5-0.3
			C147.3,79.3,147.5,79.9,147.5,79.9z"/>
	</g>
	<path class="st2" d="M150.3,74.7h-2.1v-0.7h5.1v0.7h-2.1v5.4h-0.9C150.3,80.1,150.3,74.7,150.3,74.7L150.3,74.7z M154.9,74.1v2.5
		l-0.1,2.5h0l1.3-2l2.3-3.1h0.9v6h-0.9v-2.6l0.1-2.4h0c-0.3,0.7-0.8,1.3-1.3,2l-2.2,3h-0.9v-6L154.9,74.1L154.9,74.1L154.9,74.1
		L154.9,74.1z M35,65.2c1.7-3,5.2-5,8.7-4.8c1.1,0.2,1.4,1.7,0.6,2.4c-1.3,0.5-2.8,0.4-4.1,1.1c-2.9,1.4-4.4,5.1-3.3,8.1
		c0.4,1.5,1.6,2.7,2.8,3.6c1.2,0.8,0.8,2.3,1.1,3.5c-2.3-0.8-4.3-2.2-5.5-4.2C33.4,72.1,33.3,68.2,35,65.2z M46,60.7
		c1.4,0.7,2.8,1.4,4,2.6c1.2,1.2,1.9,2.6,2.6,4l-2.9,0.1c-0.9-1.7-2.3-3-4-3.8C45.9,62.6,46,61.6,46,60.7z M47.1,69.6
		c3.5-1.8,8-1.2,10.9,1.5c2,1.9,3.3,4.7,3,7.5c-0.2,1.2-2.1,1.4-2.5,0.2c-0.4-1.4-0.4-3.1-1.3-4.3c-1.7-2.7-5.3-3.8-8.2-2.6
		c-1.4,0.5-2.4,1.7-3.3,2.8c-0.8,1-2.3,0.7-3.4,0.8C43.2,73,44.7,70.8,47.1,69.6z M26,75.4c1.1-3,3.5-5.4,6.6-6.5l0.1,2.9
		c-1.7,0.9-3.1,2.3-3.9,4.1C28.8,75.9,26,75.4,26,75.4z M37.9,68.8c1.8,0.7,3.3,1.7,4.7,3l-1.4,2.9c-0.9-1.1-1.9-2-3-2.8
		C38,70.9,37.9,69.9,37.9,68.8z M49.6,73c0.9-0.4,2-0.3,2.9-0.4c-0.7,1.8-1.7,3.3-3,4.6l-2.9-1.3C47.8,75.1,48.6,74,49.6,73z
		 M25.7,78.1c-0.1-1.9,2.2-1.9,2.5-0.8c0.5,1.5,0.4,3.3,1.4,4.6c1.8,2.7,5.6,3.8,8.5,2.3c1.5-0.6,2.3-2,3.4-3.1c0.9-0.4,2-0.3,3-0.3
		c-1.3,3.8-4.8,6.8-9,6.8C30.3,88,25.5,83.4,25.7,78.1z M42.5,77c0.8-0.8,2.3,0,2.2,1.1c0.2,1.1-1.4,1.9-2.2,1.1
		C41.8,78.7,41.8,77.4,42.5,77z M46.2,79.1c-0.1-0.7,0.4-1.3,1.1-1.3c0.2,0,0.5,0,0.7,0.1c1.5,0.9,2.9,2.1,3.7,3.7
		c1.7,2.9,1.6,6.7-0.1,9.5c-1.7,2.9-5,4.8-8.5,4.6c-0.3,0-0.7-0.3-0.8-0.3c-0.4-0.3-0.4-1.2-0.2-1.6c0.2-0.5,0.6-0.7,1-0.8
		c3.2-0.1,6.2-2.3,6.8-5.5c0.7-2.9-0.9-5.7-3.2-7.2c-0.3-0.2-0.4-0.5-0.5-0.8C46.2,79.4,46.2,79.3,46.2,79.1z M34.1,83.6
		c0.7-1.8,1.7-3.3,3.1-4.6l2.8,1.4c-0.9,0.8-1.7,1.6-2.5,2.4C36.7,83.9,35.2,83.5,34.1,83.6z M57.9,80.4l2.8,0.5
		c-0.7,1.5-1.4,3-2.6,4.1c-1.1,1.1-2.6,1.8-4,2.4l-0.1-2.9C55.8,83.6,57.2,82.2,57.9,80.4z M45.5,81.5c0.8,1.1,2,1.9,2.9,2.9
		c0.4,0.9,0.3,2,0.3,2.9c-1.8-0.7-3.3-1.7-4.6-3C44.1,84.3,45.5,81.5,45.5,81.5z M34.1,89l2.9-0.1c0.9,1.7,2.3,3,4.1,3.8
		c-0.2,0.9-0.3,1.9-0.4,2.8C37.6,94.5,35.2,92.1,34.1,89z"/>
</g>
<circle class="st3" cx="13" cy="71.1" r="3.9"/>
<circle class="st3" cx="13" cy="71.1" r="3.3"/>
<circle class="st3" cx="13" cy="83.5" r="3.9"/>
<circle class="st3" cx="13" cy="83.5" r="3.3"/>
<circle class="st3" cx="13" cy="96.5" r="3.9"/>
<circle class="st3" cx="13" cy="96.5" r="3.3"/>
<circle class="st3" cx="251.9" cy="99.6" r="3.9"/>
<circle class="st3" cx="251.9" cy="99.6" r="3.3"/>
<path class="st4" d="M258.6,55.3h-13.4c-0.1,0-0.2-0.1-0.2-0.1v-28c0-0.1,0.1-0.1,0.2-0.1h13.4c0.1,0,0.1,0.1,0.1,0.1v28
	C258.7,55.2,258.7,55.3,258.6,55.3z"/>
<path class="st4" d="M257.8,54.9h-11.9c-0.2,0-0.4-0.2-0.4-0.4V27.7c0-0.2,0.2-0.4,0.4-0.4h11.9c0.2,0,0.4,0.2,0.4,0.4v26.8
	C258.2,54.7,258,54.9,257.8,54.9z"/>
<path class="st4" d="M247.8,52.8V29.4h4.4v23.4H247.8z"/>
<g>
	<path id="L" class="st4" d="M252.2,34.9L252.2,34.9c0.7,0,1.2-0.5,1.2-1.1v-1.4c0-0.6-0.5-1.1-1.1-1.1h-0.1V34.9z"/>
</g>
<g>
	<path id="L_1_" class="st4" d="M252.2,40.3L252.2,40.3c0.7,0,1.2-0.5,1.2-1.1v-1.4c0-0.6-0.5-1.1-1.1-1.1h-0.1V40.3z"/>
</g>
<g>
	<path id="L_2_" class="st4" d="M252.2,45.6L252.2,45.6c0.7,0,1.2-0.5,1.2-1.1v-1.4c0-0.6-0.5-1.1-1.1-1.1h-0.1V45.6z"/>
</g>
<g>
	<path id="L_3_" class="st4" d="M252.2,51L252.2,51c0.7,0,1.2-0.5,1.2-1.1v-1.4c0-0.6-0.5-1.1-1.1-1.1h-0.1V51z"/>
</g>
<rect x="257.6" y="32.2" class="st4" width="0.6" height="7"/>
<rect x="257.6" y="43.2" class="st4" width="0.6" height="7"/>
<path class="st4" d="M258.6,88.6h-13.4c-0.1,0-0.2-0.1-0.2-0.1v-28c0-0.1,0.1-0.1,0.2-0.1h13.4c0.1,0,0.1,0.1,0.1,0.1v28
	C258.7,88.5,258.7,88.6,258.6,88.6z"/>
<path class="st4" d="M257.8,88.2h-11.9c-0.2,0-0.4-0.2-0.4-0.4V61c0-0.2,0.2-0.4,0.4-0.4h11.9c0.2,0,0.4,0.2,0.4,0.4v26.7
	C258.2,88,258,88.2,257.8,88.2z"/>
<path class="st4" d="M247.8,86.1V62.7h4.4v23.4H247.8z"/>
<g>
	<path id="L_7_" class="st4" d="M252.2,68.2L252.2,68.2c0.7,0,1.2-0.5,1.2-1.1v-1.4c0-0.6-0.5-1.1-1.1-1.1h-0.1V68.2z"/>
</g>
<g>
	<path id="L_6_" class="st4" d="M252.2,73.6L252.2,73.6c0.7,0,1.2-0.5,1.2-1.1v-1.4c0-0.6-0.5-1.1-1.1-1.1h-0.1V73.6z"/>
</g>
<g>
	<path id="L_5_" class="st4" d="M252.2,78.9L252.2,78.9c0.7,0,1.2-0.5,1.2-1.1v-1.4c0-0.6-0.5-1.1-1.1-1.1h-0.1V78.9z"/>
</g>
<g>
	<path id="L_4_" class="st4" d="M252.2,84.3L252.2,84.3c0.7,0,1.2-0.5,1.2-1.1v-1.4c0-0.6-0.5-1.1-1.1-1.1h-0.1V84.3z"/>
</g>
<rect x="257.6" y="65.5" class="st4" width="0.6" height="7"/>
<rect x="257.6" y="76.5" class="st4" width="0.6" height="7"/>
<g>
	<g>
		<path id="M" class="st5" d="M291.8,62.9h-1.6l0.5-3.4c0,0,0.1-0.1,0.1-0.1h0.5c0.1,0,0.1,0,0.1,0.1L291.8,62.9z"/>
	</g>
	<g>
		<path id="M_1_" class="st5" d="M293.6,62.9H292l0.5-3.4c0,0,0.1-0.1,0.1-0.1h0.5c0.1,0,0.1,0,0.1,0.1L293.6,62.9z"/>
	</g>
	<g>
		<path id="M_2_" class="st5" d="M295.4,62.9h-1.6l0.5-3.4c0,0,0.1-0.1,0.1-0.1h0.5c0.1,0,0.1,0,0.1,0.1L295.4,62.9z"/>
	</g>
	<g>
		<path id="M_3_" class="st5" d="M297.2,62.9h-1.6l0.5-3.4c0,0,0.1-0.1,0.1-0.1h0.5c0.1,0,0.1,0,0.1,0.1L297.2,62.9z"/>
	</g>
	<g>
		<path id="M_4_" class="st5" d="M299,62.9h-1.6l0.5-3.4c0,0,0.1-0.1,0.1-0.1h0.5c0.1,0,0.1,0,0.1,0.1L299,62.9z"/>
	</g>
	<g>
		<path id="M_5_" class="st5" d="M300.7,62.9h-1.6l0.5-3.4c0,0,0.1-0.1,0.1-0.1h0.5c0.1,0,0.1,0,0.1,0.1L300.7,62.9z"/>
	</g>
	<g>
		<path id="M_6_" class="st5" d="M302.5,62.9H301l0.5-3.4c0,0,0.1-0.1,0.1-0.1h0.5c0.1,0,0.1,0,0.1,0.1L302.5,62.9z"/>
	</g>
	<g>
		<path id="M_7_" class="st5" d="M304.3,62.9h-1.6l0.5-3.4c0,0,0.1-0.1,0.1-0.1h0.5c0.1,0,0.1,0,0.1,0.1L304.3,62.9z"/>
	</g>
	<g>
		<path id="M_8_" class="st5" d="M306.1,62.9h-1.6l0.5-3.4c0,0,0.1-0.1,0.1-0.1h0.5c0.1,0,0.1,0,0.1,0.1L306.1,62.9z"/>
	</g>
	<g>
		<path id="M_9_" class="st5" d="M307.9,62.9h-1.6l0.5-3.4c0,0,0.1-0.1,0.1-0.1h0.5c0.1,0,0.1,0,0.1,0.1L307.9,62.9z"/>
	</g>
	<path class="st5" d="M291.1,68.3h16V70h-16V68.3z"/>
	<g>
		<path id="N" class="st5" d="M291.5,68.3h15.2l-0.2,0.6c-0.1,0.4-0.6,0.7-1.2,0.7h-12.5c-0.6,0-1.1-0.3-1.2-0.7L291.5,68.3z"/>
	</g>
	<path class="st5" d="M278.1,41H320v28.5h-41.9V41z"/>
	<path class="st5" d="M320.3,71.1h-42.5c-0.7,0-1.2-0.5-1.2-1.2V40.2c0-0.7,0.5-1.2,1.2-1.2h42.5c0.7,0,1.2,0.5,1.2,1.2v29.6
		C321.5,70.5,320.9,71.1,320.3,71.1z"/>
	<g>
		<path id="M_10_" class="st5" d="M339.7,62.9h-1.6l0.5-3.4c0,0,0.1-0.1,0.1-0.1h0.5c0.1,0,0.1,0,0.1,0.1L339.7,62.9z"/>
	</g>
	<g>
		<path id="M_11_" class="st5" d="M341.5,62.9h-1.6l0.5-3.4c0,0,0.1-0.1,0.1-0.1h0.5c0.1,0,0.1,0,0.1,0.1L341.5,62.9z"/>
	</g>
	<g>
		<path id="M_12_" class="st5" d="M343.3,62.9h-1.6l0.5-3.4c0,0,0.1-0.1,0.1-0.1h0.5c0.1,0,0.1,0,0.1,0.1L343.3,62.9z"/>
	</g>
	<g>
		<path id="M_13_" class="st5" d="M345.1,62.9h-1.6l0.5-3.4c0,0,0.1-0.1,0.1-0.1h0.5c0.1,0,0.1,0,0.1,0.1L345.1,62.9z"/>
	</g>
	<g>
		<path id="M_14_" class="st5" d="M346.9,62.9h-1.6l0.5-3.4c0,0,0.1-0.1,0.1-0.1h0.5c0.1,0,0.1,0,0.1,0.1L346.9,62.9z"/>
	</g>
	<g>
		<path id="M_15_" class="st5" d="M348.7,62.9h-1.6l0.5-3.4c0,0,0.1-0.1,0.1-0.1h0.5c0.1,0,0.1,0,0.1,0.1L348.7,62.9z"/>
	</g>
	<g>
		<path id="M_16_" class="st5" d="M350.5,62.9h-1.6l0.5-3.4c0,0,0.1-0.1,0.1-0.1h0.5c0.1,0,0.1,0,0.1,0.1L350.5,62.9z"/>
	</g>
	<g>
		<path id="M_17_" class="st5" d="M352.3,62.9h-1.6l0.5-3.4c0,0,0.1-0.1,0.1-0.1h0.5c0.1,0,0.1,0,0.1,0.1L352.3,62.9z"/>
	</g>
	<g>
		<path id="M_18_" class="st5" d="M354.1,62.9h-1.6l0.5-3.4c0,0,0.1-0.1,0.1-0.1h0.5c0.1,0,0.1,0,0.1,0.1L354.1,62.9z"/>
	</g>
	<g>
		<path id="M_19_" class="st5" d="M355.9,62.9h-1.6l0.5-3.4c0,0,0.1-0.1,0.1-0.1h0.5c0.1,0,0.1,0,0.1,0.1L355.9,62.9z"/>
	</g>
	<path class="st5" d="M339,68.3h16V70h-16V68.3z"/>
	<g>
		<path id="N_1_" class="st5" d="M339.4,68.3h15.2l-0.2,0.6c-0.1,0.4-0.6,0.7-1.2,0.7h-12.5c-0.6,0-1.1-0.3-1.2-0.7L339.4,68.3z"/>
	</g>
	<path class="st5" d="M326,41H368v28.5H326V41z"/>
	<g>
		<path id="O" class="st5" d="M368.2,71.1h-42.5c-0.7,0-1.2-0.5-1.2-1.2V40.2c0-0.7,0.5-1.2,1.2-1.2h42.5c0.7,0,1.2,0.5,1.2,1.2
			v29.6C369.4,70.5,368.9,71.1,368.2,71.1z"/>
	</g>
	<g>
		<path id="M_20_" class="st5" d="M387.7,63.1h-1.6l0.5-3.4c0,0,0.1-0.1,0.1-0.1h0.5c0.1,0,0.1,0,0.1,0.1L387.7,63.1z"/>
	</g>
	<g>
		<path id="M_21_" class="st5" d="M389.5,63.1h-1.6l0.5-3.4c0,0,0.1-0.1,0.1-0.1h0.5c0.1,0,0.1,0,0.1,0.1L389.5,63.1z"/>
	</g>
	<g>
		<path id="M_22_" class="st5" d="M391.3,63.1h-1.6l0.5-3.4c0,0,0.1-0.1,0.1-0.1h0.5c0.1,0,0.1,0,0.1,0.1L391.3,63.1z"/>
	</g>
	<g>
		<path id="M_23_" class="st5" d="M393.1,63.1h-1.6l0.5-3.4c0,0,0.1-0.1,0.1-0.1h0.5c0.1,0,0.1,0,0.1,0.1L393.1,63.1z"/>
	</g>
	<g>
		<path id="M_24_" class="st5" d="M394.8,63.1h-1.6l0.5-3.4c0,0,0.1-0.1,0.1-0.1h0.5c0.1,0,0.1,0,0.1,0.1L394.8,63.1z"/>
	</g>
	<g>
		<path id="M_25_" class="st5" d="M396.6,63.1h-1.6l0.5-3.4c0,0,0.1-0.1,0.1-0.1h0.5c0.1,0,0.1,0,0.1,0.1L396.6,63.1z"/>
	</g>
	<g>
		<path id="M_26_" class="st5" d="M398.4,63.1h-1.6l0.5-3.4c0,0,0.1-0.1,0.1-0.1h0.5c0.1,0,0.1,0,0.1,0.1L398.4,63.1z"/>
	</g>
	<g>
		<path id="M_27_" class="st5" d="M400.2,63.1h-1.6l0.5-3.4c0,0,0.1-0.1,0.1-0.1h0.5c0.1,0,0.1,0,0.1,0.1L400.2,63.1z"/>
	</g>
	<g>
		<path id="M_28_" class="st5" d="M402,63.1h-1.6l0.5-3.4c0,0,0.1-0.1,0.1-0.1h0.5c0.1,0,0.1,0,0.1,0.1L402,63.1z"/>
	</g>
	<g>
		<path id="M_29_" class="st5" d="M403.8,63.1h-1.6l0.5-3.4c0,0,0.1-0.1,0.1-0.1h0.5c0.1,0,0.1,0,0.1,0.1L403.8,63.1z"/>
	</g>
	<path class="st5" d="M387,68.5h16v1.7h-16V68.5z"/>
	<g>
		<path id="N_2_" class="st5" d="M387.4,68.5h15.2l-0.2,0.6c-0.1,0.4-0.6,0.7-1.2,0.7h-12.5c-0.6,0-1.1-0.3-1.2-0.7L387.4,68.5z"/>
	</g>
	<path class="st5" d="M374,41.1h41.9v28.5H374L374,41.1z"/>
	<path class="st5" d="M416.2,71.3h-42.5c-0.7,0-1.2-0.5-1.2-1.2V40.4c0-0.7,0.5-1.2,1.2-1.2h42.5c0.7,0,1.2,0.5,1.2,1.2v29.6
		C417.4,70.7,416.8,71.3,416.2,71.3z"/>
	<g>
		<path id="M_30_" class="st5" d="M435.1,62.9h-1.6l0.5-3.4c0,0,0.1-0.1,0.1-0.1h0.5c0.1,0,0.1,0,0.1,0.1L435.1,62.9z"/>
	</g>
	<g>
		<path id="M_31_" class="st5" d="M436.9,62.9h-1.6l0.5-3.4c0,0,0.1-0.1,0.1-0.1h0.5c0.1,0,0.1,0,0.1,0.1L436.9,62.9z"/>
	</g>
	<g>
		<path id="M_32_" class="st5" d="M438.7,62.9h-1.6l0.5-3.4c0,0,0.1-0.1,0.1-0.1h0.5c0.1,0,0.1,0,0.1,0.1L438.7,62.9z"/>
	</g>
	<g>
		<path id="M_33_" class="st5" d="M440.4,62.9h-1.6l0.5-3.4c0,0,0.1-0.1,0.1-0.1h0.5c0.1,0,0.1,0,0.1,0.1L440.4,62.9z"/>
	</g>
	<g>
		<path id="M_34_" class="st5" d="M442.2,62.9h-1.6l0.5-3.4c0,0,0.1-0.1,0.1-0.1h0.5c0.1,0,0.1,0,0.1,0.1L442.2,62.9z"/>
	</g>
	<g>
		<path id="M_35_" class="st5" d="M444,62.9h-1.6l0.5-3.4c0,0,0.1-0.1,0.1-0.1h0.5c0.1,0,0.1,0,0.1,0.1L444,62.9z"/>
	</g>
	<g>
		<path id="M_36_" class="st5" d="M445.8,62.9h-1.6l0.5-3.4c0,0,0.1-0.1,0.1-0.1h0.5c0.1,0,0.1,0,0.1,0.1L445.8,62.9z"/>
	</g>
	<g>
		<path id="M_37_" class="st5" d="M447.6,62.9H446l0.5-3.4c0,0,0.1-0.1,0.1-0.1h0.5c0.1,0,0.1,0,0.1,0.1L447.6,62.9z"/>
	</g>
	<g>
		<path id="M_38_" class="st5" d="M449.4,62.9h-1.6l0.5-3.4c0,0,0.1-0.1,0.1-0.1h0.5c0.1,0,0.1,0,0.1,0.1L449.4,62.9z"/>
	</g>
	<g>
		<path id="M_39_" class="st5" d="M451.2,62.9h-1.6l0.5-3.4c0,0,0.1-0.1,0.1-0.1h0.5c0.1,0,0.1,0,0.1,0.1L451.2,62.9z"/>
	</g>
	<path class="st5" d="M434.4,68.3h16V70h-16V68.3z"/>
	<g>
		<path id="N_3_" class="st5" d="M434.7,68.3H450l-0.2,0.6c-0.1,0.4-0.6,0.7-1.2,0.7h-12.5c-0.6,0-1.1-0.3-1.2-0.7L434.7,68.3z"/>
	</g>
	<path class="st5" d="M421.4,41h41.9v28.5h-41.9V41z"/>
	<g>
		<path id="O_1_" class="st5" d="M463.6,71.1h-42.5c-0.7,0-1.2-0.5-1.2-1.2V40.2c0-0.7,0.5-1.2,1.2-1.2h42.5c0.7,0,1.2,0.5,1.2,1.2
			v29.6C464.8,70.5,464.2,71.1,463.6,71.1z"/>
	</g>
	<g>
		<path id="P" class="st5" d="M449.5,82.6h1.6l-0.4,3.4c0,0.1-0.1,0.1-0.1,0.1H450c-0.1,0-0.1,0-0.1-0.1L449.5,82.6z"/>
	</g>
	<g>
		<path id="P_1_" class="st5" d="M447.8,82.6h1.6l-0.4,3.4c0,0.1-0.1,0.1-0.1,0.1h-0.5c-0.1,0-0.1,0-0.1-0.1L447.8,82.6z"/>
	</g>
	<g>
		<path id="P_2_" class="st5" d="M446,82.6h1.6l-0.4,3.4c0,0.1-0.1,0.1-0.1,0.1h-0.5c-0.1,0-0.1,0-0.1-0.1L446,82.6z"/>
	</g>
	<g>
		<path id="P_3_" class="st5" d="M444.2,82.6h1.6l-0.4,3.4c0,0.1-0.1,0.1-0.1,0.1h-0.5c-0.1,0-0.1,0-0.1-0.1L444.2,82.6z"/>
	</g>
	<g>
		<path id="P_4_" class="st5" d="M442.4,82.6h1.6l-0.4,3.4c0,0.1-0.1,0.1-0.1,0.1h-0.5c-0.1,0-0.1,0-0.1-0.1L442.4,82.6z"/>
	</g>
	<g>
		<path id="P_5_" class="st5" d="M440.6,82.6h1.6l-0.4,3.4c0,0.1-0.1,0.1-0.1,0.1h-0.5c-0.1,0-0.1,0-0.1-0.1L440.6,82.6z"/>
	</g>
	<g>
		<path id="P_6_" class="st5" d="M438.8,82.6h1.6l-0.4,3.4c0,0.1-0.1,0.1-0.1,0.1h-0.5c-0.1,0-0.1,0-0.1-0.1L438.8,82.6z"/>
	</g>
	<g>
		<path id="P_7_" class="st5" d="M437,82.6h1.6l-0.4,3.4c0,0.1-0.1,0.1-0.1,0.1h-0.5c-0.1,0-0.1,0-0.1-0.1L437,82.6z"/>
	</g>
	<g>
		<path id="P_8_" class="st5" d="M435.2,82.6h1.6l-0.4,3.4c0,0.1-0.1,0.1-0.1,0.1h-0.5c-0.1,0-0.1,0-0.1-0.1L435.2,82.6z"/>
	</g>
	<g>
		<path id="P_9_" class="st5" d="M433.4,82.6h1.6l-0.4,3.4c0,0.1-0.1,0.1-0.1,0.1h-0.5c-0.1,0-0.1,0-0.1-0.1L433.4,82.6z"/>
	</g>
	<path class="st5" d="M434.3,75.5h16v1.7h-16V75.5z"/>
	<g>
		<path id="Q" class="st5" d="M449.9,77.2h-15.2l0.2-0.6c0.1-0.4,0.6-0.7,1.2-0.7h12.5c0.6,0,1.1,0.3,1.2,0.7L449.9,77.2z"/>
	</g>
	<path class="st5" d="M421.3,76h41.9v28.6h-41.9V76z"/>
	<path class="st5" d="M421.1,74.4h42.5c0.7,0,1.2,0.5,1.2,1.2v29.6c0,0.7-0.5,1.2-1.2,1.2h-42.5c-0.7,0-1.2-0.5-1.2-1.2V75.6
		C419.9,74.9,420.4,74.4,421.1,74.4z"/>
	<g>
		<path id="P_10_" class="st5" d="M401.6,82.6h1.6l-0.4,3.4c0,0.1-0.1,0.1-0.1,0.1h-0.5c-0.1,0-0.1,0-0.1-0.1L401.6,82.6z"/>
	</g>
	<g>
		<path id="P_11_" class="st5" d="M399.8,82.6h1.6L401,86c0,0.1-0.1,0.1-0.1,0.1h-0.5c-0.1,0-0.1,0-0.1-0.1L399.8,82.6z"/>
	</g>
	<g>
		<path id="P_12_" class="st5" d="M398,82.6h1.6l-0.4,3.4c0,0.1-0.1,0.1-0.1,0.1h-0.5c-0.1,0-0.1,0-0.1-0.1L398,82.6z"/>
	</g>
	<g>
		<path id="P_13_" class="st5" d="M396.2,82.6h1.6l-0.4,3.4c0,0.1-0.1,0.1-0.1,0.1h-0.5c-0.1,0-0.1,0-0.1-0.1L396.2,82.6z"/>
	</g>
	<g>
		<path id="P_14_" class="st5" d="M394.5,82.6h1.6l-0.4,3.4c0,0.1-0.1,0.1-0.1,0.1H395c-0.1,0-0.1,0-0.1-0.1L394.5,82.6z"/>
	</g>
	<g>
		<path id="P_15_" class="st5" d="M392.7,82.6h1.6l-0.4,3.4c0,0.1-0.1,0.1-0.1,0.1h-0.5c-0.1,0-0.1,0-0.1-0.1L392.7,82.6z"/>
	</g>
	<g>
		<path id="P_16_" class="st5" d="M390.9,82.6h1.6L392,86c0,0.1-0.1,0.1-0.1,0.1h-0.5c-0.1,0-0.1,0-0.1-0.1L390.9,82.6z"/>
	</g>
	<g>
		<path id="P_17_" class="st5" d="M389.1,82.6h1.6l-0.4,3.4c0,0.1-0.1,0.1-0.1,0.1h-0.5c-0.1,0-0.1,0-0.1-0.1L389.1,82.6z"/>
	</g>
	<g>
		<path id="P_18_" class="st5" d="M387.3,82.6h1.6l-0.4,3.4c0,0.1-0.1,0.1-0.1,0.1h-0.5c-0.1,0-0.1,0-0.1-0.1L387.3,82.6z"/>
	</g>
	<g>
		<path id="P_19_" class="st5" d="M385.5,82.6h1.6l-0.4,3.4c0,0.1-0.1,0.1-0.1,0.1H386c-0.1,0-0.1,0-0.1-0.1L385.5,82.6z"/>
	</g>
	<path class="st5" d="M386.4,75.5h16v1.7h-16V75.5z"/>
	<g>
		<path id="Q_1_" class="st5" d="M401.9,77.2h-15.2l0.2-0.6c0.1-0.4,0.6-0.7,1.2-0.7h12.5c0.6,0,1.1,0.3,1.2,0.7L401.9,77.2z"/>
	</g>
	<path class="st5" d="M373.4,76h41.9v28.6h-41.9L373.4,76z"/>
	<g>
		<path id="R" class="st5" d="M373.1,74.4h42.5c0.7,0,1.2,0.5,1.2,1.2v29.6c0,0.7-0.5,1.2-1.2,1.2h-42.5c-0.7,0-1.2-0.5-1.2-1.2
			V75.6C371.9,74.9,372.5,74.4,373.1,74.4L373.1,74.4z"/>
	</g>
	<g>
		<path id="P_20_" class="st5" d="M353.7,82.4h1.6l-0.4,3.4c0,0.1-0.1,0.1-0.1,0.1h-0.5c-0.1,0-0.1,0-0.1-0.1L353.7,82.4z"/>
	</g>
	<g>
		<path id="P_21_" class="st5" d="M351.9,82.4h1.6l-0.4,3.4c0,0.1-0.1,0.1-0.1,0.1h-0.5c-0.1,0-0.1,0-0.1-0.1L351.9,82.4z"/>
	</g>
	<g>
		<path id="P_22_" class="st5" d="M350.1,82.4h1.6l-0.4,3.4c0,0.1-0.1,0.1-0.1,0.1h-0.5c-0.1,0-0.1,0-0.1-0.1L350.1,82.4z"/>
	</g>
	<g>
		<path id="P_23_" class="st5" d="M348.3,82.4h1.6l-0.4,3.4c0,0.1-0.1,0.1-0.1,0.1h-0.5c-0.1,0-0.1,0-0.1-0.1L348.3,82.4z"/>
	</g>
	<g>
		<path id="P_24_" class="st5" d="M346.5,82.4h1.6l-0.4,3.4c0,0.1-0.1,0.1-0.1,0.1H347c-0.1,0-0.1,0-0.1-0.1L346.5,82.4z"/>
	</g>
	<g>
		<path id="P_25_" class="st5" d="M344.7,82.4h1.6l-0.4,3.4c0,0.1-0.1,0.1-0.1,0.1h-0.5c-0.1,0-0.1,0-0.1-0.1L344.7,82.4z"/>
	</g>
	<g>
		<path id="P_26_" class="st5" d="M342.9,82.4h1.6l-0.4,3.4c0,0.1-0.1,0.1-0.1,0.1h-0.5c-0.1,0-0.1,0-0.1-0.1L342.9,82.4z"/>
	</g>
	<g>
		<path id="P_27_" class="st5" d="M341.1,82.4h1.6l-0.4,3.4c0,0.1-0.1,0.1-0.1,0.1h-0.5c-0.1,0-0.1,0-0.1-0.1L341.1,82.4z"/>
	</g>
	<g>
		<path id="P_28_" class="st5" d="M339.3,82.4h1.6l-0.4,3.4c0,0.1-0.1,0.1-0.1,0.1h-0.5c-0.1,0-0.1,0-0.1-0.1L339.3,82.4z"/>
	</g>
	<g>
		<path id="P_29_" class="st5" d="M337.5,82.4h1.6l-0.4,3.4c0,0.1-0.1,0.1-0.1,0.1H338c-0.1,0-0.1,0-0.1-0.1L337.5,82.4z"/>
	</g>
	<path class="st5" d="M338.4,75.3h16V77h-16V75.3z"/>
	<path class="st5" d="M354,77h-15.2l0.2-0.6c0.1-0.4,0.6-0.7,1.2-0.7h12.5c0.6,0,1.1,0.3,1.2,0.7L354,77L354,77z"/>
	<path class="st5" d="M325.4,75.8h41.9v28.5h-41.9V75.8z"/>
	<path class="st5" d="M325.2,74.2h42.5c0.7,0,1.2,0.5,1.2,1.2v29.6c0,0.7-0.5,1.2-1.2,1.2h-42.5c-0.7,0-1.2-0.5-1.2-1.2V75.4
		C324,74.8,324.5,74.2,325.2,74.2z"/>
	<g>
		<path id="P_30_" class="st5" d="M306.3,82.6h1.6l-0.4,3.4c0,0.1-0.1,0.1-0.1,0.1h-0.5c-0.1,0-0.1,0-0.1-0.1L306.3,82.6z"/>
	</g>
	<g>
		<path id="P_31_" class="st5" d="M304.5,82.6h1.6l-0.4,3.4c0,0.1-0.1,0.1-0.1,0.1H305c-0.1,0-0.1,0-0.1-0.1L304.5,82.6z"/>
	</g>
	<g>
		<path id="P_32_" class="st5" d="M302.7,82.6h1.6l-0.4,3.4c0,0.1-0.1,0.1-0.1,0.1h-0.5c-0.1,0-0.1,0-0.1-0.1L302.7,82.6z"/>
	</g>
	<g>
		<path id="P_33_" class="st5" d="M300.9,82.6h1.6L302,86c0,0.1-0.1,0.1-0.1,0.1h-0.5c-0.1,0-0.1,0-0.1-0.1L300.9,82.6z"/>
	</g>
	<g>
		<path id="P_34_" class="st5" d="M299.1,82.6h1.6l-0.4,3.4c0,0.1-0.1,0.1-0.1,0.1h-0.5c-0.1,0-0.1,0-0.1-0.1L299.1,82.6z"/>
	</g>
	<g>
		<path id="P_35_" class="st5" d="M297.3,82.6h1.6l-0.4,3.4c0,0.1-0.1,0.1-0.1,0.1h-0.5c-0.1,0-0.1,0-0.1-0.1L297.3,82.6z"/>
	</g>
	<g>
		<path id="P_36_" class="st5" d="M295.5,82.6h1.6l-0.4,3.4c0,0.1-0.1,0.1-0.1,0.1H296c-0.1,0-0.1,0-0.1-0.1L295.5,82.6z"/>
	</g>
	<g>
		<path id="P_37_" class="st5" d="M293.7,82.6h1.6l-0.4,3.4c0,0.1-0.1,0.1-0.1,0.1h-0.5c-0.1,0-0.1,0-0.1-0.1L293.7,82.6z"/>
	</g>
	<g>
		<path id="P_38_" class="st5" d="M292,82.6h1.6l-0.4,3.4c0,0.1-0.1,0.1-0.1,0.1h-0.5c-0.1,0-0.1,0-0.1-0.1L292,82.6z"/>
	</g>
	<g>
		<path id="P_39_" class="st5" d="M290.2,82.6h1.6l-0.4,3.4c0,0.1-0.1,0.1-0.1,0.1h-0.5c-0.1,0-0.1,0-0.1-0.1L290.2,82.6z"/>
	</g>
	<path class="st5" d="M291,75.5h16v1.7h-16V75.5z"/>
	<g>
		<path id="Q_2_" class="st5" d="M306.6,77.2h-15.2l0.2-0.6c0.1-0.4,0.6-0.7,1.2-0.7h12.5c0.6,0,1.1,0.3,1.2,0.7L306.6,77.2z"/>
	</g>
	<path class="st5" d="M278,76H320v28.6H278V76z"/>
	<g>
		<path id="R_1_" class="st5" d="M277.8,74.4h42.5c0.7,0,1.2,0.5,1.2,1.2v29.6c0,0.7-0.5,1.2-1.2,1.2h-42.5c-0.7,0-1.2-0.5-1.2-1.2
			V75.6C276.6,74.9,277.1,74.4,277.8,74.4L277.8,74.4z"/>
	</g>
</g>
<g>
	<path class="st6" d="M207.9,101.5c0,0.2,0,0.3-0.1,0.5c-0.1,0.1-0.2,0.3-0.3,0.3c-0.1,0.1-0.3,0.2-0.4,0.2c-0.2,0-0.3,0.1-0.5,0.1
		c-0.1,0-0.3,0-0.4,0c-0.1,0-0.2,0-0.3-0.1c-0.1,0-0.2-0.1-0.2-0.1c-0.1,0-0.1-0.1-0.1-0.1s0-0.1-0.1-0.1s0-0.1,0-0.1
		c0,0,0-0.1,0-0.1c0,0,0,0,0-0.1c0,0,0,0,0,0s0,0,0,0c0,0,0.1,0,0.1,0l0.2,0.1c0.1,0,0.2,0.1,0.3,0.1c0.1,0,0.2,0.1,0.4,0.1
		c0.1,0,0.2,0,0.3,0c0.1,0,0.2-0.1,0.2-0.1c0.1,0,0.1-0.1,0.1-0.2s0.1-0.2,0.1-0.3c0-0.1,0-0.2-0.1-0.3c0-0.1-0.1-0.1-0.2-0.2
		l-0.3-0.2c-0.1,0-0.2-0.1-0.3-0.2c-0.1-0.1-0.2-0.1-0.3-0.2c-0.1-0.1-0.2-0.1-0.3-0.2c-0.1-0.1-0.1-0.2-0.2-0.3s-0.1-0.2-0.1-0.4
		c0-0.2,0-0.3,0.1-0.4c0.1-0.1,0.1-0.2,0.2-0.3s0.2-0.2,0.4-0.2c0.1,0,0.3-0.1,0.4-0.1c0.1,0,0.2,0,0.3,0s0.2,0,0.2,0.1
		c0.1,0,0.1,0,0.2,0.1c0.1,0,0.1,0.1,0.1,0.1c0,0,0,0,0,0c0,0,0,0,0,0c0,0,0,0,0,0.1v0.1v0.1c0,0,0,0.1,0,0.1c0,0,0,0,0,0
		c0,0,0,0,0,0c0,0-0.1,0-0.1,0c0,0-0.1-0.1-0.2-0.1c-0.1,0-0.1-0.1-0.2-0.1c-0.1,0-0.2,0-0.3,0c-0.1,0-0.2,0-0.3,0
		c-0.1,0-0.1,0.1-0.2,0.1c-0.1,0-0.1,0.1-0.1,0.2s0,0.1,0,0.2c0,0.1,0,0.2,0.1,0.3c0,0.1,0.1,0.1,0.2,0.2c0.1,0.1,0.2,0.1,0.3,0.2
		c0.1,0,0.2,0.1,0.3,0.2l0.3,0.2c0.1,0.1,0.2,0.1,0.3,0.2c0.1,0.1,0.1,0.2,0.2,0.3C207.9,101.1,207.9,101.3,207.9,101.5L207.9,101.5
		z M210.8,101c0,0.1,0,0.1-0.1,0.2s-0.1,0-0.1,0h-1.7c0,0.1,0,0.3,0,0.4c0,0.1,0.1,0.2,0.1,0.3c0.1,0.1,0.2,0.2,0.3,0.2
		c0.1,0,0.2,0.1,0.4,0.1c0.1,0,0.2,0,0.3,0c0.1,0,0.2,0,0.3-0.1c0.1,0,0.1,0,0.2-0.1c0,0,0.1,0,0.1,0c0,0,0,0,0,0l0,0c0,0,0,0,0,0.1
		v0.1v0.1c0,0,0,0,0,0c0,0,0,0,0,0s0,0,0,0c0,0-0.1,0-0.1,0.1c-0.1,0-0.1,0-0.2,0.1s-0.2,0-0.3,0.1c-0.1,0-0.2,0-0.4,0
		c-0.2,0-0.4,0-0.6-0.1c-0.2-0.1-0.3-0.1-0.4-0.3c-0.1-0.1-0.2-0.3-0.3-0.4c-0.1-0.2-0.1-0.4-0.1-0.6c0-0.2,0-0.4,0.1-0.6
		c0.1-0.2,0.1-0.3,0.3-0.5c0.1-0.1,0.2-0.2,0.4-0.3c0.1-0.1,0.3-0.1,0.5-0.1c0.2,0,0.4,0,0.5,0.1c0.1,0.1,0.3,0.2,0.4,0.3
		c0.1,0.1,0.2,0.2,0.2,0.4C210.8,100.6,210.8,100.8,210.8,101L210.8,101L210.8,101L210.8,101z M210.3,100.9c0-0.3-0.1-0.4-0.2-0.6
		s-0.3-0.2-0.5-0.2c-0.1,0-0.2,0-0.3,0.1s-0.2,0.1-0.2,0.2c-0.1,0.1-0.1,0.2-0.1,0.3c0,0.1-0.1,0.2-0.1,0.3L210.3,100.9z M213.1,100
		v0.1c0,0,0,0.1,0,0.1c0,0,0,0,0,0s0,0,0,0s0,0-0.1,0c0,0,0,0-0.1,0l-0.1,0c0,0-0.1,0-0.1,0c0,0-0.1,0-0.1,0c0,0-0.1,0-0.1,0.1
		c0,0-0.1,0.1-0.2,0.2l-0.2,0.3v1.7c0,0,0,0,0,0s0,0,0,0c0,0,0,0-0.1,0c0,0-0.1,0-0.1,0c0,0-0.1,0-0.1,0c0,0-0.1,0-0.1,0s0,0,0,0
		c0,0,0,0,0,0v-2.6c0,0,0,0,0,0s0,0,0,0c0,0,0,0,0.1,0h0.1h0.1c0,0,0.1,0,0.1,0s0,0,0,0c0,0,0,0,0,0v0.4c0.1-0.1,0.1-0.2,0.2-0.3
		s0.1-0.1,0.2-0.2c0.1,0,0.1-0.1,0.2-0.1c0.1,0,0.1,0,0.2,0h0.1c0,0,0.1,0,0.1,0l0.1,0c0,0,0,0,0.1,0l0,0c0,0,0,0,0,0
		C213.1,99.9,213.1,99.9,213.1,100C213.1,99.9,213.1,100,213.1,100L213.1,100z M214.2,99c0,0.1,0,0.2-0.1,0.2s-0.1,0.1-0.2,0.1
		s-0.2,0-0.2-0.1s-0.1-0.1-0.1-0.2c0-0.1,0-0.2,0.1-0.2s0.1-0.1,0.2-0.1s0.2,0,0.2,0.1S214.2,98.8,214.2,99z M214.1,102.5
		C214.1,102.5,214.1,102.5,214.1,102.5C214.1,102.5,214.1,102.5,214.1,102.5c-0.1,0.1-0.1,0.1-0.1,0.1c0,0-0.1,0-0.1,0
		c0,0-0.1,0-0.1,0c0,0-0.1,0-0.1,0s0,0,0,0c0,0,0,0,0,0v-2.6c0,0,0,0,0,0s0,0,0,0c0,0,0,0,0.1,0s0.1,0,0.1,0c0,0,0.1,0,0.1,0
		c0,0,0.1,0,0.1,0s0,0,0,0c0,0,0,0,0,0V102.5z M217,102.5C217,102.5,217,102.5,217,102.5L217,102.5c-0.1,0.1-0.2,0.1-0.2,0.1
		s-0.1,0-0.1,0c0,0-0.1,0-0.1,0c0,0,0,0,0-0.1v-0.3c-0.1,0.1-0.2,0.2-0.4,0.3s-0.3,0.1-0.4,0.1c-0.1,0-0.3,0-0.4-0.1
		c-0.1,0-0.2-0.1-0.3-0.2c-0.1-0.1-0.1-0.2-0.2-0.3c0-0.1-0.1-0.2-0.1-0.3c0-0.1,0-0.3,0.1-0.4c0.1-0.1,0.1-0.2,0.3-0.3
		c0.1-0.1,0.3-0.1,0.4-0.2c0.2,0,0.4,0,0.6,0h0.4v-0.2c0-0.1,0-0.2,0-0.3c0-0.1-0.1-0.1-0.1-0.2c0,0-0.1-0.1-0.2-0.1s-0.2,0-0.3,0
		s-0.2,0-0.3,0c-0.1,0-0.2,0.1-0.3,0.1c-0.1,0-0.1,0.1-0.2,0.1c0,0-0.1,0-0.1,0c0,0,0,0,0,0c0,0,0,0,0,0c0,0,0,0,0-0.1
		c0,0,0,0,0-0.1c0,0,0-0.1,0-0.1s0-0.1,0.1-0.1c0,0,0.1-0.1,0.1-0.1s0.1-0.1,0.2-0.1c0.1,0,0.2,0,0.3-0.1c0.1,0,0.2,0,0.3,0
		c0.2,0,0.4,0,0.5,0.1c0.1,0,0.2,0.1,0.3,0.2c0.1,0.1,0.1,0.2,0.2,0.3s0.1,0.3,0.1,0.4L217,102.5L217,102.5L217,102.5L217,102.5z
		 M216.5,101.3h-0.4c-0.1,0-0.3,0-0.4,0c-0.1,0-0.2,0-0.2,0.1c-0.1,0-0.1,0.1-0.1,0.2c0,0.1,0,0.1,0,0.2c0,0.1,0,0.2,0.1,0.3
		c0.1,0.1,0.2,0.1,0.4,0.1c0.1,0,0.2,0,0.4-0.1s0.2-0.2,0.3-0.3V101.3L216.5,101.3z M218.4,102.5
		C218.4,102.5,218.4,102.5,218.4,102.5C218.3,102.5,218.3,102.5,218.4,102.5c-0.1,0.1-0.1,0.1-0.1,0.1c0,0-0.1,0-0.1,0
		c0,0-0.1,0-0.1,0c0,0-0.1,0-0.1,0s0,0,0,0c0,0,0,0,0,0v-3.9c0,0,0,0,0,0s0,0,0,0c0,0,0,0,0.1,0s0.1,0,0.1,0c0,0,0.1,0,0.1,0
		c0,0,0.1,0,0.1,0s0,0,0,0c0,0,0,0,0,0V102.5z"/>
	<g>
		<path class="st7" d="M230,95h-35.9c-0.1,0-0.2-0.1-0.2-0.2V68c0-0.1,0.1-0.2,0.2-0.2H230c0.1,0,0.2,0.1,0.2,0.2v26.8
			C230.2,94.9,230.1,95,230,95z"/>
		<path class="st7" d="M229.2,94.2h-34.3c-0.1,0-0.2-0.1-0.2-0.2V68.8c0-0.1,0.1-0.2,0.2-0.2h34.3c0.1,0,0.2,0.1,0.2,0.2V94
			C229.4,94.1,229.3,94.2,229.2,94.2z"/>
		<path class="st7" d="M198.7,78.7v-4.4c0-0.1,0.1-0.2,0.2-0.2h4.8c0.1,0,0.2-0.1,0.2-0.2v-3.6c0-0.1,0.1-0.2,0.2-0.2h2.8
			c0.1,0,0.2-0.1,0.2-0.2v-1.2c0-0.1,0.1-0.2,0.2-0.2h4.9h4.9c0.1,0,0.2,0.1,0.2,0.2V70c0,0.1,0.1,0.2,0.2,0.2h2.8
			c0.1,0,0.2,0.1,0.2,0.2V74c0,0.1,0.1,0.2,0.2,0.2h4.8c0.1,0,0.2,0.1,0.2,0.2v4.4V85v4c0,0.1-0.1,0.2-0.2,0.2h-13.2h-13.2
			c-0.1,0-0.2-0.1-0.2-0.2v-4L198.7,78.7L198.7,78.7L198.7,78.7z"/>
		<g>
			<path id="Y" class="st7" d="M205.2,88.5h-1.1l0.3-3.2c0,0,0-0.1,0.1-0.1h0.4c0,0,0.1,0,0.1,0.1L205.2,88.5z"/>
		</g>
		<g>
			<path id="Y_1_" class="st7" d="M207.3,88.5h-1.1l0.3-3.2c0,0,0-0.1,0.1-0.1h0.4c0,0,0.1,0,0.1,0.1L207.3,88.5z"/>
		</g>
		<g>
			<path id="Y_2_" class="st7" d="M209.4,88.5h-1.1l0.3-3.2c0,0,0-0.1,0.1-0.1h0.4c0,0,0.1,0,0.1,0.1L209.4,88.5z"/>
		</g>
		<g>
			<path id="Y_3_" class="st7" d="M211.5,88.5h-1.1l0.3-3.2c0,0,0-0.1,0.1-0.1h0.4c0,0,0.1,0,0.1,0.1L211.5,88.5z"/>
		</g>
		<g>
			<path id="Y_4_" class="st7" d="M213.5,88.5h-1.1l0.3-3.2c0,0,0-0.1,0.1-0.1h0.4c0,0,0.1,0,0.1,0.1L213.5,88.5z"/>
		</g>
		<g>
			<path id="Y_5_" class="st7" d="M215.6,88.5h-1.1l0.3-3.2c0,0,0-0.1,0.1-0.1h0.4c0,0,0.1,0,0.1,0.1L215.6,88.5z"/>
		</g>
		<g>
			<path id="Y_6_" class="st7" d="M217.7,88.5h-1.1l0.3-3.2c0,0,0-0.1,0.1-0.1h0.4c0,0,0.1,0,0.1,0.1L217.7,88.5z"/>
		</g>
		<g>
			<path id="Y_7_" class="st7" d="M219.8,88.5h-1.1l0.3-3.2c0,0,0-0.1,0.1-0.1h0.4c0,0,0.1,0,0.1,0.1L219.8,88.5z"/>
		</g>
		<path class="st7" d="M225,83.6l1.3,0.1V80l-1.3,0.1c-0.2,0-0.3,0.1-0.3,0.3v2.8C224.7,83.4,224.8,83.6,225,83.6z M199.2,83.6
			l-1.3,0.1V80l1.3,0.1c0.2,0,0.3,0.1,0.3,0.3v2.8C199.5,83.4,199.4,83.6,199.2,83.6z"/>
	</g>
</g>
<path class="st0" d="M299,54.5l4.9-39.9h24.6 M327.5,132.5h-24.6l-4.9-39.9 M375,132.5h-24.6l-4.9-39.9 M424.1,132.5h-24.6
	l-4.9-39.9 M471.2,132.5h-24.6l-4.9-39.9"/>
<path class="st0" d="M345.5,54.5l4.9-39.9H375 M394.5,54.5l4.9-39.9h24.6 M441.7,54.5l4.9-39.9h24.6"/>
<g>
	<g>
		<path id="M_40_" class="st5" d="M653.7,89.8h-1.6l0.5-3.4c0,0,0.1-0.1,0.1-0.1h0.5c0.1,0,0.1,0,0.1,0.1L653.7,89.8z"/>
	</g>
	<g>
		<path id="M_41_" class="st5" d="M655.5,89.8h-1.6l0.4-3.4c0,0,0.1-0.1,0.1-0.1h0.5c0.1,0,0.1,0,0.1,0.1L655.5,89.8z"/>
	</g>
	<g>
		<path id="M_42_" class="st5" d="M657.3,89.8h-1.6l0.5-3.4c0,0,0.1-0.1,0.1-0.1h0.5c0.1,0,0.1,0,0.1,0.1L657.3,89.8z"/>
	</g>
	<g>
		<path id="M_43_" class="st5" d="M659.1,89.8h-1.6l0.5-3.4c0,0,0.1-0.1,0.1-0.1h0.5c0.1,0,0.1,0,0.1,0.1L659.1,89.8z"/>
	</g>
	<g>
		<path id="M_44_" class="st5" d="M660.9,89.8h-1.6l0.5-3.4c0,0,0.1-0.1,0.1-0.1h0.5c0.1,0,0.1,0,0.1,0.1L660.9,89.8z"/>
	</g>
	<g>
		<path id="M_45_" class="st5" d="M662.6,89.8h-1.6l0.5-3.4c0,0,0.1-0.1,0.1-0.1h0.5c0.1,0,0.1,0,0.1,0.1L662.6,89.8z"/>
	</g>
	<g>
		<path id="M_46_" class="st5" d="M664.4,89.8h-1.6l0.5-3.4c0,0,0.1-0.1,0.1-0.1h0.5c0.1,0,0.1,0,0.1,0.1L664.4,89.8z"/>
	</g>
	<g>
		<path id="M_47_" class="st5" d="M666.2,89.8h-1.6l0.5-3.4c0,0,0.1-0.1,0.1-0.1h0.5c0.1,0,0.1,0,0.1,0.1L666.2,89.8z"/>
	</g>
	<g>
		<path id="M_48_" class="st5" d="M668,89.8h-1.6l0.5-3.4c0,0,0.1-0.1,0.1-0.1h0.5c0.1,0,0.1,0,0.1,0.1L668,89.8z"/>
	</g>
	<g>
		<path id="M_49_" class="st5" d="M669.8,89.8h-1.6l0.5-3.4c0,0,0.1-0.1,0.1-0.1h0.5c0.1,0,0.1,0,0.1,0.1L669.8,89.8z"/>
	</g>
	<path class="st5" d="M653,95.2h16v1.7h-16V95.2z"/>
	<g>
		<path id="N_4_" class="st5" d="M653.3,95.2h15.2l-0.2,0.6c-0.1,0.4-0.6,0.7-1.2,0.7h-12.5c-0.6,0-1.1-0.3-1.2-0.7L653.3,95.2z"/>
	</g>
	<path class="st5" d="M640,67.9h41.9v28.5H640V67.9z"/>
	<path class="st5" d="M682.2,98h-42.5c-0.7,0-1.2-0.5-1.2-1.2V67.1c0-0.7,0.5-1.2,1.2-1.2h42.5c0.7,0,1.2,0.5,1.2,1.2v29.6
		C683.4,97.5,682.8,98,682.2,98z"/>
	<g>
		<path id="M_50_" class="st5" d="M701.6,89.8h-1.6l0.5-3.4c0,0,0.1-0.1,0.1-0.1h0.5c0.1,0,0.1,0,0.1,0.1L701.6,89.8z"/>
	</g>
	<g>
		<path id="M_51_" class="st5" d="M703.4,89.8h-1.6l0.5-3.4c0,0,0.1-0.1,0.1-0.1h0.5c0.1,0,0.1,0,0.1,0.1L703.4,89.8z"/>
	</g>
	<g>
		<path id="M_52_" class="st5" d="M705.2,89.8h-1.6l0.5-3.4c0,0,0.1-0.1,0.1-0.1h0.5c0.1,0,0.1,0,0.1,0.1L705.2,89.8z"/>
	</g>
	<g>
		<path id="M_53_" class="st5" d="M707,89.8h-1.6l0.5-3.4c0,0,0.1-0.1,0.1-0.1h0.5c0.1,0,0.1,0,0.1,0.1L707,89.8z"/>
	</g>
	<g>
		<path id="M_54_" class="st5" d="M708.8,89.8h-1.6l0.5-3.4c0,0,0.1-0.1,0.1-0.1h0.5c0.1,0,0.1,0,0.1,0.1L708.8,89.8z"/>
	</g>
	<path class="st5" d="M710.6,89.8H709l0.5-3.4c0-0.1,0.1-0.1,0.1-0.1h0.5c0.1,0,0.1,0,0.1,0.1L710.6,89.8z"/>
	<g>
		<path id="M_55_" class="st5" d="M712.4,89.8h-1.6l0.5-3.4c0,0,0.1-0.1,0.1-0.1h0.5c0.1,0,0.1,0,0.1,0.1L712.4,89.8z"/>
	</g>
	<g>
		<path id="M_56_" class="st5" d="M714.2,89.8h-1.6l0.5-3.4c0,0,0.1-0.1,0.1-0.1h0.5c0.1,0,0.1,0,0.1,0.1L714.2,89.8z"/>
	</g>
	<g>
		<path id="M_57_" class="st5" d="M716,89.8h-1.6l0.5-3.4c0,0,0.1-0.1,0.1-0.1h0.5c0.1,0,0.1,0,0.1,0.1L716,89.8z"/>
	</g>
	<g>
		<path id="M_58_" class="st5" d="M717.7,89.8h-1.6l0.4-3.4c0,0,0.1-0.1,0.1-0.1h0.5c0.1,0,0.1,0,0.1,0.1L717.7,89.8z"/>
	</g>
	<path class="st5" d="M700.9,95.2h16v1.7h-16V95.2z"/>
	<g>
		<path id="N_5_" class="st5" d="M701.3,95.2h15.2l-0.2,0.6c-0.1,0.4-0.6,0.7-1.2,0.7h-12.5c-0.6,0-1.1-0.3-1.2-0.7L701.3,95.2z"/>
	</g>
	<path class="st5" d="M687.9,67.9h41.9v28.5h-41.9V67.9z"/>
	<path class="st5" d="M730.1,98h-42.5c-0.7,0-1.2-0.5-1.2-1.2V67.1c0-0.7,0.5-1.2,1.2-1.2h42.5c0.7,0,1.2,0.5,1.2,1.2v29.6
		C731.3,97.5,730.8,98,730.1,98z"/>
	<g>
		<path id="M_59_" class="st5" d="M749.6,90H748l0.5-3.4c0,0,0.1-0.1,0.1-0.1h0.5c0.1,0,0.1,0,0.1,0.1L749.6,90z"/>
	</g>
	<g>
		<path id="M_60_" class="st5" d="M751.4,90h-1.6l0.5-3.4c0,0,0.1-0.1,0.1-0.1h0.5c0.1,0,0.1,0,0.1,0.1L751.4,90z"/>
	</g>
	<g>
		<path id="M_61_" class="st5" d="M753.2,90h-1.6l0.5-3.4c0,0,0.1-0.1,0.1-0.1h0.5c0.1,0,0.1,0,0.1,0.1L753.2,90z"/>
	</g>
	<g>
		<path id="M_62_" class="st5" d="M755,90h-1.6l0.5-3.4c0,0,0.1-0.1,0.1-0.1h0.5c0.1,0,0.1,0,0.1,0.1L755,90z"/>
	</g>
	<g>
		<path id="M_63_" class="st5" d="M756.7,90h-1.6l0.4-3.4c0,0,0.1-0.1,0.1-0.1h0.5c0.1,0,0.1,0,0.1,0.1L756.7,90z"/>
	</g>
	<g>
		<path id="M_64_" class="st5" d="M758.5,90H757l0.5-3.4c0,0,0.1-0.1,0.1-0.1h0.5c0.1,0,0.1,0,0.1,0.1L758.5,90z"/>
	</g>
	<g>
		<path id="M_65_" class="st5" d="M760.3,90h-1.6l0.5-3.4c0,0,0.1-0.1,0.1-0.1h0.5c0.1,0,0.1,0,0.1,0.1L760.3,90z"/>
	</g>
	<g>
		<path id="M_66_" class="st5" d="M762.1,90h-1.6l0.4-3.4c0,0,0.1-0.1,0.1-0.1h0.5c0.1,0,0.1,0,0.1,0.1L762.1,90z"/>
	</g>
	<g>
		<path id="M_67_" class="st5" d="M763.9,90h-1.6l0.5-3.4c0,0,0.1-0.1,0.1-0.1h0.5c0.1,0,0.1,0,0.1,0.1L763.9,90z"/>
	</g>
	<g>
		<path id="M_68_" class="st5" d="M765.7,90h-1.6l0.5-3.4c0,0,0.1-0.1,0.1-0.1h0.5c0.1,0,0.1,0,0.1,0.1L765.7,90z"/>
	</g>
	<path class="st5" d="M748.9,95.4h16v1.7h-16V95.4z"/>
	<g>
		<path id="N_6_" class="st5" d="M749.2,95.4h15.2l-0.2,0.6c-0.1,0.4-0.6,0.7-1.2,0.7h-12.5c-0.6,0-1.1-0.3-1.2-0.7L749.2,95.4z"/>
	</g>
	<path class="st5" d="M735.9,68h41.9v28.5h-41.9V68z"/>
	<path class="st5" d="M778.1,98.2h-42.5c-0.7,0-1.2-0.5-1.2-1.2V67.3c0-0.7,0.5-1.2,1.2-1.2h42.5c0.7,0,1.2,0.5,1.2,1.2V97
		C779.3,97.6,778.7,98.2,778.1,98.2z"/>
	<g>
		<path id="M_69_" class="st5" d="M797,89.8h-1.6l0.5-3.4c0,0,0.1-0.1,0.1-0.1h0.5c0.1,0,0.1,0,0.1,0.1L797,89.8z"/>
	</g>
	<g>
		<path id="M_70_" class="st5" d="M798.8,89.8h-1.6l0.5-3.4c0,0,0.1-0.1,0.1-0.1h0.5c0.1,0,0.1,0,0.1,0.1L798.8,89.8z"/>
	</g>
	<g>
		<path id="M_71_" class="st5" d="M800.6,89.8H799l0.5-3.4c0,0,0.1-0.1,0.1-0.1h0.5c0.1,0,0.1,0,0.1,0.1L800.6,89.8z"/>
	</g>
	<g>
		<path id="M_72_" class="st5" d="M802.3,89.8h-1.6l0.5-3.4c0,0,0.1-0.1,0.1-0.1h0.5c0.1,0,0.1,0,0.1,0.1L802.3,89.8z"/>
	</g>
	<g>
		<path id="M_73_" class="st5" d="M804.1,89.8h-1.6l0.5-3.4c0,0,0.1-0.1,0.1-0.1h0.5c0.1,0,0.1,0,0.1,0.1L804.1,89.8z"/>
	</g>
	<g>
		<path id="M_74_" class="st5" d="M805.9,89.8h-1.6l0.5-3.4c0,0,0.1-0.1,0.1-0.1h0.5c0.1,0,0.1,0,0.1,0.1L805.9,89.8z"/>
	</g>
	<g>
		<path id="M_75_" class="st5" d="M807.7,89.8h-1.6l0.5-3.4c0,0,0.1-0.1,0.1-0.1h0.5c0.1,0,0.1,0,0.1,0.1L807.7,89.8z"/>
	</g>
	<g>
		<path id="M_76_" class="st5" d="M809.5,89.8h-1.6l0.5-3.4c0,0,0.1-0.1,0.1-0.1h0.5c0.1,0,0.1,0,0.1,0.1L809.5,89.8z"/>
	</g>
	<g>
		<path id="M_77_" class="st5" d="M811.3,89.8h-1.6l0.5-3.4c0,0,0.1-0.1,0.1-0.1h0.5c0.1,0,0.1,0,0.1,0.1L811.3,89.8z"/>
	</g>
	<g>
		<path id="M_78_" class="st5" d="M813.1,89.8h-1.6l0.5-3.4c0,0,0.1-0.1,0.1-0.1h0.5c0.1,0,0.1,0,0.1,0.1L813.1,89.8z"/>
	</g>
	<path class="st5" d="M796.3,95.2h16v1.7h-16V95.2z"/>
	<path class="st5" d="M796.6,95.2h15.2l-0.2,0.6c-0.1,0.4-0.6,0.7-1.2,0.7H798c-0.6,0-1.1-0.3-1.2-0.7L796.6,95.2z"/>
	<path class="st5" d="M783.3,67.9h41.9v28.5h-41.9V67.9z"/>
	<path class="st5" d="M825.4,98H783c-0.7,0-1.2-0.5-1.2-1.2V67.1c0-0.7,0.5-1.2,1.2-1.2h42.5c0.7,0,1.2,0.5,1.2,1.2v29.6
		C826.7,97.5,826.1,98,825.4,98z"/>
</g>
<path class="st8" d="M660.8,81.4l4.9-64.5h24.6 M707.4,81.4l4.9-64.5h24.6 M756.4,81.4l4.9-64.5H786 M803.6,81.4l4.9-64.5h24.6"/>
<g>
	<path class="st9" d="M230.4,58.3h-36.6c-0.1,0-0.2-0.1-0.2-0.2v0V29.5c0-0.1,0.1-0.2,0.2-0.2l0,0h36.6c0.1,0,0.2,0.1,0.2,0.2
		c0,0,0,0,0,0v28.6C230.6,58.2,230.5,58.3,230.4,58.3z"/>
	<g>
		<path id="D_2_" class="st9" d="M229.6,57.5h-35c-0.1,0-0.2-0.1-0.2-0.2v-27c0-0.1,0.1-0.2,0.2-0.2h35c0.1,0,0.2,0.1,0.2,0.2v27
			C229.8,57.4,229.7,57.5,229.6,57.5L229.6,57.5z"/>
	</g>
	<g>
		<path id="E_3_" class="st9" d="M212.1,53.4h13.5c0.1,0,0.2-0.1,0.2-0.2v-4.1c0-0.1,0.1-0.2,0.2-0.2h0.5c0.1,0,0.2-0.1,0.2-0.2
			v-5.1v-0.6c0-0.1-0.1-0.2-0.2-0.2h-0.5c-0.1,0-0.2-0.1-0.2-0.2v-4.5c0-0.1-0.1-0.2-0.2-0.2h-4.9c-0.1,0-0.2-0.1-0.2-0.2v-3.7
			c0-0.1-0.1-0.2-0.2-0.2h-2.9c-0.1,0-0.2-0.1-0.2-0.2v-1.2c0-0.1-0.1-0.2-0.2-0.2h-5.1H207c-0.1,0-0.2,0.1-0.2,0.2v1.2
			c0,0.1-0.1,0.2-0.2,0.2h-2.9c-0.1,0-0.2,0.1-0.2,0.2V38c0,0.1-0.1,0.2-0.2,0.2h-4.9c-0.1,0-0.2,0.1-0.2,0.2v4.5
			c0,0.1-0.1,0.2-0.2,0.2h-0.5c-0.1,0-0.2,0.1-0.2,0.2v0.6v5.1c0,0.1,0.1,0.2,0.2,0.2h0.5c0.1,0,0.2,0.1,0.2,0.2v4.1
			c0,0.1,0.1,0.2,0.2,0.2H212.1L212.1,53.4z"/>
	</g>
	<g>
		<path id="F_5_" class="st9" d="M201.9,36.2h-5.3c-0.1,0-0.2-0.1-0.2-0.2v-2.1c0-0.1,0.1-0.2,0.2-0.2h5.3c0.1,0,0.2,0.1,0.2,0.2V36
			C202,36.1,202,36.2,201.9,36.2z"/>
	</g>
	<g>
		<path id="F_6_" class="st9" d="M227.6,36.2h-5.3c-0.1,0-0.2-0.1-0.2-0.2v-2.1c0-0.1,0.1-0.2,0.2-0.2h5.3c0.1,0,0.2,0.1,0.2,0.2V36
			C227.8,36.1,227.7,36.2,227.6,36.2z"/>
	</g>
	<g>
		<path id="G_2_" class="st9" d="M198.3,48.3h-1.1v-4.4h1.1c0.3,0,0.5,0.2,0.5,0.5v3.4C198.8,48,198.6,48.3,198.3,48.3z"/>
	</g>
	<g>
		<path id="H_2_" class="st9" d="M225.9,48.3h1.1v-4.4h-1.1c-0.3,0-0.5,0.2-0.5,0.5v3.4C225.4,48,225.6,48.3,225.9,48.3
			C225.9,48.3,225.9,48.3,225.9,48.3z"/>
	</g>
	<g>
		<path id="J_8_" class="st9" d="M205.1,52.8h-1.2l0.3-3.3c0,0,0-0.1,0.1-0.1h0.4c0,0,0.1,0,0.1,0.1L205.1,52.8z"/>
	</g>
	<g>
		<path id="J_9_" class="st9" d="M207.2,52.8H206l0.3-3.3c0,0,0-0.1,0.1-0.1h0.4c0,0,0.1,0,0.1,0.1L207.2,52.8z"/>
	</g>
	<g>
		<path id="J_10_" class="st9" d="M209.3,52.8h-1.2l0.3-3.3c0,0,0-0.1,0.1-0.1h0.4c0,0,0.1,0,0.1,0.1L209.3,52.8z"/>
	</g>
	<g>
		<path id="J_11_" class="st9" d="M211.5,52.8h-1.2l0.3-3.3c0,0,0-0.1,0.1-0.1h0.4c0,0,0.1,0,0.1,0.1L211.5,52.8z"/>
	</g>
	<g>
		<path id="J_12_" class="st9" d="M213.6,52.8h-1.2l0.3-3.3c0,0,0-0.1,0.1-0.1h0.4c0,0,0.1,0,0.1,0.1L213.6,52.8z"/>
	</g>
	<g>
		<path id="J_13_" class="st9" d="M215.7,52.8h-1.2l0.3-3.3c0,0,0-0.1,0.1-0.1h0.4c0,0,0.1,0,0.1,0.1L215.7,52.8z"/>
	</g>
	<g>
		<path id="J_14_" class="st9" d="M217.8,52.8h-1.2l0.3-3.3c0,0,0-0.1,0.1-0.1h0.4c0,0,0.1,0,0.1,0.1L217.8,52.8z"/>
	</g>
	<g>
		<path id="J_15_" class="st9" d="M219.9,52.8h-1.2l0.3-3.3c0,0,0-0.1,0.1-0.1h0.4c0,0,0.1,0,0.1,0.1L219.9,52.8z"/>
	</g>
</g>
<g>
	<path d="M307.3,3.4c0,0.2,0,0.4-0.1,0.5S306.9,4,306.7,4c-0.2,0-0.4,0-0.5-0.1s-0.1-0.2-0.1-0.5c0-0.2,0-0.4,0.1-0.5
		s0.2-0.1,0.5-0.1c0.2,0,0.4,0,0.5,0.1S307.3,3.2,307.3,3.4z M307.2,10.5C307.2,10.5,307.2,10.5,307.2,10.5c0,0.1-0.1,0.1-0.1,0.1
		s-0.1,0-0.1,0s-0.1,0-0.2,0c-0.1,0-0.2,0-0.2,0s-0.1,0-0.1,0s-0.1,0-0.1-0.1s0,0,0-0.1V5.2c0,0,0-0.1,0-0.1s0,0,0.1-0.1
		s0.1,0,0.1,0s0.1,0,0.2,0c0.1,0,0.2,0,0.2,0s0.1,0,0.1,0s0.1,0,0.1,0.1s0,0,0,0.1V10.5z"/>
	<path d="M313.4,5.4c0,0.1,0,0.2-0.1,0.3s-0.1,0.1-0.1,0.1h-0.8c0.1,0.1,0.2,0.3,0.3,0.5s0.1,0.3,0.1,0.5c0,0.3,0,0.6-0.1,0.8
		s-0.2,0.4-0.4,0.6s-0.4,0.3-0.6,0.4s-0.5,0.1-0.8,0.1c-0.2,0-0.4,0-0.6-0.1s-0.3-0.1-0.4-0.2c-0.1,0.1-0.1,0.2-0.2,0.2
		s-0.1,0.2-0.1,0.3c0,0.1,0.1,0.3,0.2,0.3s0.3,0.1,0.5,0.1l1.4,0.1c0.3,0,0.5,0,0.7,0.1s0.4,0.2,0.6,0.3s0.3,0.3,0.4,0.4
		s0.1,0.4,0.1,0.6c0,0.2-0.1,0.5-0.2,0.7s-0.3,0.4-0.5,0.6s-0.5,0.3-0.8,0.4s-0.7,0.1-1.1,0.1c-0.4,0-0.8,0-1.1-0.1
		s-0.5-0.2-0.7-0.3s-0.3-0.3-0.4-0.4s-0.1-0.4-0.1-0.6c0-0.1,0-0.3,0-0.4s0.1-0.2,0.1-0.3s0.1-0.2,0.2-0.3s0.2-0.2,0.3-0.3
		c-0.2-0.1-0.3-0.2-0.4-0.4s-0.1-0.3-0.1-0.5c0-0.2,0-0.5,0.1-0.6s0.2-0.4,0.4-0.5c-0.1-0.1-0.2-0.3-0.3-0.5s-0.1-0.4-0.1-0.7
		c0-0.3,0.1-0.6,0.2-0.8s0.2-0.4,0.4-0.6s0.4-0.3,0.6-0.4s0.5-0.1,0.8-0.1c0.2,0,0.3,0,0.4,0s0.3,0,0.4,0.1h1.6c0.1,0,0.1,0,0.1,0.1
		S313.4,5.3,313.4,5.4z M312.4,11c0-0.2-0.1-0.4-0.3-0.5s-0.4-0.2-0.8-0.2l-1.4,0c-0.1,0.1-0.2,0.2-0.3,0.3s-0.1,0.2-0.2,0.3
		s-0.1,0.2-0.1,0.2s0,0.2,0,0.2c0,0.3,0.1,0.4,0.4,0.6s0.6,0.2,1.1,0.2c0.3,0,0.5,0,0.7-0.1s0.4-0.1,0.5-0.2s0.2-0.2,0.3-0.3
		S312.4,11.1,312.4,11z M311.9,6.8c0-0.4-0.1-0.6-0.3-0.8s-0.5-0.3-0.8-0.3c-0.2,0-0.4,0-0.5,0.1S310,5.9,309.9,6s-0.2,0.2-0.2,0.4
		s-0.1,0.3-0.1,0.4c0,0.3,0.1,0.6,0.3,0.8s0.5,0.3,0.8,0.3c0.2,0,0.4,0,0.5-0.1s0.3-0.1,0.3-0.3s0.2-0.2,0.2-0.4S311.9,7,311.9,6.8z
		"/>
	<path d="M319.5,7.8c0,0.5,0,0.9-0.1,1.2s-0.2,0.7-0.4,0.9s-0.4,0.5-0.7,0.6s-0.6,0.2-1,0.2c-0.2,0-0.3,0-0.5,0s-0.3-0.1-0.4-0.2
		s-0.3-0.2-0.4-0.3s-0.3-0.3-0.4-0.4v0.6c0,0,0,0.1,0,0.1s0,0-0.1,0.1s-0.1,0-0.1,0s-0.1,0-0.2,0c-0.1,0-0.1,0-0.2,0s-0.1,0-0.1,0
		s-0.1,0-0.1-0.1s0-0.1,0-0.1V2.6c0,0,0-0.1,0-0.1s0,0,0.1-0.1s0.1,0,0.1,0s0.1,0,0.2,0c0.1,0,0.2,0,0.2,0s0.1,0,0.1,0
		s0.1,0,0.1,0.1s0,0.1,0,0.1v3.2c0.2-0.2,0.3-0.3,0.5-0.4s0.3-0.2,0.4-0.3s0.3-0.1,0.4-0.1s0.3,0,0.4,0c0.4,0,0.7,0.1,1,0.2
		s0.5,0.4,0.7,0.6s0.3,0.6,0.4,0.9S319.5,7.4,319.5,7.8z M318.5,7.9c0-0.3,0-0.5-0.1-0.8c0-0.3-0.1-0.5-0.2-0.7
		c-0.1-0.2-0.2-0.4-0.4-0.5c-0.2-0.1-0.4-0.2-0.6-0.2c-0.1,0-0.3,0-0.4,0.1c-0.1,0-0.2,0.1-0.4,0.2c-0.1,0.1-0.3,0.2-0.4,0.3
		c-0.1,0.1-0.3,0.3-0.4,0.5v2.1c0.3,0.3,0.5,0.6,0.8,0.7c0.2,0.2,0.5,0.3,0.8,0.3c0.2,0,0.5-0.1,0.6-0.2s0.3-0.3,0.4-0.5
		s0.2-0.4,0.2-0.7S318.5,8.1,318.5,7.9z"/>
	<path d="M325.7,6.8c0,0.6,0,1.1-0.1,1.6s-0.2,0.9-0.5,1.2s-0.5,0.6-0.8,0.8s-0.8,0.3-1.3,0.3c-0.5,0-0.9-0.1-1.2-0.3
		s-0.6-0.4-0.8-0.8s-0.3-0.7-0.4-1.2s-0.1-1-0.1-1.7c0-0.6,0-1.1,0.1-1.6s0.2-0.9,0.5-1.2s0.5-0.6,0.8-0.8s0.8-0.3,1.3-0.3
		c0.5,0,0.9,0.1,1.2,0.3s0.6,0.4,0.8,0.8s0.3,0.7,0.4,1.2S325.7,6.2,325.7,6.8z M324.7,6.9c0-0.4,0-0.7,0-1s-0.1-0.6-0.1-0.8
		s-0.1-0.4-0.2-0.6s-0.2-0.3-0.3-0.4c-0.1-0.1-0.3-0.2-0.4-0.2s-0.3-0.1-0.5-0.1c-0.3,0-0.6,0.1-0.8,0.2c-0.2,0.2-0.4,0.4-0.5,0.6
		s-0.2,0.6-0.2,1s-0.1,0.8-0.1,1.2c0,0.6,0,1,0.1,1.4c0.1,0.4,0.2,0.7,0.3,1s0.3,0.4,0.5,0.5s0.4,0.2,0.7,0.2c0.2,0,0.4,0,0.6-0.1
		s0.3-0.2,0.4-0.3s0.2-0.3,0.3-0.5s0.1-0.4,0.2-0.6s0.1-0.5,0.1-0.7S324.7,7.2,324.7,6.9z"/>
</g>
<g>
	<path d="M308.1,122.4c0,0.2,0,0.4-0.1,0.5s-0.2,0.1-0.5,0.1c-0.2,0-0.4,0-0.5-0.1s-0.1-0.2-0.1-0.5c0-0.2,0-0.4,0.1-0.5
		s0.2-0.1,0.5-0.1c0.2,0,0.4,0,0.5,0.1S308.1,122.2,308.1,122.4z M308,129.5C308,129.5,308,129.5,308,129.5c0,0.1-0.1,0.1-0.1,0.1
		s-0.1,0-0.1,0s-0.1,0-0.2,0c-0.1,0-0.2,0-0.2,0s-0.1,0-0.1,0s-0.1,0-0.1-0.1s0,0,0-0.1v-5.3c0,0,0-0.1,0-0.1s0,0,0.1-0.1
		s0.1,0,0.1,0s0.1,0,0.2,0c0.1,0,0.2,0,0.2,0s0.1,0,0.1,0s0.1,0,0.1,0.1s0,0,0,0.1V129.5z"/>
	<path d="M314.2,124.4c0,0.1,0,0.2-0.1,0.3s-0.1,0.1-0.1,0.1h-0.8c0.1,0.1,0.2,0.3,0.3,0.5s0.1,0.3,0.1,0.5c0,0.3,0,0.6-0.1,0.8
		s-0.2,0.4-0.4,0.6s-0.4,0.3-0.6,0.4s-0.5,0.1-0.8,0.1c-0.2,0-0.4,0-0.6-0.1s-0.3-0.1-0.4-0.2c-0.1,0.1-0.1,0.2-0.2,0.2
		s-0.1,0.2-0.1,0.3c0,0.1,0.1,0.3,0.2,0.3s0.3,0.1,0.5,0.1l1.4,0.1c0.3,0,0.5,0,0.7,0.1s0.4,0.2,0.6,0.3s0.3,0.3,0.4,0.4
		s0.1,0.4,0.1,0.6c0,0.2-0.1,0.5-0.2,0.7s-0.3,0.4-0.5,0.6s-0.5,0.3-0.8,0.4s-0.7,0.1-1.1,0.1c-0.4,0-0.8,0-1.1-0.1
		s-0.5-0.2-0.7-0.3s-0.3-0.3-0.4-0.4s-0.1-0.4-0.1-0.6c0-0.1,0-0.3,0-0.4s0.1-0.2,0.1-0.3s0.1-0.2,0.2-0.3s0.2-0.2,0.3-0.3
		c-0.2-0.1-0.3-0.2-0.4-0.4s-0.1-0.3-0.1-0.5c0-0.2,0-0.5,0.1-0.6s0.2-0.4,0.4-0.5c-0.1-0.1-0.2-0.3-0.3-0.5s-0.1-0.4-0.1-0.7
		c0-0.3,0.1-0.6,0.2-0.8s0.2-0.4,0.4-0.6s0.4-0.3,0.6-0.4s0.5-0.1,0.8-0.1c0.2,0,0.3,0,0.4,0s0.3,0,0.4,0.1h1.6c0.1,0,0.1,0,0.1,0.1
		S314.2,124.3,314.2,124.4z M313.2,130c0-0.2-0.1-0.4-0.3-0.5s-0.4-0.2-0.8-0.2l-1.4,0c-0.1,0.1-0.2,0.2-0.3,0.3s-0.1,0.2-0.2,0.3
		s-0.1,0.2-0.1,0.2s0,0.2,0,0.2c0,0.3,0.1,0.4,0.4,0.6s0.6,0.2,1.1,0.2c0.3,0,0.5,0,0.7-0.1s0.4-0.1,0.5-0.2s0.2-0.2,0.3-0.3
		S313.2,130.1,313.2,130z M312.7,125.8c0-0.4-0.1-0.6-0.3-0.8s-0.5-0.3-0.8-0.3c-0.2,0-0.4,0-0.5,0.1s-0.3,0.1-0.3,0.3
		s-0.2,0.2-0.2,0.4s-0.1,0.3-0.1,0.4c0,0.3,0.1,0.6,0.3,0.8s0.5,0.3,0.8,0.3c0.2,0,0.4,0,0.5-0.1s0.3-0.1,0.3-0.3s0.2-0.2,0.2-0.4
		S312.7,126,312.7,125.8z"/>
	<path d="M320.3,126.8c0,0.5,0,0.9-0.1,1.2s-0.2,0.7-0.4,0.9s-0.4,0.5-0.7,0.6s-0.6,0.2-1,0.2c-0.2,0-0.3,0-0.5,0s-0.3-0.1-0.4-0.2
		s-0.3-0.2-0.4-0.3s-0.3-0.3-0.4-0.4v0.6c0,0,0,0.1,0,0.1s0,0-0.1,0.1s-0.1,0-0.1,0s-0.1,0-0.2,0c-0.1,0-0.1,0-0.2,0s-0.1,0-0.1,0
		s-0.1,0-0.1-0.1s0-0.1,0-0.1v-7.8c0,0,0-0.1,0-0.1s0,0,0.1-0.1s0.1,0,0.1,0s0.1,0,0.2,0c0.1,0,0.2,0,0.2,0s0.1,0,0.1,0
		s0.1,0,0.1,0.1s0,0.1,0,0.1v3.2c0.2-0.2,0.3-0.3,0.5-0.4s0.3-0.2,0.4-0.3s0.3-0.1,0.4-0.1s0.3,0,0.4,0c0.4,0,0.7,0.1,1,0.2
		s0.5,0.4,0.7,0.6s0.3,0.6,0.4,0.9S320.3,126.4,320.3,126.8z M319.3,126.9c0-0.3,0-0.5-0.1-0.8c0-0.3-0.1-0.5-0.2-0.7
		c-0.1-0.2-0.2-0.4-0.4-0.5c-0.2-0.1-0.4-0.2-0.6-0.2c-0.1,0-0.3,0-0.4,0.1c-0.1,0-0.2,0.1-0.4,0.2c-0.1,0.1-0.3,0.2-0.4,0.3
		c-0.1,0.1-0.3,0.3-0.4,0.5v2.1c0.3,0.3,0.5,0.6,0.8,0.7c0.2,0.2,0.5,0.3,0.8,0.3c0.2,0,0.5-0.1,0.6-0.2s0.3-0.3,0.4-0.5
		s0.2-0.4,0.2-0.7S319.3,127.1,319.3,126.9z"/>
	<path d="M326.3,129.2c0,0.1,0,0.1,0,0.2s0,0.1,0,0.1s0,0.1-0.1,0.1s-0.1,0-0.1,0h-4c0,0-0.1,0-0.1,0s0,0-0.1-0.1s0-0.1,0-0.1
		s0-0.1,0-0.2c0-0.1,0-0.1,0-0.2s0-0.1,0-0.1s0-0.1,0.1-0.1s0.1,0,0.1,0h1.6V123l-1.5,0.9c-0.1,0-0.1,0.1-0.2,0.1s-0.1,0-0.1,0
		s0-0.1-0.1-0.1s0-0.1,0-0.2c0-0.1,0-0.1,0-0.2s0-0.1,0-0.1s0-0.1,0-0.1s0,0,0.1-0.1l1.7-1.1c0,0,0,0,0.1,0s0.1,0,0.1,0s0.1,0,0.1,0
		s0.1,0,0.2,0c0.1,0,0.2,0,0.2,0s0.1,0,0.1,0s0.1,0,0.1,0.1s0,0,0,0.1v6.7h1.4c0,0,0.1,0,0.1,0s0,0,0.1,0.1s0,0.1,0,0.1
		S326.3,129.1,326.3,129.2z"/>
</g>
<g>
	<path d="M354.6,3.4c0,0.2,0,0.4-0.1,0.5S354.3,4,354,4c-0.2,0-0.4,0-0.5-0.1s-0.1-0.2-0.1-0.5c0-0.2,0-0.4,0.1-0.5s0.2-0.1,0.5-0.1
		c0.2,0,0.4,0,0.5,0.1S354.6,3.2,354.6,3.4z M354.5,10.5C354.5,10.5,354.5,10.5,354.5,10.5c0,0.1-0.1,0.1-0.1,0.1s-0.1,0-0.1,0
		s-0.1,0-0.2,0c-0.1,0-0.2,0-0.2,0s-0.1,0-0.1,0s-0.1,0-0.1-0.1s0,0,0-0.1V5.2c0,0,0-0.1,0-0.1s0,0,0.1-0.1s0.1,0,0.1,0s0.1,0,0.2,0
		c0.1,0,0.2,0,0.2,0s0.1,0,0.1,0s0.1,0,0.1,0.1s0,0,0,0.1V10.5z"/>
	<path d="M360.7,5.4c0,0.1,0,0.2-0.1,0.3s-0.1,0.1-0.1,0.1h-0.8c0.1,0.1,0.2,0.3,0.3,0.5s0.1,0.3,0.1,0.5c0,0.3,0,0.6-0.1,0.8
		s-0.2,0.4-0.4,0.6s-0.4,0.3-0.6,0.4s-0.5,0.1-0.8,0.1c-0.2,0-0.4,0-0.6-0.1s-0.3-0.1-0.4-0.2c-0.1,0.1-0.1,0.2-0.2,0.2
		s-0.1,0.2-0.1,0.3c0,0.1,0.1,0.3,0.2,0.3s0.3,0.1,0.5,0.1l1.4,0.1c0.3,0,0.5,0,0.7,0.1s0.4,0.2,0.6,0.3s0.3,0.3,0.4,0.4
		s0.1,0.4,0.1,0.6c0,0.2-0.1,0.5-0.2,0.7s-0.3,0.4-0.5,0.6s-0.5,0.3-0.8,0.4s-0.7,0.1-1.1,0.1c-0.4,0-0.8,0-1.1-0.1
		s-0.5-0.2-0.7-0.3s-0.3-0.3-0.4-0.4s-0.1-0.4-0.1-0.6c0-0.1,0-0.3,0-0.4s0.1-0.2,0.1-0.3s0.1-0.2,0.2-0.3s0.2-0.2,0.3-0.3
		c-0.2-0.1-0.3-0.2-0.4-0.4s-0.1-0.3-0.1-0.5c0-0.2,0-0.5,0.1-0.6s0.2-0.4,0.4-0.5c-0.1-0.1-0.2-0.3-0.3-0.5S356,7.1,356,6.9
		c0-0.3,0.1-0.6,0.2-0.8s0.2-0.4,0.4-0.6s0.4-0.3,0.6-0.4s0.5-0.1,0.8-0.1c0.2,0,0.3,0,0.4,0s0.3,0,0.4,0.1h1.6c0.1,0,0.1,0,0.1,0.1
		S360.7,5.3,360.7,5.4z M359.7,11c0-0.2-0.1-0.4-0.3-0.5s-0.4-0.2-0.8-0.2l-1.4,0c-0.1,0.1-0.2,0.2-0.3,0.3s-0.1,0.2-0.2,0.3
		s-0.1,0.2-0.1,0.2s0,0.2,0,0.2c0,0.3,0.1,0.4,0.4,0.6s0.6,0.2,1.1,0.2c0.3,0,0.5,0,0.7-0.1s0.4-0.1,0.5-0.2s0.2-0.2,0.3-0.3
		S359.7,11.1,359.7,11z M359.2,6.8c0-0.4-0.1-0.6-0.3-0.8s-0.5-0.3-0.8-0.3c-0.2,0-0.4,0-0.5,0.1s-0.3,0.1-0.3,0.3s-0.2,0.2-0.2,0.4
		S357,6.7,357,6.9c0,0.3,0.1,0.6,0.3,0.8s0.5,0.3,0.8,0.3c0.2,0,0.4,0,0.5-0.1s0.3-0.1,0.3-0.3s0.2-0.2,0.2-0.4S359.2,7,359.2,6.8z"
		/>
	<path d="M366.8,7.8c0,0.5,0,0.9-0.1,1.2s-0.2,0.7-0.4,0.9s-0.4,0.5-0.7,0.6s-0.6,0.2-1,0.2c-0.2,0-0.3,0-0.5,0s-0.3-0.1-0.4-0.2
		s-0.3-0.2-0.4-0.3s-0.3-0.3-0.4-0.4v0.6c0,0,0,0.1,0,0.1s0,0-0.1,0.1s-0.1,0-0.1,0s-0.1,0-0.2,0c-0.1,0-0.1,0-0.2,0s-0.1,0-0.1,0
		s-0.1,0-0.1-0.1s0-0.1,0-0.1V2.6c0,0,0-0.1,0-0.1s0,0,0.1-0.1s0.1,0,0.1,0s0.1,0,0.2,0c0.1,0,0.2,0,0.2,0s0.1,0,0.1,0
		s0.1,0,0.1,0.1s0,0.1,0,0.1v3.2c0.2-0.2,0.3-0.3,0.5-0.4s0.3-0.2,0.4-0.3s0.3-0.1,0.4-0.1s0.3,0,0.4,0c0.4,0,0.7,0.1,1,0.2
		s0.5,0.4,0.7,0.6s0.3,0.6,0.4,0.9S366.8,7.4,366.8,7.8z M365.8,7.9c0-0.3,0-0.5-0.1-0.8c0-0.3-0.1-0.5-0.2-0.7
		c-0.1-0.2-0.2-0.4-0.4-0.5c-0.2-0.1-0.4-0.2-0.6-0.2c-0.1,0-0.3,0-0.4,0.1c-0.1,0-0.2,0.1-0.4,0.2c-0.1,0.1-0.3,0.2-0.4,0.3
		c-0.1,0.1-0.3,0.3-0.4,0.5v2.1c0.3,0.3,0.5,0.6,0.8,0.7c0.2,0.2,0.5,0.3,0.8,0.3c0.2,0,0.5-0.1,0.6-0.2s0.3-0.3,0.4-0.5
		s0.2-0.4,0.2-0.7S365.8,8.1,365.8,7.9z"/>
	<path d="M372.8,10.2c0,0.1,0,0.1,0,0.2s0,0.1,0,0.1s0,0.1-0.1,0.1s-0.1,0-0.1,0h-4.2c-0.1,0-0.1,0-0.1,0s-0.1,0-0.1-0.1
		s-0.1-0.1-0.1-0.1s0-0.1,0-0.2c0-0.1,0-0.1,0-0.2c0-0.1,0-0.1,0-0.2s0-0.1,0.1-0.1c0,0,0.1-0.1,0.1-0.1l1.5-1.6
		c0.4-0.4,0.6-0.7,0.8-1c0.2-0.3,0.4-0.5,0.5-0.8s0.2-0.4,0.2-0.6c0-0.2,0.1-0.4,0.1-0.5s0-0.3-0.1-0.5c-0.1-0.2-0.1-0.3-0.2-0.4
		s-0.2-0.2-0.4-0.3s-0.3-0.1-0.6-0.1c-0.2,0-0.5,0-0.7,0.1c-0.2,0.1-0.4,0.1-0.5,0.2c-0.1,0.1-0.3,0.2-0.4,0.2s-0.2,0.1-0.2,0.1
		c0,0-0.1,0-0.1,0c0,0,0,0-0.1-0.1s0-0.1,0-0.1c0-0.1,0-0.1,0-0.2c0-0.1,0-0.1,0-0.2s0-0.1,0-0.1s0-0.1,0-0.1s0-0.1,0.1-0.1
		s0.1-0.1,0.2-0.2s0.3-0.1,0.4-0.2s0.4-0.1,0.6-0.2s0.4-0.1,0.7-0.1c0.4,0,0.7,0.1,1,0.2s0.5,0.2,0.7,0.4s0.3,0.4,0.4,0.6
		c0.1,0.2,0.1,0.5,0.1,0.8c0,0.2,0,0.5-0.1,0.7s-0.1,0.5-0.3,0.8s-0.3,0.6-0.6,0.9s-0.6,0.7-1,1.2l-1.2,1.3h3.3c0,0,0.1,0,0.1,0
		s0.1,0,0.1,0.1s0,0.1,0,0.1S372.8,10.1,372.8,10.2z"/>
</g>
<g>
	<path d="M355.4,122.4c0,0.2,0,0.4-0.1,0.5s-0.2,0.1-0.5,0.1c-0.2,0-0.4,0-0.5-0.1s-0.1-0.2-0.1-0.5c0-0.2,0-0.4,0.1-0.5
		s0.2-0.1,0.5-0.1c0.2,0,0.4,0,0.5,0.1S355.4,122.2,355.4,122.4z M355.3,129.5C355.3,129.5,355.3,129.5,355.3,129.5
		c0,0.1-0.1,0.1-0.1,0.1s-0.1,0-0.1,0s-0.1,0-0.2,0c-0.1,0-0.2,0-0.2,0s-0.1,0-0.1,0s-0.1,0-0.1-0.1s0,0,0-0.1v-5.3c0,0,0-0.1,0-0.1
		s0,0,0.1-0.1s0.1,0,0.1,0s0.1,0,0.2,0c0.1,0,0.2,0,0.2,0s0.1,0,0.1,0s0.1,0,0.1,0.1s0,0,0,0.1V129.5z"/>
	<path d="M361.5,124.4c0,0.1,0,0.2-0.1,0.3s-0.1,0.1-0.1,0.1h-0.8c0.1,0.1,0.2,0.3,0.3,0.5s0.1,0.3,0.1,0.5c0,0.3,0,0.6-0.1,0.8
		s-0.2,0.4-0.4,0.6s-0.4,0.3-0.6,0.4s-0.5,0.1-0.8,0.1c-0.2,0-0.4,0-0.6-0.1s-0.3-0.1-0.4-0.2c-0.1,0.1-0.1,0.2-0.2,0.2
		s-0.1,0.2-0.1,0.3c0,0.1,0.1,0.3,0.2,0.3s0.3,0.1,0.5,0.1l1.4,0.1c0.3,0,0.5,0,0.7,0.1s0.4,0.2,0.6,0.3s0.3,0.3,0.4,0.4
		s0.1,0.4,0.1,0.6c0,0.2-0.1,0.5-0.2,0.7s-0.3,0.4-0.5,0.6s-0.5,0.3-0.8,0.4s-0.7,0.1-1.1,0.1c-0.4,0-0.8,0-1.1-0.1
		s-0.5-0.2-0.7-0.3s-0.3-0.3-0.4-0.4s-0.1-0.4-0.1-0.6c0-0.1,0-0.3,0-0.4s0.1-0.2,0.1-0.3s0.1-0.2,0.2-0.3s0.2-0.2,0.3-0.3
		c-0.2-0.1-0.3-0.2-0.4-0.4s-0.1-0.3-0.1-0.5c0-0.2,0-0.5,0.1-0.6s0.2-0.4,0.4-0.5c-0.1-0.1-0.2-0.3-0.3-0.5s-0.1-0.4-0.1-0.7
		c0-0.3,0.1-0.6,0.2-0.8s0.2-0.4,0.4-0.6s0.4-0.3,0.6-0.4s0.5-0.1,0.8-0.1c0.2,0,0.3,0,0.4,0s0.3,0,0.4,0.1h1.6c0.1,0,0.1,0,0.1,0.1
		S361.5,124.3,361.5,124.4z M360.5,130c0-0.2-0.1-0.4-0.3-0.5s-0.4-0.2-0.8-0.2l-1.4,0c-0.1,0.1-0.2,0.2-0.3,0.3s-0.1,0.2-0.2,0.3
		s-0.1,0.2-0.1,0.2s0,0.2,0,0.2c0,0.3,0.1,0.4,0.4,0.6s0.6,0.2,1.1,0.2c0.3,0,0.5,0,0.7-0.1s0.4-0.1,0.5-0.2s0.2-0.2,0.3-0.3
		S360.5,130.1,360.5,130z M360,125.8c0-0.4-0.1-0.6-0.3-0.8s-0.5-0.3-0.8-0.3c-0.2,0-0.4,0-0.5,0.1s-0.3,0.1-0.3,0.3
		s-0.2,0.2-0.2,0.4s-0.1,0.3-0.1,0.4c0,0.3,0.1,0.6,0.3,0.8s0.5,0.3,0.8,0.3c0.2,0,0.4,0,0.5-0.1s0.3-0.1,0.3-0.3s0.2-0.2,0.2-0.4
		S360,126,360,125.8z"/>
	<path d="M367.6,126.8c0,0.5,0,0.9-0.1,1.2s-0.2,0.7-0.4,0.9s-0.4,0.5-0.7,0.6s-0.6,0.2-1,0.2c-0.2,0-0.3,0-0.5,0s-0.3-0.1-0.4-0.2
		s-0.3-0.2-0.4-0.3s-0.3-0.3-0.4-0.4v0.6c0,0,0,0.1,0,0.1s0,0-0.1,0.1s-0.1,0-0.1,0s-0.1,0-0.2,0c-0.1,0-0.1,0-0.2,0s-0.1,0-0.1,0
		s-0.1,0-0.1-0.1s0-0.1,0-0.1v-7.8c0,0,0-0.1,0-0.1s0,0,0.1-0.1s0.1,0,0.1,0s0.1,0,0.2,0c0.1,0,0.2,0,0.2,0s0.1,0,0.1,0
		s0.1,0,0.1,0.1s0,0.1,0,0.1v3.2c0.2-0.2,0.3-0.3,0.5-0.4s0.3-0.2,0.4-0.3s0.3-0.1,0.4-0.1s0.3,0,0.4,0c0.4,0,0.7,0.1,1,0.2
		s0.5,0.4,0.7,0.6s0.3,0.6,0.4,0.9S367.6,126.4,367.6,126.8z M366.6,126.9c0-0.3,0-0.5-0.1-0.8c0-0.3-0.1-0.5-0.2-0.7
		c-0.1-0.2-0.2-0.4-0.4-0.5c-0.2-0.1-0.4-0.2-0.6-0.2c-0.1,0-0.3,0-0.4,0.1c-0.1,0-0.2,0.1-0.4,0.2c-0.1,0.1-0.3,0.2-0.4,0.3
		c-0.1,0.1-0.3,0.3-0.4,0.5v2.1c0.3,0.3,0.5,0.6,0.8,0.7c0.2,0.2,0.5,0.3,0.8,0.3c0.2,0,0.5-0.1,0.6-0.2s0.3-0.3,0.4-0.5
		s0.2-0.4,0.2-0.7S366.6,127.1,366.6,126.9z"/>
	<path d="M373.5,127.4c0,0.3-0.1,0.7-0.2,0.9s-0.3,0.5-0.5,0.7s-0.5,0.4-0.8,0.5s-0.7,0.2-1.1,0.2c-0.3,0-0.5,0-0.7-0.1
		s-0.4-0.1-0.6-0.1s-0.3-0.1-0.4-0.2s-0.2-0.1-0.2-0.1s-0.1-0.1-0.1-0.1s0-0.1,0-0.1s0-0.1,0-0.1s0-0.1,0-0.2c0-0.1,0-0.2,0-0.3
		s0.1-0.1,0.1-0.1c0,0,0.1,0,0.2,0.1c0.1,0.1,0.2,0.1,0.4,0.2c0.2,0.1,0.4,0.1,0.6,0.2c0.2,0.1,0.5,0.1,0.7,0.1c0.3,0,0.5,0,0.7-0.1
		c0.2-0.1,0.4-0.2,0.5-0.3s0.2-0.3,0.3-0.4c0.1-0.2,0.1-0.3,0.1-0.5c0-0.2,0-0.4-0.1-0.6c-0.1-0.2-0.2-0.3-0.4-0.4s-0.4-0.2-0.6-0.3
		s-0.5-0.1-0.8-0.1h-0.7c0,0-0.1,0-0.1,0s-0.1,0-0.1-0.1s0-0.1-0.1-0.1s0-0.1,0-0.2c0-0.1,0-0.1,0-0.2s0-0.1,0-0.1s0-0.1,0.1-0.1
		s0.1,0,0.1,0h0.7c0.3,0,0.5,0,0.7-0.1s0.4-0.2,0.5-0.3s0.3-0.3,0.3-0.4s0.1-0.4,0.1-0.6c0-0.2,0-0.3-0.1-0.4s-0.1-0.3-0.2-0.4
		s-0.2-0.2-0.4-0.2s-0.3-0.1-0.5-0.1c-0.2,0-0.4,0-0.6,0.1s-0.4,0.1-0.5,0.2s-0.3,0.2-0.4,0.2s-0.2,0.1-0.2,0.1c0,0-0.1,0-0.1,0
		s0,0-0.1-0.1s0-0.1,0-0.1s0-0.1,0-0.2c0-0.1,0-0.1,0-0.2s0-0.1,0-0.1s0-0.1,0-0.1s0-0.1,0.1-0.1s0.1-0.1,0.2-0.2s0.3-0.1,0.4-0.2
		s0.4-0.1,0.6-0.2s0.5-0.1,0.7-0.1c0.4,0,0.7,0,0.9,0.1s0.5,0.2,0.7,0.4s0.3,0.4,0.4,0.6s0.1,0.5,0.1,0.8c0,0.2,0,0.5-0.1,0.7
		s-0.2,0.4-0.3,0.5s-0.3,0.3-0.4,0.4s-0.4,0.2-0.6,0.2v0c0.3,0,0.5,0.1,0.7,0.2s0.4,0.2,0.6,0.4s0.3,0.3,0.4,0.5
		S373.5,127.2,373.5,127.4z"/>
</g>
<g>
	<path d="M404.2,3.4c0,0.2,0,0.4-0.1,0.5S403.8,4,403.6,4c-0.2,0-0.4,0-0.5-0.1S403,3.6,403,3.4c0-0.2,0-0.4,0.1-0.5
		s0.2-0.1,0.5-0.1c0.2,0,0.4,0,0.5,0.1S404.2,3.2,404.2,3.4z M404.1,10.5C404.1,10.5,404.1,10.5,404.1,10.5c0,0.1-0.1,0.1-0.1,0.1
		s-0.1,0-0.1,0s-0.1,0-0.2,0c-0.1,0-0.2,0-0.2,0s-0.1,0-0.1,0s-0.1,0-0.1-0.1s0,0,0-0.1V5.2c0,0,0-0.1,0-0.1s0,0,0.1-0.1
		s0.1,0,0.1,0s0.1,0,0.2,0c0.1,0,0.2,0,0.2,0s0.1,0,0.1,0s0.1,0,0.1,0.1s0,0,0,0.1V10.5z"/>
	<path d="M410.3,5.4c0,0.1,0,0.2-0.1,0.3s-0.1,0.1-0.1,0.1h-0.8c0.1,0.1,0.2,0.3,0.3,0.5s0.1,0.3,0.1,0.5c0,0.3,0,0.6-0.1,0.8
		s-0.2,0.4-0.4,0.6s-0.4,0.3-0.6,0.4s-0.5,0.1-0.8,0.1c-0.2,0-0.4,0-0.6-0.1s-0.3-0.1-0.4-0.2c-0.1,0.1-0.1,0.2-0.2,0.2
		s-0.1,0.2-0.1,0.3c0,0.1,0.1,0.3,0.2,0.3s0.3,0.1,0.5,0.1l1.4,0.1c0.3,0,0.5,0,0.7,0.1s0.4,0.2,0.6,0.3s0.3,0.3,0.4,0.4
		s0.1,0.4,0.1,0.6c0,0.2-0.1,0.5-0.2,0.7s-0.3,0.4-0.5,0.6s-0.5,0.3-0.8,0.4s-0.7,0.1-1.1,0.1c-0.4,0-0.8,0-1.1-0.1
		s-0.5-0.2-0.7-0.3s-0.3-0.3-0.4-0.4s-0.1-0.4-0.1-0.6c0-0.1,0-0.3,0-0.4s0.1-0.2,0.1-0.3s0.1-0.2,0.2-0.3s0.2-0.2,0.3-0.3
		c-0.2-0.1-0.3-0.2-0.4-0.4s-0.1-0.3-0.1-0.5c0-0.2,0-0.5,0.1-0.6s0.2-0.4,0.4-0.5c-0.1-0.1-0.2-0.3-0.3-0.5s-0.1-0.4-0.1-0.7
		c0-0.3,0.1-0.6,0.2-0.8s0.2-0.4,0.4-0.6s0.4-0.3,0.6-0.4s0.5-0.1,0.8-0.1c0.2,0,0.3,0,0.4,0s0.3,0,0.4,0.1h1.6c0.1,0,0.1,0,0.1,0.1
		S410.3,5.3,410.3,5.4z M409.3,11c0-0.2-0.1-0.4-0.3-0.5s-0.4-0.2-0.8-0.2l-1.4,0c-0.1,0.1-0.2,0.2-0.3,0.3s-0.1,0.2-0.2,0.3
		s-0.1,0.2-0.1,0.2s0,0.2,0,0.2c0,0.3,0.1,0.4,0.4,0.6s0.6,0.2,1.1,0.2c0.3,0,0.5,0,0.7-0.1s0.4-0.1,0.5-0.2s0.2-0.2,0.3-0.3
		S409.3,11.1,409.3,11z M408.8,6.8c0-0.4-0.1-0.6-0.3-0.8s-0.5-0.3-0.8-0.3c-0.2,0-0.4,0-0.5,0.1s-0.3,0.1-0.3,0.3s-0.2,0.2-0.2,0.4
		s-0.1,0.3-0.1,0.4c0,0.3,0.1,0.6,0.3,0.8s0.5,0.3,0.8,0.3c0.2,0,0.4,0,0.5-0.1s0.3-0.1,0.3-0.3s0.2-0.2,0.2-0.4S408.8,7,408.8,6.8z
		"/>
	<path d="M416.4,7.8c0,0.5,0,0.9-0.1,1.2s-0.2,0.7-0.4,0.9s-0.4,0.5-0.7,0.6s-0.6,0.2-1,0.2c-0.2,0-0.3,0-0.5,0s-0.3-0.1-0.4-0.2
		s-0.3-0.2-0.4-0.3s-0.3-0.3-0.4-0.4v0.6c0,0,0,0.1,0,0.1s0,0-0.1,0.1s-0.1,0-0.1,0s-0.1,0-0.2,0c-0.1,0-0.1,0-0.2,0s-0.1,0-0.1,0
		s-0.1,0-0.1-0.1s0-0.1,0-0.1V2.6c0,0,0-0.1,0-0.1s0,0,0.1-0.1s0.1,0,0.1,0s0.1,0,0.2,0c0.1,0,0.2,0,0.2,0s0.1,0,0.1,0
		s0.1,0,0.1,0.1s0,0.1,0,0.1v3.2c0.2-0.2,0.3-0.3,0.5-0.4s0.3-0.2,0.4-0.3s0.3-0.1,0.4-0.1s0.3,0,0.4,0c0.4,0,0.7,0.1,1,0.2
		s0.5,0.4,0.7,0.6s0.3,0.6,0.4,0.9S416.4,7.4,416.4,7.8z M415.4,7.9c0-0.3,0-0.5-0.1-0.8c0-0.3-0.1-0.5-0.2-0.7
		c-0.1-0.2-0.2-0.4-0.4-0.5c-0.2-0.1-0.4-0.2-0.6-0.2c-0.1,0-0.3,0-0.4,0.1c-0.1,0-0.2,0.1-0.4,0.2c-0.1,0.1-0.3,0.2-0.4,0.3
		c-0.1,0.1-0.3,0.3-0.4,0.5v2.1c0.3,0.3,0.5,0.6,0.8,0.7c0.2,0.2,0.5,0.3,0.8,0.3c0.2,0,0.5-0.1,0.6-0.2s0.3-0.3,0.4-0.5
		s0.2-0.4,0.2-0.7S415.4,8.1,415.4,7.9z"/>
	<path d="M422.7,8.5c0,0.1,0,0.2-0.1,0.3s-0.1,0.1-0.2,0.1h-0.9v1.6c0,0,0,0.1,0,0.1c0,0,0,0-0.1,0.1c0,0-0.1,0-0.2,0s-0.1,0-0.2,0
		c-0.1,0-0.2,0-0.2,0s-0.1,0-0.2,0c0,0-0.1,0-0.1-0.1s0,0,0-0.1V8.9h-3.1c0,0-0.1,0-0.1,0c0,0-0.1,0-0.1-0.1c0,0,0-0.1-0.1-0.1
		s0-0.1,0-0.2c0-0.1,0-0.1,0-0.2s0-0.1,0-0.2c0,0,0-0.1,0-0.1c0,0,0-0.1,0.1-0.1l2.7-4.6c0,0,0-0.1,0.1-0.1c0,0,0.1,0,0.1-0.1
		s0.1,0,0.2,0c0.1,0,0.2,0,0.3,0c0.1,0,0.2,0,0.3,0c0.1,0,0.2,0,0.2,0c0.1,0,0.1,0,0.1,0.1s0,0.1,0,0.1V8h0.9c0.1,0,0.1,0,0.2,0.1
		S422.7,8.3,422.7,8.5z M420.6,3.9L420.6,3.9L418.1,8h2.4V3.9z"/>
</g>
<g>
	<path d="M405,122.4c0,0.2,0,0.4-0.1,0.5s-0.2,0.1-0.5,0.1c-0.2,0-0.4,0-0.5-0.1s-0.1-0.2-0.1-0.5c0-0.2,0-0.4,0.1-0.5
		s0.2-0.1,0.5-0.1c0.2,0,0.4,0,0.5,0.1S405,122.2,405,122.4z M404.9,129.5C404.9,129.5,404.9,129.5,404.9,129.5
		c0,0.1-0.1,0.1-0.1,0.1s-0.1,0-0.1,0s-0.1,0-0.2,0c-0.1,0-0.2,0-0.2,0s-0.1,0-0.1,0s-0.1,0-0.1-0.1s0,0,0-0.1v-5.3c0,0,0-0.1,0-0.1
		s0,0,0.1-0.1s0.1,0,0.1,0s0.1,0,0.2,0c0.1,0,0.2,0,0.2,0s0.1,0,0.1,0s0.1,0,0.1,0.1s0,0,0,0.1V129.5z"/>
	<path d="M411.1,124.4c0,0.1,0,0.2-0.1,0.3s-0.1,0.1-0.1,0.1h-0.8c0.1,0.1,0.2,0.3,0.3,0.5s0.1,0.3,0.1,0.5c0,0.3,0,0.6-0.1,0.8
		s-0.2,0.4-0.4,0.6s-0.4,0.3-0.6,0.4s-0.5,0.1-0.8,0.1c-0.2,0-0.4,0-0.6-0.1s-0.3-0.1-0.4-0.2c-0.1,0.1-0.1,0.2-0.2,0.2
		s-0.1,0.2-0.1,0.3c0,0.1,0.1,0.3,0.2,0.3s0.3,0.1,0.5,0.1l1.4,0.1c0.3,0,0.5,0,0.7,0.1s0.4,0.2,0.6,0.3s0.3,0.3,0.4,0.4
		s0.1,0.4,0.1,0.6c0,0.2-0.1,0.5-0.2,0.7s-0.3,0.4-0.5,0.6s-0.5,0.3-0.8,0.4s-0.7,0.1-1.1,0.1c-0.4,0-0.8,0-1.1-0.1
		s-0.5-0.2-0.7-0.3s-0.3-0.3-0.4-0.4s-0.1-0.4-0.1-0.6c0-0.1,0-0.3,0-0.4s0.1-0.2,0.1-0.3s0.1-0.2,0.2-0.3s0.2-0.2,0.3-0.3
		c-0.2-0.1-0.3-0.2-0.4-0.4s-0.1-0.3-0.1-0.5c0-0.2,0-0.5,0.1-0.6s0.2-0.4,0.4-0.5c-0.1-0.1-0.2-0.3-0.3-0.5s-0.1-0.4-0.1-0.7
		c0-0.3,0.1-0.6,0.2-0.8s0.2-0.4,0.4-0.6s0.4-0.3,0.6-0.4s0.5-0.1,0.8-0.1c0.2,0,0.3,0,0.4,0s0.3,0,0.4,0.1h1.6c0.1,0,0.1,0,0.1,0.1
		S411.1,124.3,411.1,124.4z M410.1,130c0-0.2-0.1-0.4-0.3-0.5s-0.4-0.2-0.8-0.2l-1.4,0c-0.1,0.1-0.2,0.2-0.3,0.3s-0.1,0.2-0.2,0.3
		s-0.1,0.2-0.1,0.2s0,0.2,0,0.2c0,0.3,0.1,0.4,0.4,0.6s0.6,0.2,1.1,0.2c0.3,0,0.5,0,0.7-0.1s0.4-0.1,0.5-0.2s0.2-0.2,0.3-0.3
		S410.1,130.1,410.1,130z M409.6,125.8c0-0.4-0.1-0.6-0.3-0.8s-0.5-0.3-0.8-0.3c-0.2,0-0.4,0-0.5,0.1s-0.3,0.1-0.3,0.3
		s-0.2,0.2-0.2,0.4s-0.1,0.3-0.1,0.4c0,0.3,0.1,0.6,0.3,0.8s0.5,0.3,0.8,0.3c0.2,0,0.4,0,0.5-0.1s0.3-0.1,0.3-0.3s0.2-0.2,0.2-0.4
		S409.6,126,409.6,125.8z"/>
	<path d="M417.2,126.8c0,0.5,0,0.9-0.1,1.2s-0.2,0.7-0.4,0.9s-0.4,0.5-0.7,0.6s-0.6,0.2-1,0.2c-0.2,0-0.3,0-0.5,0s-0.3-0.1-0.4-0.2
		s-0.3-0.2-0.4-0.3s-0.3-0.3-0.4-0.4v0.6c0,0,0,0.1,0,0.1s0,0-0.1,0.1s-0.1,0-0.1,0s-0.1,0-0.2,0c-0.1,0-0.1,0-0.2,0s-0.1,0-0.1,0
		s-0.1,0-0.1-0.1s0-0.1,0-0.1v-7.8c0,0,0-0.1,0-0.1s0,0,0.1-0.1s0.1,0,0.1,0s0.1,0,0.2,0c0.1,0,0.2,0,0.2,0s0.1,0,0.1,0
		s0.1,0,0.1,0.1s0,0.1,0,0.1v3.2c0.2-0.2,0.3-0.3,0.5-0.4s0.3-0.2,0.4-0.3s0.3-0.1,0.4-0.1s0.3,0,0.4,0c0.4,0,0.7,0.1,1,0.2
		s0.5,0.4,0.7,0.6s0.3,0.6,0.4,0.9S417.2,126.4,417.2,126.8z M416.2,126.9c0-0.3,0-0.5-0.1-0.8c0-0.3-0.1-0.5-0.2-0.7
		c-0.1-0.2-0.2-0.4-0.4-0.5c-0.2-0.1-0.4-0.2-0.6-0.2c-0.1,0-0.3,0-0.4,0.1c-0.1,0-0.2,0.1-0.4,0.2c-0.1,0.1-0.3,0.2-0.4,0.3
		c-0.1,0.1-0.3,0.3-0.4,0.5v2.1c0.3,0.3,0.5,0.6,0.8,0.7c0.2,0.2,0.5,0.3,0.8,0.3c0.2,0,0.5-0.1,0.6-0.2s0.3-0.3,0.4-0.5
		s0.2-0.4,0.2-0.7S416.2,127.1,416.2,126.9z"/>
	<path d="M423.1,127.2c0,0.4-0.1,0.8-0.2,1.1s-0.3,0.6-0.6,0.8s-0.5,0.4-0.9,0.5s-0.7,0.2-1.2,0.2c-0.2,0-0.5,0-0.7,0
		s-0.4-0.1-0.6-0.1s-0.3-0.1-0.4-0.1s-0.2-0.1-0.2-0.1s0-0.1-0.1-0.1s0-0.1,0-0.1s0-0.1,0-0.1s0-0.1,0-0.2c0-0.1,0-0.1,0-0.2
		s0-0.1,0-0.1s0-0.1,0.1-0.1s0,0,0.1,0c0,0,0.1,0,0.2,0.1s0.2,0.1,0.3,0.2s0.3,0.1,0.5,0.2s0.4,0.1,0.7,0.1c0.3,0,0.5,0,0.7-0.1
		s0.4-0.2,0.6-0.3s0.3-0.3,0.4-0.5s0.1-0.4,0.1-0.7c0-0.2,0-0.5-0.1-0.6s-0.2-0.3-0.4-0.5s-0.4-0.2-0.6-0.3s-0.5-0.1-0.9-0.1
		c-0.2,0-0.4,0-0.6,0s-0.3,0-0.5,0c-0.1,0-0.2,0-0.2-0.1s-0.1-0.1-0.1-0.3v-3.1c0-0.1,0-0.2,0.1-0.3s0.1-0.1,0.3-0.1h3.4
		c0,0,0.1,0,0.1,0s0.1,0,0.1,0.1s0,0.1,0,0.1s0,0.1,0,0.2c0,0.1,0,0.3-0.1,0.3s-0.1,0.1-0.2,0.1h-2.7v2.1c0.1,0,0.3,0,0.4,0
		c0.1,0,0.3,0,0.5,0c0.4,0,0.8,0.1,1.1,0.2s0.6,0.3,0.8,0.4c0.2,0.2,0.4,0.4,0.5,0.7C423.1,126.5,423.1,126.8,423.1,127.2z"/>
</g>
<g>
	<path d="M450.5,3.4c0,0.2,0,0.4-0.1,0.5S450.2,4,449.9,4c-0.2,0-0.4,0-0.5-0.1s-0.1-0.2-0.1-0.5c0-0.2,0-0.4,0.1-0.5
		s0.2-0.1,0.5-0.1c0.2,0,0.4,0,0.5,0.1S450.5,3.2,450.5,3.4z M450.4,10.5C450.4,10.5,450.4,10.5,450.4,10.5c0,0.1-0.1,0.1-0.1,0.1
		s-0.1,0-0.1,0s-0.1,0-0.2,0c-0.1,0-0.2,0-0.2,0s-0.1,0-0.1,0s-0.1,0-0.1-0.1s0,0,0-0.1V5.2c0,0,0-0.1,0-0.1s0,0,0.1-0.1
		s0.1,0,0.1,0s0.1,0,0.2,0c0.1,0,0.2,0,0.2,0s0.1,0,0.1,0s0.1,0,0.1,0.1s0,0,0,0.1V10.5z"/>
	<path d="M456.6,5.4c0,0.1,0,0.2-0.1,0.3s-0.1,0.1-0.1,0.1h-0.8c0.1,0.1,0.2,0.3,0.3,0.5s0.1,0.3,0.1,0.5c0,0.3,0,0.6-0.1,0.8
		s-0.2,0.4-0.4,0.6s-0.4,0.3-0.6,0.4s-0.5,0.1-0.8,0.1c-0.2,0-0.4,0-0.6-0.1s-0.3-0.1-0.4-0.2c-0.1,0.1-0.1,0.2-0.2,0.2
		s-0.1,0.2-0.1,0.3c0,0.1,0.1,0.3,0.2,0.3s0.3,0.1,0.5,0.1l1.4,0.1c0.3,0,0.5,0,0.7,0.1s0.4,0.2,0.6,0.3s0.3,0.3,0.4,0.4
		s0.1,0.4,0.1,0.6c0,0.2-0.1,0.5-0.2,0.7s-0.3,0.4-0.5,0.6s-0.5,0.3-0.8,0.4s-0.7,0.1-1.1,0.1c-0.4,0-0.8,0-1.1-0.1
		s-0.5-0.2-0.7-0.3s-0.3-0.3-0.4-0.4s-0.1-0.4-0.1-0.6c0-0.1,0-0.3,0-0.4s0.1-0.2,0.1-0.3s0.1-0.2,0.2-0.3s0.2-0.2,0.3-0.3
		c-0.2-0.1-0.3-0.2-0.4-0.4s-0.1-0.3-0.1-0.5c0-0.2,0-0.5,0.1-0.6s0.2-0.4,0.4-0.5c-0.1-0.1-0.2-0.3-0.3-0.5s-0.1-0.4-0.1-0.7
		c0-0.3,0.1-0.6,0.2-0.8s0.2-0.4,0.4-0.6s0.4-0.3,0.6-0.4s0.5-0.1,0.8-0.1c0.2,0,0.3,0,0.4,0s0.3,0,0.4,0.1h1.6c0.1,0,0.1,0,0.1,0.1
		S456.6,5.3,456.6,5.4z M455.6,11c0-0.2-0.1-0.4-0.3-0.5s-0.4-0.2-0.8-0.2l-1.4,0c-0.1,0.1-0.2,0.2-0.3,0.3s-0.1,0.2-0.2,0.3
		s-0.1,0.2-0.1,0.2s0,0.2,0,0.2c0,0.3,0.1,0.4,0.4,0.6s0.6,0.2,1.1,0.2c0.3,0,0.5,0,0.7-0.1s0.4-0.1,0.5-0.2s0.2-0.2,0.3-0.3
		S455.6,11.1,455.6,11z M455.1,6.8c0-0.4-0.1-0.6-0.3-0.8s-0.5-0.3-0.8-0.3c-0.2,0-0.4,0-0.5,0.1s-0.3,0.1-0.3,0.3s-0.2,0.2-0.2,0.4
		s-0.1,0.3-0.1,0.4c0,0.3,0.1,0.6,0.3,0.8S453.6,8,454,8c0.2,0,0.4,0,0.5-0.1s0.3-0.1,0.3-0.3s0.2-0.2,0.2-0.4S455.1,7,455.1,6.8z"
		/>
	<path d="M462.7,7.8c0,0.5,0,0.9-0.1,1.2s-0.2,0.7-0.4,0.9s-0.4,0.5-0.7,0.6s-0.6,0.2-1,0.2c-0.2,0-0.3,0-0.5,0s-0.3-0.1-0.4-0.2
		s-0.3-0.2-0.4-0.3s-0.3-0.3-0.4-0.4v0.6c0,0,0,0.1,0,0.1s0,0-0.1,0.1s-0.1,0-0.1,0s-0.1,0-0.2,0c-0.1,0-0.1,0-0.2,0s-0.1,0-0.1,0
		s-0.1,0-0.1-0.1s0-0.1,0-0.1V2.6c0,0,0-0.1,0-0.1s0,0,0.1-0.1s0.1,0,0.1,0s0.1,0,0.2,0c0.1,0,0.2,0,0.2,0s0.1,0,0.1,0
		s0.1,0,0.1,0.1s0,0.1,0,0.1v3.2c0.2-0.2,0.3-0.3,0.5-0.4s0.3-0.2,0.4-0.3S460,5,460.1,5s0.3,0,0.4,0c0.4,0,0.7,0.1,1,0.2
		s0.5,0.4,0.7,0.6s0.3,0.6,0.4,0.9S462.7,7.4,462.7,7.8z M461.7,7.9c0-0.3,0-0.5-0.1-0.8c0-0.3-0.1-0.5-0.2-0.7
		c-0.1-0.2-0.2-0.4-0.4-0.5c-0.2-0.1-0.4-0.2-0.6-0.2c-0.1,0-0.3,0-0.4,0.1c-0.1,0-0.2,0.1-0.4,0.2c-0.1,0.1-0.3,0.2-0.4,0.3
		c-0.1,0.1-0.3,0.3-0.4,0.5v2.1c0.3,0.3,0.5,0.6,0.8,0.7c0.2,0.2,0.5,0.3,0.8,0.3c0.2,0,0.5-0.1,0.6-0.2s0.3-0.3,0.4-0.5
		s0.2-0.4,0.2-0.7S461.7,8.1,461.7,7.9z"/>
	<path d="M468.9,8.2c0,0.3-0.1,0.7-0.2,1s-0.3,0.6-0.5,0.8s-0.5,0.4-0.8,0.6s-0.7,0.2-1.1,0.2c-0.3,0-0.6,0-0.8-0.1
		s-0.5-0.2-0.6-0.3s-0.3-0.3-0.4-0.5s-0.2-0.5-0.3-0.7s-0.1-0.6-0.2-0.9c0-0.3,0-0.7,0-1c0-0.3,0-0.7,0.1-1s0.1-0.7,0.2-1
		s0.2-0.6,0.4-0.9s0.3-0.5,0.6-0.7s0.5-0.4,0.8-0.5s0.7-0.2,1.1-0.2c0.1,0,0.3,0,0.4,0s0.3,0,0.4,0.1s0.2,0.1,0.3,0.1
		s0.1,0.1,0.2,0.1s0,0,0.1,0.1s0,0.1,0,0.1s0,0.1,0,0.1s0,0.1,0,0.1c0,0.1,0,0.1,0,0.2s0,0.1,0,0.1s0,0.1-0.1,0.1s0,0-0.1,0
		c0,0-0.1,0-0.2,0s-0.2-0.1-0.3-0.1s-0.2-0.1-0.4-0.1s-0.3,0-0.5,0c-0.4,0-0.7,0.1-0.9,0.2c-0.3,0.1-0.5,0.3-0.6,0.6
		s-0.3,0.5-0.4,0.9s-0.1,0.7-0.1,1c0.1-0.1,0.2-0.1,0.3-0.2s0.3-0.1,0.4-0.2S466,6,466.1,6s0.3,0,0.5,0c0.4,0,0.8,0.1,1,0.2
		s0.5,0.3,0.7,0.5s0.3,0.4,0.4,0.7S468.9,7.8,468.9,8.2z M467.8,8.3c0-0.2,0-0.4-0.1-0.6s-0.1-0.3-0.2-0.5s-0.2-0.2-0.4-0.3
		s-0.4-0.1-0.7-0.1c-0.1,0-0.3,0-0.4,0s-0.3,0.1-0.4,0.1s-0.3,0.1-0.4,0.2s-0.2,0.1-0.3,0.2c0,0.5,0,0.9,0.1,1.3s0.2,0.6,0.3,0.8
		s0.3,0.4,0.5,0.4s0.4,0.1,0.6,0.1c0.3,0,0.5,0,0.7-0.1s0.3-0.2,0.5-0.4s0.2-0.3,0.3-0.5S467.8,8.5,467.8,8.3z"/>
</g>
<g>
	<path d="M451.5,122.4c0,0.2,0,0.4-0.1,0.5s-0.2,0.1-0.5,0.1c-0.2,0-0.4,0-0.5-0.1s-0.1-0.2-0.1-0.5c0-0.2,0-0.4,0.1-0.5
		s0.2-0.1,0.5-0.1c0.2,0,0.4,0,0.5,0.1S451.5,122.2,451.5,122.4z M451.4,129.5C451.4,129.5,451.4,129.5,451.4,129.5
		c0,0.1-0.1,0.1-0.1,0.1s-0.1,0-0.1,0s-0.1,0-0.2,0c-0.1,0-0.2,0-0.2,0s-0.1,0-0.1,0s-0.1,0-0.1-0.1s0,0,0-0.1v-5.3c0,0,0-0.1,0-0.1
		s0,0,0.1-0.1s0.1,0,0.1,0s0.1,0,0.2,0c0.1,0,0.2,0,0.2,0s0.1,0,0.1,0s0.1,0,0.1,0.1s0,0,0,0.1V129.5z"/>
	<path d="M457.6,124.4c0,0.1,0,0.2-0.1,0.3s-0.1,0.1-0.1,0.1h-0.8c0.1,0.1,0.2,0.3,0.3,0.5s0.1,0.3,0.1,0.5c0,0.3,0,0.6-0.1,0.8
		s-0.2,0.4-0.4,0.6s-0.4,0.3-0.6,0.4s-0.5,0.1-0.8,0.1c-0.2,0-0.4,0-0.6-0.1s-0.3-0.1-0.4-0.2c-0.1,0.1-0.1,0.2-0.2,0.2
		s-0.1,0.2-0.1,0.3c0,0.1,0.1,0.3,0.2,0.3s0.3,0.1,0.5,0.1l1.4,0.1c0.3,0,0.5,0,0.7,0.1s0.4,0.2,0.6,0.3s0.3,0.3,0.4,0.4
		s0.1,0.4,0.1,0.6c0,0.2-0.1,0.5-0.2,0.7s-0.3,0.4-0.5,0.6s-0.5,0.3-0.8,0.4s-0.7,0.1-1.1,0.1c-0.4,0-0.8,0-1.1-0.1
		s-0.5-0.2-0.7-0.3s-0.3-0.3-0.4-0.4s-0.1-0.4-0.1-0.6c0-0.1,0-0.3,0-0.4s0.1-0.2,0.1-0.3s0.1-0.2,0.2-0.3s0.2-0.2,0.3-0.3
		c-0.2-0.1-0.3-0.2-0.4-0.4s-0.1-0.3-0.1-0.5c0-0.2,0-0.5,0.1-0.6s0.2-0.4,0.4-0.5c-0.1-0.1-0.2-0.3-0.3-0.5s-0.1-0.4-0.1-0.7
		c0-0.3,0.1-0.6,0.2-0.8s0.2-0.4,0.4-0.6s0.4-0.3,0.6-0.4s0.5-0.1,0.8-0.1c0.2,0,0.3,0,0.4,0s0.3,0,0.4,0.1h1.6c0.1,0,0.1,0,0.1,0.1
		S457.6,124.3,457.6,124.4z M456.6,130c0-0.2-0.1-0.4-0.3-0.5s-0.4-0.2-0.8-0.2l-1.4,0c-0.1,0.1-0.2,0.2-0.3,0.3s-0.1,0.2-0.2,0.3
		s-0.1,0.2-0.1,0.2s0,0.2,0,0.2c0,0.3,0.1,0.4,0.4,0.6s0.6,0.2,1.1,0.2c0.3,0,0.5,0,0.7-0.1s0.4-0.1,0.5-0.2s0.2-0.2,0.3-0.3
		S456.6,130.1,456.6,130z M456.1,125.8c0-0.4-0.1-0.6-0.3-0.8s-0.5-0.3-0.8-0.3c-0.2,0-0.4,0-0.5,0.1s-0.3,0.1-0.3,0.3
		s-0.2,0.2-0.2,0.4s-0.1,0.3-0.1,0.4c0,0.3,0.1,0.6,0.3,0.8s0.5,0.3,0.8,0.3c0.2,0,0.4,0,0.5-0.1s0.3-0.1,0.3-0.3s0.2-0.2,0.2-0.4
		S456.1,126,456.1,125.8z"/>
	<path d="M463.7,126.8c0,0.5,0,0.9-0.1,1.2s-0.2,0.7-0.4,0.9s-0.4,0.5-0.7,0.6s-0.6,0.2-1,0.2c-0.2,0-0.3,0-0.5,0s-0.3-0.1-0.4-0.2
		s-0.3-0.2-0.4-0.3s-0.3-0.3-0.4-0.4v0.6c0,0,0,0.1,0,0.1s0,0-0.1,0.1s-0.1,0-0.1,0s-0.1,0-0.2,0c-0.1,0-0.1,0-0.2,0s-0.1,0-0.1,0
		s-0.1,0-0.1-0.1s0-0.1,0-0.1v-7.8c0,0,0-0.1,0-0.1s0,0,0.1-0.1s0.1,0,0.1,0s0.1,0,0.2,0c0.1,0,0.2,0,0.2,0s0.1,0,0.1,0
		s0.1,0,0.1,0.1s0,0.1,0,0.1v3.2c0.2-0.2,0.3-0.3,0.5-0.4s0.3-0.2,0.4-0.3s0.3-0.1,0.4-0.1s0.3,0,0.4,0c0.4,0,0.7,0.1,1,0.2
		s0.5,0.4,0.7,0.6s0.3,0.6,0.4,0.9S463.7,126.4,463.7,126.8z M462.7,126.9c0-0.3,0-0.5-0.1-0.8c0-0.3-0.1-0.5-0.2-0.7
		c-0.1-0.2-0.2-0.4-0.4-0.5c-0.2-0.1-0.4-0.2-0.6-0.2c-0.1,0-0.3,0-0.4,0.1c-0.1,0-0.2,0.1-0.4,0.2c-0.1,0.1-0.3,0.2-0.4,0.3
		c-0.1,0.1-0.3,0.3-0.4,0.5v2.1c0.3,0.3,0.5,0.6,0.8,0.7c0.2,0.2,0.5,0.3,0.8,0.3c0.2,0,0.5-0.1,0.6-0.2s0.3-0.3,0.4-0.5
		s0.2-0.4,0.2-0.7S462.7,127.1,462.7,126.9z"/>
	<path d="M469.8,122.5c0,0.1,0,0.1,0,0.2s0,0.1,0,0.2s0,0.1,0,0.2s0,0.1-0.1,0.2l-2.7,6.3c0,0,0,0.1-0.1,0.1s-0.1,0.1-0.1,0.1
		s-0.1,0-0.2,0s-0.2,0-0.3,0c-0.1,0-0.2,0-0.3,0s-0.1,0-0.2-0.1s0-0.1,0-0.1s0-0.1,0-0.1l2.9-6.4H465c-0.1,0-0.1,0-0.2-0.1
		s-0.1-0.2-0.1-0.3c0-0.1,0-0.1,0-0.2s0-0.1,0-0.1s0-0.1,0.1-0.1s0.1,0,0.1,0h4.4c0.1,0,0.1,0,0.1,0s0.1,0,0.1,0.1s0,0.1,0,0.1
		S469.8,122.4,469.8,122.5z"/>
</g>
<g>
	<path d="M671.8,5.9c0,0.2,0,0.4-0.1,0.5s-0.2,0.1-0.5,0.1c-0.2,0-0.4,0-0.5-0.1s-0.1-0.2-0.1-0.5c0-0.2,0-0.4,0.1-0.5
		s0.2-0.1,0.5-0.1c0.2,0,0.4,0,0.5,0.1S671.8,5.7,671.8,5.9z M671.7,13C671.7,13,671.7,13.1,671.7,13c0,0.1-0.1,0.1-0.1,0.1
		s-0.1,0-0.1,0s-0.1,0-0.2,0c-0.1,0-0.2,0-0.2,0s-0.1,0-0.1,0s-0.1,0-0.1-0.1s0,0,0-0.1V7.7c0,0,0-0.1,0-0.1s0,0,0.1-0.1
		s0.1,0,0.1,0s0.1,0,0.2,0c0.1,0,0.2,0,0.2,0s0.1,0,0.1,0s0.1,0,0.1,0.1s0,0,0,0.1V13z"/>
	<path d="M677.5,12.9c0,0.1,0,0.1,0,0.1s0,0.1-0.1,0.1s-0.1,0-0.2,0s-0.2,0-0.3,0c-0.1,0-0.2,0-0.3,0s-0.1,0-0.2,0s-0.1,0-0.1-0.1
		s0,0-0.1-0.1l-1.3-2.1l-1.3,2.1c0,0,0,0.1-0.1,0.1s-0.1,0-0.1,0.1s-0.1,0-0.2,0s-0.2,0-0.3,0c-0.1,0-0.2,0-0.3,0s-0.1,0-0.2,0
		s0-0.1,0-0.1s0-0.1,0.1-0.1l1.6-2.6L673,7.8c0-0.1,0-0.1,0-0.1s0-0.1,0.1-0.1s0.1,0,0.2,0s0.2,0,0.3,0c0.1,0,0.2,0,0.3,0
		s0.1,0,0.2,0s0.1,0,0.1,0s0,0,0.1,0.1l1.2,2l1.2-2c0,0,0,0,0.1-0.1s0,0,0.1,0s0.1,0,0.1,0s0.1,0,0.2,0c0.1,0,0.2,0,0.3,0
		s0.1,0,0.2,0s0.1,0.1,0,0.1s0,0.1-0.1,0.1l-1.5,2.4L677.5,12.9z"/>
	<path d="M679.6,13C679.6,13,679.6,13.1,679.6,13c0,0.1-0.1,0.1-0.1,0.1s-0.1,0-0.1,0s-0.1,0-0.2,0c-0.1,0-0.2,0-0.2,0s-0.1,0-0.1,0
		s-0.1,0-0.1-0.1s0,0,0-0.1V5.2c0,0,0-0.1,0-0.1s0,0,0.1-0.1s0.1,0,0.1,0s0.1,0,0.2,0c0.1,0,0.2,0,0.2,0s0.1,0,0.1,0s0.1,0,0.1,0.1
		s0,0.1,0,0.1V13z"/>
	<path d="M685.9,11c0,0.3-0.1,0.7-0.2,0.9s-0.3,0.5-0.5,0.7s-0.5,0.4-0.8,0.5s-0.7,0.2-1.1,0.2c-0.3,0-0.5,0-0.7-0.1
		s-0.4-0.1-0.6-0.1s-0.3-0.1-0.4-0.2s-0.2-0.1-0.2-0.1s-0.1-0.1-0.1-0.1s0-0.1,0-0.1s0-0.1,0-0.1s0-0.1,0-0.2c0-0.1,0-0.2,0-0.3
		s0.1-0.1,0.1-0.1c0,0,0.1,0,0.2,0.1c0.1,0.1,0.2,0.1,0.4,0.2c0.2,0.1,0.4,0.1,0.6,0.2c0.2,0.1,0.5,0.1,0.7,0.1c0.3,0,0.5,0,0.7-0.1
		c0.2-0.1,0.4-0.2,0.5-0.3c0.1-0.1,0.2-0.3,0.3-0.4c0.1-0.2,0.1-0.3,0.1-0.5c0-0.2,0-0.4-0.1-0.6s-0.2-0.3-0.4-0.4
		c-0.2-0.1-0.4-0.2-0.6-0.3s-0.5-0.1-0.8-0.1h-0.7c0,0-0.1,0-0.1,0s-0.1,0-0.1-0.1c0,0,0-0.1-0.1-0.1c0-0.1,0-0.1,0-0.2
		c0-0.1,0-0.1,0-0.2s0-0.1,0-0.1s0-0.1,0.1-0.1s0.1,0,0.1,0h0.7c0.3,0,0.5,0,0.7-0.1s0.4-0.2,0.5-0.3s0.3-0.3,0.3-0.4
		c0.1-0.2,0.1-0.4,0.1-0.6c0-0.2,0-0.3-0.1-0.4s-0.1-0.3-0.2-0.4s-0.2-0.2-0.4-0.2s-0.3-0.1-0.5-0.1c-0.2,0-0.4,0-0.6,0.1
		s-0.4,0.1-0.5,0.2s-0.3,0.2-0.4,0.2s-0.2,0.1-0.2,0.1c0,0-0.1,0-0.1,0s0,0-0.1-0.1s0-0.1,0-0.1s0-0.1,0-0.2c0-0.1,0-0.1,0-0.2
		s0-0.1,0-0.1s0-0.1,0-0.1s0-0.1,0.1-0.1s0.1-0.1,0.2-0.2s0.3-0.1,0.4-0.2s0.4-0.1,0.6-0.2s0.5-0.1,0.7-0.1c0.4,0,0.7,0,0.9,0.1
		s0.5,0.2,0.7,0.4s0.3,0.4,0.4,0.6s0.1,0.5,0.1,0.8c0,0.2,0,0.5-0.1,0.7c-0.1,0.2-0.2,0.4-0.3,0.5s-0.3,0.3-0.4,0.4
		s-0.4,0.2-0.6,0.2v0c0.3,0,0.5,0.1,0.7,0.2s0.4,0.2,0.6,0.4s0.3,0.3,0.4,0.5S685.9,10.7,685.9,11z"/>
</g>
<g>
	<path d="M718.9,5.9c0,0.2,0,0.4-0.1,0.5s-0.2,0.1-0.5,0.1c-0.2,0-0.4,0-0.5-0.1s-0.1-0.2-0.1-0.5c0-0.2,0-0.4,0.1-0.5
		s0.2-0.1,0.5-0.1c0.2,0,0.4,0,0.5,0.1S718.9,5.7,718.9,5.9z M718.8,13C718.8,13,718.8,13.1,718.8,13c0,0.1-0.1,0.1-0.1,0.1
		s-0.1,0-0.1,0s-0.1,0-0.2,0c-0.1,0-0.2,0-0.2,0s-0.1,0-0.1,0s-0.1,0-0.1-0.1s0,0,0-0.1V7.7c0,0,0-0.1,0-0.1s0,0,0.1-0.1
		s0.1,0,0.1,0s0.1,0,0.2,0c0.1,0,0.2,0,0.2,0s0.1,0,0.1,0s0.1,0,0.1,0.1s0,0,0,0.1V13z"/>
	<path d="M724.6,12.9c0,0.1,0,0.1,0,0.1s0,0.1-0.1,0.1s-0.1,0-0.2,0s-0.2,0-0.3,0c-0.1,0-0.2,0-0.3,0s-0.1,0-0.2,0s-0.1,0-0.1-0.1
		s0,0-0.1-0.1l-1.3-2.1L721,13c0,0,0,0.1-0.1,0.1s-0.1,0-0.1,0.1s-0.1,0-0.2,0s-0.2,0-0.3,0c-0.1,0-0.2,0-0.3,0s-0.1,0-0.2,0
		s0-0.1,0-0.1s0-0.1,0.1-0.1l1.6-2.6l-1.6-2.5c0-0.1,0-0.1,0-0.1s0-0.1,0.1-0.1s0.1,0,0.2,0s0.2,0,0.3,0c0.1,0,0.2,0,0.3,0
		s0.1,0,0.2,0s0.1,0,0.1,0s0,0,0.1,0.1l1.2,2l1.2-2c0,0,0,0,0.1-0.1s0,0,0.1,0s0.1,0,0.1,0s0.1,0,0.2,0c0.1,0,0.2,0,0.3,0
		s0.1,0,0.2,0s0.1,0.1,0,0.1s0,0.1-0.1,0.1l-1.5,2.4L724.6,12.9z"/>
	<path d="M726.8,13C726.8,13,726.8,13.1,726.8,13c0,0.1-0.1,0.1-0.1,0.1s-0.1,0-0.1,0s-0.1,0-0.2,0c-0.1,0-0.2,0-0.2,0s-0.1,0-0.1,0
		s-0.1,0-0.1-0.1s0,0,0-0.1V5.2c0,0,0-0.1,0-0.1s0,0,0.1-0.1s0.1,0,0.1,0s0.1,0,0.2,0c0.1,0,0.2,0,0.2,0s0.1,0,0.1,0s0.1,0,0.1,0.1
		s0,0.1,0,0.1V13z"/>
	<path d="M733.1,12.7c0,0.1,0,0.1,0,0.2s0,0.1,0,0.1s0,0.1-0.1,0.1s-0.1,0-0.1,0h-4.2c-0.1,0-0.1,0-0.1,0s-0.1,0-0.1-0.1
		s-0.1-0.1-0.1-0.1s0-0.1,0-0.2c0-0.1,0-0.1,0-0.2s0-0.1,0-0.2c0,0,0-0.1,0.1-0.1s0.1-0.1,0.1-0.1l1.5-1.6c0.4-0.4,0.6-0.7,0.8-1
		c0.2-0.3,0.4-0.5,0.5-0.8c0.1-0.2,0.2-0.4,0.2-0.6c0-0.2,0.1-0.4,0.1-0.5s0-0.3-0.1-0.5c-0.1-0.2-0.1-0.3-0.2-0.4
		c-0.1-0.1-0.2-0.2-0.4-0.3s-0.3-0.1-0.6-0.1c-0.2,0-0.5,0-0.7,0.1c-0.2,0.1-0.4,0.1-0.5,0.2s-0.3,0.2-0.4,0.2
		c-0.1,0.1-0.2,0.1-0.2,0.1c0,0-0.1,0-0.1,0s0,0-0.1-0.1c0,0,0-0.1,0-0.1c0-0.1,0-0.1,0-0.2c0-0.1,0-0.1,0-0.2s0-0.1,0-0.1
		s0-0.1,0-0.1s0-0.1,0.1-0.1s0.1-0.1,0.2-0.2s0.3-0.1,0.4-0.2s0.4-0.1,0.6-0.2s0.4-0.1,0.7-0.1c0.4,0,0.7,0.1,1,0.2s0.5,0.2,0.7,0.4
		s0.3,0.4,0.4,0.6s0.1,0.5,0.1,0.8c0,0.2,0,0.5-0.1,0.7c0,0.2-0.1,0.5-0.3,0.8s-0.3,0.6-0.6,0.9s-0.6,0.7-1,1.2l-1.2,1.3h3.3
		c0,0,0.1,0,0.1,0s0.1,0,0.1,0.1s0,0.1,0,0.1S733.1,12.6,733.1,12.7z"/>
</g>
<g>
	<path d="M767.7,5.9c0,0.2,0,0.4-0.1,0.5s-0.2,0.1-0.5,0.1c-0.2,0-0.4,0-0.5-0.1s-0.1-0.2-0.1-0.5c0-0.2,0-0.4,0.1-0.5
		s0.2-0.1,0.5-0.1c0.2,0,0.4,0,0.5,0.1S767.7,5.7,767.7,5.9z M767.6,13C767.6,13,767.6,13.1,767.6,13c0,0.1-0.1,0.1-0.1,0.1
		s-0.1,0-0.1,0s-0.1,0-0.2,0c-0.1,0-0.2,0-0.2,0s-0.1,0-0.1,0s-0.1,0-0.1-0.1s0,0,0-0.1V7.7c0,0,0-0.1,0-0.1s0,0,0.1-0.1
		s0.1,0,0.1,0s0.1,0,0.2,0c0.1,0,0.2,0,0.2,0s0.1,0,0.1,0s0.1,0,0.1,0.1s0,0,0,0.1V13z"/>
	<path d="M773.3,12.9c0,0.1,0,0.1,0,0.1s0,0.1-0.1,0.1s-0.1,0-0.2,0s-0.2,0-0.3,0c-0.1,0-0.2,0-0.3,0s-0.1,0-0.2,0s-0.1,0-0.1-0.1
		s0,0-0.1-0.1l-1.3-2.1l-1.3,2.1c0,0,0,0.1-0.1,0.1s-0.1,0-0.1,0.1s-0.1,0-0.2,0s-0.2,0-0.3,0c-0.1,0-0.2,0-0.3,0s-0.1,0-0.2,0
		s0-0.1,0-0.1s0-0.1,0.1-0.1l1.6-2.6l-1.6-2.5c0-0.1,0-0.1,0-0.1s0-0.1,0.1-0.1s0.1,0,0.2,0s0.2,0,0.3,0c0.1,0,0.2,0,0.3,0
		s0.1,0,0.2,0s0.1,0,0.1,0s0,0,0.1,0.1l1.2,2l1.2-2c0,0,0,0,0.1-0.1s0,0,0.1,0s0.1,0,0.1,0s0.1,0,0.2,0c0.1,0,0.2,0,0.3,0
		s0.1,0,0.2,0s0.1,0.1,0,0.1s0,0.1-0.1,0.1l-1.5,2.4L773.3,12.9z"/>
	<path d="M775.5,13C775.5,13,775.5,13.1,775.5,13c0,0.1-0.1,0.1-0.1,0.1s-0.1,0-0.1,0s-0.1,0-0.2,0c-0.1,0-0.2,0-0.2,0s-0.1,0-0.1,0
		s-0.1,0-0.1-0.1s0,0,0-0.1V5.2c0,0,0-0.1,0-0.1s0,0,0.1-0.1s0.1,0,0.1,0s0.1,0,0.2,0c0.1,0,0.2,0,0.2,0s0.1,0,0.1,0s0.1,0,0.1,0.1
		s0,0.1,0,0.1V13z"/>
	<path d="M781.8,12.7c0,0.1,0,0.1,0,0.2s0,0.1,0,0.1s0,0.1-0.1,0.1s-0.1,0-0.1,0h-4c0,0-0.1,0-0.1,0s0,0-0.1-0.1s0-0.1,0-0.1
		s0-0.1,0-0.2c0-0.1,0-0.1,0-0.2s0-0.1,0-0.1s0-0.1,0.1-0.1s0.1,0,0.1,0h1.6V6.6l-1.5,0.9c-0.1,0-0.1,0.1-0.2,0.1s-0.1,0-0.1,0
		s0-0.1-0.1-0.1s0-0.1,0-0.2c0-0.1,0-0.1,0-0.2s0-0.1,0-0.1s0-0.1,0-0.1s0,0,0.1-0.1l1.7-1.1c0,0,0,0,0.1,0s0.1,0,0.1,0s0.1,0,0.1,0
		s0.1,0,0.2,0c0.1,0,0.2,0,0.2,0s0.1,0,0.1,0s0.1,0,0.1,0.1s0,0,0,0.1v6.7h1.4c0,0,0.1,0,0.1,0s0,0,0.1,0.1s0,0.1,0,0.1
		S781.8,12.7,781.8,12.7z"/>
</g>
<g>
	<path d="M815.1,5.9c0,0.2,0,0.4-0.1,0.5s-0.2,0.1-0.5,0.1c-0.2,0-0.4,0-0.5-0.1s-0.1-0.2-0.1-0.5c0-0.2,0-0.4,0.1-0.5
		s0.2-0.1,0.5-0.1c0.2,0,0.4,0,0.5,0.1S815.1,5.7,815.1,5.9z M814.9,13C814.9,13,814.9,13.1,814.9,13c0,0.1-0.1,0.1-0.1,0.1
		s-0.1,0-0.1,0s-0.1,0-0.2,0c-0.1,0-0.2,0-0.2,0s-0.1,0-0.1,0s-0.1,0-0.1-0.1s0,0,0-0.1V7.7c0,0,0-0.1,0-0.1s0,0,0.1-0.1
		s0.1,0,0.1,0s0.1,0,0.2,0c0.1,0,0.2,0,0.2,0s0.1,0,0.1,0s0.1,0,0.1,0.1s0,0,0,0.1V13z"/>
	<path d="M820.7,12.9c0,0.1,0,0.1,0,0.1s0,0.1-0.1,0.1s-0.1,0-0.2,0s-0.2,0-0.3,0c-0.1,0-0.2,0-0.3,0s-0.1,0-0.2,0s-0.1,0-0.1-0.1
		s0,0-0.1-0.1l-1.3-2.1l-1.3,2.1c0,0,0,0.1-0.1,0.1s-0.1,0-0.1,0.1s-0.1,0-0.2,0s-0.2,0-0.3,0c-0.1,0-0.2,0-0.3,0s-0.1,0-0.2,0
		s0-0.1,0-0.1s0-0.1,0.1-0.1l1.6-2.6l-1.6-2.5c0-0.1,0-0.1,0-0.1s0-0.1,0.1-0.1s0.1,0,0.2,0s0.2,0,0.3,0c0.1,0,0.2,0,0.3,0
		s0.1,0,0.2,0s0.1,0,0.1,0s0,0,0.1,0.1l1.2,2l1.2-2c0,0,0,0,0.1-0.1s0,0,0.1,0s0.1,0,0.1,0s0.1,0,0.2,0c0.1,0,0.2,0,0.3,0
		s0.1,0,0.2,0s0.1,0.1,0,0.1s0,0.1-0.1,0.1l-1.5,2.4L820.7,12.9z"/>
	<path d="M822.9,13C822.9,13,822.9,13.1,822.9,13c0,0.1-0.1,0.1-0.1,0.1s-0.1,0-0.1,0s-0.1,0-0.2,0c-0.1,0-0.2,0-0.2,0s-0.1,0-0.1,0
		s-0.1,0-0.1-0.1s0,0,0-0.1V5.2c0,0,0-0.1,0-0.1s0,0,0.1-0.1s0.1,0,0.1,0s0.1,0,0.2,0c0.1,0,0.2,0,0.2,0s0.1,0,0.1,0s0.1,0,0.1,0.1
		s0,0.1,0,0.1V13z"/>
	<path d="M829.5,9.3c0,0.6,0,1.1-0.1,1.6s-0.2,0.9-0.5,1.2s-0.5,0.6-0.8,0.8s-0.8,0.3-1.3,0.3c-0.5,0-0.9-0.1-1.2-0.3
		s-0.6-0.4-0.8-0.8s-0.3-0.7-0.4-1.2s-0.1-1-0.1-1.7c0-0.6,0-1.1,0.1-1.6s0.2-0.9,0.5-1.2s0.5-0.6,0.8-0.8s0.8-0.3,1.3-0.3
		c0.5,0,0.9,0.1,1.2,0.3s0.6,0.4,0.8,0.8s0.3,0.7,0.4,1.2S829.5,8.7,829.5,9.3z M828.4,9.4c0-0.4,0-0.7,0-1s-0.1-0.6-0.1-0.8
		s-0.1-0.4-0.2-0.6s-0.2-0.3-0.3-0.4s-0.3-0.2-0.4-0.2s-0.3-0.1-0.5-0.1c-0.3,0-0.6,0.1-0.8,0.2s-0.4,0.4-0.5,0.6s-0.2,0.6-0.2,1
		c0,0.4-0.1,0.8-0.1,1.2c0,0.6,0,1,0.1,1.4s0.2,0.7,0.3,1s0.3,0.4,0.5,0.5s0.4,0.2,0.7,0.2c0.2,0,0.4,0,0.6-0.1s0.3-0.2,0.4-0.3
		s0.2-0.3,0.3-0.5s0.1-0.4,0.2-0.6s0.1-0.5,0.1-0.7S828.4,9.7,828.4,9.4z"/>
</g>
</svg>
