<svg xmlns="http://www.w3.org/2000/svg" xmlns:xlink="http://www.w3.org/1999/xlink" viewBox="0 0 815.72 115.71" xmlns:v="https://vecta.io/nano"><style><![CDATA[.B{stroke-width:.75}.C{stroke-width:1.04}.D{stroke-miterlimit:10}.E{stroke-width:.822}]]></style><g fill="none" stroke="#000"><g class="D"><path stroke-width=".978" d="M3.29 22.34h809.02v89.81H3.29z"/><path d="M20.89 46.23a.59.59 0 0 1-.07.29c-.04.07-.13.13-.23.19a2.97 2.97 0 0 1-.46.1l-.72.03c-.3 0-.55-.01-.72-.03-.17-.01-.3-.04-.4-.09-.1-.04-.16-.1-.19-.16a.68.68 0 0 1-.07-.25l-.52-3.05c-.07-.45-.17-.82-.29-1.11-.12-.3-.26-.55-.45-.74s-.39-.32-.64-.39a3.15 3.15 0 0 0-.87-.12h-.59l-1.1 5.49c-.01.07-.04.14-.1.2a.53.53 0 0 1-.26.13c-.12.04-.27.06-.45.09-.17.03-.4.03-.66.03-.27 0-.49-.01-.66-.03s-.3-.04-.4-.09a.57.57 0 0 1-.2-.13c-.04-.04-.04-.12-.03-.2l2.59-12.97c.01-.07.04-.14.1-.2s.14-.1.27-.13a2.37 2.37 0 0 1 .45-.07l.68-.03.66.03a1.71 1.71 0 0 1 .4.07c.1.03.16.07.2.13.03.06.04.12.03.2l-1.04 5.16h.62a2.51 2.51 0 0 0 .84-.13c.25-.09.49-.22.72-.4.23-.19.45-.42.66-.72.22-.3.45-.65.66-1.08l1.47-2.73c.06-.1.12-.19.19-.25a.79.79 0 0 1 .29-.16c.13-.04.29-.06.48-.09s.45-.03.74-.03l.66.03c.17.01.3.04.39.07a.39.39 0 0 1 .19.12.25.25 0 0 1 .04.14c0 .1-.03.23-.09.36s-.16.32-.3.56l-1.4 2.44-.74 1.17c-.23.32-.46.59-.69.82a3.99 3.99 0 0 1-.71.55c-.23.14-.49.26-.75.36v.01c.25.12.48.25.66.4.19.14.36.33.51.56a3.99 3.99 0 0 1 .38.85c.1.33.2.75.3 1.24l.55 2.83.07.39c.01.14 0 .25 0 .34zm12.01-6.1a8.74 8.74 0 0 1-.14 1.58 8.87 8.87 0 0 1-.45 1.58 6.06 6.06 0 0 1-.8 1.45c-.32.45-.71.84-1.16 1.19s-.97.62-1.55.81a6.27 6.27 0 0 1-1.97.3c-.72 0-1.33-.09-1.85-.25s-.95-.4-1.3-.74c-.35-.32-.61-.72-.77-1.19-.17-.48-.25-1.01-.25-1.62a8.74 8.74 0 0 1 .14-1.58c.1-.53.25-1.06.45-1.58s.46-1 .8-1.45c.32-.46.71-.85 1.16-1.19a5.84 5.84 0 0 1 1.55-.81c.58-.2 1.23-.3 1.97-.3.72 0 1.33.09 1.85.25s.95.4 1.3.74c.35.32.61.72.77 1.19.16.48.25 1.01.25 1.62zm-2.76.17a3.26 3.26 0 0 0-.09-.8c-.06-.23-.16-.42-.3-.58a1.17 1.17 0 0 0-.53-.36 2.57 2.57 0 0 0-.8-.13 2.24 2.24 0 0 0-.95.2 2.27 2.27 0 0 0-.75.56c-.22.25-.42.51-.58.81s-.3.64-.4.97-.19.68-.23 1.03l-.07 1a3.26 3.26 0 0 0 .09.8 1.5 1.5 0 0 0 .3.59 1.17 1.17 0 0 0 .53.36 2.57 2.57 0 0 0 .8.13 2.24 2.24 0 0 0 .95-.2 2.27 2.27 0 0 0 .75-.56 3.55 3.55 0 0 0 .58-.82 5.3 5.3 0 0 0 .4-.98c.1-.35.19-.68.23-1.03a6.41 6.41 0 0 0 .07-.99zm12.85 6.11c-.01.07-.04.13-.1.19s-.14.1-.25.13c-.12.04-.25.06-.42.07l-.65.03a5.85 5.85 0 0 1-.64-.03c-.17-.01-.3-.04-.39-.07s-.16-.07-.19-.13a.21.21 0 0 1-.01-.19l.74-3.71h-3.73l-.74 3.71c-.01.07-.04.13-.1.19s-.13.1-.25.13-.25.06-.42.07l-.65.03a5.48 5.48 0 0 1-.64-.03c-.16-.01-.3-.04-.39-.07s-.16-.07-.19-.13-.03-.12-.03-.19l1.88-9.47c.01-.07.04-.13.1-.19s.13-.1.25-.13.25-.06.42-.07c.18-.02.4-.03.66-.03l.64.03c.16.01.3.04.39.07.1.03.16.07.19.13s.03.12.03.19l-.71 3.54h3.74l.69-3.53c.01-.07.04-.13.1-.19.04-.06.13-.1.23-.13s.25-.06.42-.07l.65-.03.64.03c.16.02.3.04.39.07.1.03.16.07.19.13s.04.12.03.19l-1.88 9.46zm17.5 0c-.01.07-.04.13-.1.19s-.13.1-.25.13-.26.06-.42.07l-.65.03a5.85 5.85 0 0 1-.64-.03c-.17-.01-.3-.04-.39-.07a.34.34 0 0 1-.19-.13.21.21 0 0 1-.01-.19l1.14-5.68.07-.48c.03-.16.03-.32.03-.48 0-.33-.06-.59-.19-.81-.13-.2-.35-.3-.66-.3-.29 0-.58.1-.88.27-.3.19-.59.43-.88.75-.27.32-.53.68-.74 1.1a4.53 4.53 0 0 0-.46 1.34l-.85 4.28c-.01.07-.04.13-.1.19s-.13.1-.25.13c-.12.04-.26.06-.42.07l-.65.03a5.85 5.85 0 0 1-.64-.03c-.16-.01-.3-.04-.39-.07s-.16-.07-.19-.13-.04-.12-.03-.19l1.13-5.68a3.86 3.86 0 0 0 .09-.51l.03-.51c0-.3-.06-.56-.19-.77s-.35-.3-.65-.3c-.29 0-.58.1-.88.27s-.59.43-.88.75c-.27.32-.53.68-.74 1.1a4.53 4.53 0 0 0-.46 1.34l-.85 4.3c-.01.07-.04.13-.1.19s-.13.1-.25.13-.25.06-.42.07l-.65.03a5.48 5.48 0 0 1-.64-.03c-.16-.02-.3-.04-.39-.07s-.16-.07-.19-.13-.03-.12-.03-.19l1.89-9.47c.01-.07.04-.13.09-.19.04-.06.12-.1.22-.13s.22-.06.38-.07l.55-.03c.22 0 .39.02.54.03.13.01.25.04.32.07s.13.07.16.13.03.12.01.19l-.3 1.56c.14-.25.35-.49.59-.75a4.68 4.68 0 0 1 .84-.69c.32-.2.65-.38 1.03-.51s.75-.2 1.16-.2c.4 0 .77.06 1.07.16s.55.26.74.46c.2.2.35.42.45.68s.16.55.2.85c.16-.25.38-.51.62-.77.25-.25.53-.48.85-.68s.65-.38 1.03-.51.75-.2 1.14-.2c.49 0 .91.07 1.24.2a1.94 1.94 0 0 1 .81.58c.2.25.36.53.45.85.1.33.14.68.14 1.07 0 .25-.01.49-.04.75l-.13.77-1.24 5.87zm11.39.01c-.01.07-.04.13-.09.19-.04.06-.12.1-.22.13a1.64 1.64 0 0 1-.36.07l-.55.03c-.22 0-.39-.01-.53-.03a1.02 1.02 0 0 1-.32-.07c-.07-.03-.13-.07-.16-.13s-.03-.12-.01-.19l.29-1.53c-.14.25-.33.49-.58.75s-.53.48-.85.68-.66.38-1.06.51c-.38.13-.75.19-1.16.19-.49 0-.91-.07-1.26-.2-.33-.13-.62-.32-.82-.56-.22-.23-.36-.52-.46-.85s-.14-.69-.14-1.08a6.34 6.34 0 0 1 .04-.74l.12-.77 1.17-5.87c.01-.07.04-.13.1-.19s.13-.1.25-.13.25-.06.42-.07c.17-.03.39-.04.65-.04l.64.03c.16.01.29.04.39.07a.34.34 0 0 1 .19.13c.03.06.04.12.03.19l-1.13 5.68-.07.49-.03.49c0 .16.01.32.04.46a1.07 1.07 0 0 0 .16.36c.07.12.16.17.27.22.12.04.25.07.39.07.29 0 .59-.1.91-.29s.62-.45.9-.77c.27-.32.53-.72.75-1.17s.39-.94.51-1.46l.81-4.09c.01-.07.04-.13.1-.19s.14-.1.25-.13c.12-.03.25-.06.42-.07l.65-.03.64.03c.16.01.3.04.39.07.1.03.16.07.19.13s.03.12.03.19l-1.9 9.49zm11.76-.01c-.01.07-.04.13-.1.19s-.14.1-.25.13c-.1.03-.25.06-.42.07l-.65.03a5.85 5.85 0 0 1-.64-.03c-.17-.01-.3-.04-.39-.07-.1-.03-.16-.07-.19-.13a.21.21 0 0 1-.01-.19l.74-3.71h-3.77l-.74 3.71c-.01.07-.04.13-.1.19s-.13.1-.25.13-.25.06-.42.07l-.65.03a5.48 5.48 0 0 1-.64-.03c-.16-.01-.3-.04-.39-.07-.1-.03-.16-.07-.19-.13s-.03-.12-.03-.19l1.88-9.47c.01-.07.04-.13.1-.19s.13-.1.25-.13.25-.06.42-.07a5.92 5.92 0 0 1 .65-.03l.64.03c.16.01.3.04.39.07.1.03.16.07.19.13s.04.13.04.2l-.71 3.54h3.74l.71-3.54c.01-.07.04-.13.1-.19.04-.06.13-.1.23-.13s.25-.06.42-.07l.65-.03.64.03c.16.01.3.04.39.07.1.03.16.07.19.13s.04.12.03.19l-1.86 9.46zm12.52-7.38a2.71 2.71 0 0 1-.35 1.37c-.23.4-.58.75-1.07 1.06-.49.3-1.1.52-1.85.66-.75.16-1.63.23-2.66.23h-.98c-.03.16-.04.32-.06.48l-.03.45c0 .58.14 1 .45 1.29.3.29.77.43 1.43.43.46 0 .88-.03 1.26-.1.38-.06.69-.14.98-.22.27-.07.51-.16.69-.22.19-.06.32-.1.4-.1.09 0 .14.03.19.07.03.04.06.13.06.23 0 .12-.01.26-.03.4l-.09.46-.14.42a.87.87 0 0 1-.2.3c-.09.09-.23.17-.46.25l-.82.23c-.32.07-.68.13-1.07.17l-1.2.07c-.68 0-1.27-.07-1.78-.22-.51-.14-.93-.36-1.27-.65-.33-.29-.59-.66-.77-1.11-.16-.45-.25-.98-.25-1.59a9.18 9.18 0 0 1 .13-1.52 8.98 8.98 0 0 1 .42-1.6c.2-.53.45-1.03.77-1.52.32-.48.68-.91 1.13-1.27a5.88 5.88 0 0 1 1.53-.88c.58-.22 1.24-.33 1.98-.33.65 0 1.2.07 1.66.23.46.14.84.36 1.14.61a2.31 2.31 0 0 1 .66.85c.12.39.2.73.2 1.07zm-2.62.19c0-.29-.12-.52-.33-.71s-.55-.29-.97-.29c-.36 0-.66.06-.94.19-.27.13-.53.3-.74.51a3.35 3.35 0 0 0-.55.77c-.14.29-.27.61-.36.94h.9c.56 0 1.04-.04 1.42-.12s.68-.17.93-.3c.23-.13.4-.27.51-.45.07-.15.13-.34.13-.54zm12.5 7.19c-.01.07-.04.13-.1.19s-.14.1-.25.13c-.12.04-.25.06-.42.07l-.65.03a5.85 5.85 0 0 1-.64-.03c-.17-.01-.3-.04-.39-.07-.1-.03-.16-.07-.19-.13a.21.21 0 0 1-.01-.19l.72-3.71h-3.74l-.74 3.71c-.01.07-.04.13-.1.19s-.13.1-.25.13-.25.06-.42.07l-.65.03a5.48 5.48 0 0 1-.64-.03c-.16-.01-.3-.04-.39-.07-.1-.03-.16-.07-.19-.13s-.03-.12-.03-.19l1.88-9.47c.01-.07.04-.13.1-.19s.13-.1.25-.13.25-.06.42-.07l.65-.03.64.03c.16.01.3.04.39.07.1.03.16.07.19.13s.03.12.03.19l-.71 3.54h3.74l.71-3.53c.01-.07.04-.13.1-.19.04-.06.13-.1.23-.13s.25-.06.42-.07l.65-.03.64.03c.16.01.3.04.39.07.1.03.16.07.19.13s.04.12.03.19l-1.86 9.46zm17.51 0c-.01.07-.04.13-.1.19s-.13.1-.25.13c-.12.04-.26.06-.42.07l-.65.03a5.85 5.85 0 0 1-.64-.03c-.17-.01-.3-.04-.39-.07a.34.34 0 0 1-.19-.13.21.21 0 0 1-.01-.19l1.14-5.68.07-.48c.03-.16.03-.32.03-.48 0-.33-.06-.59-.19-.81-.13-.2-.35-.3-.66-.3-.29 0-.58.1-.88.27s-.59.43-.88.75c-.27.32-.53.68-.74 1.1a4.53 4.53 0 0 0-.46 1.34l-.85 4.28c-.01.07-.04.13-.1.19s-.13.1-.25.13c-.12.04-.26.06-.42.07l-.65.03a5.85 5.85 0 0 1-.64-.03c-.16-.01-.3-.04-.39-.07s-.16-.07-.19-.13-.04-.12-.03-.19l1.13-5.68a3.86 3.86 0 0 0 .09-.51l.03-.51c0-.3-.06-.56-.19-.77-.13-.2-.35-.3-.65-.3-.29 0-.58.1-.88.27-.3.19-.59.43-.88.75-.27.32-.53.68-.74 1.1a4.53 4.53 0 0 0-.46 1.34l-.85 4.28c-.01.07-.04.13-.1.19s-.13.1-.25.13-.25.06-.42.07l-.65.03a5.48 5.48 0 0 1-.64-.03c-.16-.01-.3-.04-.39-.07-.1-.03-.16-.07-.19-.13s-.03-.12-.03-.19l1.89-9.47c.01-.07.04-.13.09-.19.04-.06.12-.1.22-.13s.22-.06.38-.07l.55-.03c.22 0 .39.01.53.03.13.01.25.04.32.07s.13.07.16.13.03.12.01.19l-.3 1.56c.14-.25.35-.49.59-.75a4.68 4.68 0 0 1 .84-.69c.32-.2.65-.38 1.03-.51s.75-.2 1.16-.2c.4 0 .77.06 1.07.16.3.12.55.26.74.46.2.2.35.42.45.68s.16.55.2.85c.16-.25.38-.51.62-.77.25-.25.53-.48.85-.68s.65-.38 1.03-.51.75-.2 1.14-.2c.49 0 .91.07 1.24.2a1.94 1.94 0 0 1 .81.58c.2.25.36.53.45.85.1.33.14.68.14 1.07 0 .25-.01.49-.04.75l-.13.77-1.23 5.89z" stroke-width=".591"/><g class="E"><path d="M67.72 74.07v2.67h.26l2.36-2.67h1.07l-2.63 2.76c1.15.14 1.57.75 1.93 1.55l.76 1.71h-.96c-.25-.42-.45-.95-.62-1.41-.31-.81-.76-1.35-1.93-1.35h-.26v2.76h-.87v-6.01l.89-.01h0zm10.38 2.96c0 2.07-1.44 3.17-3.22 3.17-1.82 0-3.09-1.24-3.09-3.06 0-1.91 1.37-3.17 3.22-3.17 1.85.03 3.09 1.28 3.09 3.06zm-5.37.07c0 1.27.81 2.42 2.21 2.42 1.41 0 2.22-1.15 2.22-2.49 0-1.2-.71-2.45-2.21-2.45-1.48.04-2.22 1.23-2.22 2.52zm11.02-3.03v5.39l.61.02-.06 2.07h-.7l-.06-1.44h-4.35l-.06 1.44h-.7l-.06-2.07.51-.02c.25-.4.51-.85.67-1.32.22-.7.34-1.51.34-2.53v-1.52c-.02-.02 3.86-.02 3.86-.02zm-3.02 1.79c0 .96-.09 1.77-.36 2.45-.14.42-.36.82-.56 1.15h3.06v-4.75h-2.13v1.15h-.01zm10.79-1.79v.65h-2.98v1.62l.85-.05c.65 0 1.3.11 1.8.4.51.3.87.76.87 1.46 0 .56-.22.99-.56 1.3-.56.47-1.51.67-2.45.67-.62 0-1.1-.02-1.4-.06v-6l3.87.01h0zm-2.98 5.42l.75.05c.56 0 1.12-.16 1.46-.45a1.22 1.22 0 0 0 .39-.9c0-.45-.22-.79-.56-.99-.36-.22-.82-.31-1.32-.31l-.71.02v2.58h0 0zm8.25-2.22H94.1v2.17h2.98v.65H93.2v-6.01h3.73v.65H94.1v1.91h2.69c0-.02 0 .63 0 .63zm1.29-2.84a3.7 3.7 0 0 1 1.82-.45c1.2 0 2.02.54 2.02 1.46 0 .75-.61 1.3-1.41 1.46v.02c.96.09 1.68.65 1.68 1.51 0 1.26-1.24 1.76-2.49 1.76-.62 0-1.27-.11-1.82-.4l.22-.61c.39.19.99.36 1.55.36 1.01 0 1.6-.47 1.6-1.15 0-.9-.99-1.16-1.86-1.16h-.4v-.59h.4c.9 0 1.62-.5 1.62-1.1 0-.61-.5-.95-1.24-.95-.51 0-1.06.19-1.44.4l-.25-.56zm11.12 2.6c0 2.07-1.44 3.17-3.22 3.17-1.82 0-3.09-1.24-3.09-3.06 0-1.91 1.37-3.17 3.22-3.17 1.88.03 3.09 1.28 3.09 3.06zm-5.38.07c0 1.27.81 2.42 2.21 2.42 1.41 0 2.22-1.15 2.22-2.49 0-1.2-.71-2.45-2.21-2.45-1.47.04-2.22 1.23-2.22 2.52zm11.53-3.03v6.01h-.9v-5.36h-3.22v5.36h-.89v-6.01h5.01zm2.67 4.14l-.71 1.88h-.92l2.33-6.01h1.07l2.36 6.01h-.95l-.75-1.88h-2.43zm2.25-.61l-.67-1.72c-.16-.4-.25-.75-.36-1.1h-.02c-.09.36-.22.71-.36 1.07l-.67 1.76c-.01-.01 2.08-.01 2.08-.01z"/><use xlink:href="#B"/><path d="M129.83 74.07v2.52h3.34v-2.52h.9v6.01h-.89v-2.81h-3.34v2.81h-.9v-6.01h.89zm11.69 2.96c0 2.07-1.44 3.17-3.22 3.17-1.82 0-3.09-1.24-3.09-3.06 0-1.91 1.37-3.17 3.22-3.17 1.86.03 3.09 1.28 3.09 3.06zm-5.36.07c0 1.27.81 2.42 2.21 2.42 1.41 0 2.22-1.15 2.22-2.49 0-1.2-.71-2.45-2.21-2.45-1.47.04-2.22 1.23-2.22 2.52z"/><use xlink:href="#B" x="19.66"/><path d="M150.28 74.73h-2.11v-.65h5.13v.65h-2.11v5.36h-.9c-.01.01-.01-5.36-.01-5.36zm4.62-.66v2.53l-.06 2.53h.02l1.27-2 2.25-3.09h.9v6.01h-.85v-2.56l.09-2.45h-.02c-.34.65-.81 1.35-1.27 2.02l-2.16 2.98h-.95v-6h.78v.03zM35.03 65.25c1.68-3.03 5.16-5.03 8.65-4.8 1.06.22 1.41 1.72.61 2.42-1.35.47-2.83.42-4.09 1.1-2.86 1.44-4.4 5.05-3.29 8.08.42 1.51 1.57 2.67 2.76 3.62 1.2.76.85 2.33 1.06 3.53-2.25-.75-4.32-2.16-5.53-4.19-1.8-2.88-1.87-6.79-.17-9.76zm11.02-4.55c1.4.7 2.81 1.41 3.95 2.56 1.2 1.24 1.91 2.56 2.58 3.99l-2.94.11c-.9-1.68-2.28-3.03-4.04-3.82.25-.93.39-1.89.45-2.84zm1.05 8.93c3.48-1.82 8.03-1.21 10.87 1.48 2 1.88 3.26 4.69 2.97 7.46-.19 1.15-2.13 1.37-2.49.2-.39-1.44-.4-3.06-1.3-4.32-1.68-2.67-5.33-3.84-8.22-2.61-1.41.51-2.38 1.68-3.32 2.78-.79 1.03-2.27.65-3.39.79.95-2.36 2.51-4.61 4.88-5.78zm-21.14 5.73c1.1-3.03 3.51-5.45 6.59-6.49l.09 2.92c-1.68.92-3.08 2.31-3.87 4.09l-2.81-.52zm11.91-6.51a13.34 13.34 0 0 1 4.68 3.01l-1.4 2.86a14.24 14.24 0 0 0-2.97-2.78c-.19-1.02-.28-2.06-.31-3.09zm11.76 4.2c.9-.45 1.97-.3 2.94-.39-.65 1.76-1.68 3.32-2.98 4.64l-2.89-1.35c1.06-.87 1.93-1.94 2.93-2.9zM25.69 78.1c-.09-1.86 2.16-1.88 2.49-.79.45 1.52.42 3.28 1.41 4.6 1.77 2.72 5.59 3.77 8.51 2.31 1.46-.62 2.28-2.02 3.39-3.08.92-.42 1.97-.26 2.97-.34-1.27 3.82-4.85 6.82-8.96 6.85-5.23.33-10-4.23-9.81-9.55zm16.82-1.07c.81-.75 2.31.02 2.17 1.12.16 1.1-1.44 1.91-2.22 1.1-.69-.5-.68-1.81.05-2.22zm3.65 2.11a1.23 1.23 0 0 1 1.82-1.2c1.52.9 2.87 2.08 3.71 3.68 1.65 2.89 1.6 6.66-.14 9.52-1.71 2.89-5 4.83-8.45 4.63-.3-.02-.71-.3-.76-.34-.39-.26-.36-1.21-.19-1.6.22-.47.59-.71 1.03-.75 3.17-.11 6.2-2.33 6.76-5.53.7-2.86-.92-5.65-3.23-7.22a1.29 1.29 0 0 1-.5-.82 1.64 1.64 0 0 0-.05-.37zm-12.1 4.46c.7-1.76 1.71-3.34 3.06-4.64l2.83 1.37c-.9.75-1.71 1.57-2.45 2.45-.76 1.1-2.29.69-3.44.82zm23.88-3.19l2.81.47c-.7 1.46-1.37 2.97-2.56 4.09-1.1 1.1-2.56 1.77-3.95 2.42l-.14-2.92c1.68-.89 3.05-2.29 3.84-4.06zm-12.4 1.12c.85 1.1 1.96 1.93 2.89 2.92.39.9.25 1.96.31 2.92-1.76-.65-3.32-1.68-4.6-3.03l1.4-2.81zm-11.48 7.5l2.89-.14c.92 1.68 2.31 3.03 4.07 3.84-.19.92-.31 1.86-.4 2.81-3.05-1.06-5.45-3.48-6.56-6.51z"/></g><g class="B"><use xlink:href="#C"/><use xlink:href="#D"/><use xlink:href="#E"/><use xlink:href="#F"/><use xlink:href="#F" x="28.42"/><use xlink:href="#G"/><use xlink:href="#H"/><use xlink:href="#I"/><use xlink:href="#I" x="2.34"/><use xlink:href="#I" x="4.68"/><use xlink:href="#I" x="7.03"/><use xlink:href="#I" x="9.37"/><use xlink:href="#I" x="11.71"/><use xlink:href="#I" x="14.06"/><use xlink:href="#I" x="16.4"/><path d="M485.64 92.7h-40.46a.2.2 0 0 1-.2-.2V60.92a.2.2 0 0 1 .2-.2h40.46a.2.2 0 0 1 .2.2V92.5a.2.2 0 0 1-.2.2z"/><path d="M484.76 91.81h-38.68a.2.2 0 0 1-.2-.2v-29.8a.2.2 0 0 1 .2-.2h38.68a.2.2 0 0 1 .2.2v29.8c-.01.11-.1.2-.2.2z"/><use xlink:href="#E" x="45.5"/><path d="M454.12 68.28h-5.82a.2.2 0 0 1-.2-.2v-2.27a.2.2 0 0 1 .2-.2h5.82a.2.2 0 0 1 .2.2v2.27c-.01.11-.09.2-.2.2z"/><use xlink:href="#F" x="73.92"/><path d="M450.21 81.65h-1.22v-4.88h1.22c.3 0 .55.25.55.55v3.78a.55.55 0 0 1-.55.55zm30.41 0h1.22v-4.88h-1.22c-.3 0-.55.25-.55.55v3.78a.54.54 0 0 0 .55.55z"/><use xlink:href="#I" x="45.5"/><use xlink:href="#I" x="47.85"/><use xlink:href="#I" x="50.19"/><use xlink:href="#I" x="52.53"/><use xlink:href="#I" x="54.88"/><use xlink:href="#I" x="57.22"/><use xlink:href="#I" x="59.56"/><use xlink:href="#I" x="61.91"/><use xlink:href="#C" x="91.01"/><use xlink:href="#D" x="91.01"/><use xlink:href="#E" x="91.01"/><use xlink:href="#F" x="91.01"/><use xlink:href="#F" x="119.43"/><use xlink:href="#G" x="91.01"/><use xlink:href="#H" x="91.01"/><use xlink:href="#J"/><use xlink:href="#J" x="2.34"/><use xlink:href="#J" x="4.68"/><use xlink:href="#J" x="7.03"/><use xlink:href="#J" x="9.37"/><use xlink:href="#J" x="11.71"/><use xlink:href="#J" x="14.06"/><use xlink:href="#J" x="16.4"/></g></g><circle cx="205.48" cy="37.82" r="3.95" class="B"/><circle cx="205.48" cy="37.82" r="3.33" class="B"/><circle cx="193.12" cy="37.82" r="3.95" class="B"/><circle cx="193.12" cy="37.82" r="3.33" class="B"/><g stroke-width="1.231"><circle cx="147.53" cy="37.82" r="6.48"/><circle cx="147.53" cy="37.82" r="5.46"/><circle cx="167.81" cy="37.82" r="6.48"/><circle cx="167.81" cy="37.82" r="5.46"/></g><g stroke-width="1.547"><circle cx="264.5" cy="84.78" r="6.86"/><circle cx="292.42" cy="84.78" r="6.86"/><circle cx="320.35" cy="84.78" r="6.86"/></g><g class="D"><path d="M419.21 75.31l11.8-58.8h25.09m8.19 58.8l11.8-58.8h25.09m8.61 58.8l11.8-58.8h25.09" class="C"/><g class="B"><path d="M576.56 92.7H536.1a.2.2 0 0 1-.2-.2V60.92a.2.2 0 0 1 .2-.2h40.46a.2.2 0 0 1 .2.2V92.5c-.01.11-.09.2-.2.2z"/><use xlink:href="#D" x="136.42"/><use xlink:href="#E" x="136.42"/><use xlink:href="#F" x="136.42"/><use xlink:href="#F" x="164.84"/><use xlink:href="#G" x="136.42"/><use xlink:href="#H" x="136.42"/><use xlink:href="#J" x="45.41"/><use xlink:href="#J" x="47.75"/><use xlink:href="#J" x="50.09"/><use xlink:href="#J" x="52.44"/><use xlink:href="#J" x="54.78"/><use xlink:href="#J" x="57.12"/><use xlink:href="#J" x="59.47"/><use xlink:href="#J" x="61.81"/></g><path d="M555.2 75.31l11.8-58.8h25.09" class="C"/><g class="B"><use xlink:href="#C" x="182.73"/><path d="M621.98 91.81H583.3a.2.2 0 0 1-.2-.2v-29.8a.2.2 0 0 1 .2-.2h38.68a.2.2 0 0 1 .2.2v29.8a.2.2 0 0 1-.2.2z"/><use xlink:href="#E" x="182.73"/><use xlink:href="#F" x="182.73"/><use xlink:href="#F" x="211.15"/><use xlink:href="#G" x="182.73"/><use xlink:href="#H" x="182.73"/><use xlink:href="#J" x="91.72"/><use xlink:href="#J" x="94.06"/><use xlink:href="#J" x="96.4"/><use xlink:href="#J" x="98.75"/><use xlink:href="#J" x="101.09"/><use xlink:href="#J" x="103.43"/><use xlink:href="#J" x="105.78"/><use xlink:href="#J" x="108.12"/></g><path d="M601.51 75.31l11.8-58.8h25.09" class="C"/><g class="B"><use xlink:href="#C" x="228.14"/><use xlink:href="#D" x="228.14"/><use xlink:href="#E" x="228.14"/><use xlink:href="#F" x="228.14"/><use xlink:href="#F" x="256.56"/><use xlink:href="#G" x="228.14"/><use xlink:href="#H" x="228.14"/><use xlink:href="#J" x="137.13"/><use xlink:href="#J" x="139.47"/><use xlink:href="#J" x="141.81"/><use xlink:href="#J" x="144.16"/><use xlink:href="#J" x="146.5"/><use xlink:href="#J" x="148.84"/><use xlink:href="#J" x="151.19"/><use xlink:href="#J" x="153.53"/></g><path d="M646.92 75.31l11.8-58.8h25.09" class="C"/><g stroke-width=".811"><path d="M361.58 71.32V57.9c0-.09.07-.15.15-.15h28c.09 0 .15.07.15.15v13.41c0 .09-.07.15-.15.15h-28c-.08.01-.15-.06-.15-.14z"/><path d="M361.96 70.54V58.68a.4.4 0 0 1 .4-.4h26.75a.4.4 0 0 1 .4.4v11.86a.4.4 0 0 1-.4.4h-26.75a.4.4 0 0 1-.4-.4z"/><path d="M364.03 60.57h23.41v4.39h-23.41z"/><use xlink:href="#K"/><use xlink:href="#K" x="-5.34"/><use xlink:href="#K" x="-10.69"/><use xlink:href="#K" x="-16.04"/><path d="M377.61 70.31h7.03v.61h-7.03zm-10.94 0h7.03v.61h-7.03zm-5.09 23.45V80.35c0-.09.07-.15.15-.15h28c.09 0 .15.07.15.15v13.41c0 .09-.07.15-.15.15h-28c-.08.01-.15-.06-.15-.15z"/><path d="M361.96 92.98V81.13a.4.4 0 0 1 .4-.4h26.75a.4.4 0 0 1 .4.4v11.86a.4.4 0 0 1-.4.4h-26.75c-.22-.01-.4-.19-.4-.41z"/><path d="M364.03 83.02h23.41v4.39h-23.41z"/><use xlink:href="#K" y="22.44"/><use xlink:href="#K" x="-5.34" y="22.44"/><use xlink:href="#K" x="-10.69" y="22.44"/><use xlink:href="#K" x="-16.04" y="22.44"/><path d="M377.6 92.75h7.03v.61h-7.03zm-10.94 0h7.03v.61h-7.03z"/></g><g stroke-width=".848"><use xlink:href="#L"/><use xlink:href="#L" x="1.82"/><use xlink:href="#L" x="3.65"/><use xlink:href="#L" x="5.48"/><use xlink:href="#L" x="7.3"/><use xlink:href="#L" x="9.13"/><use xlink:href="#L" x="10.96"/><use xlink:href="#L" x="12.78"/><use xlink:href="#L" x="14.61"/><use xlink:href="#L" x="16.44"/><path d="M752.75 80.86h16.3v1.74h-16.3z"/><path d="M753.12 80.88h15.55l-.18.56c-.14.44-.65.74-1.23.74h-12.74c-.58 0-1.09-.31-1.23-.74l-.17-.56z"/><path d="M740.5 52.93h42.83v29.16H740.5z"/><path d="M783.56 83.72h-43.39a1.25 1.25 0 0 1-1.25-1.25V52.19a1.25 1.25 0 0 1 1.25-1.25h43.39a1.25 1.25 0 0 1 1.25 1.25v30.27c0 .7-.56 1.26-1.25 1.26z"/><use xlink:href="#L" x="-51.92" y="-0.18"/><use xlink:href="#L" x="-50.1" y="-0.18"/><use xlink:href="#L" x="-48.27" y="-0.18"/><use xlink:href="#L" x="-46.44" y="-0.18"/><use xlink:href="#L" x="-44.62" y="-0.18"/><use xlink:href="#L" x="-42.79" y="-0.18"/><use xlink:href="#L" x="-40.96" y="-0.18"/><use xlink:href="#L" x="-39.13" y="-0.18"/><use xlink:href="#L" x="-37.3" y="-0.18"/><use xlink:href="#L" x="-35.47" y="-0.18"/><path d="M700.83 80.68h16.3v1.74h-16.3z"/><path d="M701.21 80.7h15.55l-.18.56c-.14.44-.65.74-1.23.74h-12.74c-.58 0-1.09-.31-1.23-.74l-.17-.56z"/><path d="M688.58 52.76h42.83v29.16h-42.83z"/><path d="M731.65 83.54h-43.39a1.25 1.25 0 0 1-1.25-1.25V52.02a1.25 1.25 0 0 1 1.25-1.25h43.39a1.25 1.25 0 0 1 1.25 1.25v30.27c-.01.69-.57 1.25-1.25 1.25z"/></g><path d="M709.9 64.76l11.8-49.55h25.09m15.02 49.55l11.8-49.55h25.09"/><path d="M328.47 70.54H244.7c-2.67 0-4.85-2.18-4.85-4.85V39.83c0-2.67 2.18-4.85 4.85-4.85h83.77c2.67 0 4.85 2.18 4.85 4.85v25.86c0 2.66-2.19 4.85-4.85 4.85z" class="E"/></g></g><use xlink:href="#M"/><path d="M784.49 6.82c0 .14-.02.24-.06.3s-.08.09-.14.09h-.76c.14.14.23.3.29.47s.08.35.08.53c0 .3-.05.57-.15.81s-.24.43-.42.59a1.81 1.81 0 0 1-.65.37c-.25.08-.53.13-.83.13-.21 0-.42-.03-.61-.08a1.35 1.35 0 0 1-.45-.21c-.07.07-.13.15-.17.24s-.07.19-.07.31c0 .14.06.25.19.34s.3.14.51.15l1.38.06c.26.01.5.04.72.11s.41.16.57.28a1.33 1.33 0 0 1 .38.44c.09.17.13.38.13.61a1.65 1.65 0 0 1-.15.69c-.1.22-.26.41-.47.58s-.48.3-.8.39-.71.14-1.15.14a4.82 4.82 0 0 1-1.09-.11c-.3-.07-.54-.17-.74-.3s-.33-.27-.42-.45-.13-.36-.13-.57a1.65 1.65 0 0 1 .05-.38 1.35 1.35 0 0 1 .14-.35c.06-.11.14-.21.24-.31l.33-.3c-.19-.1-.33-.22-.42-.37s-.14-.31-.14-.48c0-.24.05-.45.15-.64s.22-.36.36-.5c-.12-.14-.22-.31-.29-.49a1.82 1.82 0 0 1-.11-.66c0-.3.05-.57.15-.81s.24-.44.42-.6a1.99 1.99 0 0 1 .65-.38c.25-.09.53-.13.82-.13.16 0 .31.01.45.03l.39.07h1.59c.07 0 .12.03.15.1s.08.15.08.29zm-1.03 5.56a.57.57 0 0 0-.28-.52c-.19-.12-.44-.19-.75-.2l-1.37-.05a2.22 2.22 0 0 0-.31.28 1.84 1.84 0 0 0-.19.25.82.82 0 0 0-.1.24c-.02.08-.03.16-.03.24 0 .25.13.45.39.58s.62.2 1.08.2a3.1 3.1 0 0 0 .74-.08c.2-.05.36-.13.48-.23s.21-.2.26-.32.08-.25.08-.39zm-.48-4.18c0-.36-.1-.64-.3-.84s-.48-.3-.84-.3c-.19 0-.35.03-.49.09s-.25.15-.35.26a1.09 1.09 0 0 0-.21.38c-.05.14-.07.29-.07.45 0 .35.1.62.3.82s.47.3.83.3c.19 0 .36-.03.5-.09s.26-.14.35-.25.16-.23.21-.37.07-.29.07-.45z"/><use xlink:href="#N"/><path d="M796.8 8.19a8.63 8.63 0 0 1-.14 1.59c-.09.48-.24.89-.46 1.24s-.49.61-.83.8-.77.28-1.27.28c-.48 0-.88-.08-1.2-.25s-.59-.42-.79-.75-.34-.74-.42-1.22a10.17 10.17 0 0 1-.13-1.66 8.63 8.63 0 0 1 .14-1.59c.09-.48.25-.9.46-1.24a2.27 2.27 0 0 1 .83-.8c.34-.19.77-.28 1.27-.28.48 0 .88.08 1.21.25s.59.42.79.75.34.74.42 1.22.12 1.03.12 1.66zm-1.03.07l-.04-1.02a7.21 7.21 0 0 0-.12-.8 2.14 2.14 0 0 0-.21-.59c-.09-.16-.18-.3-.3-.41s-.25-.19-.4-.23-.32-.07-.51-.07c-.33 0-.6.08-.81.23s-.37.37-.49.64-.2.59-.24.96a10.95 10.95 0 0 0-.06 1.18 9.69 9.69 0 0 0 .09 1.44c.06.39.15.72.28.97s.29.43.49.54.44.17.72.17a1.5 1.5 0 0 0 .58-.11 1.19 1.19 0 0 0 .43-.3 1.72 1.72 0 0 0 .3-.47 3.36 3.36 0 0 0 .19-.61 5 5 0 0 0 .1-.72c.02-.26 0-.52 0-.8zm-69.9-3.97c0 .23-.04.38-.13.46s-.24.12-.47.12-.38-.04-.47-.12-.13-.23-.13-.45c0-.23.04-.38.13-.46s.24-.12.47-.12.38.04.47.12.13.23.13.45zm-.11 7.05c0 .03-.01.06-.02.08s-.04.04-.08.06-.08.03-.15.04-.14.01-.24.01c-.09 0-.17 0-.23-.01a.54.54 0 0 1-.15-.04c-.04-.02-.06-.03-.08-.06s-.02-.05-.02-.08V6.07c0-.03.01-.05.02-.08s.04-.04.08-.06a.54.54 0 0 1 .15-.04c.06-.01.14-.01.23-.01l.24.01a.54.54 0 0 1 .15.04c.04.02.06.04.08.06s.02.05.02.08v5.27zm6.19-5.03c0 .14-.02.24-.06.3s-.08.09-.14.09H731c.14.14.23.3.29.47s.08.35.08.53c0 .3-.05.57-.15.81s-.24.43-.42.59a1.81 1.81 0 0 1-.65.37c-.25.08-.53.13-.83.13-.21 0-.42-.03-.61-.08a1.35 1.35 0 0 1-.45-.21c-.07.07-.13.15-.17.24s-.07.19-.07.31c0 .14.06.25.19.34s.3.14.51.15l1.38.06c.26.01.5.04.72.11s.41.16.57.28a1.33 1.33 0 0 1 .38.44c.09.17.13.38.13.61a1.65 1.65 0 0 1-.15.69c-.1.22-.26.41-.47.58s-.48.3-.8.39-.71.14-1.15.14a4.82 4.82 0 0 1-1.09-.11c-.3-.07-.54-.17-.74-.3s-.33-.27-.42-.45-.13-.36-.13-.57a1.65 1.65 0 0 1 .05-.38 1.35 1.35 0 0 1 .14-.35c.06-.11.14-.21.24-.31l.33-.3c-.19-.1-.33-.22-.42-.37s-.14-.31-.14-.48c0-.24.05-.45.15-.64s.22-.36.36-.5c-.12-.14-.22-.31-.29-.49a1.82 1.82 0 0 1-.11-.66c0-.3.05-.57.15-.81s.24-.44.42-.6a1.99 1.99 0 0 1 .65-.38c.25-.09.53-.13.82-.13.16 0 .31.01.45.03l.39.07h1.59c.07 0 .12.03.15.1s.07.16.07.29zm-1.02 5.57a.57.57 0 0 0-.28-.52c-.19-.12-.44-.19-.75-.2l-1.37-.05a2.22 2.22 0 0 0-.31.28 1.84 1.84 0 0 0-.19.25.82.82 0 0 0-.1.24c-.02.08-.03.16-.03.24 0 .25.13.45.39.58s.62.2 1.08.2a3.1 3.1 0 0 0 .74-.08c.2-.05.36-.13.48-.23s.21-.2.26-.32.08-.26.08-.39zm-.49-4.18c0-.36-.1-.64-.3-.84s-.48-.3-.84-.3c-.19 0-.35.03-.49.09s-.25.15-.35.26a1.09 1.09 0 0 0-.21.38c-.05.14-.07.29-.07.45 0 .35.1.62.3.82s.47.3.83.3c.19 0 .36-.03.5-.09s.26-.14.35-.25.16-.23.21-.37a1.41 1.41 0 0 0 .07-.45zm7.61.94c0 .46-.05.87-.15 1.23s-.25.68-.44.93-.43.46-.71.59a2.27 2.27 0 0 1-.97.21c-.17 0-.32-.02-.47-.05s-.28-.09-.42-.16a2.49 2.49 0 0 1-.41-.28c-.14-.11-.28-.25-.43-.41v.64c0 .03-.01.06-.02.08s-.04.04-.08.06-.08.02-.13.03-.12.01-.2.01-.14 0-.2-.01-.1-.02-.13-.03-.06-.03-.07-.06-.02-.05-.02-.08V3.52c0-.03.01-.06.02-.08s.04-.04.08-.06a.54.54 0 0 1 .15-.04c.06-.01.14-.01.23-.01l.24.01a.54.54 0 0 1 .15.04c.04.02.06.04.08.06s.02.05.02.08v3.16c.16-.16.31-.29.45-.4a2.54 2.54 0 0 1 .43-.27c.14-.07.28-.12.42-.15a2.14 2.14 0 0 1 .45-.05c.38 0 .71.08.98.23a1.93 1.93 0 0 1 .66.61c.17.25.29.56.37.9a4.73 4.73 0 0 1 .12 1.09zm-1.01.11c0-.27-.02-.53-.06-.79-.04-.25-.11-.48-.22-.67a1.25 1.25 0 0 0-.41-.47c-.17-.12-.38-.18-.63-.18a1.5 1.5 0 0 0-.37.05c-.12.04-.25.09-.37.18s-.26.19-.39.32c-.14.13-.28.29-.43.49v2.1c.27.32.52.57.77.74.24.17.5.25.76.25.24 0 .45-.06.62-.18a1.37 1.37 0 0 0 .42-.47c.11-.2.19-.41.24-.65.05-.23.07-.48.07-.72zm6.99 2.34c0 .07-.01.14-.02.19s-.03.09-.05.12-.04.05-.07.07-.05.02-.08.02h-3.96c-.03 0-.05-.01-.08-.02s-.05-.04-.07-.07-.04-.07-.05-.12a.92.92 0 0 1-.02-.19c0-.07.01-.13.02-.18s.03-.09.04-.13.04-.06.06-.08.05-.03.08-.03h1.58V4.92l-1.46.87c-.07.04-.13.06-.18.07s-.08 0-.11-.03-.05-.07-.06-.13-.01-.13-.01-.22c0-.07 0-.12.01-.17s.01-.09.03-.12.03-.06.05-.08.05-.05.08-.07l1.75-1.12.06-.03a.2.2 0 0 1 .09-.02c.04 0 .08-.01.12-.01h.18l.23.01.15.03c.04.01.06.03.07.05s.02.04.02.07v6.66h1.37c.03 0 .06.01.09.03s.05.04.07.08.03.08.04.13.03.1.03.17z"/><use xlink:href="#O"/><path d="M442.17 6.82c0 .14-.02.24-.06.3s-.08.09-.14.09h-.76c.14.14.23.3.29.47s.08.35.08.53c0 .3-.05.57-.15.81s-.24.43-.42.59a1.81 1.81 0 0 1-.65.37c-.25.08-.53.13-.83.13-.21 0-.42-.03-.61-.08a1.35 1.35 0 0 1-.45-.21c-.07.07-.13.15-.17.24s-.07.19-.07.31c0 .14.06.25.19.34s.3.14.51.15l1.38.06c.26.01.5.04.72.11s.41.16.57.28a1.33 1.33 0 0 1 .38.44c.09.17.13.38.13.61a1.65 1.65 0 0 1-.15.69c-.1.22-.26.41-.47.58s-.48.3-.8.39-.71.14-1.15.14a4.82 4.82 0 0 1-1.09-.11c-.3-.07-.54-.17-.74-.3s-.33-.27-.42-.45-.13-.36-.13-.57a1.65 1.65 0 0 1 .05-.38 1.35 1.35 0 0 1 .14-.35c.06-.11.14-.21.24-.31l.33-.3c-.19-.1-.33-.22-.42-.37s-.14-.31-.14-.48c0-.24.05-.45.15-.64s.22-.36.36-.5c-.12-.14-.22-.31-.29-.49a1.82 1.82 0 0 1-.11-.66c0-.3.05-.57.15-.81s.24-.44.42-.6a1.99 1.99 0 0 1 .65-.38c.25-.09.53-.13.82-.13.16 0 .31.01.45.03l.39.07h1.59c.07 0 .12.03.15.1s.08.15.08.29zm-1.02 5.56a.57.57 0 0 0-.28-.52c-.19-.12-.44-.19-.75-.2l-1.37-.05a2.22 2.22 0 0 0-.31.28 1.84 1.84 0 0 0-.19.25.82.82 0 0 0-.1.24c-.02.08-.03.16-.03.24 0 .25.13.45.39.58s.62.2 1.08.2a3.1 3.1 0 0 0 .74-.08c.2-.05.36-.13.48-.23s.21-.2.26-.32.08-.25.08-.39zm-.49-4.18c0-.36-.1-.64-.3-.84s-.48-.3-.84-.3c-.19 0-.35.03-.49.09s-.25.15-.35.26a1.09 1.09 0 0 0-.21.38c-.05.14-.07.29-.07.45 0 .35.1.62.3.82s.47.3.83.3c.19 0 .36-.03.5-.09s.26-.14.35-.25.16-.23.21-.37.07-.29.07-.45z"/><use xlink:href="#P"/><path d="M454.35 4.85c0 .07 0 .13-.01.19l-.02.16c-.01.05-.02.1-.04.15l-.06.16-2.73 6.29c-.02.05-.04.08-.07.11s-.07.05-.11.07-.1.03-.17.04-.16.01-.26.01a2.28 2.28 0 0 1-.31-.02c-.07-.01-.13-.03-.16-.06s-.05-.06-.04-.09.02-.08.04-.13l2.87-6.43h-3.64c-.07 0-.13-.04-.17-.12s-.06-.19-.06-.33c0-.07 0-.14.01-.19s.02-.1.04-.14.04-.06.07-.08.06-.03.09-.03h4.42a.59.59 0 0 1 .14.02c.04.01.07.04.09.07s.04.08.05.13.03.13.03.22z"/><use xlink:href="#O" x="45.5"/><path d="M487.67 6.82c0 .14-.02.24-.06.3s-.08.09-.14.09h-.76c.14.14.23.3.29.47s.08.35.08.53c0 .3-.05.57-.15.81s-.24.43-.42.59a1.81 1.81 0 0 1-.65.37c-.25.08-.53.13-.83.13-.21 0-.42-.03-.61-.08a1.35 1.35 0 0 1-.45-.21c-.07.07-.13.15-.17.24s-.07.19-.07.31c0 .14.06.25.19.34s.3.14.51.15l1.38.06c.26.01.5.04.72.11s.41.16.57.28a1.33 1.33 0 0 1 .38.44c.09.17.13.38.13.61a1.65 1.65 0 0 1-.15.69c-.1.22-.26.41-.47.58s-.48.3-.8.39-.71.14-1.15.14a4.82 4.82 0 0 1-1.09-.11c-.3-.07-.54-.17-.74-.3s-.33-.27-.42-.45-.13-.36-.13-.57a1.65 1.65 0 0 1 .05-.38 1.35 1.35 0 0 1 .14-.35c.06-.11.14-.21.24-.31l.33-.3c-.19-.1-.33-.22-.42-.37s-.14-.31-.14-.48c0-.24.05-.45.15-.64s.22-.36.36-.5c-.12-.14-.22-.31-.29-.49s-.08-.41-.08-.66c0-.3.05-.57.15-.81s.24-.44.42-.6a1.99 1.99 0 0 1 .65-.38c.25-.09.53-.13.82-.13.16 0 .31.01.45.03l.39.07h1.59c.07 0 .12.03.15.1s.05.15.05.29zm-1.02 5.56a.57.57 0 0 0-.28-.52c-.19-.12-.44-.19-.75-.2l-1.37-.05a2.22 2.22 0 0 0-.31.28 1.84 1.84 0 0 0-.19.25.82.82 0 0 0-.1.24c-.02.08-.03.16-.03.24 0 .25.13.45.39.58s.62.2 1.08.2a3.1 3.1 0 0 0 .74-.08c.2-.05.36-.13.48-.23s.21-.2.26-.32.08-.25.08-.39zm-.49-4.18c0-.36-.1-.64-.3-.84s-.48-.3-.84-.3c-.19 0-.35.03-.49.09s-.25.15-.35.26a1.09 1.09 0 0 0-.21.38c-.05.14-.07.29-.07.45 0 .35.1.62.3.82s.47.3.83.3c.19 0 .36-.03.5-.09s.26-.14.35-.25.16-.23.21-.37.07-.29.07-.45z"/><use xlink:href="#P" x="45.5"/><path d="M499.93 9.54a3.11 3.11 0 0 1-.15.96 2.31 2.31 0 0 1-.47.82 2.24 2.24 0 0 1-.8.57c-.32.14-.71.21-1.15.21a2.66 2.66 0 0 1-.84-.12c-.24-.08-.45-.19-.63-.33s-.33-.32-.45-.53a3.38 3.38 0 0 1-.29-.72c-.08-.27-.12-.56-.16-.88s-.05-.66-.05-1.03c0-.32.02-.65.05-.98a5.1 5.1 0 0 1 .19-.96c.09-.31.21-.6.37-.87s.35-.51.58-.71a2.7 2.7 0 0 1 .83-.48c.32-.12.7-.18 1.13-.18.14 0 .29.01.44.03l.41.07c.12.03.23.06.32.1l.17.08c.03.02.05.04.06.07l.03.08c.01.03.01.06.02.1s.01.08.01.14v.18c0 .05-.01.09-.02.12s-.03.05-.05.07-.05.02-.08.02c-.04 0-.1-.01-.18-.04l-.27-.09-.38-.09c-.15-.03-.33-.04-.52-.04-.36 0-.68.07-.94.22a1.84 1.84 0 0 0-.64.6c-.16.25-.29.54-.37.87a4.92 4.92 0 0 0-.14 1.03c.1-.06.22-.12.34-.18a3.36 3.36 0 0 1 .42-.16c.15-.05.31-.08.48-.11s.35-.04.54-.04c.41 0 .76.06 1.04.17s.51.27.68.46c.17.2.3.43.37.7a3.46 3.46 0 0 1 .1.87zm-1.02.09c0-.23-.02-.43-.07-.62a1.15 1.15 0 0 0-.23-.47c-.11-.13-.25-.23-.42-.3s-.39-.11-.65-.11c-.14 0-.29.01-.43.04l-.42.11-.39.16c-.13.06-.24.13-.34.2 0 .5.03.93.1 1.27s.16.61.28.82.28.35.46.44.4.13.64.13a1.45 1.45 0 0 0 .65-.14c.18-.09.34-.22.46-.38a1.77 1.77 0 0 0 .27-.53c.06-.19.09-.41.09-.62z"/><use xlink:href="#M" x="-252.35"/><path d="M532.14 6.82c0 .14-.02.24-.06.3s-.08.08-.14.08h-.76c.14.14.23.3.29.47s.08.35.08.53c0 .3-.05.57-.15.81s-.24.43-.42.59a1.81 1.81 0 0 1-.65.37c-.25.08-.53.13-.83.13-.21 0-.42-.03-.61-.08a1.35 1.35 0 0 1-.45-.21c-.07.07-.13.15-.17.24s-.07.19-.07.31c0 .14.06.25.19.34s.3.14.51.15l1.38.06c.26.01.5.04.72.11s.41.16.57.28a1.33 1.33 0 0 1 .38.44c.09.17.13.38.13.61a1.65 1.65 0 0 1-.15.69c-.1.22-.26.41-.47.58s-.48.3-.8.39-.71.14-1.15.14a4.82 4.82 0 0 1-1.09-.11c-.3-.07-.54-.17-.74-.3s-.33-.27-.42-.45-.13-.36-.13-.57a1.65 1.65 0 0 1 .05-.38 1.35 1.35 0 0 1 .14-.35c.06-.11.14-.21.24-.31l.33-.3c-.19-.1-.33-.22-.42-.37s-.14-.31-.14-.48c0-.24.05-.45.15-.64s.22-.36.36-.5c-.12-.14-.22-.31-.29-.49a1.82 1.82 0 0 1-.11-.66c0-.3.05-.57.15-.81s.24-.44.42-.6a1.99 1.99 0 0 1 .65-.38c.25-.09.53-.13.82-.13.16 0 .31.01.45.03l.39.07h1.59c.07 0 .12.03.15.1s.08.16.08.3zm-1.03 5.56a.57.57 0 0 0-.28-.52c-.19-.12-.44-.19-.75-.2l-1.37-.05a2.22 2.22 0 0 0-.31.28 1.84 1.84 0 0 0-.19.25.82.82 0 0 0-.1.24c-.02.08-.03.16-.03.24 0 .25.13.45.39.58s.62.2 1.08.2a3.1 3.1 0 0 0 .74-.08c.2-.05.36-.13.48-.23s.21-.2.26-.32.08-.25.08-.39zm-.48-4.18c0-.36-.1-.64-.3-.84s-.48-.3-.84-.3c-.19 0-.35.03-.49.09s-.25.15-.35.26a1.09 1.09 0 0 0-.21.38c-.05.14-.07.29-.07.45 0 .35.1.62.3.82s.47.3.83.3c.19 0 .36-.03.5-.09s.26-.14.35-.25.16-.23.21-.37.07-.29.07-.45z"/><use xlink:href="#N" x="-252.35"/><path d="M544.17 9.56c0 .41-.07.77-.21 1.08a2.32 2.32 0 0 1-.58.8 2.67 2.67 0 0 1-.89.5c-.34.12-.73.17-1.15.17-.23 0-.46-.02-.67-.05s-.4-.07-.56-.12l-.4-.14c-.1-.04-.17-.08-.2-.11s-.05-.05-.06-.08l-.03-.08c-.01-.03-.02-.08-.02-.13s-.01-.11-.01-.18 0-.13.01-.18l.03-.13c.01-.03.03-.06.06-.07s.05-.02.07-.02c.04 0 .1.02.18.07s.19.1.33.16.31.11.52.16.45.08.73.08a2.73 2.73 0 0 0 .72-.09c.22-.06.41-.16.57-.29s.28-.3.37-.5.13-.45.13-.74c0-.24-.04-.46-.11-.64a1.05 1.05 0 0 0-.35-.46c-.16-.12-.36-.21-.6-.28s-.53-.09-.87-.09c-.24 0-.44.01-.62.04a2.82 2.82 0 0 1-.48.04c-.11 0-.19-.03-.23-.08s-.07-.15-.07-.29V4.79c0-.13.03-.22.09-.29s.15-.09.26-.09h3.36c.03 0 .06.01.09.03s.05.04.07.08.03.08.04.13a1.09 1.09 0 0 1 .01.19c0 .14-.02.25-.06.33s-.09.12-.16.12h-2.71v2.13c.13-.02.27-.03.4-.04l.48-.01c.42 0 .78.05 1.09.16s.57.25.78.44.37.42.47.69.18.57.18.9z"/><use xlink:href="#O" x="136.42"/><path d="M578.6 6.82c0 .14-.02.24-.06.3s-.08.09-.14.09h-.76c.14.14.23.3.29.47s.08.35.08.53c0 .3-.05.57-.15.81s-.24.43-.42.59a1.81 1.81 0 0 1-.65.37c-.25.08-.53.13-.83.13-.21 0-.42-.03-.61-.08a1.35 1.35 0 0 1-.45-.21c-.07.07-.13.15-.17.24s-.07.19-.07.31c0 .14.06.25.19.34s.3.14.51.15l1.38.06c.26.01.5.04.72.11s.41.16.57.28a1.33 1.33 0 0 1 .38.44c.09.17.13.38.13.61a1.65 1.65 0 0 1-.15.69c-.1.22-.26.41-.47.58s-.48.3-.8.39-.71.14-1.15.14a4.82 4.82 0 0 1-1.09-.11c-.3-.07-.54-.17-.74-.3s-.33-.27-.42-.45-.13-.36-.13-.57a1.65 1.65 0 0 1 .05-.38 1.35 1.35 0 0 1 .14-.35c.06-.11.14-.21.24-.31l.33-.3c-.19-.1-.33-.22-.42-.37s-.14-.31-.14-.48c0-.24.05-.45.15-.64s.22-.36.36-.5c-.12-.14-.22-.31-.29-.49a1.82 1.82 0 0 1-.11-.66c0-.3.05-.57.15-.81s.24-.44.42-.6a1.99 1.99 0 0 1 .65-.38c.25-.09.53-.13.82-.13.16 0 .31.01.45.03l.39.07h1.59c.07 0 .12.03.15.1s.08.15.08.29zm-1.03 5.56a.57.57 0 0 0-.28-.52c-.19-.12-.44-.19-.75-.2l-1.37-.05a2.22 2.22 0 0 0-.31.28 1.84 1.84 0 0 0-.19.25.82.82 0 0 0-.1.24c-.02.08-.03.16-.03.24 0 .25.13.45.39.58s.62.2 1.08.2a3.1 3.1 0 0 0 .74-.08c.2-.05.36-.13.48-.23s.21-.2.26-.32.08-.25.08-.39zm-.49-4.18c0-.36-.1-.64-.3-.84s-.48-.3-.84-.3c-.19 0-.35.03-.49.09s-.25.15-.35.26a1.09 1.09 0 0 0-.21.38c-.05.14-.07.29-.07.45 0 .35.1.62.3.82s.47.3.83.3c.19 0 .36-.03.5-.09s.26-.14.35-.25.16-.23.21-.37.07-.29.07-.45z"/><use xlink:href="#P" x="136.42"/><path d="M590.98 9.84c0 .13-.02.23-.06.3s-.09.11-.16.11h-.86v1.59c0 .03-.01.06-.02.08-.02.02-.04.04-.08.06a.53.53 0 0 1-.16.04c-.07.01-.15.01-.25.01s-.18 0-.24-.01-.12-.02-.15-.04-.06-.03-.08-.06c-.01-.02-.02-.05-.02-.08v-1.59h-3.1c-.05 0-.09-.01-.12-.02s-.06-.03-.08-.06-.04-.08-.05-.13-.01-.13-.01-.23c0-.07 0-.14.01-.2l.02-.16a.58.58 0 0 1 .05-.14l.07-.14 2.7-4.61c.02-.03.05-.06.09-.08s.09-.04.15-.06.13-.03.22-.03l.31-.01.34.01c.09.01.18.02.24.04s.11.04.14.06a.12.12 0 0 1 .05.09v4.84h.86c.07 0 .12.03.16.1s.03.18.03.32zm-2.08-4.58h-.01l-2.44 4.16h2.45V5.26z"/><use xlink:href="#O" x="181.64"/><path d="M623.82 6.82c0 .14-.02.24-.06.3s-.08.09-.14.09h-.76c.14.14.23.3.29.47s.08.35.08.53c0 .3-.05.57-.15.81s-.24.43-.42.59a1.81 1.81 0 0 1-.65.37c-.25.08-.53.13-.83.13-.21 0-.42-.03-.61-.08a1.35 1.35 0 0 1-.45-.21c-.07.07-.13.15-.17.24s-.07.19-.07.31c0 .14.06.25.19.34s.3.14.51.15l1.38.06c.26.01.5.04.72.11s.41.16.57.28a1.33 1.33 0 0 1 .38.44c.09.17.13.38.13.61a1.65 1.65 0 0 1-.15.69c-.1.22-.26.41-.47.58s-.48.3-.8.39-.71.14-1.15.14a4.82 4.82 0 0 1-1.09-.11c-.3-.07-.54-.17-.74-.3s-.33-.27-.42-.45-.13-.36-.13-.57a1.65 1.65 0 0 1 .05-.38A1.35 1.35 0 0 1 619 12c.06-.11.14-.21.24-.31l.33-.3c-.19-.1-.33-.22-.42-.37s-.14-.31-.14-.48c0-.24.05-.45.15-.64s.22-.36.36-.5c-.12-.14-.22-.31-.29-.49a1.82 1.82 0 0 1-.11-.66c0-.3.05-.57.15-.81s.24-.44.42-.6a1.99 1.99 0 0 1 .65-.38c.25-.09.53-.13.82-.13.16 0 .31.01.45.03l.39.07h1.59c.07 0 .12.03.15.1s.08.15.08.29zm-1.03 5.56a.57.57 0 0 0-.28-.52c-.19-.12-.44-.19-.75-.2l-1.37-.05a2.22 2.22 0 0 0-.31.28 1.84 1.84 0 0 0-.19.25.82.82 0 0 0-.1.24c-.02.08-.03.16-.03.24 0 .25.13.45.39.58s.62.2 1.08.2a3.1 3.1 0 0 0 .74-.08c.2-.05.36-.13.48-.23s.21-.2.26-.32.08-.25.08-.39zm-.49-4.18c0-.36-.1-.64-.3-.84s-.48-.3-.84-.3c-.19 0-.35.03-.49.09s-.25.15-.35.26a1.09 1.09 0 0 0-.21.38c-.05.14-.07.29-.07.45 0 .35.1.62.3.82s.47.3.83.3c.19 0 .36-.03.5-.09s.26-.14.35-.25.16-.23.21-.37.07-.29.07-.45z"/><use xlink:href="#P" x="181.64"/><path d="M635.82 9.83c0 .35-.06.66-.18.94a1.96 1.96 0 0 1-.52.72c-.23.2-.51.35-.84.46s-.71.16-1.13.16c-.25 0-.49-.02-.71-.06a3.89 3.89 0 0 1-.59-.15c-.17-.06-.31-.12-.43-.18s-.18-.1-.21-.13a.5.5 0 0 1-.07-.08.3.3 0 0 1-.04-.1l-.03-.14c-.01-.05-.01-.13-.01-.21 0-.14.01-.24.04-.29s.07-.08.12-.08c.04 0 .11.03.21.09l.41.2c.17.07.36.14.58.2a2.83 2.83 0 0 0 .74.09c.26 0 .5-.03.7-.1s.37-.16.5-.28c.14-.12.24-.26.31-.43a1.4 1.4 0 0 0 .1-.54c0-.21-.04-.41-.13-.58s-.21-.32-.38-.45-.37-.22-.62-.29-.52-.1-.83-.1h-.74c-.03 0-.06-.01-.09-.02s-.06-.04-.08-.07-.04-.07-.05-.12a1.03 1.03 0 0 1-.02-.2c0-.07.01-.14.02-.18s.03-.09.05-.12.05-.05.07-.06a.24.24 0 0 1 .09-.02h.66a2.09 2.09 0 0 0 .69-.1c.2-.07.38-.16.52-.29s.25-.27.33-.45.11-.37.11-.58a1.33 1.33 0 0 0-.08-.45c-.05-.14-.13-.27-.23-.37s-.23-.19-.39-.25-.34-.09-.55-.09c-.23 0-.43.03-.62.1s-.36.14-.51.22l-.37.22c-.1.07-.17.1-.21.1-.03 0-.05 0-.07-.01s-.04-.03-.05-.06a1.04 1.04 0 0 1-.03-.12c-.01-.05-.01-.12-.01-.21 0-.06 0-.11.01-.16l.02-.12c.01-.04.03-.06.04-.09s.04-.06.08-.1.11-.09.23-.16.25-.14.42-.21a2.94 2.94 0 0 1 .57-.17 3.77 3.77 0 0 1 .7-.07c.35 0 .66.04.93.13s.49.22.67.38a1.51 1.51 0 0 1 .4.59c.09.23.13.48.13.76a2.41 2.41 0 0 1-.09.67 1.39 1.39 0 0 1-.28.54c-.13.15-.27.29-.45.4a1.72 1.72 0 0 1-.61.23V8c.26.03.5.09.72.2s.4.23.56.39a1.72 1.72 0 0 1 .37.55 1.78 1.78 0 0 1 .15.69zm27.39-5.03c0 .23-.04.38-.13.46s-.24.12-.47.12-.38-.04-.47-.12-.13-.23-.13-.45c0-.23.04-.38.13-.46s.24-.12.47-.12.38.04.47.12.13.22.13.45zm-.11 7.05c0 .03-.01.06-.02.08s-.04.04-.08.06-.08.03-.15.04-.14.01-.24.01c-.09 0-.17 0-.23-.01a.54.54 0 0 1-.15-.04c-.04-.02-.06-.03-.08-.06s-.02-.05-.02-.08V6.58c0-.03.01-.05.02-.08s.04-.04.08-.06a.54.54 0 0 1 .15-.04c.06-.01.14-.01.23-.01l.24.01a.54.54 0 0 1 .15.04c.04.02.06.04.08.06s.02.05.02.08v5.27zm6.19-5.03c0 .14-.02.24-.06.3s-.08.09-.14.09h-.76c.14.14.23.3.29.47s.08.35.08.53c0 .3-.05.57-.15.81s-.24.43-.42.59a1.81 1.81 0 0 1-.65.37c-.25.08-.53.13-.83.13-.21 0-.42-.03-.61-.08a1.35 1.35 0 0 1-.45-.21c-.07.07-.13.15-.17.24s-.07.19-.07.31c0 .14.06.25.19.34s.3.14.51.15l1.38.06c.26.01.5.04.72.11s.41.16.57.28a1.33 1.33 0 0 1 .38.44c.09.17.13.38.13.61a1.65 1.65 0 0 1-.15.69c-.1.22-.26.41-.47.58s-.48.3-.8.39-.71.14-1.15.14a4.82 4.82 0 0 1-1.09-.11c-.3-.07-.54-.17-.74-.3s-.33-.27-.42-.45-.13-.36-.13-.57a1.65 1.65 0 0 1 .05-.38 1.35 1.35 0 0 1 .14-.35c.06-.11.14-.21.24-.31l.33-.3c-.19-.1-.33-.22-.42-.37s-.14-.31-.14-.48c0-.24.05-.45.15-.64s.22-.36.36-.5c-.12-.14-.22-.31-.29-.49a1.82 1.82 0 0 1-.11-.66c0-.3.05-.57.15-.81s.24-.44.42-.6a1.99 1.99 0 0 1 .65-.38c.25-.09.53-.13.82-.13.16 0 .31.01.45.03l.39.07h1.59c.07 0 .12.03.15.1s.08.15.08.29zm-1.03 5.56a.57.57 0 0 0-.28-.52c-.19-.12-.44-.19-.75-.2l-1.37-.05a2.22 2.22 0 0 0-.31.28 1.84 1.84 0 0 0-.19.25.82.82 0 0 0-.1.24c-.02.08-.03.16-.03.24 0 .25.13.45.39.58s.62.2 1.08.2a3.1 3.1 0 0 0 .74-.08c.2-.05.36-.13.48-.23s.21-.2.26-.32.08-.25.08-.39zm-.48-4.17c0-.36-.1-.64-.3-.84s-.48-.3-.84-.3c-.19 0-.35.03-.49.09s-.25.15-.35.26a1.09 1.09 0 0 0-.21.38c-.05.14-.07.29-.07.45 0 .35.1.62.3.82s.47.3.83.3c.19 0 .36-.03.5-.09s.26-.14.35-.25.16-.23.21-.37.07-.3.07-.45z"/><use xlink:href="#N" x="-115.2"/><path d="M681.35 11.56c0 .07 0 .13-.01.19s-.02.1-.04.14-.04.06-.07.08-.06.03-.1.03h-4.19a.59.59 0 0 1-.14-.02c-.04-.01-.08-.04-.11-.07s-.05-.08-.06-.13a1.18 1.18 0 0 1-.02-.22l.01-.21a.75.75 0 0 1 .04-.16c.02-.04.05-.09.08-.13a1.3 1.3 0 0 1 .12-.14l1.52-1.56c.35-.36.63-.68.84-.97a5.68 5.68 0 0 0 .49-.78c.12-.23.19-.45.23-.64s.05-.37.05-.54a1.51 1.51 0 0 0-.08-.48c-.06-.15-.14-.28-.24-.4a1.28 1.28 0 0 0-.4-.27 1.4 1.4 0 0 0-.56-.1c-.25 0-.47.03-.66.1-.2.07-.37.14-.51.22l-.37.22c-.1.07-.17.1-.22.1-.03 0-.05-.01-.08-.02s-.04-.04-.05-.08l-.03-.14c-.01-.06-.01-.13-.01-.21 0-.06 0-.11.01-.15s.01-.08.02-.11.02-.06.04-.09a.73.73 0 0 1 .09-.1c.04-.04.13-.1.24-.17s.26-.14.43-.21.37-.13.57-.17.43-.07.66-.07c.37 0 .69.05.96.16s.5.25.69.42.32.39.41.63a2.13 2.13 0 0 1 .13.76c0 .24-.02.48-.06.72s-.13.5-.27.78-.34.59-.6.93-.61.74-1.04 1.18l-1.2 1.25h3.3c.03 0 .06.01.09.03s.05.04.08.08.04.08.05.13-.03.12-.03.19z"/><defs ><path id="B" d="M127.84 79.9c-.34.14-.99.3-1.82.3-1.96 0-3.42-1.07-3.42-3.06 0-1.88 1.46-3.17 3.62-3.17.87 0 1.4.16 1.65.26l-.22.62c-.34-.14-.82-.25-1.4-.25-1.62 0-2.69.9-2.69 2.49 0 1.46.96 2.42 2.66 2.42.54 0 1.1-.09 1.46-.25l.16.64z"/><path id="C" d="M440.14 92.7h-40.46a.2.2 0 0 1-.2-.2V60.92a.2.2 0 0 1 .2-.2h40.46a.2.2 0 0 1 .2.2V92.5c-.01.11-.09.2-.2.2z"/><path id="D" d="M439.25 91.81h-38.68a.2.2 0 0 1-.2-.2v-29.8a.2.2 0 0 1 .2-.2h38.68a.2.2 0 0 1 .2.2v29.8a.2.2 0 0 1-.2.2z"/><path id="E" d="M419.91 87.37h14.9a.2.2 0 0 0 .2-.2v-4.49a.2.2 0 0 1 .2-.2h.5a.2.2 0 0 0 .2-.2V76.7v-.69a.2.2 0 0 0-.2-.2h-.5a.2.2 0 0 1-.2-.2v-4.94a.2.2 0 0 0-.2-.2h-5.38a.2.2 0 0 1-.2-.2v-4.05a.2.2 0 0 0-.2-.2h-3.16a.2.2 0 0 1-.2-.2v-1.38a.2.2 0 0 0-.2-.2h-5.58-5.58a.2.2 0 0 0-.2.2v1.38a.2.2 0 0 1-.2.2h-3.16a.2.2 0 0 0-.2.2v4.05a.2.2 0 0 1-.2.2h-5.38a.2.2 0 0 0-.2.2v4.94a.2.2 0 0 1-.2.2h-.5a.2.2 0 0 0-.2.2v.69 5.58a.2.2 0 0 0 .2.2h.5a.2.2 0 0 1 .2.2v4.49a.2.2 0 0 0 .2.2h14.94 0z"/><path id="F" d="M408.61 68.28h-5.82a.2.2 0 0 1-.2-.2v-2.27a.2.2 0 0 1 .2-.2h5.82a.2.2 0 0 1 .2.2v2.27a.2.2 0 0 1-.2.2z"/><path id="G" d="M404.7 81.65h-1.22v-4.88h1.22c.3 0 .55.25.55.55v3.78c.01.31-.24.55-.55.55z"/><path id="H" d="M435.11 81.65h1.22v-4.88h-1.22c-.3 0-.55.25-.55.55v3.78a.55.55 0 0 0 .55.55z"/><path id="I" d="M412.18 86.63h-1.29l.36-3.61c.01-.05.05-.09.1-.09h.42c.05 0 .09.04.1.09l.31 3.61z"/><path id="J" d="M503.19 86.63h-1.29l.36-3.61c0-.05.05-.09.1-.09h.42c.05 0 .09.04.1.09l.31 3.61z"/><path id="K" d="M381.94 64.96v.05a1.12 1.12 0 0 0 1.12 1.12h1.38a1.12 1.12 0 0 0 1.12-1.12v-.05h-3.62z"/><path id="L" d="M753.49 75.34h-1.61l.46-3.45c.01-.05.06-.08.12-.08h.53c.07 0 .11.04.12.08l.38 3.45z"/><path id="M" d="M778.41 4.79c0 .23-.04.38-.13.46s-.24.12-.47.12-.38-.04-.47-.12-.13-.23-.13-.45c0-.23.04-.38.13-.46s.24-.12.47-.12.38.04.47.12.13.23.13.45zm-.12 7.06c0 .03-.01.06-.02.08s-.04.04-.08.06-.08.03-.15.04-.14.01-.24.01c-.09 0-.17 0-.23-.01a.54.54 0 0 1-.15-.04c-.04-.02-.06-.03-.08-.06s-.02-.05-.02-.08V6.58c0-.03.01-.05.02-.08s.04-.04.08-.06a.54.54 0 0 1 .15-.04c.06-.01.14-.01.23-.01l.24.01a.54.54 0 0 1 .15.04c.04.02.06.04.08.06s.02.05.02.08v5.27z"/><path id="N" d="M790.58 9.14c0 .46-.05.87-.15 1.23s-.25.68-.44.93-.43.46-.71.59a2.27 2.27 0 0 1-.97.21c-.17 0-.32-.02-.47-.05s-.28-.09-.42-.16a2.49 2.49 0 0 1-.41-.28c-.14-.11-.28-.25-.43-.41v.64c0 .03-.01.06-.02.08s-.04.04-.08.06-.08.02-.13.03-.12.01-.2.01-.14 0-.2-.01-.1-.02-.13-.03-.06-.03-.07-.06-.02-.05-.02-.08V4.02c0-.03.01-.06.02-.08s.04-.04.08-.06a.54.54 0 0 1 .15-.04c.06-.01.14-.01.23-.01l.24.01a.54.54 0 0 1 .15.04c.04.02.06.04.08.06s.02.05.02.08v3.16c.16-.16.31-.29.45-.4a2.54 2.54 0 0 1 .43-.27c.14-.07.28-.12.42-.15a2.14 2.14 0 0 1 .45-.05c.38 0 .71.08.98.23a1.93 1.93 0 0 1 .66.61c.17.25.29.56.37.9.08.35.12.71.12 1.09zm-1 .11c0-.27-.02-.53-.06-.79-.04-.25-.11-.48-.22-.67a1.25 1.25 0 0 0-.41-.47c-.17-.12-.38-.18-.63-.18a1.5 1.5 0 0 0-.37.05c-.12.04-.25.09-.37.18s-.26.19-.39.32c-.14.13-.28.29-.43.49v2.1c.27.32.52.57.77.74.24.17.5.25.76.25.24 0 .45-.06.62-.18a1.37 1.37 0 0 0 .42-.47c.11-.2.19-.41.24-.65.05-.23.07-.47.07-.72z"/><path id="O" d="M436.09 4.79c0 .23-.04.38-.13.46s-.24.12-.47.12-.38-.04-.47-.12-.13-.23-.13-.45c0-.23.04-.38.13-.46s.24-.12.47-.12.38.04.47.12.13.23.13.45zm-.11 7.06c0 .03-.01.06-.02.08s-.04.04-.08.06-.08.03-.15.04-.14.01-.24.01c-.09 0-.17 0-.23-.01a.54.54 0 0 1-.15-.04c-.04-.02-.06-.03-.08-.06s-.02-.05-.02-.08V6.58c0-.03.01-.05.02-.08s.04-.04.08-.06a.54.54 0 0 1 .15-.04c.06-.01.14-.01.23-.01l.24.01a.54.54 0 0 1 .15.04c.04.02.06.04.08.06s.02.05.02.08v5.27z"/><path id="P" d="M448.27 9.14c0 .46-.05.87-.15 1.23s-.25.68-.44.93-.43.46-.71.59a2.27 2.27 0 0 1-.97.21c-.17 0-.32-.02-.47-.05s-.28-.09-.42-.16a2.49 2.49 0 0 1-.41-.28c-.14-.11-.28-.25-.43-.41v.64c0 .03-.01.06-.02.08s-.04.04-.08.06-.08.02-.13.03-.12.01-.2.01-.14 0-.2-.01-.1-.02-.13-.03-.06-.03-.07-.06-.02-.05-.02-.08V4.02c0-.03.01-.06.02-.08s.04-.04.08-.06a.54.54 0 0 1 .15-.04c.06-.01.14-.01.23-.01l.24.01a.54.54 0 0 1 .15.04c.04.02.06.04.08.06s.02.05.02.08v3.16c.16-.16.31-.29.45-.4a2.54 2.54 0 0 1 .43-.27c.14-.07.28-.12.42-.15a2.14 2.14 0 0 1 .45-.05c.38 0 .71.08.98.23a1.93 1.93 0 0 1 .66.61c.17.25.29.56.37.9.08.35.12.71.12 1.09zm-1 .11c0-.27-.02-.53-.06-.79-.04-.25-.11-.48-.22-.67a1.25 1.25 0 0 0-.41-.47c-.17-.12-.38-.18-.63-.18a1.5 1.5 0 0 0-.37.05c-.12.04-.25.09-.37.18s-.26.19-.39.32c-.14.13-.28.29-.43.49v2.1c.27.32.52.57.77.74.24.17.5.25.76.25.24 0 .45-.06.62-.18a1.37 1.37 0 0 0 .42-.47c.11-.2.19-.41.24-.65.04-.23.07-.47.07-.72z"/></defs></svg>