<svg xmlns="http://www.w3.org/2000/svg" xmlns:xlink="http://www.w3.org/1999/xlink" viewBox="0 0 1102.32 135.16" xmlns:v="https://vecta.io/nano"><style><![CDATA[.B{stroke-miterlimit:10}.C{fill:none}.D{stroke:#000}.E{stroke-width:1.04}.F{stroke-width:.75}.G{stroke-width:.831}]]></style><g class="C D"><g class="B"><path d="M3.29 22.34h1090.69v89.81H3.29z"/><path d="M20.89 46.23a.59.59 0 0 1-.07.29c-.04.07-.13.13-.23.19a2.97 2.97 0 0 1-.46.1l-.72.03c-.3 0-.55-.01-.72-.03-.17-.01-.3-.04-.4-.09-.1-.04-.16-.1-.19-.16a.68.68 0 0 1-.07-.25l-.52-3.05c-.07-.45-.17-.82-.29-1.11-.12-.3-.26-.55-.45-.74s-.39-.32-.64-.39a3.15 3.15 0 0 0-.87-.12h-.59l-1.1 5.49c-.01.07-.04.14-.1.2a.53.53 0 0 1-.26.13c-.12.04-.27.06-.45.09-.17.03-.4.03-.66.03-.27 0-.49-.01-.66-.03s-.3-.04-.4-.09a.57.57 0 0 1-.2-.13c-.04-.04-.04-.12-.03-.2l2.59-12.97c.01-.07.04-.14.1-.2s.14-.1.27-.13a2.37 2.37 0 0 1 .45-.07l.68-.03.66.03a1.71 1.71 0 0 1 .4.07c.1.03.16.07.2.13.03.06.04.12.03.2l-1.04 5.16h.62a2.51 2.51 0 0 0 .84-.13c.25-.09.49-.22.72-.4.23-.19.45-.42.66-.72.22-.3.45-.65.66-1.08l1.47-2.73c.06-.1.12-.19.19-.25a.79.79 0 0 1 .29-.16c.13-.04.29-.06.48-.09s.45-.03.74-.03l.66.03c.17.01.3.04.39.07a.39.39 0 0 1 .19.12.25.25 0 0 1 .04.14c0 .1-.03.23-.09.36s-.16.32-.3.56l-1.4 2.44-.74 1.17c-.23.32-.46.59-.69.82a3.99 3.99 0 0 1-.71.55c-.23.14-.49.26-.75.36v.01c.25.12.48.25.66.4.19.14.36.33.51.56a3.99 3.99 0 0 1 .38.85c.1.33.2.75.3 1.24l.55 2.83.07.39c.01.14 0 .25 0 .34zm12.01-6.1a8.74 8.74 0 0 1-.14 1.58 8.87 8.87 0 0 1-.45 1.58 6.06 6.06 0 0 1-.8 1.45c-.32.45-.71.84-1.16 1.19s-.97.62-1.55.81a6.27 6.27 0 0 1-1.97.3c-.72 0-1.33-.09-1.85-.25s-.95-.4-1.3-.74c-.35-.32-.61-.72-.77-1.19-.17-.48-.25-1.01-.25-1.62a8.74 8.74 0 0 1 .14-1.58c.1-.53.25-1.06.45-1.58s.46-1 .8-1.45c.32-.46.71-.85 1.16-1.19a5.84 5.84 0 0 1 1.55-.81c.58-.2 1.23-.3 1.97-.3.72 0 1.33.09 1.85.25s.95.4 1.3.74c.35.32.61.72.77 1.19.16.48.25 1.01.25 1.62zm-2.76.17a3.26 3.26 0 0 0-.09-.8c-.06-.23-.16-.42-.3-.58a1.17 1.17 0 0 0-.53-.36 2.57 2.57 0 0 0-.8-.13 2.24 2.24 0 0 0-.95.2 2.27 2.27 0 0 0-.75.56c-.22.25-.42.51-.58.81s-.3.64-.4.97-.19.68-.23 1.03l-.07 1a3.26 3.26 0 0 0 .09.8 1.5 1.5 0 0 0 .3.59 1.17 1.17 0 0 0 .53.36 2.57 2.57 0 0 0 .8.13 2.24 2.24 0 0 0 .95-.2 2.27 2.27 0 0 0 .75-.56 3.55 3.55 0 0 0 .58-.82 5.3 5.3 0 0 0 .4-.98c.1-.35.19-.68.23-1.03a6.41 6.41 0 0 0 .07-.99zm12.85 6.11c-.01.07-.04.13-.1.19s-.14.1-.25.13c-.12.04-.25.06-.42.07l-.65.03a5.85 5.85 0 0 1-.64-.03c-.17-.01-.3-.04-.39-.07s-.16-.07-.19-.13a.21.21 0 0 1-.01-.19l.74-3.71h-3.73l-.74 3.71c-.01.07-.04.13-.1.19s-.13.1-.25.13-.25.06-.42.07l-.65.03a5.48 5.48 0 0 1-.64-.03c-.16-.01-.3-.04-.39-.07s-.16-.07-.19-.13-.03-.12-.03-.19l1.88-9.47c.01-.07.04-.13.1-.19s.13-.1.25-.13.25-.06.42-.07c.18-.02.4-.03.66-.03l.64.03c.16.01.3.04.39.07.1.03.16.07.19.13s.03.12.03.19l-.71 3.54h3.74l.69-3.53c.01-.07.04-.13.1-.19.04-.06.13-.1.23-.13s.25-.06.42-.07l.65-.03.64.03c.16.02.3.04.39.07.1.03.16.07.19.13s.04.12.03.19l-1.88 9.46zm17.5 0c-.01.07-.04.13-.1.19s-.13.1-.25.13-.26.06-.42.07l-.65.03a5.85 5.85 0 0 1-.64-.03c-.17-.01-.3-.04-.39-.07a.34.34 0 0 1-.19-.13.21.21 0 0 1-.01-.19l1.14-5.68.07-.48c.03-.16.03-.32.03-.48 0-.33-.06-.59-.19-.81-.13-.2-.35-.3-.66-.3-.29 0-.58.1-.88.27-.3.19-.59.43-.88.75-.27.32-.53.68-.74 1.1a4.53 4.53 0 0 0-.46 1.34l-.85 4.28c-.01.07-.04.13-.1.19s-.13.1-.25.13c-.12.04-.26.06-.42.07l-.65.03a5.85 5.85 0 0 1-.64-.03c-.16-.01-.3-.04-.39-.07s-.16-.07-.19-.13-.04-.12-.03-.19l1.13-5.68a3.86 3.86 0 0 0 .09-.51l.03-.51c0-.3-.06-.56-.19-.77s-.35-.3-.65-.3c-.29 0-.58.1-.88.27s-.59.43-.88.75c-.27.32-.53.68-.74 1.1a4.53 4.53 0 0 0-.46 1.34l-.85 4.3c-.01.07-.04.13-.1.19s-.13.1-.25.13-.25.06-.42.07l-.65.03a5.48 5.48 0 0 1-.64-.03c-.16-.02-.3-.04-.39-.07s-.16-.07-.19-.13-.03-.12-.03-.19l1.89-9.47c.01-.07.04-.13.09-.19.04-.06.12-.1.22-.13s.22-.06.38-.07l.55-.03c.22 0 .39.02.54.03.13.01.25.04.32.07s.13.07.16.13.03.12.01.19l-.3 1.56c.14-.25.35-.49.59-.75a4.68 4.68 0 0 1 .84-.69c.32-.2.65-.38 1.03-.51s.75-.2 1.16-.2c.4 0 .77.06 1.07.16s.55.26.74.46c.2.2.35.42.45.68s.16.55.2.85c.16-.25.38-.51.62-.77.25-.25.53-.48.85-.68s.65-.38 1.03-.51.75-.2 1.14-.2c.49 0 .91.07 1.24.2a1.94 1.94 0 0 1 .81.58c.2.25.36.53.45.85.1.33.14.68.14 1.07 0 .25-.01.49-.04.75l-.13.77-1.24 5.87zm11.39.01c-.01.07-.04.13-.09.19-.04.06-.12.1-.22.13a1.64 1.64 0 0 1-.36.07l-.55.03c-.22 0-.39-.01-.53-.03a1.02 1.02 0 0 1-.32-.07c-.07-.03-.13-.07-.16-.13s-.03-.12-.01-.19l.29-1.53c-.14.25-.33.49-.58.75s-.53.48-.85.68-.66.38-1.06.51c-.38.13-.75.19-1.16.19-.49 0-.91-.07-1.26-.2-.33-.13-.62-.32-.82-.56-.22-.23-.36-.52-.46-.85s-.14-.69-.14-1.08a6.34 6.34 0 0 1 .04-.74l.12-.77 1.17-5.87c.01-.07.04-.13.1-.19s.13-.1.25-.13.25-.06.42-.07c.17-.03.39-.04.65-.04l.64.03c.16.01.29.04.39.07a.34.34 0 0 1 .19.13c.03.06.04.12.03.19l-1.13 5.68-.07.49-.03.49c0 .16.01.32.04.46a1.07 1.07 0 0 0 .16.36c.07.12.16.17.27.22.12.04.25.07.39.07.29 0 .59-.1.91-.29s.62-.45.9-.77c.27-.32.53-.72.75-1.17s.39-.94.51-1.46l.81-4.09c.01-.07.04-.13.1-.19s.14-.1.25-.13c.12-.03.25-.06.42-.07l.65-.03.64.03c.16.01.3.04.39.07.1.03.16.07.19.13s.03.12.03.19l-1.9 9.49zm11.76-.01c-.01.07-.04.13-.1.19s-.14.1-.25.13c-.1.03-.25.06-.42.07l-.65.03a5.85 5.85 0 0 1-.64-.03c-.17-.01-.3-.04-.39-.07-.1-.03-.16-.07-.19-.13a.21.21 0 0 1-.01-.19l.74-3.71h-3.77l-.74 3.71c-.01.07-.04.13-.1.19s-.13.1-.25.13-.25.06-.42.07l-.65.03a5.48 5.48 0 0 1-.64-.03c-.16-.01-.3-.04-.39-.07-.1-.03-.16-.07-.19-.13s-.03-.12-.03-.19l1.88-9.47c.01-.07.04-.13.1-.19s.13-.1.25-.13.25-.06.42-.07a5.92 5.92 0 0 1 .65-.03l.64.03c.16.01.3.04.39.07.1.03.16.07.19.13s.04.13.04.2l-.71 3.54h3.74l.71-3.54c.01-.07.04-.13.1-.19.04-.06.13-.1.23-.13s.25-.06.42-.07l.65-.03.64.03c.16.01.3.04.39.07.1.03.16.07.19.13s.04.12.03.19l-1.86 9.46zm12.52-7.38a2.71 2.71 0 0 1-.35 1.37c-.23.4-.58.75-1.07 1.06-.49.3-1.1.52-1.85.66-.75.16-1.63.23-2.66.23h-.98c-.03.16-.04.32-.06.48l-.03.45c0 .58.14 1 .45 1.29.3.29.77.43 1.43.43.46 0 .88-.03 1.26-.1.38-.06.69-.14.98-.22.27-.07.51-.16.69-.22.19-.06.32-.1.4-.1.09 0 .14.03.19.07.03.04.06.13.06.23 0 .12-.01.26-.03.4l-.09.46-.14.42a.87.87 0 0 1-.2.3c-.09.09-.23.17-.46.25l-.82.23c-.32.07-.68.13-1.07.17l-1.2.07c-.68 0-1.27-.07-1.78-.22-.51-.14-.93-.36-1.27-.65-.33-.29-.59-.66-.77-1.11-.16-.45-.25-.98-.25-1.59a9.18 9.18 0 0 1 .13-1.52 8.98 8.98 0 0 1 .42-1.6c.2-.53.45-1.03.77-1.52.32-.48.68-.91 1.13-1.27a5.88 5.88 0 0 1 1.53-.88c.58-.22 1.24-.33 1.98-.33.65 0 1.2.07 1.66.23.46.14.84.36 1.14.61a2.31 2.31 0 0 1 .66.85c.12.39.2.73.2 1.07zm-2.62.19c0-.29-.12-.52-.33-.71s-.55-.29-.97-.29c-.36 0-.66.06-.94.19-.27.13-.53.3-.74.51a3.35 3.35 0 0 0-.55.77c-.14.29-.27.61-.36.94h.9c.56 0 1.04-.04 1.42-.12s.68-.17.93-.3c.23-.13.4-.27.51-.45.07-.15.13-.34.13-.54zm12.5 7.19c-.01.07-.04.13-.1.19s-.14.1-.25.13c-.12.04-.25.06-.42.07l-.65.03a5.85 5.85 0 0 1-.64-.03c-.17-.01-.3-.04-.39-.07-.1-.03-.16-.07-.19-.13a.21.21 0 0 1-.01-.19l.72-3.71h-3.74l-.74 3.71c-.01.07-.04.13-.1.19s-.13.1-.25.13-.25.06-.42.07l-.65.03a5.48 5.48 0 0 1-.64-.03c-.16-.01-.3-.04-.39-.07-.1-.03-.16-.07-.19-.13s-.03-.12-.03-.19l1.88-9.47c.01-.07.04-.13.1-.19s.13-.1.25-.13.25-.06.42-.07l.65-.03.64.03c.16.01.3.04.39.07.1.03.16.07.19.13s.03.12.03.19l-.71 3.54h3.74l.71-3.53c.01-.07.04-.13.1-.19.04-.06.13-.1.23-.13s.25-.06.42-.07l.65-.03.64.03c.16.01.3.04.39.07.1.03.16.07.19.13s.04.12.03.19l-1.86 9.46zm17.51 0c-.01.07-.04.13-.1.19s-.13.1-.25.13c-.12.04-.26.06-.42.07l-.65.03a5.85 5.85 0 0 1-.64-.03c-.17-.01-.3-.04-.39-.07a.34.34 0 0 1-.19-.13.21.21 0 0 1-.01-.19l1.14-5.68.07-.48c.03-.16.03-.32.03-.48 0-.33-.06-.59-.19-.81-.13-.2-.35-.3-.66-.3-.29 0-.58.1-.88.27s-.59.43-.88.75c-.27.32-.53.68-.74 1.1a4.53 4.53 0 0 0-.46 1.34l-.85 4.28c-.01.07-.04.13-.1.19s-.13.1-.25.13c-.12.04-.26.06-.42.07l-.65.03a5.85 5.85 0 0 1-.64-.03c-.16-.01-.3-.04-.39-.07s-.16-.07-.19-.13-.04-.12-.03-.19l1.13-5.68a3.86 3.86 0 0 0 .09-.51l.03-.51c0-.3-.06-.56-.19-.77-.13-.2-.35-.3-.65-.3-.29 0-.58.1-.88.27-.3.19-.59.43-.88.75-.27.32-.53.68-.74 1.1a4.53 4.53 0 0 0-.46 1.34l-.85 4.28c-.01.07-.04.13-.1.19s-.13.1-.25.13-.25.06-.42.07l-.65.03a5.48 5.48 0 0 1-.64-.03c-.16-.01-.3-.04-.39-.07-.1-.03-.16-.07-.19-.13s-.03-.12-.03-.19l1.89-9.47c.01-.07.04-.13.09-.19.04-.06.12-.1.22-.13s.22-.06.38-.07l.55-.03c.22 0 .39.01.53.03.13.01.25.04.32.07s.13.07.16.13.03.12.01.19l-.3 1.56c.14-.25.35-.49.59-.75a4.68 4.68 0 0 1 .84-.69c.32-.2.65-.38 1.03-.51s.75-.2 1.16-.2c.4 0 .77.06 1.07.16.3.12.55.26.74.46.2.2.35.42.45.68s.16.55.2.85c.16-.25.38-.51.62-.77.25-.25.53-.48.85-.68s.65-.38 1.03-.51.75-.2 1.14-.2c.49 0 .91.07 1.24.2a1.94 1.94 0 0 1 .81.58c.2.25.36.53.45.85.1.33.14.68.14 1.07 0 .25-.01.49-.04.75l-.13.77-1.23 5.89z" stroke-width=".591"/><g stroke-width=".822"><path d="M67.72 74.07v2.67h.26l2.36-2.67h1.07l-2.63 2.76c1.15.14 1.57.75 1.93 1.55l.76 1.71h-.96c-.25-.42-.45-.95-.62-1.41-.31-.81-.76-1.35-1.93-1.35h-.26v2.76h-.87v-6.01l.89-.01h0zm10.38 2.96c0 2.07-1.44 3.17-3.22 3.17-1.82 0-3.09-1.24-3.09-3.06 0-1.91 1.37-3.17 3.22-3.17 1.85.03 3.09 1.28 3.09 3.06zm-5.37.07c0 1.27.81 2.42 2.21 2.42 1.41 0 2.22-1.15 2.22-2.49 0-1.2-.71-2.45-2.21-2.45-1.48.04-2.22 1.23-2.22 2.52zm11.02-3.03v5.39l.61.02-.06 2.07h-.7l-.06-1.44h-4.35l-.06 1.44h-.7l-.06-2.07.51-.02c.25-.4.51-.85.67-1.32.22-.7.34-1.51.34-2.53v-1.52c-.02-.02 3.86-.02 3.86-.02zm-3.02 1.79c0 .96-.09 1.77-.36 2.45-.14.42-.36.82-.56 1.15h3.06v-4.75h-2.13v1.15h-.01zm10.79-1.79v.65h-2.98v1.62l.85-.05c.65 0 1.3.11 1.8.4.51.3.87.76.87 1.46 0 .56-.22.99-.56 1.3-.56.47-1.51.67-2.45.67-.62 0-1.1-.02-1.4-.06v-6l3.87.01h0zm-2.98 5.42l.75.05c.56 0 1.12-.16 1.46-.45a1.22 1.22 0 0 0 .39-.9c0-.45-.22-.79-.56-.99-.36-.22-.82-.31-1.32-.31l-.71.02v2.58h0 0-.01zm8.25-2.22H94.1v2.17h2.98v.65H93.2v-6.01h3.73v.65H94.1v1.91h2.69c0-.02 0 .63 0 .63zm1.29-2.84a3.7 3.7 0 0 1 1.82-.45c1.2 0 2.02.54 2.02 1.46 0 .75-.61 1.3-1.41 1.46v.02c.96.09 1.68.65 1.68 1.51 0 1.26-1.24 1.76-2.49 1.76-.62 0-1.27-.11-1.82-.4l.22-.61c.39.19.99.36 1.55.36 1.01 0 1.6-.47 1.6-1.15 0-.9-.99-1.16-1.86-1.16h-.4v-.59h.4c.9 0 1.62-.5 1.62-1.1 0-.61-.5-.95-1.24-.95-.51 0-1.06.19-1.44.4l-.25-.56zm11.12 2.6c0 2.07-1.44 3.17-3.22 3.17-1.82 0-3.09-1.24-3.09-3.06 0-1.91 1.37-3.17 3.22-3.17 1.88.03 3.09 1.28 3.09 3.06zm-5.38.07c0 1.27.81 2.42 2.21 2.42 1.41 0 2.22-1.15 2.22-2.49 0-1.2-.71-2.45-2.21-2.45-1.47.04-2.22 1.23-2.22 2.52zm11.53-3.03v6.01h-.9v-5.36h-3.22v5.36h-.89v-6.01h5.01zm2.67 4.14l-.71 1.88h-.92l2.33-6.01h1.07l2.36 6.01h-.95l-.75-1.88h-2.43zm2.25-.61l-.67-1.72c-.16-.4-.25-.75-.36-1.1h-.02c-.09.36-.22.71-.36 1.07l-.67 1.76c-.01-.01 2.08-.01 2.08-.01z"/><use xlink:href="#B"/><path d="M129.83 74.07v2.52h3.34v-2.52h.9v6.01h-.89v-2.81h-3.34v2.81h-.9v-6.01h.89zm11.69 2.96c0 2.07-1.44 3.17-3.22 3.17-1.82 0-3.09-1.24-3.09-3.06 0-1.91 1.37-3.17 3.22-3.17 1.86.03 3.09 1.28 3.09 3.06zm-5.36.07c0 1.27.81 2.42 2.21 2.42 1.41 0 2.22-1.15 2.22-2.49 0-1.2-.71-2.45-2.21-2.45-1.47.04-2.22 1.23-2.22 2.52z"/><use xlink:href="#B" x="19.66"/><path d="M150.28 74.73h-2.11v-.65h5.13v.65h-2.11v5.36h-.9c-.01.01-.01-5.36-.01-5.36zm4.62-.66v2.53l-.06 2.53h.02l1.27-2 2.25-3.09h.9v6.01h-.85v-2.56l.09-2.45h-.02c-.34.65-.81 1.35-1.27 2.02l-2.16 2.98h-.95v-6h.78v.03h0zM35.03 65.25c1.68-3.03 5.16-5.03 8.65-4.8 1.06.22 1.41 1.72.61 2.42-1.35.47-2.83.42-4.09 1.1-2.86 1.44-4.4 5.05-3.29 8.08.42 1.51 1.57 2.67 2.76 3.62 1.2.76.85 2.33 1.06 3.53-2.25-.75-4.32-2.16-5.53-4.19-1.8-2.88-1.87-6.79-.17-9.76zm11.02-4.55c1.4.7 2.81 1.41 3.95 2.56 1.2 1.24 1.91 2.56 2.58 3.99l-2.94.11c-.9-1.68-2.28-3.03-4.04-3.82.25-.93.39-1.89.45-2.84zm1.05 8.93c3.48-1.82 8.03-1.21 10.87 1.48 2 1.88 3.26 4.69 2.97 7.46-.19 1.15-2.13 1.37-2.49.2-.39-1.44-.4-3.06-1.3-4.32-1.68-2.67-5.33-3.84-8.22-2.61-1.41.51-2.38 1.68-3.32 2.78-.79 1.03-2.27.65-3.39.79.95-2.36 2.51-4.61 4.88-5.78zm-21.14 5.73c1.1-3.03 3.51-5.45 6.59-6.49l.09 2.92c-1.68.92-3.08 2.31-3.87 4.09l-2.81-.52zm11.91-6.51a13.34 13.34 0 0 1 4.68 3.01l-1.4 2.86a14.24 14.24 0 0 0-2.97-2.78c-.19-1.02-.28-2.06-.31-3.09zm11.76 4.2c.9-.45 1.97-.3 2.94-.39-.65 1.76-1.68 3.32-2.98 4.64l-2.89-1.35c1.06-.87 1.93-1.94 2.93-2.9zM25.69 78.1c-.09-1.86 2.16-1.88 2.49-.79.45 1.52.42 3.28 1.41 4.6 1.77 2.72 5.59 3.77 8.51 2.31 1.46-.62 2.28-2.02 3.39-3.08.92-.42 1.97-.26 2.97-.34-1.27 3.82-4.85 6.82-8.96 6.85-5.23.33-10-4.23-9.81-9.55zm16.82-1.07c.81-.75 2.31.02 2.17 1.12.16 1.1-1.44 1.91-2.22 1.1-.69-.5-.68-1.81.05-2.22zm3.65 2.11a1.23 1.23 0 0 1 1.82-1.2c1.52.9 2.87 2.08 3.71 3.68 1.65 2.89 1.6 6.66-.14 9.52-1.71 2.89-5 4.83-8.45 4.63-.3-.02-.71-.3-.76-.34-.39-.26-.36-1.21-.19-1.6.22-.47.59-.71 1.03-.75 3.17-.11 6.2-2.33 6.76-5.53.7-2.86-.92-5.65-3.23-7.22a1.29 1.29 0 0 1-.5-.82 1.64 1.64 0 0 0-.05-.37zm-12.1 4.46c.7-1.76 1.71-3.34 3.06-4.64l2.83 1.37c-.9.75-1.71 1.57-2.45 2.45-.76 1.1-2.29.69-3.44.82zm23.88-3.19l2.81.47c-.7 1.46-1.37 2.97-2.56 4.09-1.1 1.1-2.56 1.77-3.95 2.42l-.14-2.92c1.68-.89 3.05-2.29 3.84-4.06zm-12.4 1.12c.85 1.1 1.96 1.93 2.89 2.92.39.9.25 1.96.31 2.92-1.76-.65-3.32-1.68-4.6-3.03l1.4-2.81zm-11.48 7.5l2.89-.14c.92 1.68 2.31 3.03 4.07 3.84-.19.92-.31 1.86-.4 2.81-3.05-1.06-5.45-3.48-6.56-6.51z"/></g><g class="F"><path d="M280.14 97.7h-40.46a.2.2 0 0 1-.2-.2V65.92a.2.2 0 0 1 .2-.2h40.46a.2.2 0 0 1 .2.2V97.5c-.01.11-.09.2-.2.2z"/><use xlink:href="#C"/><path d="M259.91 92.37h14.9a.2.2 0 0 0 .2-.2v-4.49a.2.2 0 0 1 .2-.2h.5a.2.2 0 0 0 .2-.2V81.7v-.69a.2.2 0 0 0-.2-.2h-.5a.2.2 0 0 1-.2-.2v-4.94a.2.2 0 0 0-.2-.2h-5.38a.2.2 0 0 1-.2-.2v-4.05a.2.2 0 0 0-.2-.2h-3.16a.2.2 0 0 1-.2-.2v-1.38a.2.2 0 0 0-.2-.2h-5.58-5.58a.2.2 0 0 0-.2.2v1.38a.2.2 0 0 1-.2.2h-3.16a.2.2 0 0 0-.2.2v4.05a.2.2 0 0 1-.2.2h-5.38a.2.2 0 0 0-.2.2v4.94a.2.2 0 0 1-.2.2h-.5a.2.2 0 0 0-.2.2v.69 5.58a.2.2 0 0 0 .2.2h.5a.2.2 0 0 1 .2.2v4.49a.2.2 0 0 0 .2.2h14.94 0z"/><use xlink:href="#D"/><use xlink:href="#D" x="28.42"/><use xlink:href="#E"/><use xlink:href="#F"/><use xlink:href="#G"/><use xlink:href="#G" x="2.34"/><use xlink:href="#G" x="4.68"/><use xlink:href="#G" x="7.03"/><use xlink:href="#G" x="9.37"/><use xlink:href="#G" x="11.71"/><use xlink:href="#G" x="14.06"/><use xlink:href="#G" x="16.4"/><path d="M321.94 97.76h-40.46a.2.2 0 0 1-.2-.2V65.98a.2.2 0 0 1 .2-.2h40.46a.2.2 0 0 1 .2.2v31.58a.2.2 0 0 1-.2.2z"/><path d="M321.06 96.87h-38.68a.2.2 0 0 1-.2-.2v-29.8a.2.2 0 0 1 .2-.2h38.68a.2.2 0 0 1 .2.2v29.8c-.01.11-.1.2-.2.2z"/><use xlink:href="#H"/><path d="M290.42 73.34h-5.82a.2.2 0 0 1-.2-.2v-2.27a.2.2 0 0 1 .2-.2h5.82a.2.2 0 0 1 .2.2v2.27c-.01.11-.09.2-.2.2z"/><use xlink:href="#D" x="70.22" y="0.06"/><path d="M286.51 86.71h-1.22v-4.88h1.22c.3 0 .55.25.55.55v3.78a.55.55 0 0 1-.55.55zm30.41 0h1.22v-4.88h-1.22c-.3 0-.55.25-.55.55v3.78a.54.54 0 0 0 .55.55z"/><use xlink:href="#G" x="41.8" y="0.06"/><use xlink:href="#G" x="44.15" y="0.06"/><use xlink:href="#G" x="46.49" y="0.06"/><use xlink:href="#G" x="48.83" y="0.06"/><use xlink:href="#G" x="51.18" y="0.06"/><use xlink:href="#G" x="53.52" y="0.06"/><use xlink:href="#G" x="55.86" y="0.06"/><use xlink:href="#G" x="58.21" y="0.06"/><path d="M363.66 97.76H323.2a.2.2 0 0 1-.2-.2V65.98a.2.2 0 0 1 .2-.2h40.46a.2.2 0 0 1 .2.2v31.58c-.01.11-.09.2-.2.2z"/><use xlink:href="#C" x="83.52" y="0.06"/><use xlink:href="#H" x="41.72"/><use xlink:href="#D" x="83.52" y="0.06"/><use xlink:href="#D" x="111.94" y="0.06"/><path d="M328.22 86.71H327v-4.88h1.22c.3 0 .55.25.55.55v3.78c.01.31-.24.55-.55.55z"/><use xlink:href="#F" x="83.52" y="0.06"/><use xlink:href="#I"/><use xlink:href="#I" x="2.34"/><use xlink:href="#I" x="4.68"/><use xlink:href="#I" x="7.03"/><use xlink:href="#I" x="9.37"/><use xlink:href="#I" x="11.71"/><use xlink:href="#I" x="14.06"/><use xlink:href="#I" x="16.4"/></g></g><circle cx="171.2" cy="79.91" r="3.95" class="F"/><circle cx="171.2" cy="79.91" r="3.33" class="F"/><circle cx="171.2" cy="54.57" r="3.95" class="F"/><circle cx="171.2" cy="54.57" r="3.33" class="F"/><g class="B"><path d="M259.21 80.31l5.74-63.4h28.69m6.85 63.4l5.74-63.4h28.7" class="E"/><g class="F"><use xlink:href="#J"/><use xlink:href="#C" x="125.84" y="0.12"/><use xlink:href="#K"/><use xlink:href="#D" x="125.84" y="0.12"/><use xlink:href="#D" x="154.26" y="0.12"/><use xlink:href="#E" x="125.84" y="0.12"/><use xlink:href="#F" x="125.84" y="0.12"/><use xlink:href="#I" x="42.32" y="0.06"/><use xlink:href="#I" x="44.66" y="0.06"/><use xlink:href="#I" x="47" y="0.06"/><use xlink:href="#I" x="49.35" y="0.06"/><use xlink:href="#I" x="51.69" y="0.06"/><use xlink:href="#I" x="54.03" y="0.06"/><use xlink:href="#I" x="56.38" y="0.06"/><use xlink:href="#I" x="58.72" y="0.06"/><use xlink:href="#J" x="42.31"/><use xlink:href="#C" x="168.15" y="0.12"/><use xlink:href="#K" x="42.31"/><use xlink:href="#D" x="168.15" y="0.12"/><use xlink:href="#D" x="196.57" y="0.12"/><use xlink:href="#E" x="168.15" y="0.12"/><use xlink:href="#F" x="168.15" y="0.12"/><use xlink:href="#I" x="84.63" y="0.06"/><use xlink:href="#I" x="86.97" y="0.06"/><use xlink:href="#I" x="89.31" y="0.06"/><use xlink:href="#I" x="91.66" y="0.06"/><use xlink:href="#I" x="94" y="0.06"/><use xlink:href="#I" x="96.34" y="0.06"/><use xlink:href="#I" x="98.69" y="0.06"/><use xlink:href="#I" x="101.03" y="0.06"/><use xlink:href="#J" x="84.72"/><use xlink:href="#C" x="210.56" y="0.12"/><use xlink:href="#K" x="84.72"/><use xlink:href="#D" x="210.56" y="0.12"/><use xlink:href="#D" x="238.98" y="0.12"/><use xlink:href="#E" x="210.56" y="0.12"/><use xlink:href="#F" x="210.56" y="0.12"/><use xlink:href="#I" x="127.04" y="0.06"/><use xlink:href="#I" x="129.38" y="0.06"/><use xlink:href="#I" x="131.72" y="0.06"/><use xlink:href="#I" x="134.07" y="0.06"/><use xlink:href="#I" x="136.41" y="0.06"/><use xlink:href="#I" x="138.75" y="0.06"/><use xlink:href="#I" x="141.1" y="0.06"/><use xlink:href="#I" x="143.44" y="0.06"/><use xlink:href="#J" x="127.43"/><use xlink:href="#C" x="253.27" y="0.12"/><use xlink:href="#K" x="127.43"/><use xlink:href="#D" x="253.27" y="0.12"/><use xlink:href="#D" x="281.69" y="0.12"/><use xlink:href="#E" x="253.27" y="0.12"/><use xlink:href="#F" x="253.27" y="0.12"/><use xlink:href="#I" x="169.75" y="0.06"/><use xlink:href="#I" x="172.09" y="0.06"/><use xlink:href="#I" x="174.43" y="0.06"/><use xlink:href="#I" x="176.78" y="0.06"/><use xlink:href="#I" x="179.12" y="0.06"/><use xlink:href="#I" x="181.46" y="0.06"/><use xlink:href="#I" x="183.81" y="0.06"/><use xlink:href="#I" x="186.15" y="0.06"/><use xlink:href="#J" x="169.84"/><use xlink:href="#C" x="295.68" y="0.12"/><use xlink:href="#K" x="169.84"/><use xlink:href="#D" x="295.68" y="0.12"/><use xlink:href="#D" x="324.1" y="0.12"/><use xlink:href="#E" x="295.68" y="0.12"/><use xlink:href="#F" x="295.68" y="0.12"/><use xlink:href="#I" x="212.16" y="0.06"/><use xlink:href="#I" x="214.5" y="0.06"/><use xlink:href="#I" x="216.84" y="0.06"/><use xlink:href="#I" x="219.19" y="0.06"/><use xlink:href="#I" x="221.53" y="0.06"/><use xlink:href="#I" x="223.87" y="0.06"/><use xlink:href="#I" x="226.22" y="0.06"/><use xlink:href="#I" x="228.56" y="0.06"/></g><g stroke-width=".811"><path d="M198.54 80.27V66.85c0-.09.07-.15.15-.15h28c.09 0 .15.07.15.15v13.41c0 .09-.07.15-.15.15h-28c-.07.01-.15-.06-.15-.14z"/><path d="M198.93 79.49V67.63a.4.4 0 0 1 .4-.4h26.75a.4.4 0 0 1 .4.4v11.86a.4.4 0 0 1-.4.4h-26.75a.4.4 0 0 1-.4-.4z"/><path d="M201 69.52h23.41v4.39H201z"/><use xlink:href="#L"/><use xlink:href="#L" x="-5.34"/><use xlink:href="#L" x="-10.69"/><use xlink:href="#L" x="-16.04"/><path d="M214.57 79.26h7.03v.61h-7.03zm-10.93 0h7.03v.61h-7.03zm-5.1 23.45V89.3c0-.09.07-.15.15-.15h28c.09 0 .15.07.15.15v13.41c0 .09-.07.15-.15.15h-28c-.07.01-.15-.06-.15-.15z"/><path d="M198.93 101.93V90.08a.4.4 0 0 1 .4-.4h26.75a.4.4 0 0 1 .4.4v11.86a.4.4 0 0 1-.4.4h-26.75c-.22-.01-.4-.19-.4-.41z"/><path d="M201 91.97h23.41v4.39H201z"/><use xlink:href="#L" y="22.44"/><use xlink:href="#L" x="-5.34" y="22.44"/><use xlink:href="#L" x="-10.69" y="22.44"/><use xlink:href="#L" x="-16.04" y="22.44"/><path d="M214.57 101.7h7.03v.61h-7.03zm-10.94 0h7.03v.61h-7.03z"/></g><g class="G"><use xlink:href="#M"/><use xlink:href="#M" x="1.79"/><use xlink:href="#M" x="3.58"/><use xlink:href="#M" x="5.37"/><use xlink:href="#M" x="7.15"/><use xlink:href="#M" x="8.94"/><use xlink:href="#M" x="10.74"/><use xlink:href="#M" x="12.53"/><use xlink:href="#M" x="14.32"/><use xlink:href="#M" x="16.11"/><path d="M905.12 67.87h15.96v1.7h-15.96z"/><use xlink:href="#N"/><path d="M892.13 40.53h41.93v28.55h-41.93z"/><path d="M934.3 70.67h-42.48a1.22 1.22 0 0 1-1.22-1.22V39.81a1.22 1.22 0 0 1 1.22-1.22h42.48a1.22 1.22 0 0 1 1.22 1.22v29.64c0 .67-.55 1.22-1.22 1.22z"/><use xlink:href="#M" x="47.94"/><use xlink:href="#M" x="49.72"/><use xlink:href="#M" x="51.51"/><use xlink:href="#M" x="53.31"/><use xlink:href="#M" x="55.09"/><use xlink:href="#M" x="56.88"/><use xlink:href="#M" x="58.67"/><use xlink:href="#M" x="60.46"/><use xlink:href="#M" x="62.25"/><use xlink:href="#M" x="64.05"/><path d="M953.06 67.87h15.96v1.7h-15.96z"/><use xlink:href="#N" x="47.93"/><path d="M940.07 40.53H982v28.55h-41.93z"/><use xlink:href="#O"/><use xlink:href="#M" x="95.89" y="0.18"/><use xlink:href="#M" x="97.68" y="0.18"/><use xlink:href="#M" x="99.47" y="0.18"/><use xlink:href="#M" x="101.26" y="0.18"/><use xlink:href="#M" x="103.04" y="0.18"/><use xlink:href="#M" x="104.83" y="0.18"/><use xlink:href="#M" x="106.63" y="0.18"/><use xlink:href="#M" x="108.42" y="0.18"/><use xlink:href="#M" x="110.21" y="0.18"/><use xlink:href="#M" x="112" y="0.18"/><path d="M1001.01 68.05h15.96v1.7h-15.96z"/><use xlink:href="#N" x="95.89" y="0.18"/><path d="M988.02 40.71h41.93v28.55h-41.93z"/><path d="M1030.19 70.85h-42.48a1.22 1.22 0 0 1-1.22-1.22V39.99a1.22 1.22 0 0 1 1.22-1.22h42.48a1.22 1.22 0 0 1 1.22 1.22v29.64c0 .67-.55 1.22-1.22 1.22z"/><use xlink:href="#M" x="143.28"/><use xlink:href="#M" x="145.06"/><use xlink:href="#M" x="146.85"/><use xlink:href="#M" x="148.64"/><use xlink:href="#M" x="150.43"/><use xlink:href="#M" x="152.22"/><use xlink:href="#M" x="154.01"/><use xlink:href="#M" x="155.8"/><use xlink:href="#M" x="157.59"/><use xlink:href="#M" x="159.38"/><path d="M1048.39 67.87h15.96v1.7h-15.96z"/><use xlink:href="#N" x="143.27"/><path d="M1035.41 40.53h41.93v28.55h-41.93z"/><use xlink:href="#O" x="95.34"/><use xlink:href="#P"/><use xlink:href="#P" x="-1.78"/><use xlink:href="#P" x="-3.57"/><use xlink:href="#P" x="-5.37"/><use xlink:href="#P" x="-7.15"/><use xlink:href="#P" x="-8.94"/><use xlink:href="#P" x="-10.73"/><use xlink:href="#P" x="-12.52"/><use xlink:href="#P" x="-14.31"/><use xlink:href="#P" x="-16.11"/><path d="M1048.32 75.04h15.96v1.7h-15.96z"/><use xlink:href="#Q"/><path d="M1035.33 75.53h41.93v28.55h-41.93z"/><path d="M1035.09 73.95h42.48a1.22 1.22 0 0 1 1.22 1.22v29.64a1.22 1.22 0 0 1-1.22 1.22h-42.48a1.22 1.22 0 0 1-1.22-1.22V75.17a1.24 1.24 0 0 1 1.22-1.22z"/><use xlink:href="#P" x="-47.94"/><use xlink:href="#P" x="-49.72"/><use xlink:href="#P" x="-51.51"/><use xlink:href="#P" x="-53.3"/><use xlink:href="#P" x="-55.08"/><use xlink:href="#P" x="-56.87"/><use xlink:href="#P" x="-58.67"/><use xlink:href="#P" x="-60.46"/><use xlink:href="#P" x="-62.25"/><use xlink:href="#P" x="-64.04"/><path d="M1000.38 75.04h15.96v1.7h-15.96z"/><use xlink:href="#Q" x="-47.94"/><path d="M987.39 75.53h41.93v28.55h-41.93z"/><use xlink:href="#R"/><use xlink:href="#P" x="-95.89" y="-0.18"/><use xlink:href="#P" x="-97.67" y="-0.18"/><use xlink:href="#P" x="-99.46" y="-0.18"/><use xlink:href="#P" x="-101.26" y="-0.18"/><use xlink:href="#P" x="-103.04" y="-0.18"/><use xlink:href="#P" x="-104.83" y="-0.18"/><use xlink:href="#P" x="-106.62" y="-0.18"/><use xlink:href="#P" x="-108.41" y="-0.18"/><use xlink:href="#P" x="-110.2" y="-0.18"/><use xlink:href="#P" x="-112" y="-0.18"/><path d="M952.43 74.86h15.96v1.7h-15.96z"/><path d="M968.02 76.55H952.8l.18-.55c.14-.43.64-.72 1.2-.72h12.47c.57 0 1.07.3 1.2.72l.17.55z"/><path d="M939.44 75.35h41.93v28.55h-41.93z"/><path d="M939.2 73.77h42.48a1.22 1.22 0 0 1 1.22 1.22v29.64a1.22 1.22 0 0 1-1.22 1.22H939.2a1.22 1.22 0 0 1-1.22-1.22V74.99a1.24 1.24 0 0 1 1.22-1.22z"/><use xlink:href="#P" x="-143.27"/><use xlink:href="#P" x="-145.06"/><use xlink:href="#P" x="-146.85"/><use xlink:href="#P" x="-148.64"/><use xlink:href="#P" x="-150.42"/><use xlink:href="#P" x="-152.21"/><use xlink:href="#P" x="-154.01"/><use xlink:href="#P" x="-155.8"/><use xlink:href="#P" x="-157.59"/><use xlink:href="#P" x="-159.38"/><path d="M905.04 75.04H921v1.7h-15.96z"/><use xlink:href="#Q" x="-143.28"/><path d="M892.05 75.53h41.93v28.55h-41.93z"/><use xlink:href="#R" x="-95.34"/></g></g></g><path d="M921.2 120.69c0 .23-.04.38-.13.46s-.24.12-.47.12-.38-.04-.47-.12-.13-.23-.13-.45c0-.23.04-.38.13-.46s.24-.12.47-.12.38.04.47.12.13.23.13.45zm-.12 7.06c0 .03-.01.06-.02.08s-.04.04-.08.06-.08.03-.15.04a1.7 1.7 0 0 1-.24.01c-.09 0-.17 0-.23-.01a.54.54 0 0 1-.15-.04c-.04-.02-.06-.03-.08-.06s-.02-.05-.02-.08v-5.27c0-.03.01-.05.02-.08s.04-.04.08-.06a.54.54 0 0 1 .15-.04c.06-.01.14-.01.23-.01l.24.01a.54.54 0 0 1 .15.04c.04.02.06.04.08.06s.02.05.02.08v5.27zm6.2-5.03c0 .14-.02.24-.06.3s-.08.09-.14.09h-.76c.14.14.23.3.29.47s.08.35.08.53c0 .3-.05.57-.15.81s-.24.43-.42.59a1.81 1.81 0 0 1-.65.37c-.25.08-.53.13-.83.13-.21 0-.42-.03-.61-.08a1.35 1.35 0 0 1-.45-.21c-.07.07-.13.15-.17.24s-.07.19-.07.31c0 .14.06.25.19.34s.3.14.51.15l1.38.06c.26.01.5.04.72.11s.41.16.57.28a1.33 1.33 0 0 1 .38.44c.09.17.13.38.13.61a1.65 1.65 0 0 1-.15.69c-.1.22-.26.41-.47.58s-.48.3-.8.39-.71.14-1.15.14a4.82 4.82 0 0 1-1.09-.11c-.3-.07-.54-.17-.74-.3s-.33-.27-.42-.45-.13-.36-.13-.57a1.65 1.65 0 0 1 .05-.38 1.35 1.35 0 0 1 .14-.35c.06-.11.14-.21.24-.31l.33-.3c-.19-.1-.33-.22-.42-.37s-.14-.31-.14-.48c0-.24.05-.45.15-.64s.22-.36.36-.5c-.12-.14-.22-.31-.29-.49a1.82 1.82 0 0 1-.11-.66c0-.3.05-.57.15-.81s.24-.44.42-.6a1.99 1.99 0 0 1 .65-.38c.25-.09.53-.13.82-.13.16 0 .31.01.45.03l.39.07h1.59c.07 0 .12.03.15.1s.08.15.08.29zm-1.03 5.56a.57.57 0 0 0-.28-.52c-.19-.12-.44-.19-.75-.2l-1.37-.05a2.22 2.22 0 0 0-.31.28 1.84 1.84 0 0 0-.19.25.82.82 0 0 0-.1.24c-.02.08-.03.16-.03.24 0 .25.13.45.39.58s.62.2 1.08.2a3.1 3.1 0 0 0 .74-.08c.2-.05.36-.13.48-.23s.21-.2.26-.32.08-.25.08-.39zm-.48-4.18c0-.36-.1-.64-.3-.84s-.48-.3-.84-.3c-.19 0-.35.03-.49.09s-.25.15-.35.26a1.09 1.09 0 0 0-.21.38c-.05.14-.07.29-.07.45 0 .35.1.62.3.82s.47.3.83.3c.19 0 .36-.03.5-.09s.26-.14.35-.25.16-.23.21-.37.07-.29.07-.45z"/><use xlink:href="#S"/><path d="M939.59 124.09a8.63 8.63 0 0 1-.14 1.59c-.09.48-.24.89-.46 1.24s-.49.61-.83.8-.77.28-1.27.28c-.48 0-.88-.08-1.2-.25s-.59-.42-.79-.75-.34-.74-.42-1.22a10.17 10.17 0 0 1-.13-1.66 8.63 8.63 0 0 1 .14-1.59c.09-.48.25-.9.46-1.24a2.27 2.27 0 0 1 .83-.8c.34-.19.77-.28 1.27-.28.48 0 .88.08 1.21.25s.59.42.79.75.34.74.42 1.22.12 1.03.12 1.66zm-1.03.07l-.04-1.02a7.21 7.21 0 0 0-.12-.8 2.14 2.14 0 0 0-.21-.59c-.09-.16-.18-.3-.3-.41s-.25-.19-.4-.23-.32-.07-.51-.07c-.33 0-.6.08-.81.23s-.37.37-.49.64-.2.59-.24.96a10.95 10.95 0 0 0-.06 1.18 9.69 9.69 0 0 0 .09 1.44c.06.39.15.72.28.97s.29.43.49.54.44.17.72.17a1.5 1.5 0 0 0 .58-.11 1.19 1.19 0 0 0 .43-.3 1.72 1.72 0 0 0 .3-.47 3.36 3.36 0 0 0 .19-.61 5 5 0 0 0 .1-.72c.02-.26 0-.52 0-.8zm30.31-3.47c0 .23-.04.38-.13.46s-.24.12-.47.12-.38-.04-.47-.12-.13-.23-.13-.45c0-.23.04-.38.13-.46s.24-.12.47-.12.38.04.47.12.13.23.13.45zm-.11 7.05c0 .03-.01.06-.02.08s-.04.04-.08.06-.08.03-.15.04-.14.01-.24.01c-.09 0-.17 0-.23-.01a.54.54 0 0 1-.15-.04c-.04-.02-.06-.03-.08-.06s-.02-.05-.02-.08v-5.27c0-.03.01-.05.02-.08s.04-.04.08-.06a.54.54 0 0 1 .15-.04c.06-.01.14-.01.23-.01l.24.01a.54.54 0 0 1 .15.04c.04.02.06.04.08.06s.02.05.02.08v5.27zm6.19-5.03c0 .14-.02.24-.06.3s-.08.09-.14.09H974c.14.14.23.3.29.47s.08.35.08.53c0 .3-.05.57-.15.81s-.24.43-.42.59a1.81 1.81 0 0 1-.65.37c-.25.08-.53.13-.83.13-.21 0-.42-.03-.61-.08a1.35 1.35 0 0 1-.45-.21c-.07.07-.13.15-.17.24s-.07.19-.07.31c0 .14.06.25.19.34s.3.14.51.15l1.38.06c.26.01.5.04.72.11s.41.16.57.28a1.33 1.33 0 0 1 .38.44c.09.17.13.38.13.61a1.65 1.65 0 0 1-.15.69c-.1.22-.26.41-.47.58s-.48.3-.8.39-.71.14-1.15.14a4.82 4.82 0 0 1-1.09-.11c-.3-.07-.54-.17-.74-.3s-.33-.27-.42-.45-.13-.36-.13-.57a1.65 1.65 0 0 1 .05-.38 1.35 1.35 0 0 1 .14-.35c.06-.11.14-.21.24-.31l.33-.3c-.19-.1-.33-.22-.42-.37s-.14-.31-.14-.48c0-.24.05-.45.15-.64s.22-.36.36-.5c-.12-.14-.22-.31-.29-.49a1.82 1.82 0 0 1-.11-.66c0-.3.05-.57.15-.81s.24-.44.42-.6a1.99 1.99 0 0 1 .65-.38c.25-.09.53-.13.82-.13.16 0 .31.01.45.03l.39.07h1.59c.07 0 .12.03.15.1s.07.16.07.29zm-1.02 5.57a.57.57 0 0 0-.28-.52c-.19-.12-.44-.19-.75-.2l-1.37-.05a2.22 2.22 0 0 0-.31.28 1.84 1.84 0 0 0-.19.25.82.82 0 0 0-.1.24c-.02.08-.03.16-.03.24 0 .25.13.45.39.58s.62.2 1.08.2a3.1 3.1 0 0 0 .74-.08c.2-.05.36-.13.48-.23s.21-.2.26-.32.08-.26.08-.39zm-.49-4.18c0-.36-.1-.64-.3-.84s-.48-.3-.84-.3c-.19 0-.35.03-.49.09s-.25.15-.35.26a1.09 1.09 0 0 0-.21.38c-.05.14-.07.29-.07.45 0 .35.1.62.3.82s.47.3.83.3c.19 0 .36-.03.5-.09s.26-.14.35-.25.16-.23.21-.37a1.41 1.41 0 0 0 .07-.45zm7.61.94c0 .46-.05.87-.15 1.23s-.25.68-.44.93-.43.46-.71.59a2.27 2.27 0 0 1-.97.21c-.17 0-.32-.02-.47-.05s-.28-.09-.42-.16a2.49 2.49 0 0 1-.41-.28c-.14-.11-.28-.25-.43-.41v.64c0 .03-.01.06-.02.08s-.04.04-.08.06-.08.02-.13.03-.12.01-.2.01-.14 0-.2-.01-.1-.02-.13-.03-.06-.03-.07-.06-.02-.05-.02-.08v-7.82c0-.03.01-.06.02-.08s.04-.04.08-.06a.54.54 0 0 1 .15-.04c.06-.01.14-.01.23-.01l.24.01a.54.54 0 0 1 .15.04c.04.02.06.04.08.06s.02.05.02.08v3.16c.16-.16.31-.29.45-.4a2.54 2.54 0 0 1 .43-.27c.14-.07.28-.12.42-.15a2.14 2.14 0 0 1 .45-.05c.38 0 .71.08.98.23a1.93 1.93 0 0 1 .66.61c.17.25.29.56.37.9a4.73 4.73 0 0 1 .12 1.09zm-1.01.11c0-.27-.02-.53-.06-.79-.04-.25-.11-.48-.22-.67a1.25 1.25 0 0 0-.41-.47c-.17-.12-.38-.18-.63-.18a1.5 1.5 0 0 0-.37.05c-.12.04-.25.09-.37.18s-.26.19-.39.32c-.14.13-.28.29-.43.49v2.1c.27.32.52.57.77.74.24.17.5.25.76.25.24 0 .45-.06.62-.18a1.37 1.37 0 0 0 .42-.47c.11-.2.19-.41.24-.65.05-.23.07-.48.07-.72zm6.99 2.34c0 .07-.01.14-.02.19s-.03.09-.05.12-.04.05-.07.07-.05.02-.08.02h-3.96c-.03 0-.05-.01-.08-.02s-.05-.04-.07-.07-.04-.07-.05-.12a.92.92 0 0 1-.02-.19c0-.07.01-.13.02-.18s.03-.09.04-.13.04-.06.06-.08.05-.03.08-.03h1.58v-5.75l-1.46.87c-.07.04-.13.06-.18.07s-.08 0-.11-.03-.05-.07-.06-.13-.01-.13-.01-.22c0-.07 0-.12.01-.17s.01-.09.03-.12.03-.06.05-.08a.57.57 0 0 1 .08-.07l1.75-1.12.06-.03a.2.2 0 0 1 .09-.02c.04 0 .08-.01.12-.01h.18l.23.01.15.03c.04.01.06.03.07.05s.02.04.02.07v6.66h1.37c.03 0 .06.01.09.03s.05.04.07.08.03.08.04.13.03.1.03.17z"/><use xlink:href="#T"/><path d="M1070.84 5.2c0 .14-.02.24-.06.3s-.08.09-.14.09h-.76c.14.14.23.3.29.47s.08.35.08.53c0 .3-.05.57-.15.81s-.24.43-.42.59a1.81 1.81 0 0 1-.65.37c-.25.08-.53.13-.83.13-.21 0-.42-.03-.61-.08a1.35 1.35 0 0 1-.45-.21c-.07.07-.13.15-.17.24s-.07.19-.07.31c0 .14.06.25.19.34s.3.14.51.15l1.38.06c.26.01.5.04.72.11s.41.16.57.28a1.33 1.33 0 0 1 .38.44c.09.17.13.38.13.61a1.65 1.65 0 0 1-.15.69c-.1.22-.26.41-.47.58s-.48.3-.8.39-.71.14-1.15.14a4.82 4.82 0 0 1-1.09-.11c-.3-.07-.54-.17-.74-.3s-.33-.27-.42-.45-.13-.36-.13-.57a1.65 1.65 0 0 1 .05-.38 1.35 1.35 0 0 1 .14-.35c.06-.11.14-.21.24-.31l.33-.3c-.19-.1-.33-.22-.42-.37s-.14-.31-.14-.48c0-.24.05-.45.15-.64s.22-.36.36-.5c-.12-.14-.22-.31-.29-.49a1.82 1.82 0 0 1-.11-.66c0-.3.05-.57.15-.81s.24-.44.42-.6a1.99 1.99 0 0 1 .65-.38c.25-.09.53-.13.82-.13.16 0 .31.01.45.03l.39.07h1.59c.07 0 .12.03.15.1s.08.15.08.29zm-1.02 5.56a.57.57 0 0 0-.28-.52c-.19-.12-.44-.19-.75-.2l-1.37-.05a2.22 2.22 0 0 0-.31.28 1.84 1.84 0 0 0-.19.25.82.82 0 0 0-.1.24c-.02.08-.03.16-.03.24 0 .25.13.45.39.58s.62.2 1.08.2a3.1 3.1 0 0 0 .74-.08c.2-.05.36-.13.48-.23s.21-.2.26-.32.08-.25.08-.39zm-.49-4.18c0-.36-.1-.64-.3-.84s-.48-.3-.84-.3c-.19 0-.35.03-.49.09s-.25.15-.35.26a1.09 1.09 0 0 0-.21.38c-.05.14-.07.29-.07.45 0 .35.1.62.3.82s.47.3.83.3c.19 0 .36-.03.5-.09s.26-.14.35-.25.16-.23.21-.37.07-.29.07-.45z"/><use xlink:href="#U"/><path d="M1083.02 3.23c0 .07 0 .13-.01.19l-.02.16c-.01.05-.02.1-.04.15l-.06.16-2.73 6.29c-.02.05-.04.08-.07.11s-.07.05-.11.07-.1.03-.17.04-.16.01-.26.01a2.28 2.28 0 0 1-.31-.02c-.07-.01-.13-.03-.16-.06s-.05-.06-.04-.09.02-.08.04-.13l2.87-6.43h-3.64c-.07 0-.13-.04-.17-.12s-.06-.19-.06-.33c0-.07 0-.14.01-.19s.02-.1.04-.14.04-.06.07-.08.06-.03.09-.03h4.42a.59.59 0 0 1 .14.02c.04.01.07.04.09.07s.04.08.05.13.03.13.03.22z"/><use xlink:href="#T" x="-47.83"/><path d="M1023.01 5.2c0 .14-.02.24-.06.3s-.08.09-.14.09h-.76c.14.14.23.3.29.47s.08.35.08.53c0 .3-.05.57-.15.81s-.24.43-.42.59a1.81 1.81 0 0 1-.65.37c-.25.08-.53.13-.83.13-.21 0-.42-.03-.61-.08a1.35 1.35 0 0 1-.45-.21c-.07.07-.13.15-.17.24s-.07.19-.07.31c0 .14.06.25.19.34s.3.14.51.15l1.38.06c.26.01.5.04.72.11s.41.16.57.28a1.33 1.33 0 0 1 .38.44c.09.17.13.38.13.61a1.65 1.65 0 0 1-.15.69c-.1.22-.26.41-.47.58s-.48.3-.8.39-.71.14-1.15.14a4.82 4.82 0 0 1-1.09-.11c-.3-.07-.54-.17-.74-.3s-.33-.27-.42-.45-.13-.36-.13-.57a1.65 1.65 0 0 1 .05-.38 1.35 1.35 0 0 1 .14-.35c.06-.11.14-.21.24-.31l.33-.3c-.19-.1-.33-.22-.42-.37s-.14-.31-.14-.48c0-.24.05-.45.15-.64s.22-.36.36-.5c-.12-.14-.22-.31-.29-.49s-.08-.41-.08-.66c0-.3.05-.57.15-.81s.24-.44.42-.6a1.99 1.99 0 0 1 .65-.38c.25-.09.53-.13.82-.13.16 0 .31.01.45.03l.39.07h1.59c.07 0 .12.03.15.1s.05.15.05.29zm-1.02 5.56a.57.57 0 0 0-.28-.52c-.19-.12-.44-.19-.75-.2l-1.37-.05a2.22 2.22 0 0 0-.31.28 1.84 1.84 0 0 0-.19.25.82.82 0 0 0-.1.24c-.02.08-.03.16-.03.24 0 .25.13.45.39.58s.62.2 1.08.2a3.1 3.1 0 0 0 .74-.08c.2-.05.36-.13.48-.23s.21-.2.26-.32.08-.25.08-.39zm-.49-4.18c0-.36-.1-.64-.3-.84s-.48-.3-.84-.3c-.19 0-.35.03-.49.09s-.25.15-.35.26a1.09 1.09 0 0 0-.21.38c-.05.14-.07.29-.07.45 0 .35.1.62.3.82s.47.3.83.3c.19 0 .36-.03.5-.09s.26-.14.35-.25.16-.23.21-.37.07-.29.07-.45z"/><use xlink:href="#U" x="-47.83"/><path d="M1035.27 7.92a3.11 3.11 0 0 1-.15.96 2.31 2.31 0 0 1-.47.82 2.24 2.24 0 0 1-.8.57c-.32.14-.71.21-1.15.21a2.66 2.66 0 0 1-.84-.12c-.24-.08-.45-.19-.63-.33s-.33-.32-.45-.53a3.38 3.38 0 0 1-.29-.72c-.08-.27-.12-.56-.16-.88s-.05-.66-.05-1.03c0-.32.02-.65.05-.98a5.1 5.1 0 0 1 .19-.96c.09-.31.21-.6.37-.87s.35-.51.58-.71a2.7 2.7 0 0 1 .83-.48c.32-.12.7-.18 1.13-.18.14 0 .29.01.44.03l.41.07c.12.03.23.06.32.1l.17.08c.03.02.05.04.06.07l.03.08c.01.03.01.06.02.1s.01.08.01.14v.18c0 .05-.01.09-.02.12s-.03.05-.05.07-.05.02-.08.02c-.04 0-.1-.01-.18-.04l-.27-.09-.38-.09c-.15-.03-.33-.04-.52-.04-.36 0-.68.07-.94.22a1.84 1.84 0 0 0-.64.6c-.16.25-.29.54-.37.87a4.92 4.92 0 0 0-.14 1.03c.1-.06.22-.12.34-.18s.27-.11.42-.16.31-.08.48-.11.35-.04.54-.04c.41 0 .76.06 1.04.17s.51.27.68.46c.17.2.3.43.37.7a3.46 3.46 0 0 1 .1.87zm-1.02.09c0-.23-.02-.43-.07-.62a1.15 1.15 0 0 0-.23-.47c-.11-.13-.25-.23-.42-.3s-.39-.11-.65-.11c-.14 0-.29.01-.43.04l-.42.11-.39.16c-.13.06-.24.13-.34.2 0 .5.03.93.1 1.27s.16.61.28.82.28.35.46.44.4.13.64.13a1.45 1.45 0 0 0 .65-.14c.18-.09.34-.22.46-.38a1.77 1.77 0 0 0 .27-.53c.06-.19.09-.41.09-.62zm-66.54-4.83c0 .23-.04.38-.13.46s-.24.12-.47.12-.38-.04-.47-.12-.13-.23-.13-.45c0-.23.04-.38.13-.46s.24-.12.47-.12.38.04.47.12.13.23.13.45zm-.12 7.06c0 .03-.01.06-.02.08s-.04.04-.08.06-.08.03-.15.04-.14.01-.24.01c-.09 0-.17 0-.23-.01a.54.54 0 0 1-.15-.04c-.04-.02-.06-.03-.08-.06s-.02-.05-.02-.08V4.97c0-.03.01-.05.02-.08s.04-.04.08-.06a.54.54 0 0 1 .15-.04c.06-.01.14-.01.23-.01l.24.01a.54.54 0 0 1 .15.04c.04.02.06.04.08.06s.02.05.02.08v5.27zm6.2-5.03c0 .14-.02.24-.06.3s-.08.08-.14.08h-.76c.14.14.23.3.29.47s.08.35.08.53c0 .3-.05.57-.15.81s-.24.43-.42.59a1.81 1.81 0 0 1-.65.37c-.25.08-.53.13-.83.13-.21 0-.42-.03-.61-.08a1.35 1.35 0 0 1-.45-.21c-.07.07-.13.15-.17.24s-.07.19-.07.31c0 .14.06.25.19.34s.3.14.51.15l1.38.06c.26.01.5.04.72.11s.41.16.57.28a1.33 1.33 0 0 1 .38.44c.09.17.13.38.13.61a1.65 1.65 0 0 1-.15.69c-.1.22-.26.41-.47.58s-.48.3-.8.39-.71.14-1.15.14a4.82 4.82 0 0 1-1.09-.11c-.3-.07-.54-.17-.74-.3s-.33-.27-.42-.45-.13-.36-.13-.57a1.65 1.65 0 0 1 .05-.38 1.35 1.35 0 0 1 .14-.35c.06-.11.14-.21.24-.31l.33-.3c-.19-.1-.33-.22-.42-.37s-.14-.31-.14-.48c0-.24.05-.45.15-.64s.22-.36.36-.5c-.12-.14-.22-.31-.29-.49a1.82 1.82 0 0 1-.11-.66c0-.3.05-.57.15-.81s.24-.44.42-.6a1.99 1.99 0 0 1 .65-.38c.25-.09.53-.13.82-.13.16 0 .31.01.45.03l.39.07h1.59c.07 0 .12.03.15.1s.08.16.08.3zm-1.03 5.56a.57.57 0 0 0-.28-.52c-.19-.12-.44-.19-.75-.2l-1.37-.05a2.22 2.22 0 0 0-.31.28 1.84 1.84 0 0 0-.19.25.82.82 0 0 0-.1.24c-.02.08-.03.16-.03.24 0 .25.13.45.39.58s.62.2 1.08.2a3.1 3.1 0 0 0 .74-.08c.2-.05.36-.13.48-.23s.21-.2.26-.32.08-.25.08-.39zm-.48-4.18c0-.36-.1-.64-.3-.84s-.48-.3-.84-.3c-.19 0-.35.03-.49.09s-.25.15-.35.26a1.09 1.09 0 0 0-.21.38c-.05.14-.07.29-.07.45 0 .35.1.62.3.82s.47.3.83.3c.19 0 .36-.03.5-.09s.26-.14.35-.25.16-.23.21-.37.07-.29.07-.45zm7.6.94c0 .46-.05.87-.15 1.23s-.25.68-.44.93-.43.46-.71.59a2.27 2.27 0 0 1-.97.21c-.17 0-.32-.02-.47-.05s-.28-.09-.42-.16a2.49 2.49 0 0 1-.41-.28c-.14-.11-.28-.25-.43-.41v.64c0 .03-.01.06-.02.08s-.04.04-.08.06-.08.02-.13.03-.12.01-.2.01-.14 0-.2-.01-.1-.02-.13-.03-.06-.03-.07-.06-.02-.05-.02-.08V2.41c0-.03.01-.06.02-.08s.04-.04.08-.06a.54.54 0 0 1 .15-.04c.06-.01.14-.01.23-.01l.24.01a.54.54 0 0 1 .15.04c.04.02.06.04.08.06s.02.05.02.08v3.16c.16-.16.31-.29.45-.4a2.54 2.54 0 0 1 .43-.27c.14-.07.28-.12.42-.15a2.14 2.14 0 0 1 .45-.05c.38 0 .71.08.98.23a1.93 1.93 0 0 1 .66.61c.17.25.29.56.37.9.08.35.12.71.12 1.09zm-1 .11c0-.27-.02-.53-.06-.79-.04-.25-.11-.48-.22-.67a1.25 1.25 0 0 0-.41-.47c-.17-.12-.38-.18-.63-.18a1.5 1.5 0 0 0-.37.05c-.12.04-.25.09-.37.18s-.26.19-.39.32c-.14.13-.28.29-.43.49v2.1c.27.32.52.57.77.74.24.17.5.25.76.25.24 0 .45-.06.62-.18a1.37 1.37 0 0 0 .42-.47c.11-.2.19-.41.24-.65.05-.23.07-.47.07-.72zm6.94.31c0 .41-.07.77-.21 1.08a2.32 2.32 0 0 1-.58.8 2.67 2.67 0 0 1-.89.5c-.34.12-.73.17-1.15.17-.23 0-.46-.02-.67-.05s-.4-.07-.56-.12l-.4-.14c-.1-.04-.17-.08-.2-.11s-.05-.05-.06-.08l-.03-.08c-.01-.03-.02-.08-.02-.13s-.01-.11-.01-.18 0-.13.01-.18l.03-.13c.01-.03.03-.06.06-.07s.05-.02.07-.02c.04 0 .1.02.18.07s.19.1.33.16.31.11.52.16.45.08.73.08a2.73 2.73 0 0 0 .72-.09c.22-.06.41-.16.57-.29s.28-.3.37-.5.13-.45.13-.74c0-.24-.04-.46-.11-.64a1.05 1.05 0 0 0-.35-.46c-.16-.12-.36-.21-.6-.28s-.53-.09-.87-.09c-.24 0-.44.01-.62.04a2.82 2.82 0 0 1-.48.04c-.11 0-.19-.03-.23-.08s-.07-.15-.07-.29V3.18c0-.13.03-.22.09-.29s.15-.09.26-.09h3.36c.03 0 .06.01.09.03s.05.04.07.08.03.08.04.13a1.09 1.09 0 0 1 .01.19c0 .14-.02.25-.06.33s-.09.12-.16.12h-2.71v2.13c.13-.02.27-.03.4-.04l.48-.01c.42 0 .78.05 1.09.16s.57.25.78.44.37.42.47.69.18.57.18.9z"/><use xlink:href="#T" x="-143.26"/><use xlink:href="#V"/><use xlink:href="#U" x="-143.26"/><path d="M939.97 8.22c0 .13-.02.23-.06.3s-.09.11-.16.11h-.86v1.59c0 .03-.01.06-.02.08-.02.02-.04.04-.08.06a.53.53 0 0 1-.16.04c-.07.01-.15.01-.25.01s-.18 0-.24-.01-.12-.02-.15-.04-.06-.03-.08-.06c-.01-.02-.02-.05-.02-.08V8.63h-3.1c-.05 0-.09-.01-.12-.02s-.06-.03-.08-.06-.04-.08-.05-.13-.01-.13-.01-.23c0-.07 0-.14.01-.2l.02-.16a.58.58 0 0 1 .05-.14l.07-.14 2.7-4.61c.02-.03.05-.06.09-.08s.09-.04.15-.06.13-.03.22-.03l.31-.01.34.01c.09.01.18.02.24.04s.11.04.14.06a.12.12 0 0 1 .05.09V7.8h.86c.07 0 .12.03.16.1s.03.18.03.32zm-2.08-4.58h-.01l-2.44 4.16h2.45V3.64zm127.05 117.05c0 .23-.04.38-.13.46s-.24.12-.47.12-.38-.04-.47-.12-.13-.23-.13-.45c0-.23.04-.38.13-.46s.24-.12.47-.12.38.04.47.12.13.23.13.45zm-.11 7.06c0 .03-.01.06-.02.08s-.04.04-.08.06-.08.03-.15.04-.14.01-.24.01c-.09 0-.17 0-.23-.01a.54.54 0 0 1-.15-.04c-.04-.02-.06-.03-.08-.06s-.02-.05-.02-.08v-5.27c0-.03.01-.05.02-.08s.04-.04.08-.06a.54.54 0 0 1 .15-.04c.06-.01.14-.01.23-.01l.24.01a.54.54 0 0 1 .15.04c.04.02.06.04.08.06s.02.05.02.08v5.27z"/><use xlink:href="#V" x="143.44" y="117.52"/><path d="M1077.12 125.04c0 .46-.05.87-.15 1.23s-.25.68-.44.93-.43.46-.71.59a2.27 2.27 0 0 1-.97.21c-.17 0-.32-.02-.47-.05s-.28-.09-.42-.16a2.49 2.49 0 0 1-.41-.28c-.14-.11-.28-.25-.43-.41v.64c0 .03-.01.06-.02.08s-.04.04-.08.06-.08.02-.13.03-.12.01-.2.01-.14 0-.2-.01-.1-.02-.13-.03-.06-.03-.07-.06-.02-.05-.02-.08v-7.82c0-.03.01-.06.02-.08s.04-.04.08-.06a.54.54 0 0 1 .15-.04c.06-.01.14-.01.23-.01l.24.01a.54.54 0 0 1 .15.04c.04.02.06.04.08.06s.02.05.02.08v3.16c.16-.16.31-.29.45-.4a2.54 2.54 0 0 1 .43-.27c.14-.07.28-.12.42-.15a2.14 2.14 0 0 1 .45-.05c.38 0 .71.08.98.23a1.93 1.93 0 0 1 .66.61c.17.25.29.56.37.9.08.35.12.71.12 1.09zm-1 .11c0-.27-.02-.53-.06-.79-.04-.25-.11-.48-.22-.67a1.25 1.25 0 0 0-.41-.47c-.17-.12-.38-.18-.63-.18a1.5 1.5 0 0 0-.37.05c-.12.04-.25.09-.37.18s-.26.19-.39.32c-.14.13-.28.29-.43.49v2.1c.27.32.52.57.77.74.24.17.5.25.76.25.24 0 .45-.06.62-.18a1.37 1.37 0 0 0 .42-.47c.11-.2.19-.41.24-.65.04-.23.07-.47.07-.72z"/><use xlink:href="#W"/><path d="M1018.2 120.7c0 .23-.04.38-.13.46s-.24.12-.47.12-.38-.04-.47-.12-.13-.23-.13-.45c0-.23.04-.38.13-.46s.24-.12.47-.12.38.04.47.12.13.22.13.45zm-.11 7.05c0 .03-.01.06-.02.08s-.04.04-.08.06-.08.03-.15.04-.14.01-.24.01c-.09 0-.17 0-.23-.01a.54.54 0 0 1-.15-.04c-.04-.02-.06-.03-.08-.06s-.02-.05-.02-.08v-5.27c0-.03.01-.05.02-.08s.04-.04.08-.06a.54.54 0 0 1 .15-.04c.06-.01.14-.01.23-.01l.24.01a.54.54 0 0 1 .15.04c.04.02.06.04.08.06s.02.05.02.08v5.27zm6.19-5.03c0 .14-.02.24-.06.3s-.08.09-.14.09h-.76c.14.14.23.3.29.47s.08.35.08.53c0 .3-.05.57-.15.81s-.24.43-.42.59a1.81 1.81 0 0 1-.65.37c-.25.08-.53.13-.83.13-.21 0-.42-.03-.61-.08a1.35 1.35 0 0 1-.45-.21c-.07.07-.13.15-.17.24s-.07.19-.07.31c0 .14.06.25.19.34s.3.14.51.15l1.38.06c.26.01.5.04.72.11s.41.16.57.28a1.33 1.33 0 0 1 .38.44c.09.17.13.38.13.61a1.65 1.65 0 0 1-.15.69c-.1.22-.26.41-.47.58s-.48.3-.8.39-.71.14-1.15.14a4.82 4.82 0 0 1-1.09-.11c-.3-.07-.54-.17-.74-.3s-.33-.27-.42-.45-.13-.36-.13-.57a1.65 1.65 0 0 1 .05-.38 1.35 1.35 0 0 1 .14-.35c.06-.11.14-.21.24-.31l.33-.3c-.19-.1-.33-.22-.42-.37s-.14-.31-.14-.48c0-.24.05-.45.15-.64s.22-.36.36-.5c-.12-.14-.22-.31-.29-.49a1.82 1.82 0 0 1-.11-.66c0-.3.05-.57.15-.81s.24-.44.42-.6a1.99 1.99 0 0 1 .65-.38c.25-.09.53-.13.82-.13.16 0 .31.01.45.03l.39.07h1.59c.07 0 .12.03.15.1s.08.15.08.29zm-1.03 5.56a.57.57 0 0 0-.28-.52c-.19-.12-.44-.19-.75-.2l-1.37-.05a2.22 2.22 0 0 0-.31.28 1.84 1.84 0 0 0-.19.25.82.82 0 0 0-.1.24c-.02.08-.03.16-.03.24 0 .25.13.45.39.58s.62.2 1.08.2a3.1 3.1 0 0 0 .74-.08c.2-.05.36-.13.48-.23s.21-.2.26-.32.08-.25.08-.39zm-.48-4.17c0-.36-.1-.64-.3-.84s-.48-.3-.84-.3c-.19 0-.35.03-.49.09s-.25.15-.35.26a1.09 1.09 0 0 0-.21.38c-.05.14-.07.29-.07.45 0 .35.1.62.3.82s.47.3.83.3c.19 0 .36-.03.5-.09s.26-.14.35-.25.16-.23.21-.37.07-.3.07-.45z"/><use xlink:href="#S" x="97"/><use xlink:href="#X"/><g class="B C D"><path d="M208.54 59.47c0 .18-.04.34-.1.47a1.03 1.03 0 0 1-.27.35c-.12.1-.25.17-.41.22-.16.04-.33.07-.51.07-.12 0-.25-.01-.35-.04a1.23 1.23 0 0 1-.29-.08c-.09-.04-.16-.06-.21-.1s-.1-.06-.12-.09-.04-.05-.05-.09-.02-.08-.02-.14c0-.04 0-.08.01-.11 0-.03.01-.05.02-.07s.02-.03.03-.04.03-.01.04-.01c.03 0 .06.02.12.05l.2.11c.08.04.17.07.28.11.12.04.24.05.38.05a1.36 1.36 0 0 0 .3-.04c.09-.03.17-.07.23-.12s.12-.12.15-.2.05-.17.05-.27a.54.54 0 0 0-.07-.27c-.04-.08-.12-.14-.2-.2l-.27-.16c-.11-.04-.2-.1-.31-.15a3.07 3.07 0 0 1-.31-.17c-.1-.06-.2-.13-.27-.21-.08-.08-.14-.18-.2-.28s-.07-.24-.07-.4.03-.3.09-.43c.05-.12.13-.23.24-.31s.22-.15.36-.2a1.63 1.63 0 0 1 .45-.06c.08 0 .17.01.26.02s.17.04.24.06a1.19 1.19 0 0 1 .2.08c.06.03.1.05.12.07s.03.04.04.04c.01.01.01.03.02.04 0 .02.01.04.01.06v.09.1c0 .04-.01.05-.01.07-.01.02-.02.04-.03.04-.01.01-.03.01-.04.01-.02 0-.05-.02-.1-.04-.04-.03-.11-.06-.17-.09-.07-.04-.14-.06-.24-.1a.99.99 0 0 0-.3-.04c-.11 0-.2.02-.27.04s-.14.06-.2.12c-.05.04-.09.11-.12.17s-.04.13-.04.2a.54.54 0 0 0 .07.27c.04.08.12.14.2.2s.17.12.27.16c.11.04.21.1.32.15l.32.16c.11.06.2.13.27.21a1.1 1.1 0 0 1 .2.28c.05.1.06.3.06.44zm2.89-.43c0 .08-.02.13-.05.16s-.08.04-.13.04h-1.73c0 .14.02.27.04.39s.08.21.15.3c.07.08.16.15.27.2s.24.07.4.07c.12 0 .24-.01.34-.03a1.38 1.38 0 0 0 .26-.07c.07-.03.13-.04.18-.07.04-.03.08-.03.11-.03.01 0 .03 0 .04.01l.03.03c.01.02.01.04.01.05v.09.06c0 .02 0 .04-.01.05 0 .02-.01.03-.02.04s-.02.03-.03.04a.28.28 0 0 1-.1.05c-.05.03-.12.04-.2.07s-.18.04-.29.06-.23.03-.35.03c-.21 0-.41-.03-.57-.09a1.05 1.05 0 0 1-.41-.27c-.11-.12-.2-.27-.25-.44a2.33 2.33 0 0 1-.08-.62c0-.22.03-.43.09-.61a1.27 1.27 0 0 1 .25-.46 1.18 1.18 0 0 1 .4-.29c.15-.07.33-.1.52-.1.2 0 .38.04.52.1a.87.87 0 0 1 .35.27c.1.12.16.24.2.39s.06.31.06.48v.1h0zm-.47-.14c.01-.26-.05-.45-.17-.59s-.29-.21-.52-.21c-.12 0-.22.03-.31.07s-.17.11-.23.18a.72.72 0 0 0-.14.26c-.04.1-.05.2-.05.31l1.42-.02zm2.74-.89v.11c0 .03-.01.05-.01.07-.01.02-.01.03-.02.04s-.02.01-.04.01-.04 0-.05-.01c-.02-.01-.04-.02-.07-.03l-.1-.03c-.04-.01-.07-.01-.12-.01a.32.32 0 0 0-.14.03c-.04.02-.1.05-.15.1s-.11.11-.16.18l-.19.27v1.73c0 .02 0 .03-.01.04s-.02.02-.04.03-.04.02-.07.02c-.04 0-.07.01-.12.01-.04 0-.09 0-.12-.01s-.05-.01-.07-.02-.04-.02-.04-.03c-.01-.01-.01-.03-.01-.04v-2.62c0-.02 0-.03.01-.04s.02-.02.04-.03.04-.02.07-.02h.11.11c.03 0 .05.01.06.02s.03.02.04.03.01.03.01.04v.38c.07-.11.14-.2.2-.26s.12-.12.18-.16c.05-.04.12-.06.17-.08s.12-.02.17-.02h.09c.04 0 .06.01.1.02l.1.03c.03.01.04.02.06.03l.03.03c0 .01.01.02.01.04s0 .04.01.06c-.04.01-.04.05-.04.09zm1.09-1.06c0 .12-.02.19-.06.23s-.12.06-.24.06-.19-.02-.23-.06-.06-.12-.06-.23c0-.12.02-.19.06-.23s.12-.06.24-.06.19.02.23.06.06.12.06.23zm-.06 3.52c0 .02 0 .03-.01.04s-.02.02-.04.03-.04.02-.07.02c-.04 0-.07.01-.12.01-.04 0-.09 0-.12-.01s-.05-.01-.07-.02-.04-.02-.04-.03c-.01-.01-.01-.03-.01-.04v-2.62c0-.02 0-.03.01-.04s.02-.02.04-.03.04-.02.07-.02.07-.01.12-.01c.04 0 .09 0 .12.01.03 0 .05.01.07.02s.03.02.04.03.01.03.01.04v2.62zm2.88 0c0 .03-.01.04-.03.05l-.06.03c-.03.01-.07.01-.12.01s-.09 0-.12-.01-.05-.02-.06-.03c-.02-.01-.02-.03-.02-.05v-.27c-.12.12-.24.22-.38.28s-.29.11-.45.11c-.14 0-.27-.02-.37-.05a.76.76 0 0 1-.28-.16.79.79 0 0 1-.19-.25c-.04-.1-.06-.21-.06-.34a.83.83 0 0 1 .09-.39c.06-.11.15-.2.26-.27.12-.07.25-.12.42-.16.16-.04.35-.05.55-.05h.36v-.2c0-.1-.01-.19-.04-.27-.02-.08-.05-.14-.11-.2-.04-.05-.11-.09-.19-.12s-.17-.04-.28-.04-.22.02-.32.04c-.1.03-.18.06-.25.09-.07.04-.13.06-.18.1-.04.04-.08.04-.11.04-.02 0-.03 0-.04-.01s-.03-.02-.04-.04-.02-.04-.02-.06c0-.03-.01-.05-.01-.08 0-.04 0-.09.01-.12s.03-.05.05-.08c.03-.03.07-.05.13-.09s.14-.06.22-.1c.08-.03.18-.05.27-.07.1-.02.2-.03.3-.03.19 0 .35.02.48.06a.78.78 0 0 1 .32.19c.08.08.14.19.18.31s.05.27.05.43v1.77l.04.03h0zm-.48-1.2h-.41c-.13 0-.25.01-.35.04s-.18.05-.24.1-.12.1-.14.16c-.03.06-.04.13-.04.21a.43.43 0 0 0 .13.33c.09.08.2.12.36.12.12 0 .24-.04.35-.1s.22-.16.34-.29v-.57h0zm1.84 1.2c0 .02 0 .03-.01.04s-.02.02-.04.03-.04.02-.07.02c-.04 0-.07.01-.12.01-.04 0-.09 0-.12-.01s-.05-.01-.07-.02-.04-.02-.04-.03c-.01-.01-.01-.03-.01-.04v-3.9c0-.02 0-.03.01-.04s.02-.02.04-.03.04-.02.07-.02.07-.01.12-.01c.04 0 .09 0 .12.01.03 0 .05.01.07.02s.03.02.04.03.01.03.01.04v3.9z" stroke-width=".443"/><g stroke-width=".665"><path d="M230.63 52.96h-35.87a.18.18 0 0 1-.18-.18V26.01a.18.18 0 0 1 .18-.18h35.87a.18.18 0 0 1 .18.18v26.78c-.01.1-.08.17-.18.17z"/><path d="M229.84 52.21h-34.29a.18.18 0 0 1-.18-.18V26.77a.18.18 0 0 1 .18-.18h34.29a.18.18 0 0 1 .18.18v25.27c0 .1-.08.17-.18.17z"/><path d="M199.31 36.7v-4.38a.18.18 0 0 1 .18-.18h4.77a.18.18 0 0 0 .18-.18v-3.59a.18.18 0 0 1 .18-.18h2.8a.18.18 0 0 0 .18-.18v-1.22a.18.18 0 0 1 .18-.18h4.95 4.95a.18.18 0 0 1 .18.18v1.22a.18.18 0 0 0 .18.18h2.8a.18.18 0 0 1 .18.18v3.59a.18.18 0 0 0 .18.18h4.77a.18.18 0 0 1 .18.18v4.38 6.25 3.98a.18.18 0 0 1-.18.18h-13.21-13.21a.18.18 0 0 1-.18-.18v-3.98-6.25h-.06z"/><use xlink:href="#Y"/><use xlink:href="#Y" x="2.08"/><use xlink:href="#Y" x="4.16"/><use xlink:href="#Y" x="6.24"/><use xlink:href="#Y" x="8.31"/><use xlink:href="#Y" x="10.39"/><use xlink:href="#Y" x="12.47"/><use xlink:href="#Y" x="14.54"/><path d="M225.58 41.57l1.33.09v-3.64l-1.33.09c-.16.01-.28.14-.28.31v2.84c0 .17.12.3.28.31zm-25.73 0l-1.32.09v-3.64l1.32.09c.16.01.28.14.28.31v2.84c0 .17-.12.3-.28.31z"/></g></g><path d="M267 4.76c.01.36-.25.65-.67.65-.37 0-.64-.29-.64-.65 0-.37.28-.66.66-.66.4 0 .65.29.65.66zm-1.17 7.44V6.4h1.06v5.8h-1.06zm7.81-5.81l-.05 1.6v3.37c0 1.33-.26 2.15-.83 2.65-.56.53-1.38.7-2.11.7-.7 0-1.46-.17-1.93-.48l.26-.8c.38.24.98.46 1.7.46 1.08 0 1.87-.56 1.87-2.03v-.66h-.02c-.32.54-.95.97-1.85.97-1.44 0-2.47-1.22-2.47-2.83 0-1.97 1.28-3.08 2.61-3.08 1.01 0 1.56.53 1.81 1.01h.02l.05-.88h.94zm-1.1 2.29c0-.18-.01-.34-.06-.48-.19-.61-.71-1.12-1.48-1.12-1.01 0-1.73.85-1.73 2.19 0 1.14.58 2.09 1.72 2.09.65 0 1.24-.41 1.46-1.08.06-.18.08-.38.08-.56V8.68z"/><use xlink:href="#Z"/><use xlink:href="#a"/><path d="M291.25 12.2v-2.12h-3.62v-.7l3.48-4.98h1.14v4.85h1.09v.83h-1.09v2.12h-1zm0-2.95v-2.6l.04-1.22h-.04l-.65 1.15-1.91 2.65v.02h2.56z"/><use xlink:href="#b"/><use xlink:href="#c"/><use xlink:href="#Z" x="41.8"/><use xlink:href="#a" x="41.8"/><path d="M334.44 5.29h-2.97l-.3 2c.18-.02.35-.05.64-.05.6 0 1.2.13 1.68.42.61.35 1.12 1.02 1.12 2 0 1.52-1.21 2.66-2.9 2.66-.85 0-1.57-.24-1.94-.48l.26-.8c.32.19.96.43 1.67.43 1 0 1.85-.65 1.85-1.69-.01-1.01-.68-1.73-2.24-1.73-.44 0-.79.05-1.08.08l.5-3.74h3.73v.9z"/><path d="M343.49 80.31l5.74-63.4h28.7" class="B C D E"/><use xlink:href="#b" x="46"/><use xlink:href="#c" x="46"/><use xlink:href="#Z" x="87.8"/><path d="M369.54 10.22c0-.98.59-1.68 1.55-2.09l-.01-.04c-.86-.41-1.24-1.08-1.24-1.75 0-1.24 1.04-2.08 2.41-2.08 1.51 0 2.27.95 2.27 1.92 0 .66-.32 1.37-1.28 1.82v.04c.97.38 1.57 1.07 1.57 2.02 0 1.35-1.16 2.27-2.65 2.27-1.64 0-2.62-.97-2.62-2.11zm4.19-.05c0-.95-.66-1.4-1.72-1.7-.91.26-1.4.86-1.4 1.61-.04.79.56 1.49 1.56 1.49.95-.01 1.56-.6 1.56-1.4zm-2.9-3.9c0 .78.59 1.2 1.49 1.44.67-.23 1.19-.71 1.19-1.42 0-.62-.37-1.27-1.32-1.27-.88.01-1.36.58-1.36 1.25z"/><path d="M385.49 80.31l5.74-63.4h28.7" class="B C D E"/><use xlink:href="#b" x="88"/><use xlink:href="#c" x="88"/><use xlink:href="#Z" x="129.8"/><path d="M412.24 11.45c.23.02.49 0 .85-.04.61-.08 1.19-.34 1.63-.76.52-.47.89-1.15 1.03-2.07h-.04c-.43.53-1.05.84-1.83.84-1.4 0-2.3-1.06-2.3-2.39 0-1.48 1.07-2.77 2.66-2.77s2.58 1.3 2.58 3.29c0 1.72-.58 2.91-1.34 3.66-.6.59-1.43.95-2.27 1.04a5.05 5.05 0 0 1-.97.06v-.86zm.39-4.48c0 .97.59 1.65 1.5 1.65.71 0 1.26-.35 1.54-.82a.71.71 0 0 0 .1-.38c0-1.33-.49-2.35-1.59-2.35-.92 0-1.55.8-1.55 1.9z"/><path d="M427.49 80.31l5.74-63.4h28.7" class="B C D E"/><use xlink:href="#b" x="126"/><use xlink:href="#d"/><use xlink:href="#Z" x="167.8"/><use xlink:href="#a" x="167.8"/><path d="M460.97 8.22c0 2.65-.98 4.11-2.71 4.11-1.52 0-2.55-1.43-2.58-4.01 0-2.61 1.13-4.05 2.71-4.05 1.64 0 2.58 1.46 2.58 3.95zm-4.23.12c0 2.03.62 3.18 1.58 3.18 1.08 0 1.6-1.26 1.6-3.25 0-1.92-.49-3.18-1.58-3.18-.93 0-1.6 1.12-1.6 3.25z"/><path d="M470.49 80.31l5.74-63.4h28.7" class="B C D E"/><use xlink:href="#b" x="169"/><use xlink:href="#d" x="43"/><use xlink:href="#Z" x="210.8"/><use xlink:href="#a" x="210.8"/><use xlink:href="#a" x="216.96"/><path d="M513.49 80.31l5.74-63.4h28.7" class="B C D E"/><use xlink:href="#b" x="212"/><use xlink:href="#d" x="86"/><use xlink:href="#Z" x="253.8"/><use xlink:href="#a" x="253.8"/><path d="M541.79 12.2v-.65l.83-.8c1.99-1.9 2.89-2.9 2.9-4.08 0-.79-.38-1.52-1.55-1.52-.71 0-1.29.36-1.66.66l-.34-.74c.54-.46 1.31-.79 2.21-.79 1.68 0 2.39 1.15 2.39 2.27 0 1.44-1.04 2.6-2.69 4.19l-.62.58v.02h3.5v.88h-4.97z"/><g class="B C D"><path d="M553.49 80.31l5.74-63.4h28.7" class="E"/><path d="M912.99 54.04l4.92-39.88h24.63m-1.03 117.93h-24.62l-4.92-39.88m77.1 39.88h-24.63l-4.92-39.88m78.59 39.88h-24.62l-4.93-39.88m76.7 39.88h-24.62l-4.92-39.88"/><path d="M959.52 54.04l4.92-39.88h24.63m19.49 39.88l4.93-39.88h24.62m17.61 39.88l4.92-39.88h24.62"/><g class="G"><use xlink:href="#M" x="-252.13" y="27.33"/><use xlink:href="#M" x="-250.35" y="27.33"/><use xlink:href="#M" x="-248.56" y="27.33"/><use xlink:href="#M" x="-246.77" y="27.33"/><use xlink:href="#M" x="-244.98" y="27.33"/><use xlink:href="#M" x="-243.19" y="27.33"/><use xlink:href="#M" x="-241.4" y="27.33"/><use xlink:href="#M" x="-239.61" y="27.33"/><use xlink:href="#M" x="-237.82" y="27.33"/><use xlink:href="#M" x="-236.02" y="27.33"/><path d="M652.98 95.2h15.96v1.7h-15.96z"/><use xlink:href="#N" x="-252.14" y="27.33"/><path d="M640 67.87h41.93v28.55H640z"/><path d="M682.17 98h-42.48a1.22 1.22 0 0 1-1.22-1.22V67.14a1.22 1.22 0 0 1 1.22-1.22h42.48a1.22 1.22 0 0 1 1.22 1.22v29.64c-.01.68-.56 1.22-1.22 1.22z"/><use xlink:href="#M" x="-204.19" y="27.33"/><use xlink:href="#M" x="-202.41" y="27.33"/><use xlink:href="#M" x="-200.62" y="27.33"/><use xlink:href="#M" x="-198.83" y="27.33"/><use xlink:href="#M" x="-197.05" y="27.33"/><path d="M710.57 89.8H709l.45-3.38c.01-.05.06-.08.12-.08h.52c.07 0 .11.04.12.08l.36 3.38z"/><use xlink:href="#M" x="-193.46" y="27.33"/><use xlink:href="#M" x="-191.67" y="27.33"/><use xlink:href="#M" x="-189.88" y="27.33"/><use xlink:href="#M" x="-188.09" y="27.33"/><path d="M700.92 95.2h15.96v1.7h-15.96z"/><use xlink:href="#N" x="-204.2" y="27.33"/><path d="M687.93 67.87h41.93v28.55h-41.93z"/><path d="M730.1 98h-42.48a1.22 1.22 0 0 1-1.22-1.22V67.14a1.22 1.22 0 0 1 1.22-1.22h42.48a1.22 1.22 0 0 1 1.22 1.22v29.64A1.22 1.22 0 0 1 730.1 98z"/><use xlink:href="#M" x="-156.24" y="27.51"/><use xlink:href="#M" x="-154.46" y="27.51"/><use xlink:href="#M" x="-152.67" y="27.51"/><use xlink:href="#M" x="-150.88" y="27.51"/><use xlink:href="#M" x="-149.09" y="27.51"/><use xlink:href="#M" x="-147.3" y="27.51"/><use xlink:href="#M" x="-145.51" y="27.51"/><use xlink:href="#M" x="-143.72" y="27.51"/><use xlink:href="#M" x="-141.93" y="27.51"/><use xlink:href="#M" x="-140.13" y="27.51"/><path d="M748.87 95.39h15.96v1.7h-15.96z"/><use xlink:href="#N" x="-156.25" y="27.51"/><path d="M735.89 68.05h41.93V96.6h-41.93z"/><path d="M778.06 98.19h-42.48a1.22 1.22 0 0 1-1.22-1.22V67.32a1.22 1.22 0 0 1 1.22-1.22h42.48a1.22 1.22 0 0 1 1.22 1.22v29.64c-.01.68-.56 1.23-1.22 1.23z"/><use xlink:href="#M" x="-108.86" y="27.33"/><use xlink:href="#M" x="-107.07" y="27.33"/><use xlink:href="#M" x="-105.28" y="27.33"/><use xlink:href="#M" x="-103.49" y="27.33"/><use xlink:href="#M" x="-101.71" y="27.33"/><use xlink:href="#M" x="-99.92" y="27.33"/><use xlink:href="#M" x="-98.13" y="27.33"/><use xlink:href="#M" x="-96.33" y="27.33"/><use xlink:href="#M" x="-94.54" y="27.33"/><use xlink:href="#M" x="-92.75" y="27.33"/><path d="M796.26 95.2h15.96v1.7h-15.96z"/><path d="M796.63 95.22h15.22l-.18.55c-.14.43-.64.72-1.2.72H798c-.57 0-1.07-.3-1.2-.72l-.17-.55z"/><path d="M783.27 67.87h41.93v28.55h-41.93z"/><path d="M825.44 98h-42.48a1.22 1.22 0 0 1-1.22-1.22V67.14a1.22 1.22 0 0 1 1.22-1.22h42.48a1.22 1.22 0 0 1 1.22 1.22v29.64a1.22 1.22 0 0 1-1.22 1.22z"/></g><path d="M660.85 81.37l4.93-64.46h24.62m16.98 64.46l4.93-64.46h24.62m19.5 64.46l4.92-64.46h24.62m17.61 64.46l4.93-64.46h24.62" stroke-width="1.271"/></g><path d="M561.62 4.76c.01.36-.25.65-.67.65-.37 0-.64-.29-.64-.65 0-.37.28-.66.66-.66.4 0 .65.29.65.66zm-1.18 7.44V6.4h1.05v5.8h-1.05z"/><use xlink:href="#d" x="126.82"/><path d="M569.91 12.2l.05-1.5V3.68H571v3.65h.02c.37-.65 1.04-1.07 1.98-1.07 1.44 0 2.46 1.2 2.45 2.96 0 2.07-1.31 3.11-2.6 3.11-.84 0-1.51-.32-1.94-1.09h-.04l-.05.96h-.91zM571 9.87c0 .13.02.26.05.38.2.73.82 1.24 1.58 1.24 1.1 0 1.76-.9 1.76-2.23 0-1.16-.6-2.16-1.73-2.16-.72 0-1.39.49-1.61 1.3-.01.12-.05.26-.05.43v1.04z"/><use xlink:href="#a" x="294.62"/><path d="M582.86 10.99a3.57 3.57 0 0 0 1.73.49c1.36 0 1.78-.86 1.76-1.51-.01-1.09-1-1.56-2.01-1.56h-.59v-.79h.59c.77 0 1.74-.4 1.74-1.32 0-.62-.4-1.18-1.37-1.18-.62 0-1.22.28-1.56.52l-.28-.77c.41-.3 1.2-.6 2.04-.6 1.54 0 2.23.91 2.23 1.86 0 .8-.48 1.49-1.44 1.83v.02c.96.19 1.74.91 1.74 2 0 1.25-.97 2.34-2.84 2.34-.88 0-1.64-.28-2.03-.53l.29-.8z"/><use xlink:href="#e"/><use xlink:href="#f"/><use xlink:href="#g"/><path d="M686.18 9.69a8.63 8.63 0 0 1-.14 1.59c-.09.48-.24.89-.46 1.24s-.49.61-.83.8-.77.28-1.27.28c-.48 0-.88-.08-1.2-.25s-.59-.42-.79-.75-.34-.74-.42-1.22a10.17 10.17 0 0 1-.13-1.66 8.63 8.63 0 0 1 .14-1.59c.09-.48.25-.9.46-1.24a2.27 2.27 0 0 1 .83-.8c.34-.19.77-.28 1.27-.28.48 0 .88.08 1.21.25s.59.42.79.75.34.74.42 1.22.12 1.04.12 1.66zm-1.03.07l-.04-1.02a7.21 7.21 0 0 0-.12-.8 2.14 2.14 0 0 0-.21-.59c-.09-.16-.18-.3-.3-.41s-.25-.19-.4-.23-.32-.07-.51-.07c-.33 0-.6.08-.81.23s-.37.37-.49.64-.2.59-.24.96a10.95 10.95 0 0 0-.06 1.18 9.69 9.69 0 0 0 .09 1.44c.06.39.15.72.28.97s.29.43.49.54.44.17.72.17a1.5 1.5 0 0 0 .58-.11 1.19 1.19 0 0 0 .43-.3 1.72 1.72 0 0 0 .3-.47 3.36 3.36 0 0 0 .19-.61 5 5 0 0 0 .1-.72c.02-.26 0-.52 0-.8zm32.99-3.46c0 .23-.04.38-.13.46s-.24.12-.47.12-.38-.04-.47-.12-.13-.23-.13-.45c0-.23.04-.38.13-.46s.24-.12.47-.12.38.04.47.12.13.23.13.45zm-.11 7.05c0 .03-.01.06-.02.08s-.04.04-.08.06-.08.03-.15.04-.14.01-.24.01c-.09 0-.17 0-.23-.01a.54.54 0 0 1-.15-.04c-.04-.02-.06-.03-.08-.06s-.02-.05-.02-.08V8.08c0-.03.01-.05.02-.08.01-.02.04-.04.08-.06a.54.54 0 0 1 .15-.04c.06-.01.14-.01.23-.01l.24.01a.54.54 0 0 1 .15.04c.04.02.06.04.07.06.02.02.02.05.02.08v5.27z"/><use xlink:href="#f" x="46.36"/><use xlink:href="#g" x="46.36"/><path d="M732.3 13.1c0 .07-.01.14-.02.19s-.03.09-.05.12-.04.05-.07.07-.05.02-.08.02h-3.96c-.03 0-.05-.01-.08-.02s-.05-.04-.07-.07-.04-.07-.05-.12a.92.92 0 0 1-.02-.19c0-.07.01-.13.02-.18s.03-.09.04-.13.04-.06.06-.08.05-.03.08-.03h1.58V6.93l-1.46.87c-.07.04-.13.06-.18.07s-.08 0-.11-.03-.05-.07-.06-.13-.01-.13-.01-.22c0-.07 0-.12.01-.17s.01-.09.03-.12.03-.06.05-.08a.57.57 0 0 1 .08-.07l1.75-1.12.06-.03a.2.2 0 0 1 .09-.02c.04 0 .08-.01.12-.01h.18l.23.01.15.03c.04.01.06.03.07.05s.02.04.02.07v6.66h1.37c.03 0 .06.01.09.03s.05.04.07.08.03.08.04.13.03.1.03.17z"/><use xlink:href="#e" x="95.1"/><use xlink:href="#f" x="95.1"/><use xlink:href="#g" x="95.1"/><use xlink:href="#X" x="-255.31" y="-114.39"/><use xlink:href="#e" x="143.27"/><use xlink:href="#f" x="143.28"/><use xlink:href="#g" x="143.27"/><use xlink:href="#W" x="-253.89" y="-114.4"/><defs ><path id="B" d="M127.84 79.9c-.34.14-.99.3-1.82.3-1.96 0-3.42-1.07-3.42-3.06 0-1.88 1.46-3.17 3.62-3.17.87 0 1.4.16 1.65.26l-.22.62c-.34-.14-.82-.25-1.4-.25-1.62 0-2.69.9-2.69 2.49 0 1.46.96 2.42 2.66 2.42.54 0 1.1-.09 1.46-.25l.16.64z"/><path id="C" d="M279.25 96.81h-38.68a.2.2 0 0 1-.2-.2v-29.8a.2.2 0 0 1 .2-.2h38.68a.2.2 0 0 1 .2.2v29.8a.2.2 0 0 1-.2.2z"/><path id="D" d="M248.61 73.28h-5.82a.2.2 0 0 1-.2-.2v-2.27a.2.2 0 0 1 .2-.2h5.82a.2.2 0 0 1 .2.2v2.27a.2.2 0 0 1-.2.2z"/><path id="E" d="M244.7 86.65h-1.22v-4.88h1.22c.3 0 .55.25.55.55v3.78c.01.31-.24.55-.55.55z"/><path id="F" d="M275.11 86.65h1.22v-4.88h-1.22c-.3 0-.55.25-.55.55v3.78a.55.55 0 0 0 .55.55z"/><path id="G" d="M252.18 91.63h-1.29l.36-3.61c.01-.05.05-.09.1-.09h.42c.05 0 .09.04.1.09l.31 3.61z"/><path id="H" d="M301.71 92.43h14.9a.2.2 0 0 0 .2-.2v-4.49a.2.2 0 0 1 .2-.2h.5a.2.2 0 0 0 .2-.2v-5.58-.69a.2.2 0 0 0-.2-.2h-.5a.2.2 0 0 1-.2-.2v-4.94a.2.2 0 0 0-.2-.2h-5.38a.2.2 0 0 1-.2-.2v-4.05a.2.2 0 0 0-.2-.2h-3.16a.2.2 0 0 1-.2-.2V69.5a.2.2 0 0 0-.2-.2h-5.58-5.58a.2.2 0 0 0-.2.2v1.38a.2.2 0 0 1-.2.2h-3.16a.2.2 0 0 0-.2.2v4.05a.2.2 0 0 1-.2.2h-5.38a.2.2 0 0 0-.2.2v4.94a.2.2 0 0 1-.2.2h-.5a.2.2 0 0 0-.2.2v.69 5.58a.2.2 0 0 0 .2.2h.5a.2.2 0 0 1 .2.2v4.49a.2.2 0 0 0 .2.2h14.94 0z"/><path id="I" d="M335.7 91.69h-1.29l.36-3.61c0-.05.05-.09.1-.09h.42c.05 0 .09.04.1.09l.31 3.61z"/><path id="J" d="M405.98 97.82h-40.46a.2.2 0 0 1-.2-.2V66.04a.2.2 0 0 1 .2-.2h40.46a.2.2 0 0 1 .2.2v31.58c-.01.11-.09.2-.2.2z"/><path id="K" d="M385.75 92.49h14.9a.2.2 0 0 0 .2-.2V87.8a.2.2 0 0 1 .2-.2h.5a.2.2 0 0 0 .2-.2v-5.58-.69a.2.2 0 0 0-.2-.2h-.5a.2.2 0 0 1-.2-.2v-4.94a.2.2 0 0 0-.2-.2h-5.38a.2.2 0 0 1-.2-.2v-4.05a.2.2 0 0 0-.2-.2h-3.16a.2.2 0 0 1-.2-.2v-1.38a.2.2 0 0 0-.2-.2h-5.58-5.58a.2.2 0 0 0-.2.2v1.38a.2.2 0 0 1-.2.2h-3.16a.2.2 0 0 0-.2.2v4.05a.2.2 0 0 1-.2.2h-5.38a.2.2 0 0 0-.2.2v4.94a.2.2 0 0 1-.2.2h-.5a.2.2 0 0 0-.2.2v.69 5.58a.2.2 0 0 0 .2.2h.5a.2.2 0 0 1 .2.2v4.49a.2.2 0 0 0 .2.2h14.94 0z"/><path id="L" d="M218.91 73.91v.05a1.12 1.12 0 0 0 1.12 1.12h1.38a1.12 1.12 0 0 0 1.12-1.12v-.05h-3.62z"/><path id="M" d="M905.83 62.47h-1.58l.45-3.38c.01-.05.06-.08.12-.08h.52c.07 0 .11.04.12.08l.37 3.38z"/><path id="N" d="M905.49 67.89h15.22l-.18.55c-.14.43-.64.72-1.2.72h-12.47c-.57 0-1.07-.3-1.2-.72l-.17-.55z"/><path id="O" d="M982.24 70.67h-42.48a1.22 1.22 0 0 1-1.22-1.22V39.81a1.22 1.22 0 0 1 1.22-1.22h42.48a1.22 1.22 0 0 1 1.22 1.22v29.64a1.24 1.24 0 0 1-1.22 1.22z"/><path id="P" d="M1063.56 82.15h1.58l-.45 3.38c-.01.05-.06.08-.12.08h-.52c-.07 0-.11-.04-.12-.08l-.37-3.38z"/><path id="Q" d="M1063.91 76.73h-15.22l.18-.55c.14-.43.64-.72 1.2-.72h12.47c.57 0 1.07.3 1.2.72l.17.55z"/><path id="R" d="M987.16 73.95h42.48a1.22 1.22 0 0 1 1.22 1.22v29.64a1.22 1.22 0 0 1-1.22 1.22h-42.48a1.22 1.22 0 0 1-1.22-1.22V75.17c0-.67.55-1.22 1.22-1.22z"/><path id="S" d="M933.37 125.04c0 .46-.05.87-.15 1.23s-.25.68-.44.93-.43.46-.71.59a2.27 2.27 0 0 1-.97.21c-.17 0-.32-.02-.47-.05s-.28-.09-.42-.16a2.49 2.49 0 0 1-.41-.28c-.14-.11-.28-.25-.43-.41v.64c0 .03-.01.06-.02.08s-.04.04-.08.06-.08.02-.13.03-.12.01-.2.01-.14 0-.2-.01-.1-.02-.13-.03-.06-.03-.07-.06-.02-.05-.02-.08v-7.82c0-.03.01-.06.02-.08s.04-.04.08-.06a.54.54 0 0 1 .15-.04c.06-.01.14-.01.23-.01l.24.01a.54.54 0 0 1 .15.04c.04.02.06.04.08.06s.02.05.02.08v3.16c.16-.16.31-.29.45-.4a2.54 2.54 0 0 1 .43-.27c.14-.07.28-.12.42-.15a2.14 2.14 0 0 1 .45-.05c.38 0 .71.08.98.23a1.93 1.93 0 0 1 .66.61c.17.25.29.56.37.9.08.35.12.71.12 1.09zm-1 .11c0-.27-.02-.53-.06-.79-.04-.25-.11-.48-.22-.67a1.25 1.25 0 0 0-.41-.47c-.17-.12-.38-.18-.63-.18a1.5 1.5 0 0 0-.37.05c-.12.04-.25.09-.37.18s-.26.19-.39.32c-.14.13-.28.29-.43.49v2.1c.27.32.52.57.77.74.24.17.5.25.76.25.24 0 .45-.06.62-.18a1.37 1.37 0 0 0 .42-.47c.11-.2.19-.41.24-.65.05-.23.07-.47.07-.72z"/><path id="T" d="M1064.76 3.17c0 .23-.04.38-.13.46s-.24.12-.47.12-.38-.04-.47-.12-.13-.23-.13-.45c0-.23.04-.38.13-.46s.24-.12.47-.12.38.04.47.12.13.23.13.45zm-.11 7.06c0 .03-.01.06-.02.08s-.04.04-.08.06-.08.03-.15.04-.14.01-.24.01c-.09 0-.17 0-.23-.01a.54.54 0 0 1-.15-.04c-.04-.02-.06-.03-.08-.06s-.02-.05-.02-.08V4.96c0-.03.01-.05.02-.08s.04-.04.08-.06a.54.54 0 0 1 .15-.04c.06-.01.14-.01.23-.01l.24.01a.54.54 0 0 1 .15.04c.04.02.06.04.08.06s.02.05.02.08v5.27z"/><path id="U" d="M1076.94 7.52c0 .46-.05.87-.15 1.23s-.25.68-.44.93-.43.46-.71.59a2.27 2.27 0 0 1-.97.21c-.17 0-.32-.02-.47-.05s-.28-.09-.42-.16a2.49 2.49 0 0 1-.41-.28c-.14-.11-.28-.25-.43-.41v.64c0 .03-.01.06-.02.08s-.04.04-.08.06-.08.02-.13.03-.12.01-.2.01-.14 0-.2-.01-.1-.02-.13-.03-.06-.03-.07-.06-.02-.05-.02-.08V2.4c0-.03.01-.06.02-.08s.04-.04.08-.06a.54.54 0 0 1 .15-.04c.06-.01.14-.01.23-.01l.24.01a.54.54 0 0 1 .15.04c.04.02.06.04.08.06s.02.05.02.08v3.16c.16-.16.31-.29.45-.4a2.54 2.54 0 0 1 .43-.27c.14-.07.28-.12.42-.15a2.14 2.14 0 0 1 .45-.05c.38 0 .71.08.98.23a1.93 1.93 0 0 1 .66.61c.17.25.29.56.37.9.08.35.12.71.12 1.09zm-1 .11c0-.27-.02-.53-.06-.79-.04-.25-.11-.48-.22-.67a1.25 1.25 0 0 0-.41-.47c-.17-.12-.38-.18-.63-.18a1.5 1.5 0 0 0-.37.05c-.12.04-.25.09-.37.18s-.26.19-.39.32c-.14.13-.28.29-.43.49v2.1c.27.32.52.57.77.74.24.17.5.25.76.25.24 0 .45-.06.62-.18a1.37 1.37 0 0 0 .42-.47c.11-.2.19-.41.24-.65.04-.23.07-.47.07-.72z"/><path id="V" d="M927.59 5.2c0 .14-.02.24-.06.3s-.08.09-.14.09h-.76c.14.14.23.3.29.47s.08.35.08.53c0 .3-.05.57-.15.81s-.24.43-.42.59a1.81 1.81 0 0 1-.65.37c-.25.08-.53.13-.83.13-.21 0-.42-.03-.61-.08a1.35 1.35 0 0 1-.45-.21c-.07.07-.13.15-.17.24s-.07.19-.07.31c0 .14.06.25.19.34s.3.14.51.15l1.38.06c.26.01.5.04.72.11s.41.16.57.28a1.33 1.33 0 0 1 .38.44c.09.17.13.38.13.61a1.65 1.65 0 0 1-.15.69c-.1.22-.26.41-.47.58s-.48.3-.8.39-.71.14-1.15.14a4.82 4.82 0 0 1-1.09-.11c-.3-.07-.54-.17-.74-.3s-.33-.27-.42-.45-.13-.36-.13-.57a1.65 1.65 0 0 1 .05-.38 1.35 1.35 0 0 1 .14-.35c.06-.11.14-.21.24-.31l.33-.3c-.19-.1-.33-.22-.42-.37s-.14-.31-.14-.48c0-.24.05-.45.15-.64s.22-.36.36-.5c-.12-.14-.22-.31-.29-.49a1.82 1.82 0 0 1-.11-.66c0-.3.05-.57.15-.81s.24-.44.42-.6a1.99 1.99 0 0 1 .65-.38c.25-.09.53-.13.82-.13.16 0 .31.01.45.03l.39.07h1.59c.07 0 .12.03.15.1s.08.15.08.29zm-1.03 5.56a.57.57 0 0 0-.28-.52c-.19-.12-.44-.19-.75-.2l-1.37-.05a2.22 2.22 0 0 0-.31.28 1.84 1.84 0 0 0-.19.25.82.82 0 0 0-.1.24c-.02.08-.03.16-.03.24 0 .25.13.45.39.58s.62.2 1.08.2a3.1 3.1 0 0 0 .74-.08c.2-.05.36-.13.48-.23s.21-.2.26-.32.08-.25.08-.39zm-.49-4.18c0-.36-.1-.64-.3-.84s-.48-.3-.84-.3c-.19 0-.35.03-.49.09s-.25.15-.35.26a1.09 1.09 0 0 0-.21.38c-.05.14-.07.29-.07.45 0 .35.1.62.3.82s.47.3.83.3c.19 0 .36-.03.5-.09s.26-.14.35-.25.16-.23.21-.37.07-.29.07-.45z"/><path id="W" d="M1083.03 125.73c0 .35-.06.66-.18.94a1.96 1.96 0 0 1-.52.72c-.23.2-.51.35-.84.46s-.71.16-1.13.16c-.25 0-.49-.02-.71-.06a3.89 3.89 0 0 1-.59-.15c-.17-.06-.31-.12-.43-.18s-.18-.1-.21-.13a.5.5 0 0 1-.07-.08.3.3 0 0 1-.04-.1l-.03-.14c-.01-.05-.01-.13-.01-.21 0-.14.01-.24.04-.29s.07-.08.12-.08c.04 0 .11.03.21.09l.41.2c.17.07.36.14.58.2a2.83 2.83 0 0 0 .74.09c.26 0 .5-.03.7-.1s.37-.16.5-.28c.14-.12.24-.26.31-.43a1.4 1.4 0 0 0 .1-.54c0-.21-.04-.41-.13-.58s-.21-.32-.38-.45-.37-.22-.62-.29-.52-.1-.83-.1h-.74c-.03 0-.06-.01-.09-.02s-.06-.04-.08-.07-.04-.07-.05-.12a1.03 1.03 0 0 1-.02-.2c0-.07.01-.14.02-.18s.03-.09.05-.12.05-.05.07-.06a.24.24 0 0 1 .09-.02h.66a2.09 2.09 0 0 0 .69-.1c.2-.07.38-.16.52-.29s.25-.27.33-.45.11-.37.11-.58a1.33 1.33 0 0 0-.08-.45c-.05-.14-.13-.27-.23-.37s-.23-.19-.39-.25-.34-.09-.55-.09c-.23 0-.43.03-.62.1s-.36.14-.51.22l-.37.22c-.1.07-.17.1-.21.1-.03 0-.05 0-.07-.01s-.04-.03-.05-.06a1.04 1.04 0 0 1-.03-.12c-.01-.05-.01-.12-.01-.21 0-.06 0-.11.01-.16l.02-.12c.01-.04.03-.06.04-.09s.04-.06.08-.1.11-.09.23-.16.25-.14.42-.21a2.94 2.94 0 0 1 .57-.17 3.77 3.77 0 0 1 .7-.07c.35 0 .66.04.93.13s.49.22.67.38a1.51 1.51 0 0 1 .4.59c.09.23.13.48.13.76a2.41 2.41 0 0 1-.09.67 1.39 1.39 0 0 1-.28.54c-.13.15-.27.29-.45.4a1.72 1.72 0 0 1-.61.23v.01c.26.03.5.09.72.2s.4.23.56.39a1.72 1.72 0 0 1 .37.55 1.78 1.78 0 0 1 .15.69z"/><path id="X" d="M1036.34 127.46c0 .07 0 .13-.01.19s-.02.1-.04.14-.04.06-.07.08-.06.03-.1.03h-4.19a.59.59 0 0 1-.14-.02c-.04-.01-.08-.04-.11-.07s-.05-.08-.06-.13a1.18 1.18 0 0 1-.02-.22l.01-.21a.75.75 0 0 1 .04-.16c.02-.04.05-.09.08-.13a1.3 1.3 0 0 1 .12-.14l1.52-1.56c.35-.36.63-.68.84-.97a5.68 5.68 0 0 0 .49-.78c.12-.23.19-.45.23-.64s.05-.37.05-.54a1.51 1.51 0 0 0-.08-.48c-.06-.15-.14-.28-.24-.4a1.28 1.28 0 0 0-.4-.27 1.4 1.4 0 0 0-.56-.1c-.25 0-.47.03-.66.1-.2.07-.37.14-.51.22l-.37.22c-.1.07-.17.1-.22.1-.03 0-.05-.01-.08-.02s-.04-.04-.05-.08l-.03-.14c-.01-.06-.01-.13-.01-.21 0-.06 0-.11.01-.15s.01-.08.02-.11.02-.06.04-.09a.73.73 0 0 1 .09-.1c.04-.04.13-.1.24-.17s.26-.14.43-.21.37-.13.57-.17.43-.07.66-.07c.37 0 .69.05.96.16s.5.25.69.42.32.39.41.63a2.13 2.13 0 0 1 .13.76c0 .24-.02.48-.06.72s-.13.5-.27.78-.34.59-.6.93-.61.74-1.04 1.18l-1.2 1.25h3.3c.03 0 .06.01.09.03s.05.04.08.08.04.08.05.13-.03.12-.03.19z"/><path id="Y" d="M205.84 46.46h-1.14l.32-3.2c.01-.04.04-.08.09-.08h.37c.04 0 .08.04.09.08l.27 3.2z"/><path id="Z" d="M275.29 12.2l.05-1.5V3.68h1.04v3.65h.02c.37-.65 1.04-1.07 1.98-1.07 1.44 0 2.46 1.2 2.45 2.96 0 2.08-1.31 3.11-2.6 3.11-.84 0-1.51-.32-1.94-1.09h-.04l-.05.96h-.91zm1.09-2.33c0 .13.02.26.05.38.2.73.82 1.24 1.58 1.24 1.1 0 1.76-.9 1.76-2.23 0-1.16-.6-2.16-1.73-2.16-.72 0-1.39.49-1.61 1.3-.02.12-.06.26-.06.43v1.04z"/><path id="a" d="M284.12 5.39h-.02l-1.36.73-.2-.8 1.7-.91h.9v7.8h-1.02V5.39z"/><path id="b" d="M308.8 4.76c.01.36-.25.65-.67.65-.37 0-.64-.29-.64-.65 0-.37.28-.66.66-.66.4 0 .65.29.65.66zm-1.18 7.44V6.4h1.06v5.8h-1.06z"/><path id="c" d="M315.43 6.39l-.05 1.6v3.37c0 1.33-.26 2.15-.83 2.65-.56.53-1.38.7-2.11.7-.7 0-1.46-.17-1.93-.48l.26-.8c.38.24.98.46 1.7.46 1.08 0 1.87-.56 1.87-2.03v-.66h-.02c-.32.54-.95.97-1.85.97-1.44 0-2.47-1.22-2.47-2.83 0-1.97 1.28-3.08 2.61-3.08 1.01 0 1.56.53 1.81 1.01h.02l.05-.88h.94zm-1.09 2.29c0-.18-.01-.34-.06-.48-.19-.61-.71-1.12-1.48-1.12-1.01 0-1.73.85-1.73 2.19 0 1.14.58 2.09 1.72 2.09.65 0 1.24-.41 1.46-1.08.06-.18.08-.38.08-.56V8.68z"/><path id="d" d="M441.43 6.39l-.05 1.6v3.37c0 1.33-.26 2.15-.83 2.65-.56.53-1.38.7-2.11.7-.7 0-1.46-.17-1.93-.48l.26-.8c.38.24.98.46 1.7.46 1.08 0 1.87-.56 1.87-2.03v-.66h-.02c-.32.54-.95.97-1.85.97-1.44 0-2.47-1.22-2.47-2.83 0-1.97 1.28-3.08 2.61-3.08 1.01 0 1.56.53 1.81 1.01h.02l.05-.88h.94zm-1.09 2.29c0-.18-.01-.34-.06-.48-.19-.61-.71-1.12-1.48-1.12-1.01 0-1.73.85-1.73 2.19 0 1.14.58 2.09 1.71 2.09.65 0 1.24-.41 1.46-1.08.06-.18.08-.38.08-.56V8.68z"/><path id="e" d="M671.78 6.3c0 .23-.04.38-.13.46s-.24.12-.47.12-.38-.04-.47-.12-.13-.23-.13-.45c0-.23.04-.38.13-.46s.24-.12.47-.12.38.04.47.12.13.23.13.45zm-.11 7.05c0 .03-.01.06-.02.08s-.04.04-.08.06-.08.03-.15.04-.14.01-.24.01c-.09 0-.17 0-.23-.01a.54.54 0 0 1-.15-.04c-.04-.02-.06-.03-.08-.06s-.02-.05-.02-.08V8.08c0-.03.01-.05.02-.08.01-.02.04-.04.08-.06a.54.54 0 0 1 .15-.04c.06-.01.14-.01.23-.01l.24.01a.54.54 0 0 1 .15.04c.04.02.06.04.08.06s.02.05.02.08v5.27z"/><path id="f" d="M677.45 13.24c.03.05.05.1.05.14s-.02.07-.06.09-.09.04-.17.05-.17.01-.3.01c-.12 0-.21 0-.28-.01l-.16-.03c-.04-.01-.07-.03-.09-.05s-.04-.05-.06-.07l-1.27-2.09-1.26 2.09c-.02.03-.03.05-.06.07s-.05.04-.09.05a1.57 1.57 0 0 1-.16.03c-.07.01-.15.01-.26.01s-.21 0-.28-.01a.43.43 0 0 1-.16-.05c-.03-.02-.05-.05-.05-.09s.02-.08.06-.14l1.64-2.57-1.55-2.48c-.03-.05-.05-.1-.05-.14s.02-.07.05-.09a.43.43 0 0 1 .17-.05c.08-.01.18-.01.3-.01l.27.01c.07.01.12.01.16.03s.07.03.09.05.04.04.05.07l1.2 1.96 1.22-1.96c.02-.02.03-.04.05-.06s.05-.04.08-.05.08-.02.14-.03.14-.01.25-.01l.28.01c.07.01.13.02.16.04s.05.05.05.09-.02.09-.06.15l-1.54 2.45 1.64 2.59z"/><path id="g" d="M679.62 13.35c0 .03-.01.06-.02.08s-.04.04-.08.06-.08.03-.15.04-.14.01-.24.01c-.09 0-.17 0-.23-.01a.54.54 0 0 1-.15-.04c-.04-.02-.06-.03-.08-.06s-.02-.05-.02-.08V5.53c0-.03.01-.06.02-.08s.04-.04.08-.06a.54.54 0 0 1 .15-.04c.06-.01.14-.01.23-.01l.24.01a.54.54 0 0 1 .15.04c.04.02.06.04.08.06s.02.05.02.08v7.82z"/></defs></svg>