<svg xmlns="http://www.w3.org/2000/svg" xmlns:xlink="http://www.w3.org/1999/xlink" viewBox="0 0 311.84 130.22" xmlns:v="https://vecta.io/nano"><style><![CDATA[.B{stroke-width:.75}.C{stroke-miterlimit:10}]]></style><g fill="none" stroke="#000"><g class="C"><path stroke-width=".602" d="M3.29 18.34h306.53v89.81H3.29z"/><path d="M16.54 35.71a.59.59 0 0 1-.07.29c-.04.07-.13.13-.23.19a2.97 2.97 0 0 1-.46.1l-.72.03c-.3 0-.55-.01-.72-.03-.17-.01-.3-.04-.4-.09-.1-.04-.16-.1-.19-.16a.68.68 0 0 1-.07-.25l-.52-3.05c-.07-.45-.17-.82-.29-1.11-.12-.3-.26-.55-.45-.74s-.39-.32-.64-.39a3.15 3.15 0 0 0-.87-.12h-.59l-1.1 5.49c-.01.07-.04.14-.1.2a.53.53 0 0 1-.26.13c-.12.04-.27.06-.45.09-.17.03-.4.03-.66.03-.27 0-.49-.01-.66-.03s-.3-.04-.4-.09a.57.57 0 0 1-.2-.13c-.04-.04-.04-.12-.03-.2L9.05 22.9c.01-.07.04-.14.1-.2s.14-.1.27-.13a2.37 2.37 0 0 1 .45-.07l.68-.03.66.03a1.71 1.71 0 0 1 .4.07c.1.03.16.07.2.13.03.06.04.12.03.2l-1.04 5.16h.62a2.51 2.51 0 0 0 .84-.13c.25-.09.49-.22.72-.4.23-.19.45-.42.66-.72.22-.3.45-.65.66-1.08L15.77 23c.06-.1.12-.19.19-.25a.79.79 0 0 1 .29-.16c.13-.04.29-.06.48-.09s.45-.03.74-.03l.66.03c.17.01.3.04.39.07.1.03.14.07.19.12a.25.25 0 0 1 .04.14c0 .1-.03.23-.09.36s-.16.32-.3.56l-1.4 2.44-.74 1.17c-.23.32-.46.59-.69.82a3.99 3.99 0 0 1-.71.55c-.23.14-.49.26-.75.36v.01c.25.12.48.25.66.4.19.14.36.33.51.56a3.99 3.99 0 0 1 .38.85c.1.33.2.75.3 1.24l.55 2.83.07.39c.01.14 0 .25 0 .34zm12.01-6.1a8.74 8.74 0 0 1-.14 1.58 8.87 8.87 0 0 1-.45 1.58 6.06 6.06 0 0 1-.8 1.45c-.32.45-.71.84-1.16 1.19s-.97.62-1.55.81a6.27 6.27 0 0 1-1.97.3c-.72 0-1.33-.09-1.85-.25s-.95-.4-1.3-.74c-.35-.32-.61-.72-.77-1.19-.17-.48-.25-1.01-.25-1.62a8.74 8.74 0 0 1 .14-1.58c.1-.53.25-1.06.45-1.58s.46-1 .8-1.45c.32-.46.71-.85 1.16-1.19a5.84 5.84 0 0 1 1.55-.81c.58-.2 1.23-.3 1.97-.3.72 0 1.33.09 1.85.25s.95.4 1.3.74c.35.32.61.72.77 1.19.16.48.25 1.01.25 1.62zm-2.76.17a3.26 3.26 0 0 0-.09-.8c-.06-.23-.16-.42-.3-.58a1.17 1.17 0 0 0-.53-.36 2.57 2.57 0 0 0-.8-.13 2.24 2.24 0 0 0-.95.2 2.27 2.27 0 0 0-.75.56c-.22.25-.42.51-.58.81s-.3.64-.4.97-.19.68-.23 1.03l-.07 1a3.26 3.26 0 0 0 .09.8 1.5 1.5 0 0 0 .3.59 1.17 1.17 0 0 0 .53.36 2.57 2.57 0 0 0 .8.13 2.24 2.24 0 0 0 .95-.2 2.27 2.27 0 0 0 .75-.56 3.55 3.55 0 0 0 .58-.82 5.3 5.3 0 0 0 .4-.98c.1-.35.19-.68.23-1.03a6.41 6.41 0 0 0 .07-.99zm12.85 6.11c-.01.07-.04.13-.1.19s-.14.1-.25.13c-.12.04-.25.06-.42.07l-.65.03a5.85 5.85 0 0 1-.64-.03c-.17-.01-.3-.04-.39-.07s-.16-.07-.19-.13a.21.21 0 0 1-.01-.19l.74-3.71H33l-.74 3.71c-.01.07-.04.13-.1.19s-.13.1-.25.13-.25.06-.42.07l-.65.03a5.48 5.48 0 0 1-.64-.03c-.16-.01-.3-.04-.39-.07s-.16-.07-.19-.13-.03-.12-.03-.19l1.88-9.47c.01-.07.04-.13.1-.19s.13-.1.25-.13.25-.06.42-.07c.18-.02.4-.03.66-.03l.64.03c.16.01.3.04.39.07.1.03.16.07.19.13s.03.12.03.19l-.71 3.54h3.74l.69-3.53c.01-.07.04-.13.1-.19.04-.06.13-.1.23-.13s.25-.06.42-.07l.65-.03.64.03c.16.02.3.04.39.07.1.03.16.07.19.13s.04.12.03.19l-1.88 9.46zm17.5 0c-.01.07-.04.13-.1.19s-.13.1-.25.13-.26.06-.42.07l-.65.03a5.85 5.85 0 0 1-.64-.03c-.17-.01-.3-.04-.39-.07a.34.34 0 0 1-.19-.13.21.21 0 0 1-.01-.19l1.14-5.68.07-.48a2.58 2.58 0 0 0 .03-.48c0-.33-.06-.59-.19-.81-.13-.2-.35-.3-.66-.3-.29 0-.58.1-.88.27-.3.19-.59.43-.88.75-.27.32-.53.68-.74 1.1a4.53 4.53 0 0 0-.46 1.34l-.85 4.28c-.01.07-.04.13-.1.19s-.13.1-.25.13c-.12.04-.26.06-.42.07l-.65.03a5.85 5.85 0 0 1-.64-.03c-.16-.01-.3-.04-.39-.07s-.16-.07-.19-.13-.04-.12-.03-.19l1.13-5.68a3.86 3.86 0 0 0 .09-.51l.03-.51c0-.3-.06-.56-.19-.77s-.35-.3-.65-.3c-.29 0-.58.1-.88.27s-.59.43-.88.75c-.27.32-.53.68-.74 1.1a4.53 4.53 0 0 0-.46 1.34l-.85 4.3c-.01.07-.04.13-.1.19s-.13.1-.25.13-.25.06-.42.07l-.65.03a5.48 5.48 0 0 1-.64-.03c-.16-.02-.3-.04-.39-.07s-.16-.07-.19-.13-.03-.12-.03-.19l1.89-9.47c.01-.07.04-.13.09-.19.04-.06.12-.1.22-.13s.22-.06.38-.07l.55-.03c.22 0 .39.02.54.03.13.01.25.04.32.07s.13.07.16.13.03.12.01.19l-.3 1.56c.14-.25.35-.49.59-.75a4.68 4.68 0 0 1 .84-.69c.32-.2.65-.38 1.03-.51s.75-.2 1.16-.2c.4 0 .77.06 1.07.16s.55.26.74.46c.2.2.35.42.45.68s.16.55.2.85c.16-.25.38-.51.62-.77.25-.25.53-.48.85-.68s.65-.38 1.03-.51.75-.2 1.14-.2c.49 0 .91.07 1.24.2a1.94 1.94 0 0 1 .81.58c.2.25.36.53.45.85.1.33.14.68.14 1.07 0 .25-.01.49-.04.75l-.13.77-1.24 5.87zm11.39.01c-.01.07-.04.13-.09.19-.04.06-.12.1-.22.13a1.64 1.64 0 0 1-.36.07l-.55.03c-.22 0-.39-.01-.53-.03a1.02 1.02 0 0 1-.32-.07c-.07-.03-.13-.07-.16-.13s-.03-.12-.01-.19l.29-1.53c-.14.25-.33.49-.58.75s-.53.48-.85.68-.66.38-1.06.51c-.38.13-.75.19-1.16.19-.49 0-.91-.07-1.26-.2-.33-.13-.62-.32-.82-.56-.22-.23-.36-.52-.46-.85s-.14-.69-.14-1.08a6.34 6.34 0 0 1 .04-.74l.12-.77 1.17-5.87c.01-.07.04-.13.1-.19s.13-.1.25-.13.25-.06.42-.07c.17-.03.39-.04.65-.04l.64.03c.16.01.29.04.39.07a.34.34 0 0 1 .19.13c.03.06.04.12.03.19l-1.13 5.68-.07.49-.03.49c0 .16.01.32.04.46a1.07 1.07 0 0 0 .16.36c.07.12.16.17.27.22.12.04.25.07.39.07.29 0 .59-.1.91-.29s.62-.45.9-.77c.27-.32.53-.72.75-1.17s.39-.94.51-1.46l.81-4.09c.01-.07.04-.13.1-.19s.14-.1.25-.13c.12-.03.25-.06.42-.07l.65-.03.64.03c.16.01.3.04.39.07.1.03.16.07.19.13s.03.12.03.19l-1.9 9.49zm11.76-.01c-.01.07-.04.13-.1.19s-.14.1-.25.13c-.1.03-.25.06-.42.07l-.65.03a5.85 5.85 0 0 1-.64-.03c-.17-.01-.3-.04-.39-.07-.1-.03-.16-.07-.19-.13a.21.21 0 0 1-.01-.19l.74-3.71h-3.77l-.74 3.71c-.01.07-.04.13-.1.19s-.13.1-.25.13-.25.06-.42.07l-.65.03a5.48 5.48 0 0 1-.64-.03c-.16-.01-.3-.04-.39-.07-.1-.03-.16-.07-.19-.13s-.03-.12-.03-.19l1.88-9.47c.01-.07.04-.13.1-.19s.13-.1.25-.13.25-.06.42-.07a5.92 5.92 0 0 1 .65-.03l.64.03c.16.01.3.04.39.07.1.03.16.07.19.13s.04.13.04.2l-.71 3.54h3.74l.71-3.54c.01-.07.04-.13.1-.19.04-.06.13-.1.23-.13s.25-.06.42-.07l.65-.03.64.03c.16.01.3.04.39.07.1.03.16.07.19.13s.04.12.03.19l-1.86 9.46zm12.52-7.38a2.71 2.71 0 0 1-.35 1.37c-.23.4-.58.75-1.07 1.06-.49.3-1.1.52-1.85.66-.75.16-1.63.23-2.66.23h-.98c-.03.16-.04.32-.06.48l-.03.45c0 .58.14 1 .45 1.29.3.29.77.43 1.43.43.46 0 .88-.03 1.26-.1.38-.06.69-.14.98-.22.27-.07.51-.16.69-.22.19-.06.32-.1.4-.1.09 0 .14.03.19.07.03.04.06.13.06.23 0 .12-.01.26-.03.4l-.09.46-.14.42a.87.87 0 0 1-.2.3c-.09.09-.23.17-.46.25l-.82.23c-.32.07-.68.13-1.07.17l-1.2.07c-.68 0-1.27-.07-1.78-.22-.51-.14-.93-.36-1.27-.65-.33-.29-.59-.66-.77-1.11-.16-.45-.25-.98-.25-1.59a9.18 9.18 0 0 1 .13-1.52 8.98 8.98 0 0 1 .42-1.6c.2-.53.45-1.03.77-1.52.32-.48.68-.91 1.13-1.27a5.88 5.88 0 0 1 1.53-.88c.58-.22 1.24-.33 1.98-.33.65 0 1.2.07 1.66.23.46.14.84.36 1.14.61a2.31 2.31 0 0 1 .66.85c.12.39.2.73.2 1.07zm-2.62.19c0-.29-.12-.52-.33-.71s-.55-.29-.97-.29c-.36 0-.66.06-.94.19-.27.13-.53.3-.74.51a3.35 3.35 0 0 0-.55.77c-.14.29-.27.61-.36.94h.9c.56 0 1.04-.04 1.42-.12s.68-.17.93-.3c.23-.13.4-.27.51-.45.07-.15.13-.34.13-.54zm12.5 7.19c-.01.07-.04.13-.1.19s-.14.1-.25.13c-.12.04-.25.06-.42.07l-.65.03a5.85 5.85 0 0 1-.64-.03c-.17-.01-.3-.04-.39-.07-.1-.03-.16-.07-.19-.13a.21.21 0 0 1-.01-.19l.72-3.71h-3.74l-.74 3.71c-.01.07-.04.13-.1.19s-.13.1-.25.13-.25.06-.42.07l-.65.03a5.48 5.48 0 0 1-.64-.03c-.16-.01-.3-.04-.39-.07-.1-.03-.16-.07-.19-.13s-.03-.12-.03-.19l1.88-9.47c.01-.07.04-.13.1-.19s.13-.1.25-.13.25-.06.42-.07l.65-.03.64.03c.16.01.3.04.39.07.1.03.16.07.19.13s.03.12.03.19l-.71 3.54h3.74l.71-3.53c.01-.07.04-.13.1-.19.04-.06.13-.1.23-.13s.25-.06.42-.07l.65-.03.64.03c.16.01.3.04.39.07.1.03.16.07.19.13s.04.12.03.19l-1.86 9.46zm17.51 0c-.01.07-.04.13-.1.19s-.13.1-.25.13c-.12.04-.26.06-.42.07l-.65.03a5.85 5.85 0 0 1-.64-.03c-.17-.01-.3-.04-.39-.07a.34.34 0 0 1-.19-.13.21.21 0 0 1-.01-.19l1.14-5.68.07-.48a2.58 2.58 0 0 0 .03-.48c0-.33-.06-.59-.19-.81-.13-.2-.35-.3-.66-.3-.29 0-.58.1-.88.27s-.59.43-.88.75c-.27.32-.53.68-.74 1.1a4.53 4.53 0 0 0-.46 1.34l-.85 4.28c-.01.07-.04.13-.1.19s-.13.1-.25.13c-.12.04-.26.06-.42.07l-.65.03a5.85 5.85 0 0 1-.64-.03c-.16-.01-.3-.04-.39-.07s-.16-.07-.19-.13-.04-.12-.03-.19l1.13-5.68a3.86 3.86 0 0 0 .09-.51l.03-.51c0-.3-.06-.56-.19-.77-.13-.2-.35-.3-.65-.3-.29 0-.58.1-.88.27-.3.19-.59.43-.88.75-.27.32-.53.68-.74 1.1a4.53 4.53 0 0 0-.46 1.34l-.85 4.28c-.01.07-.04.13-.1.19s-.13.1-.25.13-.25.06-.42.07l-.65.03a5.48 5.48 0 0 1-.64-.03c-.16-.01-.3-.04-.39-.07-.1-.03-.16-.07-.19-.13s-.03-.12-.03-.19l1.89-9.47c.01-.07.04-.13.09-.19.04-.06.12-.1.22-.13s.22-.06.38-.07l.55-.03c.22 0 .39.01.53.03.13.01.25.04.32.07s.13.07.16.13.03.12.01.19l-.3 1.56c.14-.25.35-.49.59-.75a4.68 4.68 0 0 1 .84-.69c.32-.2.65-.38 1.03-.51s.75-.2 1.16-.2c.4 0 .77.06 1.07.16.3.12.55.26.74.46.2.2.35.42.45.68s.16.55.2.85c.16-.25.38-.51.62-.77.25-.25.53-.48.85-.68s.65-.38 1.03-.51.75-.2 1.14-.2c.49 0 .91.07 1.24.2a1.94 1.94 0 0 1 .81.58c.2.25.36.53.45.85.1.33.14.68.14 1.07 0 .25-.01.49-.04.75l-.13.77-1.23 5.89z" stroke-width=".591"/><g stroke-width=".529"><path d="M38.06 49.99v1.72h.17l1.52-1.72h.69l-1.69 1.78c.74.09 1.01.48 1.24 1 .16.39.29.75.49 1.1h-.62c-.16-.27-.29-.61-.4-.91-.2-.52-.49-.87-1.24-.87h-.17v1.78h-.56V50l.57-.01h0zm6.68 1.9c0 1.33-.93 2.04-2.07 2.04-1.17 0-1.99-.8-1.99-1.97 0-1.23.88-2.04 2.07-2.04 1.19.02 1.99.83 1.99 1.97zm-3.46.05c0 .82.52 1.56 1.42 1.56.91 0 1.43-.74 1.43-1.6 0-.77-.46-1.58-1.42-1.58-.95.02-1.43.79-1.43 1.62zm7.1-1.95v3.47l.39.01-.04 1.33h-.45l-.04-.93h-2.8l-.04.93h-.45l-.04-1.33.33-.01c.16-.26.33-.55.43-.85.14-.45.22-.97.22-1.63V50c-.01-.01 2.49-.01 2.49-.01zm-1.95 1.15c0 .62-.06 1.14-.23 1.58-.09.27-.23.53-.36.74h1.97V50.4h-1.37v.74h-.01zm6.95-1.15v.42h-1.92v1.04l.55-.03c.42 0 .84.07 1.16.26.33.19.56.49.56.94 0 .36-.14.64-.36.84-.36.3-.97.43-1.58.43-.4 0-.71-.01-.9-.04v-3.86h2.49 0zm-1.92 3.49l.48.03c.36 0 .72-.1.94-.29.14-.14.25-.32.25-.58 0-.29-.14-.51-.36-.64-.23-.14-.53-.2-.85-.2l-.46.01v1.66h0v.01zm5.31-1.43h-1.73v1.4h1.92v.42h-2.5V50h2.4v.42h-1.82v1.23h1.73c0-.02 0 .4 0 .4zm.83-1.83c.3-.17.69-.29 1.17-.29.77 0 1.3.35 1.3.94 0 .48-.39.84-.91.94v.01c.62.06 1.08.42 1.08.97 0 .81-.8 1.13-1.6 1.13-.4 0-.82-.07-1.17-.26l.14-.39c.25.12.64.23 1 .23.65 0 1.03-.3 1.03-.74 0-.58-.64-.75-1.2-.75h-.26v-.38h.26c.58 0 1.04-.32 1.04-.71s-.32-.61-.8-.61c-.33 0-.68.12-.93.26l-.15-.35zm7.16 1.67c0 1.33-.93 2.04-2.07 2.04-1.17 0-1.99-.8-1.99-1.97 0-1.23.88-2.04 2.07-2.04 1.21.02 1.99.83 1.99 1.97zm-3.46.05c0 .82.52 1.56 1.42 1.56.91 0 1.43-.74 1.43-1.6 0-.77-.46-1.58-1.42-1.58-.95.02-1.43.79-1.43 1.62zm7.42-1.95v3.87h-.58v-3.45h-2.07v3.45h-.57v-3.87h3.22zm1.72 2.66l-.46 1.21h-.59l1.5-3.87h.69l1.52 3.87h-.61l-.48-1.21h-1.57zm1.45-.39l-.43-1.11c-.1-.26-.16-.48-.23-.71h-.01a6.2 6.2 0 0 1-.23.69l-.43 1.13c-.02 0 1.33 0 1.33 0z"/><use xlink:href="#B"/><path d="M78.04 49.99v1.62h2.15v-1.62h.58v3.87h-.57v-1.81h-2.15v1.81h-.58v-3.87h.57zm7.53 1.9c0 1.33-.93 2.04-2.07 2.04-1.17 0-1.99-.8-1.99-1.97 0-1.23.88-2.04 2.07-2.04 1.2.02 1.99.83 1.99 1.97zm-3.45.05c0 .82.52 1.56 1.42 1.56.91 0 1.43-.74 1.43-1.6 0-.77-.46-1.58-1.42-1.58-.95.02-1.43.79-1.43 1.62z"/><use xlink:href="#B" x="12.66"/><path d="M91.21 50.41h-1.36v-.42h3.3v.42h-1.36v3.45h-.58c0 .01 0-3.45 0-3.45zm2.97-.42v1.63l-.04 1.63h.01l.82-1.29 1.45-1.99H97v3.87h-.55v-1.65l.06-1.58h-.01c-.22.42-.52.87-.82 1.3l-1.39 1.92h-.61v-3.86h.5v.02zm-77.17-5.68c1.08-1.95 3.32-3.24 5.57-3.09.68.14.91 1.11.39 1.56-.87.3-1.82.27-2.63.71-1.84.93-2.83 3.25-2.12 5.2.27.97 1.01 1.72 1.78 2.33.77.49.55 1.5.68 2.27-1.45-.48-2.78-1.39-3.56-2.7-1.16-1.85-1.2-4.37-.11-6.28zm7.1-2.93c.9.45 1.81.91 2.54 1.65.77.8 1.23 1.65 1.66 2.57l-1.89.07c-.58-1.08-1.47-1.95-2.6-2.46.16-.6.25-1.22.29-1.83zm.67 5.75c2.24-1.17 5.17-.78 7 .95 1.29 1.21 2.1 3.02 1.91 4.8-.12.74-1.37.88-1.6.13-.25-.93-.26-1.97-.84-2.78-1.08-1.72-3.43-2.47-5.29-1.68-.91.33-1.53 1.08-2.14 1.79-.51.66-1.46.42-2.18.51.61-1.52 1.62-2.97 3.14-3.72zm-13.61 3.69c.71-1.95 2.26-3.51 4.24-4.18l.06 1.88c-1.08.59-1.98 1.49-2.49 2.63l-1.81-.33zm7.67-4.19c1.13.43 2.15 1.08 3.01 1.94l-.9 1.84c-.55-.69-1.2-1.29-1.91-1.79a13.42 13.42 0 0 1-.2-1.99zm7.57 2.7c.58-.29 1.27-.19 1.89-.25-.42 1.13-1.08 2.14-1.92 2.99l-1.86-.87c.69-.56 1.25-1.25 1.89-1.87zM11 52.58c-.06-1.2 1.39-1.21 1.6-.51.29.98.27 2.11.91 2.96 1.14 1.75 3.6 2.43 5.48 1.49.94-.4 1.47-1.3 2.18-1.98.59-.27 1.27-.17 1.91-.22-.82 2.46-3.12 4.39-5.77 4.41-3.36.21-6.43-2.72-6.31-6.15zm10.83-.69c.52-.48 1.49.01 1.4.72.1.71-.93 1.23-1.43.71-.45-.32-.44-1.16.03-1.43zm2.35 1.36c-.07-.64.61-1.08 1.17-.77.98.58 1.85 1.34 2.39 2.37a6.16 6.16 0 0 1-.09 6.13c-1.1 1.86-3.22 3.11-5.44 2.98-.19-.01-.46-.19-.49-.22-.25-.17-.23-.78-.12-1.03.14-.3.38-.46.66-.48 2.04-.07 3.99-1.5 4.35-3.56.45-1.84-.59-3.64-2.08-4.65a.8.8 0 0 1-.32-.53 1.05 1.05 0 0 0-.03-.24zm-7.79 2.87c.45-1.13 1.1-2.15 1.97-2.99l1.82.88c-.58.48-1.1 1.01-1.58 1.58-.49.71-1.47.45-2.21.53zm15.37-2.05l1.81.3c-.45.94-.88 1.91-1.65 2.63-.71.71-1.65 1.14-2.54 1.56l-.09-1.88c1.08-.57 1.96-1.47 2.47-2.61zm-7.98.72c.55.71 1.26 1.24 1.86 1.88.25.58.16 1.26.2 1.88-1.13-.42-2.14-1.08-2.96-1.95l.9-1.81zm-7.39 4.83l1.86-.09c.59 1.08 1.49 1.95 2.62 2.47a17.92 17.92 0 0 0-.26 1.81c-1.96-.68-3.51-2.24-4.22-4.19z"/></g><g class="B"><path d="M236.43 57.98h-40.46a.2.2 0 0 1-.2-.2V26.2a.2.2 0 0 1 .2-.2h40.46a.2.2 0 0 1 .2.2v31.58c-.02.11-.09.2-.2.2z"/><path d="M235.54 57.09h-38.68a.2.2 0 0 1-.2-.2v-29.8a.2.2 0 0 1 .2-.2h38.68a.2.2 0 0 1 .2.2v29.8c0 .11-.1.2-.2.2z"/><use xlink:href="#C"/><path d="M204.89 33.56h-5.82a.2.2 0 0 1-.2-.2v-2.27a.2.2 0 0 1 .2-.2h5.82a.2.2 0 0 1 .2.2v2.27c.01.11-.09.2-.2.2zm28.43 0h-5.82a.2.2 0 0 1-.2-.2v-2.27a.2.2 0 0 1 .2-.2h5.82a.2.2 0 0 1 .2.2v2.27c-.01.11-.09.2-.2.2zm-32.33 13.37h-1.22v-4.88h1.22c.3 0 .55.25.55.55v3.78a.55.55 0 0 1-.55.55zm30.4 0h1.22v-4.88h-1.22c-.3 0-.55.25-.55.55v3.78c.01.31.26.55.55.55z"/><use xlink:href="#D"/><use xlink:href="#D" x="2.34"/><use xlink:href="#D" x="4.68"/><use xlink:href="#D" x="7.03"/><use xlink:href="#D" x="9.37"/><use xlink:href="#D" x="11.72"/><use xlink:href="#D" x="14.06"/><use xlink:href="#D" x="16.4"/><path d="M281.92 57.98h-40.46a.2.2 0 0 1-.2-.2V26.2a.2.2 0 0 1 .2-.2h40.46a.2.2 0 0 1 .2.2v31.58c.01.11-.08.2-.2.2z"/><path d="M281.04 57.09h-38.68a.2.2 0 0 1-.2-.2v-29.8a.2.2 0 0 1 .2-.2h38.68a.2.2 0 0 1 .2.2v29.8c-.01.11-.1.2-.2.2z"/><use xlink:href="#C" x="45.51"/><path d="M250.4 33.56h-5.82a.2.2 0 0 1-.2-.2v-2.27a.2.2 0 0 1 .2-.2h5.82a.2.2 0 0 1 .2.2v2.27a.2.2 0 0 1-.2.2zm28.42 0H273a.2.2 0 0 1-.2-.2v-2.27a.2.2 0 0 1 .2-.2h5.82a.2.2 0 0 1 .2.2v2.27c-.01.11-.1.2-.2.2zm-32.33 13.37h-1.22v-4.88h1.22c.3 0 .55.25.55.55v3.78a.55.55 0 0 1-.55.55zm30.41 0h1.22v-4.88h-1.22c-.3 0-.55.25-.55.55v3.78c.01.31.25.55.55.55z"/><use xlink:href="#D" x="45.5"/><use xlink:href="#D" x="47.86"/><use xlink:href="#D" x="50.19"/><use xlink:href="#D" x="52.53"/><use xlink:href="#D" x="54.89"/><use xlink:href="#D" x="57.22"/><use xlink:href="#D" x="59.56"/><use xlink:href="#D" x="61.92"/><use xlink:href="#E"/><use xlink:href="#F"/><path d="M261.6 70.59h-14.9a.2.2 0 0 0-.2.2v4.49a.2.2 0 0 1-.2.2h-.5a.2.2 0 0 0-.2.2v5.58.69a.2.2 0 0 0 .2.2h.5a.2.2 0 0 1 .2.2v4.94a.2.2 0 0 0 .2.2h5.38a.2.2 0 0 1 .2.2v4.05a.2.2 0 0 0 .2.2h3.16a.2.2 0 0 1 .2.2v1.38a.2.2 0 0 0 .2.2h5.58 5.58a.2.2 0 0 0 .2-.2v-1.38a.2.2 0 0 1 .2-.2h3.16a.2.2 0 0 0 .2-.2v-4.05a.2.2 0 0 1 .2-.2h5.38a.2.2 0 0 0 .2-.2v-4.94a.2.2 0 0 1 .2-.2h.5a.2.2 0 0 0 .2-.2v-.69-5.58a.2.2 0 0 0-.2-.2h-.5a.2.2 0 0 1-.2-.2v-4.49a.2.2 0 0 0-.2-.2H261.6h0z"/><use xlink:href="#G"/><use xlink:href="#G" x="-28.42"/><path d="M276.81 76.31h1.22v4.88h-1.22c-.3 0-.55-.25-.55-.55v-3.78c-.01-.31.24-.55.55-.55zm-30.41 0h-1.22v4.88h1.22c.3 0 .55-.25.55-.55v-3.78a.55.55 0 0 0-.55-.55z"/><use xlink:href="#H"/><use xlink:href="#H" x="-2.34"/><use xlink:href="#H" x="-4.68"/><use xlink:href="#H" x="-7.03"/><use xlink:href="#H" x="-9.37"/><use xlink:href="#H" x="-11.71"/><use xlink:href="#H" x="-14.06"/><use xlink:href="#H" x="-16.4"/></g></g><circle cx="109.68" cy="79.85" r="3.95" class="B"/><circle cx="109.68" cy="79.85" r="3.33" class="B"/><g class="C"><path d="M215.07 41.99l6.89-28.57h25.43m13.3 28.57l6.89-28.57h25.43" stroke-width="1.025"/><path d="M295.05 115.82h-22.8l-10.72-33.17m-12.28 33.17h-22.8l-10.72-33.17"/><g class="B"><use xlink:href="#E" x="-45.41"/><use xlink:href="#F" x="-45.41"/><path d="M216.19 70.59h-14.9a.2.2 0 0 0-.2.2v4.49a.2.2 0 0 1-.2.2h-.5a.2.2 0 0 0-.2.2v5.58.69a.2.2 0 0 0 .2.2h.5a.2.2 0 0 1 .2.2v4.94a.2.2 0 0 0 .2.2h5.38a.2.2 0 0 1 .2.2v4.05a.2.2 0 0 0 .2.2h3.16a.2.2 0 0 1 .2.2v1.38a.2.2 0 0 0 .2.2h5.58 5.58a.2.2 0 0 0 .2-.2v-1.38a.2.2 0 0 1 .2-.2h3.16a.2.2 0 0 0 .2-.2v-4.05a.2.2 0 0 1 .2-.2h5.38a.2.2 0 0 0 .2-.2v-4.94a.2.2 0 0 1 .2-.2h.5a.2.2 0 0 0 .2-.2v-.69-5.58a.2.2 0 0 0-.2-.2h-.5a.2.2 0 0 1-.2-.2v-4.49a.2.2 0 0 0-.2-.2h-14.94 0z"/><use xlink:href="#G" x="-45.41"/><use xlink:href="#G" x="-73.83"/><path d="M231.4 76.31h1.22v4.88h-1.22c-.3 0-.55-.25-.55-.55v-3.78c-.01-.31.24-.55.55-.55zm-30.41 0h-1.22v4.88h1.22c.3 0 .55-.25.55-.55v-3.78a.55.55 0 0 0-.55-.55z"/><use xlink:href="#H" x="-45.41"/><use xlink:href="#H" x="-47.75"/><use xlink:href="#H" x="-50.09"/><use xlink:href="#H" x="-52.44"/><use xlink:href="#H" x="-54.78"/><use xlink:href="#H" x="-57.12"/><use xlink:href="#H" x="-59.47"/><use xlink:href="#H" x="-61.81"/></g><g stroke-width=".904"><use xlink:href="#I"/><use xlink:href="#I" x="1.94"/><use xlink:href="#I" x="3.89"/><use xlink:href="#I" x="5.84"/><use xlink:href="#I" x="7.78"/><use xlink:href="#I" x="9.73"/><use xlink:href="#I" x="11.68"/><use xlink:href="#I" x="13.62"/><path d="M154.72 72.44H153l.49-3.68c.01-.05.06-.09.13-.09h.56c.07 0 .12.04.13.09l.41 3.68z"/><use xlink:href="#I" x="17.52"/><path d="M138.36 78.32h17.36v1.85h-17.36z"/><path d="M138.76 78.34h16.57l-.19.6c-.15.47-.69.79-1.31.79h-13.57c-.62 0-1.16-.33-1.31-.79l-.19-.6z"/><path d="M125.31 48.57h45.63v31.06h-45.63z"/><path d="M171.19 81.37h-46.22a1.33 1.33 0 0 1-1.33-1.33V47.78a1.33 1.33 0 0 1 1.33-1.33h46.22a1.33 1.33 0 0 1 1.33 1.33v32.25a1.34 1.34 0 0 1-1.33 1.34z"/></g></g></g><path d="M271.68 2.16c.01.36-.25.65-.67.65-.37 0-.64-.29-.64-.65 0-.37.28-.66.66-.66a.62.62 0 0 1 .65.66zm-1.17 7.43v-5.8h1.06v5.8h-1.06zm7.81-5.8l-.05 1.6v3.37c0 1.33-.26 2.15-.83 2.65-.56.53-1.38.7-2.11.7-.7 0-1.46-.17-1.93-.48l.26-.8c.38.24.98.46 1.7.46 1.08 0 1.87-.56 1.87-2.03v-.65h-.02c-.32.54-.95.97-1.85.97-1.44 0-2.47-1.22-2.47-2.83 0-1.97 1.28-3.08 2.61-3.08 1.01 0 1.56.53 1.81 1.01h.02l.05-.88h.94v-.01zm-1.1 2.29c0-.18-.01-.34-.06-.48-.19-.61-.71-1.12-1.48-1.12-1.01 0-1.73.85-1.73 2.19 0 1.14.58 2.09 1.72 2.09.65 0 1.24-.41 1.46-1.08.06-.18.08-.38.08-.56l.01-1.04h0zm2.75 3.51l.05-1.5V1.08h1.04v3.65h.02c.37-.65 1.04-1.07 1.98-1.07 1.44 0 2.46 1.2 2.45 2.96 0 2.08-1.31 3.11-2.6 3.11-.84 0-1.51-.32-1.94-1.09h-.04l-.05.96h-.91v-.01zm1.1-2.32c0 .13.02.26.05.38.2.73.82 1.24 1.58 1.24 1.1 0 1.76-.9 1.76-2.23 0-1.16-.6-2.16-1.73-2.16-.72 0-1.39.49-1.61 1.3-.02.12-.06.26-.06.43v1.04h.01zm7.73-4.49h-.02l-1.36.73-.2-.8 1.7-.91h.9v7.8h-1.02V2.78h0z"/><use xlink:href="#J"/><path d="M235.24 120.28l-.05 1.6v3.37c0 1.33-.26 2.15-.83 2.65-.56.53-1.38.7-2.11.7-.7 0-1.46-.17-1.93-.48l.26-.8c.38.24.98.46 1.7.46 1.08 0 1.87-.56 1.87-2.03v-.65h-.02c-.32.54-.95.97-1.85.97-1.44 0-2.47-1.22-2.47-2.83 0-1.97 1.28-3.08 2.61-3.08 1.01 0 1.56.53 1.81 1.01h.02l.05-.88h.94v-.01zm-1.09 2.29c0-.18-.01-.34-.06-.48-.19-.61-.71-1.12-1.48-1.12-1.01 0-1.73.85-1.73 2.19 0 1.14.58 2.09 1.72 2.09.65 0 1.24-.41 1.46-1.08.06-.18.08-.38.08-.56v-1.04h.01z"/><use xlink:href="#K"/><path d="M243.44 126.08v-.64l.83-.8c1.99-1.9 2.89-2.9 2.9-4.08 0-.79-.38-1.52-1.55-1.52-.71 0-1.3.36-1.66.66l-.34-.74c.54-.46 1.31-.79 2.21-.79 1.68 0 2.39 1.15 2.39 2.27 0 1.44-1.04 2.6-2.69 4.19l-.62.58v.02h3.5v.88h-4.97v-.03z"/><use xlink:href="#J" x="46.67" y="-0.29"/><path d="M281.91 119.99l-.05 1.6v3.37c0 1.33-.26 2.15-.83 2.65-.56.53-1.38.7-2.11.7-.7 0-1.46-.17-1.93-.48l.26-.8c.38.24.98.46 1.7.46 1.08 0 1.87-.56 1.87-2.03v-.65h-.02c-.32.54-.95.97-1.85.97-1.44 0-2.47-1.22-2.47-2.83 0-1.97 1.28-3.08 2.61-3.08 1.01 0 1.56.53 1.81 1.01h.02l.05-.88.94-.01h0zm-1.09 2.29c0-.18-.01-.34-.06-.48-.19-.61-.71-1.12-1.48-1.12-1.01 0-1.73.85-1.73 2.19 0 1.14.58 2.09 1.71 2.09.65 0 1.24-.41 1.46-1.08.06-.18.08-.38.08-.56v-1.04h.02z"/><use xlink:href="#K" x="46.67" y="-0.29"/><path d="M290.36 124.58a3.57 3.57 0 0 0 1.73.49c1.36 0 1.77-.86 1.76-1.51-.01-1.09-1-1.56-2.01-1.56h-.59v-.79h.59c.77 0 1.74-.4 1.74-1.32 0-.62-.4-1.18-1.37-1.18-.62 0-1.22.28-1.56.52l-.28-.77c.41-.3 1.2-.6 2.04-.6 1.54 0 2.23.91 2.23 1.86 0 .8-.48 1.49-1.44 1.83v.02c.96.19 1.74.91 1.74 2 0 1.25-.97 2.34-2.84 2.34-.88 0-1.64-.28-2.03-.53l.29-.8z"/><path fill="none" stroke="#000" d="M147.16 60.72l11.8-47.3h25.09" class="C"/><path d="M166.53 3.2c.01.39-.27.7-.73.7a.68.68 0 0 1-.69-.7c0-.4.3-.71.71-.71.44-.01.71.31.71.71zm-1.28 8.06V4.97h1.14v6.29h-1.14zm3.58-6.29l.9 1.35.64 1.03h.04l.62-1.04.88-1.34h1.24L171 8.01l2.21 3.25h-1.3l-.92-1.42-.68-1.09h-.03l-.66 1.09-.91 1.42h-1.26l2.24-3.21-2.13-3.08h1.27zm10.74 1.97c0 2.87-1.07 4.46-2.94 4.46-1.65 0-2.77-1.55-2.8-4.34 0-2.83 1.22-4.39 2.94-4.39 1.78 0 2.8 1.58 2.8 4.27zm-4.59.13c0 2.2.68 3.44 1.72 3.44 1.17 0 1.73-1.36 1.73-3.52 0-2.08-.53-3.45-1.72-3.45-1 .01-1.73 1.23-1.73 3.53zm50.59-5.1c.01.37-.26.67-.7.67-.39 0-.66-.3-.66-.67a.67.67 0 0 1 .69-.69.66.66 0 0 1 .67.69zm-1.22 7.76V3.68h1.1v6.05h-1.1zm8.14-6.05l-.05 1.66v3.51c0 1.39-.28 2.24-.86 2.76-.59.55-1.44.73-2.2.73-.73 0-1.53-.18-2.01-.5l.28-.84c.4.25 1.03.47 1.78.47 1.13 0 1.95-.59 1.95-2.11v-.67h-.02c-.34.56-.99 1.01-1.93 1.01-1.5 0-2.58-1.28-2.58-2.95 0-2.05 1.34-3.21 2.73-3.21 1.05 0 1.63.55 1.89 1.05h.03l.05-.91h.94zm-1.14 2.38a1.56 1.56 0 0 0-.06-.5c-.2-.64-.74-1.16-1.54-1.16-1.05 0-1.8.89-1.8 2.29 0 1.19.6 2.18 1.79 2.18.67 0 1.29-.43 1.53-1.13.06-.19.09-.4.09-.59V6.06zm2.86 3.67l.05-1.56V.85h1.09v3.8h.02c.39-.67 1.09-1.11 2.06-1.11 1.5 0 2.56 1.25 2.55 3.09 0 2.16-1.36 3.24-2.71 3.24-.88 0-1.58-.34-2.03-1.14h-.04l-.05 1h-.94zm1.14-2.43c0 .14.02.28.05.4.21.76.85 1.29 1.65 1.29 1.15 0 1.84-.94 1.84-2.33 0-1.21-.63-2.25-1.8-2.25-.75 0-1.45.51-1.68 1.35-.02.12-.06.28-.06.45V7.3zm11.08-1.72c0 2.76-1.03 4.29-2.83 4.29-1.59 0-2.66-1.49-2.69-4.18 0-2.73 1.18-4.23 2.83-4.23 1.72 0 2.69 1.53 2.69 4.12zm-4.41.12c0 2.11.65 3.31 1.65 3.31 1.13 0 1.66-1.31 1.66-3.39 0-2-.51-3.31-1.65-3.31-.96 0-1.66 1.18-1.66 3.39z"/><defs ><path id="B" d="M76.76 53.74c-.22.09-.64.19-1.17.19-1.26 0-2.2-.69-2.2-1.97 0-1.21.94-2.04 2.33-2.04.56 0 .9.1 1.06.17l-.14.4c-.22-.09-.53-.16-.9-.16-1.04 0-1.73.58-1.73 1.6 0 .94.62 1.56 1.71 1.56.35 0 .71-.06.94-.16l.1.41z"/><path id="C" d="M216.19 52.65h14.9a.2.2 0 0 0 .2-.2v-4.49a.2.2 0 0 1 .2-.2h.5a.2.2 0 0 0 .2-.2v-5.58-.69a.2.2 0 0 0-.2-.2h-.5a.2.2 0 0 1-.2-.2v-4.94a.2.2 0 0 0-.2-.2h-5.38a.2.2 0 0 1-.2-.2V31.5a.2.2 0 0 0-.2-.2h-3.16a.2.2 0 0 1-.2-.2v-1.38a.2.2 0 0 0-.2-.2h-5.58-5.58a.2.2 0 0 0-.2.2v1.38a.2.2 0 0 1-.2.2h-3.16a.2.2 0 0 0-.2.2v4.05a.2.2 0 0 1-.2.2h-5.38a.2.2 0 0 0-.2.2v4.94a.2.2 0 0 1-.2.2h-.5a.2.2 0 0 0-.2.2v.69 5.58a.2.2 0 0 0 .2.2h.5a.2.2 0 0 1 .2.2v4.49a.2.2 0 0 0 .2.2h14.94 0z"/><path id="D" d="M208.46 51.91h-1.29l.36-3.61c.01-.05.05-.09.1-.09h.42c.05 0 .09.04.1.09l.31 3.61z"/><path id="E" d="M241.37 65.26h40.46a.2.2 0 0 1 .2.2v31.58a.2.2 0 0 1-.2.2h-40.46a.2.2 0 0 1-.2-.2V65.46c.01-.11.09-.2.2-.2z"/><path id="F" d="M242.26 66.15h38.68a.2.2 0 0 1 .2.2v29.8a.2.2 0 0 1-.2.2h-38.68a.2.2 0 0 1-.2-.2v-29.8a.2.2 0 0 1 .2-.2z"/><path id="G" d="M272.9 89.68h5.82a.2.2 0 0 1 .2.2v2.27a.2.2 0 0 1-.2.2h-5.82a.2.2 0 0 1-.2-.2v-2.27a.2.2 0 0 1 .2-.2z"/><path id="H" d="M269.33 71.33h1.29l-.36 3.61c0 .05-.05.09-.1.09h-.42c-.05 0-.09-.04-.1-.09l-.31-3.61z"/><path id="I" d="M139.15 72.44h-1.72l.49-3.68c.01-.05.06-.09.13-.09h.56c.07 0 .12.04.13.09l.41 3.68z"/><path id="J" d="M228.61 118.65c.01.36-.25.65-.67.65-.37 0-.64-.29-.64-.65 0-.37.28-.66.66-.66.39 0 .65.28.65.66zm-1.18 7.43v-5.8h1.06v5.8h-1.06z"/><path id="K" d="M236.9 126.08l.05-1.5v-7.01h1.04v3.65h.02c.37-.65 1.04-1.07 1.98-1.07 1.44 0 2.46 1.2 2.45 2.96 0 2.08-1.31 3.11-2.6 3.11-.84 0-1.51-.32-1.94-1.09h-.04l-.05.96h-.91v-.01zm1.09-2.32c0 .13.02.26.05.38.2.73.82 1.24 1.58 1.24 1.1 0 1.76-.9 1.76-2.23 0-1.16-.6-2.16-1.73-2.16-.72 0-1.39.49-1.61 1.3-.02.12-.06.26-.06.43v1.04h.01z"/></defs></svg>