<?xml version="1.0" encoding="utf-8"?>
<!-- Generator: Adobe Illustrator 24.0.0, SVG Export Plug-In . SVG Version: 6.00 Build 0)  -->
<svg version="1.1" id="Слой_1" xmlns="http://www.w3.org/2000/svg" xmlns:xlink="http://www.w3.org/1999/xlink" x="0px" y="0px"
	 viewBox="0 0 571.96 82.86" enable-background="new 0 0 571.96 82.86" xml:space="preserve">
<rect x="3.29" y="3.78" fill="none" stroke="#000000" stroke-width="0.75" stroke-miterlimit="10" width="564.35" height="75.76"/>
<g>
	<path fill="none" stroke="#000000" stroke-width="0.5" stroke-miterlimit="10" d="M83.17,49.7v2.44h0.25l2.16-2.44h0.98l-2.39,2.52
		c1.04,0.12,1.44,0.68,1.77,1.42c0.23,0.56,0.41,1.07,0.69,1.56h-0.88c-0.22-0.38-0.4-0.86-0.57-1.3c-0.29-0.73-0.69-1.22-1.76-1.22
		h-0.26v2.52h-0.8V49.7H83.17z"/>
	<path fill="none" stroke="#000000" stroke-width="0.5" stroke-miterlimit="10" d="M92.64,52.39c0,1.89-1.32,2.89-2.93,2.89
		c-1.67,0-2.83-1.12-2.83-2.79c0-1.74,1.24-2.88,2.93-2.88C91.53,49.61,92.64,50.76,92.64,52.39z M87.75,52.48
		c0,1.17,0.73,2.22,2.01,2.22c1.29,0,2.02-1.04,2.02-2.28c0-1.09-0.66-2.23-2.01-2.23C88.42,50.19,87.75,51.28,87.75,52.48z"/>
	<path fill="none" stroke="#000000" stroke-width="0.5" stroke-miterlimit="10" d="M97.81,49.7v4.91l0.55,0.02l-0.06,1.88h-0.64
		l-0.06-1.32h-3.97l-0.06,1.32h-0.64l-0.06-1.88l0.48-0.02c0.23-0.37,0.47-0.77,0.62-1.21c0.21-0.64,0.3-1.37,0.3-2.31V49.7H97.81z
		 M95.04,51.33c0,0.88-0.09,1.62-0.32,2.24c-0.13,0.38-0.33,0.75-0.51,1.04h2.79v-4.32h-1.96V51.33z"/>
	<path fill="none" stroke="#000000" stroke-width="0.5" stroke-miterlimit="10" d="M104.9,49.7v0.59h-2.72v1.47
		c0.2-0.02,0.57-0.04,0.78-0.04c0.6,0,1.19,0.11,1.63,0.37c0.48,0.27,0.8,0.7,0.8,1.34c0,0.51-0.2,0.9-0.52,1.19
		c-0.51,0.44-1.37,0.61-2.23,0.61c-0.57,0-1-0.03-1.27-0.06V49.7H104.9z M102.18,54.65c0.19,0.03,0.4,0.04,0.68,0.04
		c0.51,0,1.02-0.14,1.33-0.42c0.21-0.2,0.35-0.46,0.35-0.81c0-0.42-0.21-0.71-0.51-0.9c-0.33-0.2-0.75-0.28-1.2-0.28
		c-0.19,0-0.44,0.02-0.65,0.03V54.65z"/>
	<path fill="none" stroke="#000000" stroke-width="0.5" stroke-miterlimit="10" d="M109.7,52.62h-2.45v1.98h2.73v0.59h-3.54V49.7
		h3.4v0.59h-2.59v1.74h2.45V52.62z"/>
	<path fill="none" stroke="#000000" stroke-width="0.5" stroke-miterlimit="10" d="M110.88,50.03c0.43-0.24,0.98-0.42,1.67-0.42
		c1.09,0,1.85,0.5,1.85,1.34c0,0.68-0.56,1.19-1.3,1.34v0.02c0.89,0.08,1.53,0.59,1.53,1.38c0,1.14-1.13,1.6-2.28,1.6
		c-0.57,0-1.17-0.11-1.65-0.36l0.21-0.55c0.34,0.17,0.9,0.33,1.41,0.33c0.93,0,1.45-0.44,1.45-1.04c0-0.82-0.91-1.06-1.71-1.06
		h-0.37v-0.54h0.37c0.83,0,1.48-0.45,1.48-1.01c0-0.55-0.45-0.86-1.13-0.86c-0.48,0-0.97,0.17-1.31,0.36L110.88,50.03z"/>
	<path fill="none" stroke="#000000" stroke-width="0.5" stroke-miterlimit="10" d="M121.03,52.39c0,1.89-1.32,2.89-2.93,2.89
		c-1.67,0-2.83-1.12-2.83-2.79c0-1.74,1.24-2.88,2.93-2.88C119.92,49.61,121.03,50.76,121.03,52.39z M116.14,52.48
		c0,1.17,0.73,2.22,2.01,2.22c1.29,0,2.02-1.04,2.02-2.28c0-1.09-0.66-2.23-2.01-2.23C116.81,50.19,116.14,51.28,116.14,52.48z"/>
	<path fill="none" stroke="#000000" stroke-width="0.5" stroke-miterlimit="10" d="M126.64,49.7v5.49h-0.81v-4.9h-2.93v4.9h-0.81
		V49.7H126.64z"/>
	<path fill="none" stroke="#000000" stroke-width="0.5" stroke-miterlimit="10" d="M129.08,53.47l-0.66,1.73h-0.84l2.14-5.49h0.98
		l2.15,5.49h-0.87l-0.67-1.73H129.08z M131.14,52.91l-0.62-1.58c-0.14-0.36-0.23-0.68-0.33-1h-0.02c-0.09,0.33-0.2,0.66-0.32,0.99
		l-0.62,1.59H131.14z"/>
	<path fill="none" stroke="#000000" stroke-width="0.5" stroke-miterlimit="10" d="M138.04,55.02c-0.3,0.13-0.9,0.26-1.67,0.26
		c-1.78,0-3.11-0.98-3.11-2.78c0-1.72,1.34-2.88,3.29-2.88c0.79,0,1.28,0.15,1.5,0.24l-0.2,0.58c-0.31-0.13-0.75-0.23-1.27-0.23
		c-1.48,0-2.46,0.82-2.46,2.27c0,1.34,0.89,2.21,2.42,2.21c0.5,0,1-0.09,1.33-0.23L138.04,55.02z"/>
	<path fill="none" stroke="#000000" stroke-width="0.5" stroke-miterlimit="10" d="M139.87,49.7V52h3.05v-2.3h0.82v5.49h-0.82v-2.57
		h-3.05v2.57h-0.81V49.7H139.87z"/>
	<path fill="none" stroke="#000000" stroke-width="0.5" stroke-miterlimit="10" d="M150.54,52.39c0,1.89-1.32,2.89-2.93,2.89
		c-1.67,0-2.83-1.12-2.83-2.79c0-1.74,1.24-2.88,2.93-2.88C149.43,49.61,150.54,50.76,150.54,52.39z M145.65,52.48
		c0,1.17,0.73,2.22,2.01,2.22c1.29,0,2.02-1.04,2.02-2.28c0-1.09-0.66-2.23-2.01-2.23C146.32,50.19,145.65,51.28,145.65,52.48z"/>
	<path fill="none" stroke="#000000" stroke-width="0.5" stroke-miterlimit="10" d="M156,55.02c-0.3,0.13-0.9,0.26-1.67,0.26
		c-1.78,0-3.11-0.98-3.11-2.78c0-1.72,1.34-2.88,3.29-2.88c0.79,0,1.28,0.15,1.5,0.24l-0.2,0.58c-0.31-0.13-0.75-0.23-1.27-0.23
		c-1.48,0-2.46,0.82-2.46,2.27c0,1.34,0.89,2.21,2.42,2.21c0.5,0,1-0.09,1.33-0.23L156,55.02z"/>
	<path fill="none" stroke="#000000" stroke-width="0.5" stroke-miterlimit="10" d="M158.54,50.31h-1.92v-0.6h4.67v0.6h-1.93v4.89
		h-0.82V50.31z"/>
	<path fill="none" stroke="#000000" stroke-width="0.5" stroke-miterlimit="10" d="M162.75,49.7v2.31c0,0.87-0.02,1.59-0.07,2.32
		l0.02,0.01c0.32-0.57,0.71-1.17,1.17-1.82l2.04-2.83h0.81v5.49h-0.77v-2.34c0-0.89,0.01-1.54,0.08-2.23L166,50.62
		c-0.31,0.6-0.74,1.24-1.17,1.85l-1.97,2.73h-0.87V49.7H162.75z"/>
</g>
<g>
	<path fill="none" stroke="#000000" stroke-width="0.75" stroke-miterlimit="10" d="M42.66,28.73c0,0.15-0.03,0.28-0.09,0.37
		s-0.16,0.17-0.3,0.23c-0.14,0.06-0.34,0.1-0.58,0.12s-0.55,0.03-0.91,0.03c-0.39,0-0.69-0.01-0.91-0.03s-0.39-0.06-0.51-0.11
		s-0.2-0.12-0.24-0.2c-0.04-0.08-0.07-0.18-0.09-0.31l-0.66-3.87c-0.1-0.56-0.22-1.04-0.36-1.42c-0.14-0.38-0.33-0.69-0.56-0.93
		c-0.23-0.24-0.5-0.41-0.81-0.5c-0.31-0.1-0.67-0.15-1.1-0.15h-0.78l-1.4,6.97c-0.02,0.1-0.06,0.18-0.13,0.25
		c-0.07,0.07-0.18,0.13-0.33,0.17c-0.15,0.05-0.34,0.08-0.56,0.11s-0.51,0.03-0.85,0.03c-0.35,0-0.63-0.01-0.85-0.03
		s-0.39-0.06-0.52-0.11c-0.13-0.05-0.21-0.11-0.26-0.17s-0.05-0.15-0.03-0.25l3.29-16.45c0.01-0.1,0.05-0.18,0.13-0.25
		c0.08-0.07,0.19-0.12,0.34-0.17c0.15-0.04,0.34-0.08,0.56-0.1s0.52-0.03,0.87-0.03c0.34,0,0.62,0.01,0.84,0.03s0.39,0.06,0.52,0.1
		c0.13,0.04,0.21,0.1,0.25,0.17c0.04,0.07,0.05,0.15,0.03,0.25l-1.32,6.54h0.78c0.39,0,0.75-0.05,1.07-0.16
		c0.32-0.11,0.62-0.28,0.91-0.51c0.29-0.23,0.57-0.54,0.84-0.91s0.56-0.83,0.85-1.38l1.87-3.47c0.07-0.13,0.15-0.23,0.24-0.32
		c0.09-0.08,0.21-0.15,0.37-0.2s0.36-0.08,0.6-0.11s0.56-0.03,0.94-0.03c0.35,0,0.63,0.01,0.85,0.03s0.39,0.06,0.5,0.1
		c0.12,0.04,0.19,0.1,0.23,0.15c0.04,0.06,0.05,0.12,0.05,0.18c0,0.13-0.04,0.29-0.11,0.46s-0.2,0.41-0.38,0.71l-1.77,3.09
		c-0.33,0.58-0.65,1.08-0.94,1.49c-0.3,0.41-0.59,0.75-0.88,1.04c-0.29,0.28-0.59,0.52-0.89,0.7c-0.3,0.18-0.62,0.33-0.96,0.45v0.01
		c0.32,0.15,0.61,0.32,0.85,0.51c0.24,0.19,0.45,0.43,0.64,0.72c0.18,0.29,0.34,0.65,0.48,1.08c0.13,0.43,0.26,0.95,0.39,1.58
		l0.69,3.6c0.04,0.18,0.07,0.34,0.09,0.49S42.66,28.6,42.66,28.73z"/>
	<path fill="none" stroke="#000000" stroke-width="0.75" stroke-miterlimit="10" d="M57.89,20.98c0,0.65-0.06,1.31-0.18,1.99
		c-0.12,0.68-0.31,1.35-0.57,2c-0.26,0.65-0.59,1.26-1,1.83c-0.41,0.57-0.9,1.07-1.47,1.51c-0.57,0.44-1.22,0.78-1.96,1.03
		s-1.56,0.38-2.49,0.38c-0.91,0-1.69-0.11-2.35-0.32s-1.21-0.52-1.65-0.93s-0.77-0.91-0.98-1.51c-0.22-0.6-0.32-1.28-0.32-2.05
		c0-0.65,0.06-1.31,0.18-1.99c0.12-0.68,0.31-1.34,0.57-1.99c0.26-0.65,0.59-1.26,1-1.84c0.41-0.58,0.9-1.08,1.47-1.51
		c0.57-0.43,1.22-0.77,1.96-1.02c0.74-0.25,1.56-0.38,2.49-0.38c0.91,0,1.69,0.11,2.35,0.32c0.66,0.21,1.21,0.52,1.65,0.93
		s0.77,0.91,0.98,1.51C57.78,19.53,57.89,20.21,57.89,20.98z M54.39,21.21c0-0.38-0.04-0.71-0.11-1c-0.08-0.29-0.2-0.54-0.38-0.74
		c-0.17-0.2-0.4-0.36-0.67-0.46s-0.61-0.16-1-0.16c-0.45,0-0.85,0.09-1.21,0.26s-0.68,0.41-0.96,0.71s-0.53,0.64-0.73,1.03
		c-0.21,0.39-0.38,0.8-0.51,1.23c-0.13,0.43-0.23,0.87-0.3,1.31c-0.06,0.44-0.09,0.87-0.09,1.27c0,0.38,0.04,0.71,0.11,1.01
		s0.2,0.54,0.38,0.75c0.17,0.2,0.4,0.36,0.67,0.46s0.61,0.16,1,0.16c0.45,0,0.85-0.09,1.21-0.26c0.36-0.17,0.68-0.41,0.96-0.71
		s0.53-0.65,0.73-1.04c0.21-0.39,0.38-0.8,0.51-1.24s0.23-0.87,0.3-1.31C54.36,22.04,54.39,21.62,54.39,21.21z"/>
	<path fill="none" stroke="#000000" stroke-width="0.75" stroke-miterlimit="10" d="M70.68,28.95c-0.02,0.09-0.06,0.17-0.13,0.24
		c-0.07,0.07-0.18,0.12-0.32,0.17s-0.32,0.08-0.54,0.1s-0.5,0.03-0.83,0.03c-0.32,0-0.59-0.01-0.81-0.03s-0.38-0.06-0.5-0.1
		c-0.12-0.04-0.2-0.1-0.24-0.17c-0.04-0.07-0.05-0.15-0.02-0.24l0.94-4.72H63.5l-0.94,4.72c-0.02,0.09-0.06,0.17-0.13,0.24
		c-0.07,0.07-0.17,0.12-0.31,0.17s-0.32,0.08-0.54,0.1c-0.22,0.02-0.5,0.03-0.82,0.03c-0.33,0-0.6-0.01-0.81-0.03
		s-0.38-0.06-0.5-0.1s-0.2-0.1-0.24-0.17c-0.04-0.07-0.04-0.15-0.03-0.24l2.39-12c0.02-0.09,0.06-0.17,0.13-0.24
		s0.17-0.12,0.31-0.17c0.14-0.04,0.32-0.08,0.54-0.1c0.22-0.02,0.5-0.03,0.83-0.03c0.33,0,0.6,0.01,0.81,0.03
		c0.21,0.02,0.38,0.06,0.5,0.1s0.2,0.1,0.24,0.17c0.04,0.07,0.04,0.15,0.03,0.24l-0.9,4.49h4.75l0.9-4.49
		c0.02-0.09,0.06-0.17,0.12-0.24s0.16-0.12,0.3-0.17s0.32-0.08,0.54-0.1c0.22-0.02,0.5-0.03,0.82-0.03c0.33,0,0.6,0.01,0.81,0.03
		c0.21,0.02,0.38,0.06,0.5,0.1s0.2,0.1,0.24,0.17c0.04,0.07,0.05,0.15,0.03,0.24L70.68,28.95z"/>
	<path fill="none" stroke="#000000" stroke-width="0.75" stroke-miterlimit="10" d="M92.88,28.95c-0.02,0.09-0.06,0.17-0.13,0.24
		c-0.07,0.07-0.17,0.12-0.32,0.17s-0.33,0.08-0.54,0.1s-0.5,0.03-0.83,0.03c-0.32,0-0.59-0.01-0.81-0.03
		c-0.22-0.02-0.38-0.06-0.5-0.1c-0.12-0.04-0.19-0.1-0.24-0.17c-0.04-0.07-0.05-0.15-0.02-0.24l1.44-7.2
		c0.04-0.21,0.07-0.41,0.09-0.61c0.03-0.2,0.04-0.41,0.04-0.61c0-0.42-0.08-0.76-0.24-1.02c-0.16-0.26-0.44-0.39-0.84-0.39
		c-0.36,0-0.73,0.12-1.12,0.35c-0.39,0.23-0.75,0.55-1.11,0.95c-0.35,0.4-0.67,0.87-0.94,1.4c-0.27,0.53-0.47,1.1-0.58,1.7
		l-1.09,5.43c-0.02,0.09-0.06,0.17-0.13,0.24c-0.07,0.07-0.17,0.12-0.32,0.17s-0.33,0.08-0.54,0.1s-0.5,0.03-0.83,0.03
		c-0.32,0-0.59-0.01-0.8-0.03c-0.21-0.02-0.38-0.06-0.49-0.1s-0.2-0.1-0.24-0.17c-0.04-0.07-0.05-0.15-0.03-0.24l1.43-7.2
		c0.05-0.21,0.09-0.42,0.11-0.64c0.02-0.22,0.03-0.43,0.03-0.64c0-0.39-0.08-0.72-0.24-0.98c-0.16-0.26-0.44-0.38-0.83-0.38
		c-0.36,0-0.73,0.12-1.12,0.35c-0.39,0.23-0.75,0.55-1.11,0.95c-0.35,0.4-0.67,0.87-0.94,1.4c-0.27,0.53-0.47,1.1-0.58,1.7
		l-1.09,5.43c-0.02,0.09-0.06,0.17-0.13,0.24c-0.07,0.07-0.17,0.12-0.31,0.17s-0.32,0.08-0.54,0.1c-0.22,0.02-0.5,0.03-0.82,0.03
		c-0.33,0-0.6-0.01-0.81-0.03s-0.38-0.06-0.5-0.1s-0.2-0.1-0.24-0.17c-0.04-0.07-0.04-0.15-0.03-0.24l2.41-12.01
		c0.02-0.09,0.06-0.17,0.11-0.24c0.06-0.07,0.15-0.12,0.27-0.16c0.12-0.04,0.28-0.07,0.47-0.09c0.19-0.02,0.42-0.03,0.69-0.03
		c0.28,0,0.5,0.01,0.68,0.03c0.17,0.02,0.31,0.05,0.41,0.09s0.16,0.09,0.2,0.16c0.03,0.07,0.04,0.15,0.02,0.24l-0.39,1.98
		c0.19-0.31,0.44-0.63,0.75-0.96c0.31-0.33,0.67-0.62,1.07-0.88c0.4-0.26,0.83-0.47,1.3-0.64s0.96-0.25,1.46-0.25
		c0.52,0,0.97,0.07,1.35,0.21c0.38,0.14,0.7,0.33,0.94,0.58c0.25,0.25,0.44,0.54,0.57,0.87s0.21,0.69,0.25,1.08
		c0.21-0.32,0.47-0.65,0.79-0.97s0.68-0.61,1.08-0.87c0.4-0.26,0.83-0.47,1.3-0.64c0.47-0.17,0.95-0.25,1.44-0.25
		c0.63,0,1.15,0.09,1.58,0.26c0.43,0.17,0.77,0.42,1.03,0.73c0.26,0.31,0.45,0.67,0.56,1.09c0.12,0.42,0.18,0.87,0.18,1.35
		c0,0.31-0.02,0.63-0.05,0.95c-0.04,0.32-0.09,0.64-0.16,0.98L92.88,28.95z"/>
	<path fill="none" stroke="#000000" stroke-width="0.75" stroke-miterlimit="10" d="M107.33,28.96c-0.02,0.09-0.06,0.17-0.11,0.24
		s-0.15,0.12-0.27,0.16c-0.12,0.04-0.28,0.07-0.46,0.09c-0.19,0.02-0.42,0.03-0.7,0.03c-0.28,0-0.5-0.01-0.68-0.03
		s-0.31-0.05-0.41-0.09c-0.1-0.04-0.16-0.09-0.2-0.16s-0.03-0.15-0.01-0.24l0.36-1.95c-0.18,0.31-0.43,0.63-0.74,0.95
		c-0.31,0.32-0.67,0.61-1.08,0.87c-0.41,0.26-0.85,0.48-1.33,0.64c-0.47,0.16-0.96,0.24-1.47,0.24c-0.63,0-1.16-0.09-1.59-0.26
		c-0.43-0.17-0.78-0.41-1.05-0.71s-0.46-0.66-0.58-1.08c-0.12-0.42-0.18-0.88-0.18-1.37c0-0.3,0.02-0.62,0.06-0.93
		s0.09-0.64,0.15-0.98l1.48-7.44c0.02-0.09,0.06-0.17,0.13-0.24c0.07-0.07,0.17-0.12,0.31-0.16c0.14-0.04,0.32-0.07,0.54-0.09
		c0.22-0.02,0.5-0.03,0.82-0.03c0.33,0,0.6,0.01,0.81,0.03c0.21,0.02,0.37,0.05,0.49,0.09c0.12,0.04,0.19,0.09,0.24,0.16
		c0.04,0.07,0.05,0.15,0.03,0.24l-1.43,7.21c-0.04,0.2-0.08,0.4-0.1,0.62c-0.02,0.21-0.03,0.42-0.03,0.62
		c0,0.21,0.02,0.41,0.06,0.58c0.04,0.17,0.11,0.32,0.2,0.45c0.09,0.13,0.2,0.22,0.34,0.28c0.14,0.06,0.31,0.09,0.5,0.09
		c0.37,0,0.75-0.12,1.15-0.36c0.4-0.24,0.78-0.56,1.14-0.98s0.68-0.91,0.96-1.48c0.28-0.57,0.5-1.19,0.64-1.85l1.02-5.19
		c0.01-0.09,0.05-0.17,0.12-0.24c0.07-0.07,0.18-0.12,0.32-0.16s0.32-0.07,0.54-0.09c0.22-0.02,0.5-0.03,0.82-0.03
		c0.33,0,0.6,0.01,0.81,0.03c0.21,0.02,0.38,0.05,0.5,0.09c0.12,0.04,0.2,0.09,0.24,0.16c0.04,0.07,0.04,0.15,0.03,0.24
		L107.33,28.96z"/>
	<path fill="none" stroke="#000000" stroke-width="0.75" stroke-miterlimit="10" d="M122.23,28.95c-0.02,0.09-0.06,0.17-0.13,0.24
		c-0.07,0.07-0.18,0.12-0.32,0.17s-0.32,0.08-0.54,0.1s-0.5,0.03-0.83,0.03c-0.32,0-0.59-0.01-0.81-0.03s-0.38-0.06-0.5-0.1
		c-0.12-0.04-0.2-0.1-0.24-0.17c-0.04-0.07-0.05-0.15-0.02-0.24l0.94-4.72h-4.75l-0.94,4.72c-0.02,0.09-0.06,0.17-0.13,0.24
		c-0.07,0.07-0.17,0.12-0.31,0.17s-0.32,0.08-0.54,0.1c-0.22,0.02-0.5,0.03-0.82,0.03c-0.33,0-0.6-0.01-0.81-0.03
		s-0.38-0.06-0.5-0.1s-0.2-0.1-0.24-0.17c-0.04-0.07-0.04-0.15-0.03-0.24l2.39-12c0.02-0.09,0.06-0.17,0.13-0.24
		s0.17-0.12,0.31-0.17c0.14-0.04,0.32-0.08,0.54-0.1c0.22-0.02,0.5-0.03,0.83-0.03c0.33,0,0.6,0.01,0.81,0.03
		c0.21,0.02,0.38,0.06,0.5,0.1s0.2,0.1,0.24,0.17c0.04,0.07,0.04,0.15,0.03,0.24l-0.9,4.49h4.75l0.9-4.49
		c0.02-0.09,0.06-0.17,0.12-0.24s0.16-0.12,0.3-0.17s0.32-0.08,0.54-0.1c0.22-0.02,0.5-0.03,0.82-0.03c0.33,0,0.6,0.01,0.81,0.03
		c0.21,0.02,0.38,0.06,0.5,0.1s0.2,0.1,0.24,0.17c0.04,0.07,0.05,0.15,0.03,0.24L122.23,28.95z"/>
	<path fill="none" stroke="#000000" stroke-width="0.75" stroke-miterlimit="10" d="M138.11,19.58c0,0.65-0.15,1.23-0.44,1.74
		c-0.29,0.52-0.74,0.96-1.36,1.33s-1.39,0.66-2.34,0.85c-0.95,0.2-2.07,0.3-3.38,0.3h-1.24c-0.04,0.21-0.06,0.41-0.08,0.61
		c-0.02,0.2-0.03,0.39-0.03,0.56c0,0.73,0.19,1.27,0.57,1.64c0.38,0.37,0.98,0.55,1.82,0.55c0.59,0,1.12-0.04,1.59-0.13
		c0.47-0.08,0.88-0.18,1.24-0.28c0.35-0.1,0.65-0.2,0.88-0.28c0.23-0.08,0.4-0.13,0.51-0.13s0.18,0.03,0.23,0.09
		c0.04,0.06,0.07,0.16,0.07,0.3c0,0.15-0.01,0.33-0.04,0.52c-0.03,0.2-0.07,0.39-0.11,0.58c-0.05,0.19-0.11,0.37-0.19,0.54
		c-0.08,0.17-0.16,0.3-0.26,0.39c-0.11,0.11-0.3,0.22-0.59,0.32s-0.63,0.21-1.04,0.3s-0.86,0.16-1.36,0.22
		c-0.5,0.06-1.01,0.09-1.53,0.09c-0.86,0-1.61-0.09-2.25-0.27c-0.64-0.18-1.18-0.45-1.61-0.82c-0.43-0.37-0.75-0.84-0.97-1.41
		c-0.21-0.57-0.32-1.24-0.32-2.02c0-0.6,0.06-1.24,0.17-1.93c0.11-0.69,0.29-1.36,0.54-2.03s0.57-1.31,0.97-1.92
		s0.87-1.15,1.43-1.61c0.56-0.46,1.21-0.83,1.94-1.11c0.73-0.28,1.57-0.42,2.51-0.42c0.82,0,1.52,0.1,2.1,0.29
		c0.59,0.19,1.07,0.45,1.45,0.77c0.38,0.32,0.66,0.68,0.84,1.09C138.02,18.74,138.11,19.15,138.11,19.58z M134.79,19.84
		c0-0.36-0.14-0.66-0.42-0.89c-0.28-0.24-0.69-0.36-1.23-0.36c-0.45,0-0.85,0.08-1.2,0.24c-0.35,0.16-0.67,0.38-0.94,0.65
		c-0.27,0.27-0.5,0.6-0.69,0.97c-0.19,0.37-0.35,0.77-0.46,1.19h1.13c0.72,0,1.32-0.05,1.8-0.14c0.48-0.09,0.87-0.22,1.17-0.38
		c0.3-0.16,0.51-0.35,0.65-0.57C134.72,20.33,134.79,20.09,134.79,19.84z"/>
	<path fill="none" stroke="#000000" stroke-width="0.75" stroke-miterlimit="10" d="M150.65,28.95c-0.02,0.09-0.06,0.17-0.13,0.24
		c-0.07,0.07-0.18,0.12-0.32,0.17s-0.32,0.08-0.54,0.1s-0.5,0.03-0.83,0.03c-0.32,0-0.59-0.01-0.81-0.03s-0.38-0.06-0.5-0.1
		c-0.12-0.04-0.2-0.1-0.24-0.17c-0.04-0.07-0.05-0.15-0.02-0.24l0.94-4.72h-4.75l-0.94,4.72c-0.02,0.09-0.06,0.17-0.13,0.24
		c-0.07,0.07-0.17,0.12-0.31,0.17s-0.32,0.08-0.54,0.1c-0.22,0.02-0.5,0.03-0.82,0.03c-0.33,0-0.6-0.01-0.81-0.03
		s-0.38-0.06-0.5-0.1s-0.2-0.1-0.24-0.17c-0.04-0.07-0.04-0.15-0.03-0.24l2.39-12c0.02-0.09,0.06-0.17,0.13-0.24
		s0.17-0.12,0.31-0.17c0.14-0.04,0.32-0.08,0.54-0.1c0.22-0.02,0.5-0.03,0.83-0.03c0.33,0,0.6,0.01,0.81,0.03
		c0.21,0.02,0.38,0.06,0.5,0.1s0.2,0.1,0.24,0.17c0.04,0.07,0.04,0.15,0.03,0.24l-0.9,4.49h4.75l0.9-4.49
		c0.02-0.09,0.06-0.17,0.12-0.24s0.16-0.12,0.3-0.17s0.32-0.08,0.54-0.1c0.22-0.02,0.5-0.03,0.82-0.03c0.33,0,0.6,0.01,0.81,0.03
		c0.21,0.02,0.38,0.06,0.5,0.1s0.2,0.1,0.24,0.17c0.04,0.07,0.05,0.15,0.03,0.24L150.65,28.95z"/>
	<path fill="none" stroke="#000000" stroke-width="0.75" stroke-miterlimit="10" d="M172.85,28.95c-0.02,0.09-0.06,0.17-0.13,0.24
		c-0.07,0.07-0.17,0.12-0.32,0.17s-0.33,0.08-0.54,0.1s-0.5,0.03-0.83,0.03c-0.32,0-0.59-0.01-0.81-0.03
		c-0.22-0.02-0.38-0.06-0.5-0.1c-0.12-0.04-0.19-0.1-0.24-0.17c-0.04-0.07-0.05-0.15-0.02-0.24l1.44-7.2
		c0.04-0.21,0.07-0.41,0.09-0.61c0.03-0.2,0.04-0.41,0.04-0.61c0-0.42-0.08-0.76-0.24-1.02c-0.16-0.26-0.44-0.39-0.84-0.39
		c-0.36,0-0.73,0.12-1.12,0.35c-0.39,0.23-0.75,0.55-1.11,0.95c-0.35,0.4-0.67,0.87-0.94,1.4c-0.27,0.53-0.47,1.1-0.58,1.7
		l-1.09,5.43c-0.02,0.09-0.06,0.17-0.13,0.24c-0.07,0.07-0.17,0.12-0.32,0.17s-0.33,0.08-0.54,0.1s-0.5,0.03-0.83,0.03
		c-0.32,0-0.59-0.01-0.8-0.03c-0.21-0.02-0.38-0.06-0.49-0.1s-0.2-0.1-0.24-0.17c-0.04-0.07-0.05-0.15-0.03-0.24l1.43-7.2
		c0.05-0.21,0.09-0.42,0.11-0.64c0.02-0.22,0.03-0.43,0.03-0.64c0-0.39-0.08-0.72-0.24-0.98c-0.16-0.26-0.44-0.38-0.83-0.38
		c-0.36,0-0.73,0.12-1.12,0.35c-0.39,0.23-0.75,0.55-1.11,0.95c-0.35,0.4-0.67,0.87-0.94,1.4c-0.27,0.53-0.47,1.1-0.58,1.7
		l-1.09,5.43c-0.02,0.09-0.06,0.17-0.13,0.24c-0.07,0.07-0.17,0.12-0.31,0.17s-0.32,0.08-0.54,0.1c-0.22,0.02-0.5,0.03-0.82,0.03
		c-0.33,0-0.6-0.01-0.81-0.03s-0.38-0.06-0.5-0.1s-0.2-0.1-0.24-0.17c-0.04-0.07-0.04-0.15-0.03-0.24l2.41-12.01
		c0.02-0.09,0.06-0.17,0.11-0.24c0.06-0.07,0.15-0.12,0.27-0.16c0.12-0.04,0.28-0.07,0.47-0.09c0.19-0.02,0.42-0.03,0.69-0.03
		c0.28,0,0.5,0.01,0.68,0.03c0.17,0.02,0.31,0.05,0.41,0.09s0.16,0.09,0.2,0.16c0.03,0.07,0.04,0.15,0.02,0.24l-0.39,1.98
		c0.19-0.31,0.44-0.63,0.75-0.96c0.31-0.33,0.67-0.62,1.07-0.88c0.4-0.26,0.83-0.47,1.3-0.64s0.96-0.25,1.46-0.25
		c0.52,0,0.97,0.07,1.35,0.21c0.38,0.14,0.7,0.33,0.94,0.58c0.25,0.25,0.44,0.54,0.57,0.87s0.21,0.69,0.25,1.08
		c0.21-0.32,0.47-0.65,0.79-0.97s0.68-0.61,1.08-0.87c0.4-0.26,0.83-0.47,1.3-0.64c0.47-0.17,0.95-0.25,1.44-0.25
		c0.63,0,1.15,0.09,1.58,0.26c0.43,0.17,0.77,0.42,1.03,0.73c0.26,0.31,0.45,0.67,0.56,1.09c0.12,0.42,0.18,0.87,0.18,1.35
		c0,0.31-0.02,0.63-0.05,0.95c-0.04,0.32-0.09,0.64-0.16,0.98L172.85,28.95z"/>
</g>
<g>
	<path fill="none" stroke="#000000" stroke-width="0.75" stroke-miterlimit="10" d="M53.34,41.66c1.54-2.77,4.72-4.59,7.9-4.38
		c0.97,0.2,1.29,1.57,0.56,2.21c-1.22,0.43-2.58,0.38-3.73,1.01c-2.6,1.31-4.01,4.62-3.01,7.38c0.39,1.38,1.43,2.43,2.53,3.29
		c1.08,0.69,0.77,2.14,0.97,3.22c-2.05-0.68-3.93-1.96-5.05-3.84C51.85,47.92,51.77,44.36,53.34,41.66z"/>
	<path fill="none" stroke="#000000" stroke-width="0.75" stroke-miterlimit="10" d="M63.4,37.49c1.28,0.64,2.57,1.3,3.6,2.33
		c1.08,1.12,1.75,2.33,2.35,3.65c-0.9,0.03-1.79,0.06-2.68,0.1c-0.81-1.54-2.09-2.77-3.68-3.48C63.21,39.23,63.33,38.36,63.4,37.49z
		"/>
	<path fill="none" stroke="#000000" stroke-width="0.75" stroke-miterlimit="10" d="M64.35,45.65c3.17-1.67,7.33-1.11,9.93,1.35
		c1.82,1.72,2.98,4.29,2.71,6.81c-0.16,1.05-1.94,1.24-2.27,0.18c-0.35-1.32-0.37-2.78-1.19-3.94c-1.53-2.44-4.85-3.5-7.5-2.37
		c-1.29,0.47-2.18,1.54-3.04,2.55c-0.72,0.95-2.07,0.6-3.09,0.72C60.75,48.76,62.19,46.71,64.35,45.65z"/>
	<path fill="none" stroke="#000000" stroke-width="0.75" stroke-miterlimit="10" d="M45.06,50.87c1.01-2.76,3.2-4.98,6-5.93
		c0.02,0.88,0.04,1.77,0.08,2.66c-1.54,0.84-2.8,2.11-3.53,3.72C46.76,51.14,45.91,51,45.06,50.87z"/>
	<path fill="none" stroke="#000000" stroke-width="0.75" stroke-miterlimit="10" d="M55.91,44.94c1.6,0.61,3.05,1.54,4.26,2.75
		c-0.45,0.86-0.87,1.72-1.27,2.6c-0.78-0.98-1.7-1.83-2.71-2.55C56.04,46.81,55.96,45.88,55.91,44.94z"/>
	<path fill="none" stroke="#000000" stroke-width="0.75" stroke-miterlimit="10" d="M66.65,48.76c0.81-0.42,1.8-0.27,2.69-0.34
		c-0.59,1.6-1.53,3.04-2.72,4.25c-0.87-0.45-1.76-0.85-2.65-1.24C64.96,50.64,65.75,49.64,66.65,48.76z"/>
	<path fill="none" stroke="#000000" stroke-width="0.75" stroke-miterlimit="10" d="M44.81,53.37c-0.08-1.7,1.97-1.73,2.28-0.71
		c0.41,1.4,0.38,2.99,1.3,4.2c1.61,2.48,5.11,3.45,7.76,2.11c1.33-0.57,2.09-1.84,3.09-2.8c0.84-0.38,1.8-0.25,2.7-0.31
		c-1.16,3.49-4.43,6.23-8.18,6.26C49,62.4,44.64,58.22,44.81,53.37z"/>
	<path fill="none" stroke="#000000" stroke-width="0.75" stroke-miterlimit="10" d="M60.17,52.38c0.73-0.67,2.12,0.02,1.99,1.02
		c0.15,1.01-1.32,1.74-2.03,1C59.49,53.97,59.51,52.79,60.17,52.38z"/>
	<path fill="none" stroke="#000000" stroke-width="0.75" stroke-miterlimit="10" d="M63.51,54.32c-0.11-0.9,0.86-1.53,1.65-1.08
		c1.4,0.81,2.62,1.91,3.38,3.37c1.49,2.65,1.45,6.09-0.13,8.69c-1.55,2.65-4.57,4.4-7.7,4.22c-0.26-0.02-0.65-0.27-0.7-0.31
		c-0.34-0.25-0.32-1.11-0.16-1.45c0.21-0.44,0.53-0.66,0.95-0.67c2.88-0.11,5.66-2.13,6.17-5.05c0.63-2.6-0.84-5.16-2.95-6.6
		c-0.25-0.17-0.42-0.45-0.46-0.76C63.54,54.56,63.52,54.44,63.51,54.32z"/>
	<path fill="none" stroke="#000000" stroke-width="0.75" stroke-miterlimit="10" d="M52.45,58.39c0.63-1.6,1.56-3.05,2.79-4.24
		c0.85,0.44,1.71,0.86,2.59,1.25c-0.81,0.67-1.55,1.43-2.23,2.24C54.89,58.64,53.5,58.28,52.45,58.39z"/>
	<path fill="none" stroke="#000000" stroke-width="0.75" stroke-miterlimit="10" d="M74.24,55.49c0.85,0.17,1.7,0.31,2.56,0.44
		c-0.63,1.33-1.26,2.7-2.34,3.73c-1.01,1.01-2.34,1.62-3.61,2.22c-0.04-0.89-0.07-1.78-0.12-2.67
		C72.27,58.38,73.52,57.1,74.24,55.49z"/>
	<path fill="none" stroke="#000000" stroke-width="0.75" stroke-miterlimit="10" d="M62.93,56.52c0.77,1,1.78,1.76,2.65,2.67
		c0.35,0.83,0.22,1.78,0.29,2.66c-1.6-0.59-3.03-1.54-4.21-2.76C62.1,58.24,62.53,57.38,62.93,56.52z"/>
	<path fill="none" stroke="#000000" stroke-width="0.75" stroke-miterlimit="10" d="M52.46,63.34c0.88-0.03,1.77-0.07,2.65-0.12
		c0.84,1.53,2.11,2.77,3.7,3.5c-0.17,0.85-0.28,1.71-0.37,2.57C55.66,68.32,53.46,66.12,52.46,63.34z"/>
</g>
<g>
	<path d="M209.61,33.58v5.99h6.92v-5.99h1.87V47.9h-1.87v-6.71h-6.92v6.71h-1.85V33.58H209.61z"/>
	<path d="M222.59,43.09c0.04,2.53,1.66,3.57,3.53,3.57c1.34,0,2.15-0.23,2.85-0.53l0.32,1.34c-0.66,0.3-1.78,0.64-3.42,0.64
		c-3.17,0-5.06-2.08-5.06-5.18s1.83-5.54,4.82-5.54c3.36,0,4.25,2.95,4.25,4.84c0,0.38-0.04,0.68-0.06,0.87H222.59z M228.07,41.76
		c0.02-1.19-0.49-3.04-2.59-3.04c-1.89,0-2.72,1.74-2.87,3.04H228.07z"/>
	<path d="M239.05,37.61v1.49h-3.21v8.79h-1.85V39.1h-3.21v-1.49H239.05z"/>
	<path d="M253.3,37.61v8.88l1.06,0.02l-0.11,4.65h-1.47l-0.08-3.27h-7.12l-0.08,3.27h-1.47l-0.08-4.65l0.87-0.02
		c0.45-0.66,0.79-1.36,1.02-2.1c0.4-1.27,0.59-2.65,0.59-4.1v-2.68H253.3z M248.09,40.74c0,1.36-0.19,2.68-0.53,3.82
		c-0.21,0.7-0.51,1.34-0.83,1.91h4.74v-7.43h-3.38V40.74z"/>
	<path d="M262.28,47.9l-0.15-1.3h-0.06c-0.57,0.81-1.68,1.53-3.14,1.53c-2.08,0-3.14-1.47-3.14-2.95c0-2.49,2.21-3.84,6.18-3.82
		v-0.21c0-0.85-0.23-2.38-2.34-2.38c-0.96,0-1.95,0.3-2.68,0.76l-0.42-1.23c0.85-0.55,2.08-0.91,3.38-0.91
		c3.14,0,3.91,2.15,3.91,4.21v3.84c0,0.89,0.04,1.76,0.17,2.46H262.28z M262,42.65c-2.04-0.04-4.35,0.32-4.35,2.31
		c0,1.21,0.81,1.78,1.76,1.78c1.34,0,2.19-0.85,2.49-1.72c0.06-0.19,0.11-0.4,0.11-0.59V42.65z"/>
	<path d="M268.63,37.61v4.14h4.89v-4.14h1.85V47.9h-1.85v-4.65h-4.89v4.65h-1.85V37.61H268.63z"/>
	<path d="M280.23,37.61v4.14h4.89v-4.14h1.85V47.9h-1.85v-4.65h-4.89v4.65h-1.85V37.61H280.23z"/>
	<path d="M291.82,37.61v3.5c0.4-0.08,1-0.13,1.68-0.13c2.21,0,4.44,0.91,4.44,3.44c0,1.08-0.4,1.83-1.06,2.38
		c-1.13,0.96-2.78,1.19-4.14,1.19c-1.04,0-2-0.06-2.76-0.15V37.61H291.82z M291.82,46.6c0.36,0.04,0.77,0.08,1.3,0.08
		c1.42,0,2.97-0.59,2.97-2.19c0-1.66-1.49-2.17-2.89-2.17c-0.53,0-1,0.04-1.38,0.11V46.6z M301.08,37.61V47.9h-1.85V37.61H301.08z"
		/>
	<path d="M305.01,37.61l1.46,2.21c0.38,0.57,0.7,1.1,1.04,1.68h0.06c0.34-0.62,0.68-1.15,1.02-1.7l1.44-2.19h2.02l-3.5,4.97
		l3.61,5.31h-2.12l-1.51-2.32c-0.4-0.59-0.74-1.17-1.1-1.78h-0.04c-0.34,0.62-0.7,1.17-1.08,1.78l-1.49,2.32h-2.06l3.65-5.25
		l-3.48-5.03H305.01z"/>
	<path d="M327.78,42.67c0,3.8-2.63,5.46-5.12,5.46c-2.78,0-4.93-2.04-4.93-5.29c0-3.44,2.25-5.46,5.1-5.46
		C325.78,37.38,327.78,39.53,327.78,42.67z M319.62,42.78c0,2.25,1.3,3.95,3.12,3.95c1.78,0,3.12-1.68,3.12-3.99
		c0-1.74-0.87-3.95-3.08-3.95S319.62,40.82,319.62,42.78z"/>
	<path d="M334.64,40.97c0-1.32-0.04-2.38-0.08-3.36h1.68l0.08,1.76h0.04c0.77-1.25,1.98-2,3.65-2c2.48,0,4.35,2.1,4.35,5.22
		c0,3.7-2.25,5.52-4.67,5.52c-1.36,0-2.55-0.59-3.17-1.61h-0.04v5.59h-1.85V40.97z M336.48,43.71c0,0.28,0.04,0.53,0.08,0.76
		c0.34,1.3,1.47,2.19,2.8,2.19c1.98,0,3.12-1.61,3.12-3.97c0-2.06-1.08-3.82-3.06-3.82c-1.27,0-2.46,0.91-2.82,2.32
		c-0.06,0.23-0.13,0.51-0.13,0.76V43.71z"/>
	<path d="M352.41,47.9l-0.15-1.3h-0.06c-0.57,0.81-1.68,1.53-3.14,1.53c-2.08,0-3.14-1.47-3.14-2.95c0-2.49,2.21-3.84,6.18-3.82
		v-0.21c0-0.85-0.23-2.38-2.34-2.38c-0.96,0-1.95,0.3-2.68,0.76l-0.43-1.23c0.85-0.55,2.08-0.91,3.38-0.91
		c3.14,0,3.91,2.15,3.91,4.21v3.84c0,0.89,0.04,1.76,0.17,2.46H352.41z M352.14,42.65c-2.04-0.04-4.35,0.32-4.35,2.31
		c0,1.21,0.81,1.78,1.76,1.78c1.34,0,2.19-0.85,2.49-1.72c0.06-0.19,0.11-0.4,0.11-0.59V42.65z"/>
	<path d="M364.29,47.51c-0.49,0.25-1.57,0.59-2.95,0.59c-3.1,0-5.12-2.1-5.12-5.25c0-3.16,2.17-5.46,5.52-5.46
		c1.1,0,2.08,0.28,2.59,0.53l-0.42,1.44c-0.45-0.25-1.15-0.49-2.17-0.49c-2.36,0-3.63,1.74-3.63,3.89c0,2.38,1.53,3.84,3.57,3.84
		c1.06,0,1.76-0.28,2.29-0.51L364.29,47.51z"/>
	<path d="M374.93,37.61V47.9h-1.87V39.1h-4.78v8.79h-1.85V37.61H374.93z"/>
	<path d="M387.26,42.67c0,3.8-2.63,5.46-5.12,5.46c-2.78,0-4.93-2.04-4.93-5.29c0-3.44,2.25-5.46,5.1-5.46
		C385.27,37.38,387.26,39.53,387.26,42.67z M379.11,42.78c0,2.25,1.3,3.95,3.12,3.95c1.78,0,3.12-1.68,3.12-3.99
		c0-1.74-0.87-3.95-3.08-3.95S379.11,40.82,379.11,42.78z"/>
	<path d="M397.42,37.61V47.9h-1.85v-8.81h-3.53v2.68c0,2.89-0.28,4.82-1.61,5.69c-0.51,0.4-1.08,0.64-2.04,0.64l-0.19-1.47
		c0.36-0.06,0.76-0.21,1.02-0.42c0.96-0.7,1.06-2.15,1.06-4.44v-4.14H397.42z"/>
	<path d="M409.78,42.67c0,3.8-2.63,5.46-5.12,5.46c-2.78,0-4.93-2.04-4.93-5.29c0-3.44,2.25-5.46,5.1-5.46
		C407.78,37.38,409.78,39.53,409.78,42.67z M401.62,42.78c0,2.25,1.3,3.95,3.12,3.95c1.78,0,3.12-1.68,3.12-3.99
		c0-1.74-0.87-3.95-3.08-3.95S401.62,40.82,401.62,42.78z"/>
	<path d="M412.83,37.61l3.4,4.48h0.38v-4.48h1.78v4.48h0.36l3.4-4.48h2.14l-4.06,4.67c1.55,0.17,2.46,1.08,3.08,2.72
		c0.36,1,0.7,2.08,1.13,2.89h-1.87c-0.34-0.62-0.64-1.47-0.93-2.36c-0.64-1.68-1.59-2.19-2.93-2.19h-0.32v4.55h-1.78v-4.55h-0.34
		c-1.44,0-2.32,0.53-2.95,2.21c-0.34,0.89-0.62,1.7-0.98,2.34h-1.81c0.43-0.83,0.77-1.91,1.13-2.87c0.64-1.66,1.55-2.57,3.1-2.74
		l-4.08-4.67H412.83z"/>
	<path d="M427.04,43.09c0.04,2.53,1.66,3.57,3.53,3.57c1.34,0,2.15-0.23,2.85-0.53l0.32,1.34c-0.66,0.3-1.78,0.64-3.42,0.64
		c-3.17,0-5.05-2.08-5.05-5.18s1.83-5.54,4.82-5.54c3.36,0,4.25,2.95,4.25,4.84c0,0.38-0.04,0.68-0.06,0.87H427.04z M432.52,41.76
		c0.02-1.19-0.49-3.04-2.59-3.04c-1.89,0-2.72,1.74-2.87,3.04H432.52z"/>
	<path d="M438.45,37.61v4.14h4.88v-4.14h1.85V47.9h-1.85v-4.65h-4.88v4.65h-1.85V37.61H438.45z"/>
	<path d="M449.96,37.61v4.33c0,1.64-0.02,2.66-0.11,4.12l0.06,0.02c0.62-1.25,0.98-1.98,1.66-3.16l3.21-5.31h2.19V47.9h-1.78v-4.35
		c0-1.68,0.04-2.55,0.13-4.21h-0.06c-0.66,1.32-1.1,2.15-1.7,3.19c-0.98,1.59-2.1,3.57-3.21,5.37h-2.15V37.61H449.96z"/>
	<path d="M461.72,37.61v4.33c0,1.64-0.02,2.66-0.11,4.12l0.06,0.02c0.62-1.25,0.98-1.98,1.66-3.16l3.21-5.31h2.19V47.9h-1.78v-4.35
		c0-1.68,0.04-2.55,0.13-4.21h-0.06c-0.66,1.32-1.1,2.15-1.7,3.19c-0.98,1.59-2.1,3.57-3.21,5.37h-2.15V37.61H461.72z"/>
	<path d="M484.72,37.61V47.9h-1.87V39.1h-4.78v8.79h-1.85V37.61H484.72z"/>
	<path d="M497.06,42.67c0,3.8-2.63,5.46-5.12,5.46c-2.78,0-4.93-2.04-4.93-5.29c0-3.44,2.25-5.46,5.1-5.46
		C495.07,37.38,497.06,39.53,497.06,42.67z M488.91,42.78c0,2.25,1.3,3.95,3.12,3.95c1.78,0,3.12-1.68,3.12-3.99
		c0-1.74-0.87-3.95-3.08-3.95S488.91,40.82,488.91,42.78z"/>
	<path d="M499.42,40.97c0-1.32-0.04-2.38-0.08-3.36h1.68l0.08,1.76h0.04c0.76-1.25,1.97-2,3.65-2c2.49,0,4.35,2.1,4.35,5.22
		c0,3.7-2.25,5.52-4.67,5.52c-1.36,0-2.55-0.59-3.16-1.61h-0.04v5.59h-1.85V40.97z M501.27,43.71c0,0.28,0.04,0.53,0.08,0.76
		c0.34,1.3,1.47,2.19,2.8,2.19c1.98,0,3.12-1.61,3.12-3.97c0-2.06-1.08-3.82-3.06-3.82c-1.27,0-2.46,0.91-2.83,2.32
		c-0.06,0.23-0.13,0.51-0.13,0.76V43.71z"/>
	<path d="M518.28,37.61v1.49h-3.21v8.79h-1.85V39.1h-3.21v-1.49H518.28z"/>
	<path d="M528.94,42.67c0,3.8-2.63,5.46-5.12,5.46c-2.78,0-4.93-2.04-4.93-5.29c0-3.44,2.25-5.46,5.1-5.46
		C526.95,37.38,528.94,39.53,528.94,42.67z M520.79,42.78c0,2.25,1.3,3.95,3.12,3.95c1.78,0,3.12-1.68,3.12-3.99
		c0-1.74-0.87-3.95-3.08-3.95S520.79,40.82,520.79,42.78z"/>
	<path d="M531.26,37.74c0.72-0.13,2.06-0.23,3.27-0.23c1.72,0,4.57,0.28,4.57,2.57c0,1.27-0.98,2.06-2.15,2.32v0.04
		c1.51,0.21,2.61,1.06,2.61,2.55c0,2.7-3.4,3.04-5.42,3.04c-1.15,0-2.34-0.08-2.89-0.13V37.74z M533.02,46.66
		c0.53,0.06,0.91,0.08,1.51,0.08c1.25,0,3.12-0.3,3.12-1.78s-1.49-1.81-3.27-1.81h-1.36V46.66z M533.04,41.93h1.4
		c1.38,0,2.8-0.4,2.8-1.61c0-1.02-0.89-1.51-2.76-1.51c-0.62,0-1,0.04-1.44,0.08V41.93z"/>
	<path d="M541.47,46.79c0-0.79,0.53-1.34,1.27-1.34S544,46,544,46.79c0,0.76-0.49,1.34-1.27,1.34
		C541.98,48.13,541.47,47.56,541.47,46.79z"/>
</g>
</svg>
