<?xml version="1.0" encoding="utf-8"?>
<!-- Generator: Adobe Illustrator 16.0.0, SVG Export Plug-In . SVG Version: 6.00 Build 0)  -->
<!DOCTYPE svg PUBLIC "-//W3C//DTD SVG 1.1//EN" "http://www.w3.org/Graphics/SVG/1.1/DTD/svg11.dtd">
<svg version="1.1" id="Слой_1" xmlns="http://www.w3.org/2000/svg" xmlns:xlink="http://www.w3.org/1999/xlink" x="0px" y="0px"
	 width="350.208px" height="75.145px" viewBox="0 1.334 350.208 75.145" enable-background="new 0 1.334 350.208 75.145"
	 xml:space="preserve">
<g>
	<path fill="#2F3947" d="M47.447,49.937c-1.698,0-3.109,1.388-3.105,3.064l-0.004,3.805c0.004,1.693,1.404,3.064,3.111,3.072
		c1.7,0.004,3.109-1.4,3.109-3.072v-3.799C50.556,51.317,49.159,49.942,47.447,49.937L47.447,49.937L47.447,49.937z M2.05,45.976
		l0.002,18.481l6.225,0.006L8.273,45.973L2.05,45.976L2.05,45.976z M12.624,45.976v18.481l6.224,0.006l-0.004-18.486L12.624,45.976
		L12.624,45.976z M36.876,42.144c-1.699-0.004-3.108,1.396-3.109,3.061l-0.004,20.015c0.004,1.693,1.407,3.064,3.119,3.07
		c1.701,0.006,3.109-1.402,3.109-3.07l0.001-20.015C39.986,43.521,38.585,42.144,36.876,42.144L36.876,42.144L36.876,42.144z
		 M26.309,35.207c-1.703,0-3.109,1.38-3.106,3.06l-0.005,33.9c0,1.682,1.4,3.064,3.109,3.072c1.695,0,3.108-1.406,3.108-3.072
		l0.001-33.908C29.418,36.572,28.02,35.201,26.309,35.207L26.309,35.207L26.309,35.207z"/>
	<path fill="#2F3947" d="M122.766,13.379h-8.876v30.826c0.009,0.984-0.108,1.988-0.341,3.027c-0.234,1.044-0.624,2.049-1.153,3.038
		c-0.516,0.972-1.221,1.832-2.079,2.626c-0.87,0.771-1.935,1.395-3.194,1.842c-1.253,0.469-2.736,0.699-4.438,0.711
		c-1.703-0.012-3.185-0.242-4.439-0.711c-1.256-0.449-2.324-1.07-3.181-1.842c-0.869-0.794-1.574-1.655-2.09-2.626
		c-0.53-0.988-0.904-1.994-1.149-3.038c-0.235-1.038-0.341-2.043-0.341-3.027V13.379h-8.879v31.098
		c0.013,2.978,0.528,5.646,1.541,8.019c0.995,2.387,2.406,4.41,4.224,6.084c1.809,1.68,3.932,2.961,6.363,3.855
		c2.429,0.879,5.087,1.326,7.951,1.34c2.862-0.014,5.519-0.461,7.951-1.34c2.442-0.895,4.556-2.178,6.374-3.855
		c1.81-1.678,3.221-3.697,4.23-6.084c0.996-2.372,1.514-5.043,1.525-8.019L122.766,13.379L122.766,13.379z M209.328,36.612
		c-0.248-0.059-0.514-0.098-0.769-0.14c-0.682-0.13-1.349-0.189-2.02-0.189c-1.586,0.02-2.924,0.248-4.002,0.697
		c-1.083,0.453-1.964,1.03-2.633,1.737c-0.685,0.715-1.199,1.459-1.55,2.232c-0.355,0.777-0.6,1.504-0.729,2.165
		c-0.13,0.667-0.186,1.19-0.175,1.566v17.847h-8.456V29.205h8.456v5.281h0.14c0.622-1.274,1.422-2.374,2.423-3.288
		c0.996-0.907,2.138-1.596,3.428-2.083c1.278-0.489,2.662-0.741,4.157-0.741c0.528,0,1.043,0.045,1.538,0.142
		c0.522,0.094,1.09,0.225,1.581,0.377c0.165-0.492,0.343-0.972,0.533-1.444c1.282-3.19,3.103-5.936,5.461-8.216
		c2.349-2.279,5.12-4.023,8.337-5.25c3.203-1.231,6.742-1.836,10.593-1.857c2.551-0.008,4.985,0.191,7.316,0.583
		c2.349,0.405,4.547,1.054,6.622,1.958c2.062,0.916,3.981,2.127,5.722,3.643l-6.559,6.528c-1.064-1.02-2.286-1.891-3.676-2.604
		c-1.381-0.708-2.87-1.252-4.459-1.633c-1.582-0.372-3.221-0.552-4.897-0.552c-2.583,0.011-4.921,0.469-7.012,1.363
		c-2.101,0.902-3.895,2.14-5.412,3.746c-1.504,1.603-2.654,3.463-3.464,5.578c-0.808,2.121-1.222,4.406-1.234,6.869
		c0.013,2.642,0.426,5.062,1.234,7.285c0.811,2.204,1.96,4.138,3.464,5.786c1.517,1.639,3.311,2.911,5.412,3.815
		c2.091,0.898,4.429,1.359,7.012,1.373c2.266,0,4.392-0.205,6.374-0.639c1.989-0.416,3.759-1.061,5.32-1.922V41.701h-10.217v-7.913
		h19.094v25.126c-3.023,1.605-6.269,2.816-9.71,3.629c-3.451,0.82-7.092,1.232-10.934,1.232c-3.851-0.014-7.387-0.625-10.593-1.852
		c-3.216-1.209-5.986-2.949-8.336-5.203c-2.362-2.268-4.181-4.955-5.462-8.09c-1.289-3.139-1.936-6.615-1.959-10.467
		C209.292,37.641,209.303,37.124,209.328,36.612L209.328,36.612L209.328,36.612z M150.626,33.438
		c-0.929-1.224-2.043-2.205-3.347-2.949c-1.29-0.739-2.691-1.285-4.181-1.619c-1.489-0.333-3.002-0.509-4.518-0.498
		c-1.728,0-3.396,0.208-5.001,0.639c-1.623,0.425-3.07,1.072-4.36,1.955c-1.285,0.88-2.312,2-3.073,3.351
		c-0.754,1.354-1.144,2.968-1.164,4.816c0.021,1.804,0.354,3.275,1.009,4.415c0.656,1.16,1.526,2.059,2.609,2.742
		c1.08,0.673,2.265,1.205,3.568,1.589c1.291,0.367,2.583,0.695,3.876,0.96c1.303,0.257,2.49,0.545,3.572,0.866
		c1.078,0.318,1.949,0.751,2.607,1.312c0.657,0.549,0.997,1.304,1.008,2.283c-0.014,0.654-0.189,1.221-0.528,1.709
		c-0.352,0.473-0.799,0.879-1.362,1.189c-0.565,0.299-1.175,0.533-1.819,0.688c-0.659,0.158-1.307,0.229-1.928,0.229
		c-1.187-0.016-2.253-0.188-3.193-0.531c-0.942-0.355-1.797-0.838-2.583-1.455c-0.784-0.617-1.536-1.312-2.257-2.105l-5.635,5.199
		c1.15,1.264,2.421,2.287,3.792,3.037c1.373,0.75,2.841,1.293,4.415,1.615c1.576,0.332,3.229,0.494,4.968,0.49
		c1.396,0,2.781-0.119,4.169-0.355c1.383-0.238,2.697-0.617,3.944-1.135c1.244-0.51,2.362-1.182,3.325-2.021
		c0.973-0.832,1.736-1.848,2.287-3.031c0.563-1.193,0.846-2.559,0.856-4.154c-0.011-1.837-0.351-3.355-1.006-4.554
		c-0.66-1.193-1.53-2.153-2.608-2.871c-1.079-0.716-2.269-1.277-3.57-1.692c-1.294-0.406-2.587-0.739-3.875-1.002
		c-1.305-0.264-2.49-0.548-3.57-0.837c-1.083-0.283-1.952-0.665-2.61-1.156c-0.656-0.483-0.998-1.15-1.008-1.977
		c0.022-0.834,0.281-1.506,0.779-2.025c0.502-0.533,1.125-0.916,1.874-1.158c0.752-0.245,1.502-0.358,2.28-0.358
		c1.445,0,2.699,0.292,3.792,0.866c1.08,0.581,2.029,1.422,2.829,2.536L150.626,33.438L150.626,33.438L150.626,33.438z
		 M186.319,48.787v-2.295c-0.014-2.904-0.387-5.476-1.151-7.718c-0.751-2.256-1.83-4.141-3.23-5.69
		c-1.407-1.539-3.075-2.71-5.016-3.507c-1.934-0.797-4.085-1.203-6.458-1.203c-2.572,0.008-4.966,0.424-7.187,1.261
		c-2.218,0.833-4.155,2.012-5.836,3.551c-1.678,1.539-2.981,3.377-3.935,5.522c-0.94,2.137-1.419,4.532-1.432,7.16
		c0.013,2.626,0.492,5.009,1.432,7.159c0.953,2.137,2.256,3.986,3.935,5.525c1.684,1.537,3.618,2.715,5.836,3.553
		c2.219,0.834,4.614,1.25,7.187,1.262c1.787,0,3.525-0.219,5.213-0.662c1.682-0.449,3.29-1.174,4.818-2.156
		c1.524-0.971,2.956-2.266,4.27-3.848l-6.057-4.514c-0.697,0.871-1.483,1.631-2.362,2.314c-0.87,0.674-1.855,1.205-2.958,1.594
		c-1.103,0.395-2.359,0.588-3.771,0.604c-1.585-0.016-3.027-0.328-4.335-0.967c-1.29-0.619-2.359-1.521-3.192-2.699
		c-0.846-1.188-1.362-2.605-1.562-4.248h25.788l0,0h0.003V48.787z M160.532,42.531c0.212-1.604,0.693-2.991,1.437-4.176
		c0.734-1.19,1.72-2.103,2.956-2.753c1.222-0.652,2.678-0.972,4.345-0.985c1.773,0.013,3.287,0.333,4.566,0.971
		c1.27,0.636,2.256,1.553,2.95,2.733c0.694,1.183,1.059,2.578,1.08,4.209H160.532L160.532,42.531L160.532,42.531z M281.931,62.53
		h7.609V43.372c0.015-0.799-0.014-1.716-0.073-2.761c-0.046-1.025-0.206-2.103-0.47-3.224c-0.244-1.122-0.667-2.219-1.266-3.287
		c-0.589-1.064-1.408-2.024-2.472-2.892c-1.065-0.855-2.415-1.538-4.084-2.052c-1.651-0.502-3.685-0.774-6.082-0.783
		c-1.794,0-3.558,0.184-5.271,0.553c-1.727,0.375-3.357,0.952-4.905,1.739c-1.544,0.786-2.94,1.801-4.195,3.054l4.442,4.375
		c1.139-1.055,2.488-1.899,4.026-2.521c1.549-0.622,3.221-0.941,4.99-0.955c1.515,0,2.856,0.235,4.012,0.71
		c1.166,0.469,2.069,1.171,2.732,2.105c0.655,0.922,0.995,2.072,1.006,3.432v0.906h-2.11c-1.422-0.01-2.924,0.022-4.511,0.106
		c-1.589,0.078-3.175,0.239-4.77,0.5c-1.584,0.238-3.102,0.624-4.532,1.128c-1.434,0.511-2.713,1.194-3.833,2.043
		c-1.123,0.855-2.005,1.917-2.653,3.205c-0.64,1.283-0.973,2.821-0.984,4.616c0.013,1.654,0.362,3.1,1.045,4.332
		c0.686,1.254,1.611,2.297,2.77,3.141c1.16,0.828,2.479,1.467,3.95,1.883c1.455,0.428,2.981,0.639,4.562,0.639
		c1.517,0,2.937-0.188,4.288-0.566c1.354-0.395,2.573-0.988,3.688-1.789c1.115-0.787,2.082-1.809,2.88-3.059h0.208v4.58H281.931
		L281.931,62.53z M281.436,49.48c0,1.554-0.305,2.903-0.924,4.043c-0.626,1.143-1.562,2.021-2.821,2.646
		c-1.258,0.617-2.856,0.928-4.78,0.945c-0.694,0-1.385-0.084-2.076-0.256c-0.695-0.178-1.34-0.434-1.914-0.789
		c-0.574-0.361-1.034-0.805-1.39-1.365c-0.35-0.545-0.527-1.199-0.538-1.965c0.011-0.95,0.302-1.749,0.87-2.367
		c0.573-0.639,1.315-1.139,2.253-1.506c0.94-0.377,1.961-0.654,3.089-0.838c1.115-0.184,2.242-0.306,3.37-0.36
		c1.114-0.046,2.159-0.078,3.099-0.067h1.76L281.436,49.48L281.436,49.48L281.436,49.48z M296.445,36.284v15.273
		c-0.011,1.966,0.14,3.683,0.468,5.154c0.332,1.48,0.89,2.705,1.704,3.693c0.812,0.98,1.938,1.721,3.386,2.219
		c1.44,0.496,3.282,0.74,5.507,0.74c0.665,0,1.407-0.037,2.215-0.109c0.812-0.061,1.609-0.178,2.401-0.346
		c0.783-0.154,1.473-0.377,2.074-0.656v-7.012c-0.363,0.254-0.812,0.453-1.328,0.609c-0.527,0.156-1.066,0.264-1.644,0.328
		c-0.577,0.07-1.104,0.1-1.61,0.1c-1.23,0-2.196-0.221-2.889-0.654c-0.676-0.439-1.16-1.068-1.435-1.873
		c-0.282-0.805-0.41-1.777-0.398-2.888V36.284h9.302v-7.081h-9.301v-9.646h-8.453v9.646h-6.033v7.081H296.445L296.445,36.284z
		 M348.158,48.787v-2.295c-0.009-2.904-0.388-5.476-1.151-7.718c-0.749-2.256-1.831-4.141-3.231-5.69
		c-1.405-1.539-3.072-2.71-5.013-3.507c-1.933-0.797-4.09-1.203-6.452-1.203c-2.581,0.008-4.972,0.424-7.192,1.261
		c-2.219,0.833-4.157,2.012-5.832,3.551c-1.677,1.539-2.985,3.377-3.933,5.522c-0.938,2.137-1.424,4.532-1.434,7.16
		c0.01,2.626,0.495,5.009,1.434,7.159c0.947,2.137,2.256,3.986,3.933,5.525c1.678,1.537,3.613,2.715,5.832,3.553
		c2.219,0.834,4.611,1.25,7.192,1.262c1.779,0,3.519-0.219,5.213-0.662c1.674-0.449,3.281-1.174,4.811-2.156
		c1.526-0.971,2.959-2.266,4.277-3.848l-6.061-4.514c-0.693,0.871-1.48,1.631-2.354,2.314c-0.874,0.674-1.862,1.205-2.964,1.594
		c-1.108,0.395-2.364,0.588-3.771,0.604c-1.588-0.016-3.029-0.328-4.335-0.967c-1.291-0.619-2.36-1.521-3.192-2.699
		c-0.851-1.188-1.367-2.605-1.562-4.248h25.784l0,0h0.001V48.787z M322.373,42.531c0.211-1.604,0.689-2.991,1.434-4.176
		c0.732-1.19,1.729-2.103,2.956-2.753c1.221-0.652,2.68-0.972,4.347-0.985c1.772,0.013,3.287,0.333,4.569,0.971
		c1.266,0.636,2.251,1.553,2.942,2.733c0.693,1.183,1.06,2.578,1.084,4.209H322.373L322.373,42.531L322.373,42.531z"/>
	<path fill="#5779A1" d="M26.313,27.876c1.7,0,3.11-1.391,3.105-3.068l0.005-3.804c-0.005-1.688-1.402-3.06-3.109-3.071
		c-1.702-0.003-3.109,1.402-3.109,3.071v3.798C23.207,26.492,24.604,27.866,26.313,27.876L26.313,27.876L26.313,27.876z
		 M71.71,31.829L71.708,13.35l-6.225-0.003l0.004,18.49L71.71,31.829L71.71,31.829z M61.138,31.835l-0.001-18.484l-6.224-0.003
		l0.005,18.481L61.138,31.835L61.138,31.835z M36.887,35.67c1.698,0,3.106-1.4,3.108-3.063l0.004-20.016
		c-0.004-1.691-1.404-3.062-3.117-3.071c-1.703,0-3.109,1.402-3.109,3.071l-0.001,20.016C33.774,34.29,35.174,35.67,36.887,35.67
		L36.887,35.67L36.887,35.67z M47.453,42.606c1.703,0,3.108-1.381,3.107-3.064l0.002-33.897c0.001-1.685-1.397-3.068-3.109-3.07
		c-1.697-0.003-3.105,1.403-3.105,3.071l-0.004,33.902C44.342,41.234,45.742,42.606,47.453,42.606L47.453,42.606L47.453,42.606z"/>
</g>
</svg>
